<svg xmlns="http://www.w3.org/2000/svg" viewBox="0 0 245.08 243.02"><defs><style>.cls-1{fill:#fff;}.cls-2{fill:#afdbce;}.cls-3{fill:#70a19b;}.cls-4{fill:#89b1ac;}.cls-5{fill:#8cb4af;}.cls-6{fill:#76a59f;}.cls-7{fill:#81aca6;}.cls-8{fill:#78a6a0;}.cls-9{fill:#91b7b2;}.cls-10{fill:#79a7a1;}.cls-11{fill:#80aca6;}.cls-12{fill:#77a6a0;}.cls-13{fill:#6fa09a;}.cls-14{fill:#7eaaa5;}.cls-15{fill:#73a39d;}.cls-16{fill:#9fc0bc;}.cls-17{fill:#7aa8a2;}.cls-18{fill:#98bbb7;}.cls-19{fill:#84aea9;}.cls-20{fill:#71a29b;}.cls-21{fill:#74a49e;}.cls-22{fill:#7daaa4;}.cls-23{fill:#92b8b3;}.cls-24{fill:#8cb3ae;}.cls-25{fill:#8bb3ae;}.cls-26{fill:#679b95;}.cls-27{fill:#9dbfba;}.cls-28{fill:#8fb6b1;}.cls-29{fill:#83ada8;}.cls-30{fill:#a6d1c7;}.cls-31{fill:#87b0ab;}.cls-32{fill:#75a49e;}.cls-33{fill:#add6cc;}.cls-34{fill:#679b94;}.cls-35{fill:#aad5ca;}.cls-36{fill:#96bab5;}.cls-37{fill:#639992;}.cls-38{fill:#85afaa;}.cls-39{fill:#adc9c6;}.cls-40{fill:#76a59e;}.cls-41{fill:#649992;}.cls-42{fill:#699c96;}.cls-43{fill:#add7cc;}.cls-44{fill:#7faba5;}.cls-45{fill:#80aba6;}.cls-46{fill:#83aea8;}.cls-47{fill:#a3c2be;}.cls-48{fill:#a7d2c8;}.cls-49{fill:#72a29c;}.cls-50{fill:#659a93;}.cls-51{fill:#95b9b4;}.cls-52{fill:#92b7b2;}.cls-53{fill:#669a94;}.cls-54{fill:#7da9a4;}.cls-55{fill:#619790;}.cls-56{fill:#a5d0c6;}.cls-57{fill:#6c9f98;}.cls-58{fill:#679c95;}.cls-59{fill:#aac7c3;}.cls-60{fill:#6ea099;}.cls-61{fill:#a3c3bf;}.cls-62{fill:#6a9d96;}.cls-63{fill:#85afa9;}.cls-64{fill:#a2d0c4;}.cls-65{fill:#629891;}.cls-66{fill:#82ada7;}.cls-67{fill:#86afaa;}.cls-68{fill:#76a69f;}.cls-69{fill:#6b9e97;}.cls-70{fill:#99bcb8;}.cls-71{fill:#689c95;}.cls-72{fill:#7ca9a3;}.cls-73{fill:#8ab2ad;}.cls-74{fill:#6d9f99;}.cls-75{fill:#669b94;}.cls-76{fill:#6fa19a;}.cls-77{fill:#639891;}.cls-78{fill:#5f968f;}.cls-79{fill:#6e9f99;}.cls-80{fill:#75a59e;}.cls-81{fill:#699d96;}.cls-82{fill:#96bab6;}.cls-83{fill:#84aea8;}.cls-84{fill:#a6c4c0;}.cls-85{fill:#70a19a;}.cls-86{fill:#acc8c5;}.cls-87{fill:#569089;}.cls-88{fill:#8db4af;}.cls-89{fill:#619891;}.cls-90{fill:#7da9a3;}.cls-91{fill:#9fc0bb;}.cls-92{fill:#6a9d97;}.cls-93{fill:#8fb5b0;}.cls-94{fill:#559088;}.cls-95{fill:#93b8b3;}.cls-96{fill:#e8f2f0;}.cls-97{fill:#7ba8a2;}.cls-98{fill:#81aca7;}.cls-99{fill:#7fada6;}.cls-100{fill:#74a39d;}.cls-101{fill:#87b1ab;}.cls-102{fill:#649a93;}.cls-103{fill:#abc8c4;}.cls-104{fill:#92c7b9;}.cls-105{fill:#74a49d;}.cls-106{fill:#b5cecb;}.cls-107{fill:#6ea19a;}.cls-108{fill:#5f978f;}.cls-109{fill:#75a59f;}.cls-110{fill:#5c948c;}.cls-111{fill:#77a5a0;}.cls-112{fill:#86b2ab;}.cls-113{fill:#a3c9c1;}.cls-114{fill:#59928a;}.cls-115{fill:#59928b;}.cls-116{fill:#82afa8;}.cls-117{fill:#77a59f;}.cls-118{fill:#94b8b4;}.cls-119{fill:#94b9b4;}.cls-120{fill:#9ebfbb;}.cls-121{fill:#7eaaa4;}.cls-122{fill:#a3cdc4;}.cls-123{fill:#7ba8a3;}.cls-124{fill:#518d85;}.cls-125{fill:#c4dcd8;}.cls-126{fill:#538e86;}.cls-127{fill:#87b5ad;}.cls-128{fill:#99bcb7;}.cls-129{fill:#a3c3be;}.cls-130{fill:#9dc1bc;}.cls-131{fill:#9bbeb9;}.cls-132{fill:#a4d2c6;}.cls-133{fill:#639892;}.cls-134{fill:#9bc8be;}.cls-135{fill:#9cc9bf;}.cls-136{fill:#bbd6d1;}.cls-137{fill:#cddedc;}.cls-138{fill:#acd7cc;}.cls-139{fill:#a5c4c0;}.cls-140{fill:#aec9c6;}.cls-141{fill:#acc8c4;}.cls-142{fill:#e5edec;}.cls-143{fill:#ccdedb;}.cls-144{fill:#79a8a1;}.cls-145{fill:#6ea09a;}.cls-146{fill:#609790;}.cls-147{fill:#558f88;}.cls-148{fill:#b2ccc9;}.cls-149{fill:#7ba9a3;}.cls-150{fill:#95b9b5;}.cls-151{fill:#8bb3ad;}.cls-152{fill:#a0ccc2;}.cls-153{fill:#96c1b9;}.cls-154{fill:#92beb6;}</style></defs><g id="Layer_2" data-name="Layer 2"><g id="Layer_1-2" data-name="Layer 1"><path class="cls-1" d="M132.16,95.36v0h0Z"/><path class="cls-1" d="M33.6,55.24l.08.07-.22,0,.14-.1Z"/><path class="cls-1" d="M41.26,50.84c0,.06,0,.14,0,.21a1.16,1.16,0,0,0,0-.18l.08,0Z"/><path class="cls-1" d="M31.87,50.73l.14.12-.21,0Z"/><path class="cls-1" d="M6.44,8.25h0v0Z"/><path class="cls-1" d="M54.22,67.26a.69.69,0,0,0,0,.13l-.07-.09Z"/><path class="cls-1" d="M55.65,74.18h0L55.43,74l.25-.08a2.13,2.13,0,0,1,0,.25Z"/><path class="cls-1" d="M52.06,69l-.18-.23,0,0c0,.09.09.16.13.25Z"/><path class="cls-1" d="M89.59,48.37l0,0,0,0Z"/><path class="cls-1" d="M91.56,45.84h0Z"/><path class="cls-1" d="M69.85,105.77a.14.14,0,0,0,0-.06l0,.06h-.06Z"/><path class="cls-1" d="M125.25,145h0Z"/><path class="cls-1" d="M92.35,166.67c0-.18,0-.35-.08-.52A.77.77,0,0,1,92.35,166.67Z"/><polygon class="cls-1" points="49.98 111.49 49.98 111.49 49.98 111.49 49.98 111.49"/><path class="cls-1" d="M79.47,108.63v0l.11,0S79.52,108.62,79.47,108.63Z"/><path class="cls-1" d="M63.73,167.88h0v0Z"/><path class="cls-1" d="M30.82,112.9a2.13,2.13,0,0,0-.17.45A.37.37,0,0,1,30.82,112.9Z"/><path class="cls-1" d="M92.91,154.64v0h0Z"/><path class="cls-1" d="M84.62,149.86h0l0,0v0Z"/><path class="cls-1" d="M73.18,167.89h0Z"/><polygon class="cls-1" points="99.57 151.67 99.57 151.67 99.57 151.67 99.57 151.67"/><path class="cls-1" d="M99.52,151.62l.13-.05-.08.1Z"/><path class="cls-1" d="M137.6,181.24h0v0Z"/><polygon class="cls-1" points="152.24 177.94 152.23 177.94 152.24 177.94 152.24 177.94"/><path class="cls-1" d="M152.84,184.06l-.15-.06h0l.06,0Z"/><polygon class="cls-1" points="224.56 150.1 224.56 150.1 224.56 150.1 224.56 150.11 224.56 150.1 224.56 150.1"/><path class="cls-1" d="M212.45,134.68a1.06,1.06,0,0,0,.37.18l-.72.56C212.23,135.16,212.33,134.92,212.45,134.68Z"/><path class="cls-1" d="M171.79,172.71h0l-.06.08a.15.15,0,0,1,0-.07h.08Z"/><path class="cls-1" d="M183.8,127.4v0h0s0,0,0,0Z"/><path class="cls-1" d="M192.66,154.69s0,0-.06,0a1.54,1.54,0,0,1,0-.17Z"/><path class="cls-1" d="M181,108.85h0a.35.35,0,0,0,.08.05l-.07,0s0-.06,0-.09Z"/><path class="cls-1" d="M172.38,232.76v0h0Z"/><path class="cls-1" d="M172.44,232.67a.7.7,0,0,1-.06.09v-.12Z"/><polygon class="cls-1" points="130.75 107.93 130.76 107.93 130.75 107.93 130.75 107.93"/><path class="cls-1" d="M214.11,174.8a.75.75,0,0,0,.07-.12.86.86,0,0,1,0,.23Z"/><path class="cls-1" d="M202.17,188.53l.12.11-.21.26Z"/><path class="cls-1" d="M201,206.82h.07s0,.06,0,.1A.36.36,0,0,0,201,206.82Z"/><path class="cls-1" d="M195.89,201.26l.09,0s0,.08-.09.1S195.89,201.29,195.89,201.26Z"/><path class="cls-1" d="M193.47,209l0,0-.13.06Z"/><path class="cls-1" d="M193.14,220.45l-.11-.06h.16Z"/><path class="cls-1" d="M211.91,187l.13-.08A.35.35,0,0,1,211.91,187Z"/><path class="cls-1" d="M191.63,203.46l.12,0a1.13,1.13,0,0,0-.1.13C191.62,203.56,191.64,203.52,191.63,203.46Z"/><path class="cls-1" d="M91.4,66.23l-.14,0,0-.14Z"/><path class="cls-1" d="M85.87,70.85v0l0,0A0,0,0,0,1,85.87,70.85Z"/><path class="cls-2" d="M242.33,175.05a104,104,0,0,1-19.46-2.36c-2-.47-4.12-1-4.48,2l-1.07-.87c.39-.72,1.09-1.75-.32-1.93-1.87-.23-3.8-1.25-5.68-.27h0a278.22,278.22,0,0,1-38-11.55c-7.55-3-15-6.15-22.36-9.49-6.39-2.9-12.41-6.65-18.59-10h0c-.93-1.42,3-2.16.38-3.82v-.11c1.21-.2,2.06.61,3,1.14,6,3.26,11.93,6.72,18,9.91s12.29,5.48,18.5,8.07c2.55,1.06,4.63,3.24,7.64,3.23a10.67,10.67,0,0,1,6.3,2c1.34.93,3,1.71,4.6.48h0a14.91,14.91,0,0,0,1.66,1.62c1,.71-.46,3,1.52,2.59,1.19-.27,0-2.17.35-3.26l.87-.89h0a2.12,2.12,0,0,0,1.9,2.55c6.42,1.44,12.81,3,19.21,4.54,1.39.33,3.13-.29,4.15.85,2.21,2.46,5.31.36,7.58,2.06l.46-1.14h0l.77.46h0a1.14,1.14,0,0,0,1.36.25h0c.85-.55.8-1.6,1.23-2.38h0c1.26,3.84,4.67,2.87,7.26,3.16a56.74,56.74,0,0,0,6,.28"/><path class="cls-3" d="M111.81,204.69c-4.45-.51-2.74-3-2.14-5.17,1.52,1.17,3.37-.57,4.77,1,.81-1.08-.33-2,.14-2.91,2.57,1.88,2.34-1.81,4-1.8h0a20.67,20.67,0,0,1,2.61,0c1.44.13,2-.72,2.15-1.85.24-1.53-1.14-1.32-2-1.65-.69-.7-.94-1.34.25-1.64,1.76-.45,2-2.08,2.78-3.35,2.76-4.4,7.86-5.44,12-7.84.57.5,1.31.89,1.26,1.79h0c-.5-.28-1-.55-1.09.32s-.1,1.57-.82,2c-1.29.7-1.13-1.2-1.37-1.08-2,.93-4.53,1.07-6,3a33.18,33.18,0,0,0-2.53,2.35c-.77.88-.46,1.79.46,2.5s1.38.3,1.63-.6a1.63,1.63,0,0,1,1.66-1.23c.85,0,2.4.73,2.25-.69s-1.84-.59-2.79-1c1.12-1.37,2.17-3,4-.51a1.33,1.33,0,0,0,2.26.06c1.2-1.34,2.46-1.09,3.73,0,.89-1.26-.86-1.83-.59-2.82,1.55,1,2.27-.73,3.47-.89.52-.07,1.1-.34,1.46.26s-.15,1-.56,1.28c-1.66,1.28-3.28,2.59-3.53,4.89h0a14.35,14.35,0,0,1-.08,1.61c-.1.65-1.2,1.29-.16,1.93s1.17-.59,1.72-1c1.8-1.25,3.63-2.46,5.44-3.69h0c1.76-.26,2.31-2.6,4.37-2.34.77,1.67.63,2.93-.92,4.13-1.8,1.37.41,1.13.91,1.57h0a106.79,106.79,0,0,1-37.39,16.09C113.2,206.25,112.8,204.8,111.81,204.69Zm26.11-15.49a26,26,0,0,0-7.44,4.57C134.37,193.88,137.46,192,137.92,189.2Zm-15.77,11.09a1.2,1.2,0,0,0,1.22-1.53c-.37-1.66-1.71-1.31-3.36-1.42C120.88,198.6,120.25,200.33,122.15,200.29Z"/><path class="cls-2" d="M132.75,136.72c-1.63,1.84-3.47,0-5.21,0h0a1.22,1.22,0,0,1-1.34.47h0c-.15-1.32-1.32-1.85-2.22-2.36-5.3-3-9.85-7.07-15-10.3-5.59-3.5-9.76-8.89-15.3-12.58a22.54,22.54,0,0,1-3.47-3.17c-1.68-1.71-3.61-3.78-6.38-1.93h0l.35-.63c1.33-1.21.93-1.89-.78-2.15-1.38-2.73-2.78-5.36-5.68-7A20,20,0,0,1,74,93.74c-6.07-5.91-10.68-13.11-17.2-18.61.9-.39,1.77-1.06,2.84-.28h0a1.23,1.23,0,0,0,1.91-.18h0a8.83,8.83,0,0,0,2.74,4.78c2.44,2.27,4.55,4.89,6.88,7.28q5.94,6.1,12,12.07c.6.58,1.53,2.18,2.47.29.56,1,1.12,2,1.69,3.06h0c.44,1.81,2.26,2.28,3.39,3.42.39.6.51,1.74,1.48,1.42,1.63-.54.07-2.09.61-3a11.25,11.25,0,0,0-.92-6.47c-.68-4.48,0-9-1.59-13.47h0c-.63-1.4-.24-2.81-.23-4.21a2.82,2.82,0,0,1-.52-3.7L91.25,75l.3,1.81h0c.3.75-.12,1.7.76,2.28h0a1.93,1.93,0,0,0,.44,2.79h0a.74.74,0,0,0,0,.53C92.87,84,93,85.5,93,87h0l.9,5.55h0c.23,1.54.47,3.08.71,4.62a76.44,76.44,0,0,0,1.59,11.14h0c-2.62,2.92,1.67,2.53,2.11,4a1.2,1.2,0,0,0,1.43.35c.14,2.41,1.9,3.42,3.86,4a10.58,10.58,0,0,1,3.87,2c7.86,6.77,16.89,11.87,25.24,17.94v.11Z"/><path class="cls-4" d="M27.72,24c-.79-.46-2.12-1.68-2.34-.42-.25,1.43-1.89,2.49-1.06,4.06.22.41,1.15.6,1.77.66s.86-.52.6-1.08c-.6-1.32.65-1.6,1.18-2.29,2,1.86,4.34,3.32,6,5.51-.07.9.76,1.28,1.19,1.9s.49,1.75.09,1.75c-3.81-.09-1.58,3.63-3.32,5-3.55-2.34-3.83-6.5-5.69-9.78-1,0-2.17,1.52-3-.82-.25-.75-2.57-.89-3.95-1.31h0c-1.21-.24-1.45,1.44-2.65,1.2-.4-1-1.15-1.12-2.09-1-1.52.21-1.9-.63-1.67-1.92.15-1,.44-2,1.77-1.66,1.74.44,2.6-.51,3.4-1.68,2.06-.12.86,1.59,1.41,2.32,1.28-.8,2.75-1.33,1.62-3.49-1.36-2.59-3.06-1.47-4.78-1-.55-.4-2.54.55-1.66-.72,1.64-2.36-.76-2.39-1.49-3.34-1.63-2.12-3.42-.7-5-.24s-1,1.94-.6,3C7.94,20,7,20.1,6.27,20.51h0A24.05,24.05,0,0,1,2.2,12.37c3.47.68,3.83-1.73,4.23-4.11h0c.48,1,.46,2.39,2.08,2.62.77.1,1.54,1.31,2.29.3.59-.82-.44-1.26-.83-1.86-1.29-2,.53-3.25,1.07-4.81h0c1.48,2.76,4.42,3.92,6.58,5.93-.6,3.38,1.89,5.4,3.89,7.5,1.06,1.12,2.29-.57,3.55-.29h0a.85.85,0,0,1,.35.42h0C24.91,20.45,28.49,21.49,27.72,24Z"/><path class="cls-5" d="M224.4,123.83c-.15-.48-.18-1.26-.47-1.39a.81.81,0,0,0-1.18.92c.19,1.24-.86,1.51-1.41,2.18-.86-1.31-1.38-3.27-3.61-2-.94-.89-2.52-1-2.92-2.59-.2-.79-.23-2-1.51-1.79s-2.57.46-2.65,1.91a2.4,2.4,0,0,1-2.38,2.46h0a129.2,129.2,0,0,1-4.73-21.62c1.22,1,2.76-1.16,3.91.56v0h0c-.62,1-2.44,2.24-1.32,3.21s3.24,1.06,4.89,1,.87-1.9,1.37-2.85c1,.08,1.52,2.71,2.91.66l0,0h0c2.13,1,1.5,2.59,1.1,4.13-1.48,1.53-2.77,3.82-5.16.61-.57-.78-1.59-.56-2.36.07-.55.45-1.48.62-1.22,1.64.29,1.2,1.21.6,1.89.71s1.6,0,1.68.79c.42,4.69,3,2.51,5.08,1.82a2.29,2.29,0,0,1,.28,1.85c-.74-.08-2-.28-1.64.71s.51,2.58,1.74,2.87c.89.21,1.34-.81,1.11-1.82,1.77-2.5,5.27-3.87,4.84-7.82-.14-1.32,1.45-1.37,2.06-2.18h0c.66,2.24,1.76,4.41,1.64,6.8a2,2,0,0,1-1.89.09c-1.78-1-2.72-1-1.56,1.32.19.39.53.72.23,1.18-.43.65-2.28.92-.83,2.06a3.12,3.12,0,0,0,4,.27c.46-.36.79-1.11,1.57-.4h0a15.35,15.35,0,0,1,1.19,5l-3.33-1A1.31,1.31,0,0,0,224.4,123.83Z"/><polygon class="cls-5" points="212.4 103.88 212.4 103.88 212.4 103.88 212.4 103.88"/><path class="cls-3" d="M152.84,184.06l-.09-.1c2.39-1.58,4.79-3.15,7.15-4.77.66-.46,1.94-.69,1.57-1.73-.31-.88-1.47-.81-2.36-.74h0a5.8,5.8,0,0,1-2.11-2.5,2.7,2.7,0,0,0-2.84-1.28,1.26,1.26,0,0,0-.94.72c-.3,1.54,1.25,1.18,1.92,1.75.9.78,1.9,1.56,1.8,2.93h0l-1.26.66h0l-.89.21h0c.89-2.17-1.17-.78-1.62-1.35.1-2.25-1.58-3-3.3-3.53-.78-.22-1.64,1.12-1.12,1.3,1.39.49,0,3.48,2.55,2.5a5.68,5.68,0,0,1,.93-.19h0a10.34,10.34,0,0,1-3.6,3.11c-1.46,1-2.72.58-2.78-1.55,0-1.64,2.44-4-1.55-4.44a134.29,134.29,0,0,1,21.44-8h0c.46,2,.25,4.49,3.46,4.46l.06.1c-1.4,1.91-4.26,1.78-5.61,3.77-.12-.19-.19-.44-.36-.55-1.36-.92-2.67-2.12-4.46-1.37-.14.06-.08.55-.12.84,1.69,0,2.6,2.62,4.62,1.59,2.42,1.25,3.9-.44,5.42-1.6.92-.71,1.68-1.54,3-1.58a.15.15,0,0,0,0,.07c-.41.55-.93,1.05-.59,1.87,0,2.42-2,3.12-3.76,3.54s-1.92,1.31-1.93,2.66h0a1.39,1.39,0,0,0-1.57,1.24c0,.15.6.46.92.7L154.06,190C155.65,187.41,155.06,184.68,152.84,184.06Z"/><polygon class="cls-6" points="190.34 214.08 190.34 214.08 190.34 214.08 190.34 214.08"/><path class="cls-6" d="M178,219.28c.69-1.83,2.62-2.41,3.85-3.7,1.37-1.44-.59-1.67-1.09-2.42-1.05-2.19-.25-3.67,1.62-4.83,1.5,1.51-1,3.08.71,4.77.51-2.41,2.5-2.54,4.31-2.95l-.12,2.36c.2,1.55-.9,2.31-1.88,3.1-.53.42-1,.77-.85,1.53a1,1,0,0,0,.92.82,1.42,1.42,0,0,0,1.63-1.22c.39-1.72,1.78-2.23,3.25-2.66a2.27,2.27,0,0,0-.23,2.15c1.07,3.38.95,3.5-2.79,3.14-.76-.07-1.53-.39-2.15.3-.46.51-1.12,1-1.21-.23s-.34-1.81-1.53-1.33c-1.4.55-1.56,2-1.72,3.24s1,1.2,1.88,1.24c3.72.18,6.78-2.14,10.44-2.2l.11.06c-.6.93-1.19,1.87-1.8,2.81-1.09.05-1-1.8-2.49-1.37-.39,1.17-.51,2.69.68,3.38,1.58.91,2.06-1,2.93-1.75,1-1,1.36-2.72,3.15-2.9a49.78,49.78,0,0,1-9,9.53h0c.38-1.26,2.64-2.11,1.47-3.45-1-1.13-2.65.28-4,.58-.56.12-1,.78-1.45,1.19-1.29.15-2.58.28-3.86.46-.53.07-1.07.33-1.55-.14-2.12-2.08-2.11-2.08-4.58-.74l-.54-.41h0c.55-2.78-1.11-2.46-2.84-2h0a24.14,24.14,0,0,1,4.63-8C175,218.72,177,217.69,178,219.28Z"/><polygon class="cls-6" points="190.34 214.08 190.34 214.08 190.34 214.08 190.34 214.08 190.34 214.08"/><path class="cls-7" d="M141.2,78.08c-3.67-1.06-4.19-.37-3,4a5.19,5.19,0,0,1-.3,2.79c-1.31,2.9-1.66,3-4.29.62.28-1.33,2.46.1,2.39-1.38,0-1-1.34-1.4-2.07-2.08,0-1.5.7-3.6-2.28-2.59-2.6-3.4-2-7.28-2-11.24-1.49.23-2,2.34-3.74,1.44.73,1.19,1.46,2.38,2.27,3.72-2.64-.8-2.71-.78-3.42-3.14-.37-1.25-.79-.6-1.29-.25h0c-.31-2.14.29-4.17.43-6.25,2.39-2.41,4.49-2,6.79.65,1.14,1.34,1.08-.37,1.39-.94,1.52.76,1.82,2.35,2.66,3.58.39.56,1,1.35,1.86,1s0-1.16.15-1.72a1.18,1.18,0,0,0,1.23-.49l1.2,3.11c-.72-.38-1.49-.72-1.85.29-.21.57.25,1,.73,1.32,1,.62.93-.46,1.29-.83h0c1.3,2.67,1.07,5.62,2,8.35l-.15,0Z"/><path class="cls-5" d="M215.65,89c-1.2.83-2,2.33-3.35-.21-.55-1-.76.65-1.08,1.14-1.67,1.21-1.44,3.31.82,4.93,1.83,1.31,1.72,2.13-.09,3-1,1.36-.35,3.07-.63,4.6-.52,2.74-1.13,2.62-2.7.62-.23-.3-.77-.37-1.16-.54v0c.24-2.25-1.3-3.74-2.63-5.26-.91-1-1.24,0-1.62.61h0c-.65-4.26-2-8.52-.47-12.75,1.52,0,2.33-1,3.49-1.94-1.39-.88-2.39-.46-3.39-.36h0l.21-3.33c2.68,1.94,4.48-1.41,7-.79,1.35.33,3-1,4.05,1l.68-.93h0c1.15,1.53,1.52,3.36,2.25,5-2.38-.72-.75,1.83-1.83,2.27-.31.12-.29.86.19,1.06,1.2.5,1.73-.44,2.35-1.13h0c.15.63.31,1.26.46,1.89C217.09,87.64,216.39,88.46,215.65,89Zm-10.12-1a2.35,2.35,0,0,0-.72,3.31c.8,1.32,2.36,2.77,1,4.76-.71,1,1.25,1.49,1.61,2.56.23.66,1.14.08,1.59-.37.74-.74,1.25-1.66.45-2.6-2.33-2.72-2.92-5.21.2-7.49.46-.33.1-.76-.32-1.15C208.08,87.25,206.48,87.2,205.53,88Z"/><path class="cls-8" d="M140.32,84.85c.05,3.21-3.07,3.26-4.67,4.8-.84.8-1.25-.7-1.91-.61-1.1.17-.31.64,0,1h0l-.35.51h0a8.3,8.3,0,0,1-1,.7c-.79.41-2.35-.13-2.41,1-.07,1.36,1.74.94,2.47,1.69h0c-.08.48-.17,1-.25,1.43h0c-.53-.41-1.06-.82-1.58-1.24a2.76,2.76,0,0,0-3.75.38,28.73,28.73,0,0,1-1.24-7.38c1.76-.37,1.66-1.78,1.49-3.06-.2-1.56-1.44-.3-2.1-.69h0c-1.58-4.4-1.45-8.9-1.52-13.39h0c.5-.35.92-1,1.29.25.71,2.36.78,2.34,3.42,3.14-.81-1.34-1.54-2.53-2.27-3.72,1.79.9,2.25-1.21,3.74-1.44,0,4-.59,7.84,2,11.24l-1.71,1.11-4.27-2c1.78,4,2.12,4.15,4.27,2,2.1,1.07,2.1,1.07,2.77,3.4,1.21-.12,1-1.18,1.22-1.92.73.68,2,1.06,2.07,2.08.07,1.48-2.11.05-2.39,1.38,2.63,2.4,3,2.28,4.29-.62a5.19,5.19,0,0,0,.3-2.79c2.48-.23,2.19-2.55,3-4l.15,0,.87,4.56A2.33,2.33,0,0,0,140.32,84.85Z"/><path class="cls-9" d="M210.65,121.08c.08-1.45,1.48-1.73,2.65-1.91s1.31,1,1.51,1.79c.4,1.54,2,1.7,2.92,2.59l.15.92c-.91,1.28-4.38.29-3,3.63.73,1.83,2.36,2.75,3.85,1.49.55-.45.65-1.39,1.65-.69a1.29,1.29,0,0,1,.33,2c-.6,1,.18,1.58.88,2.16h0l-1.88-.12c1.16,1.58-1.35,2.9-.1,4.49.33.43.62.9.93,1.34h0c-.85,2.38.11,4.69.6,7h0a1.92,1.92,0,0,1-2.24.68c1.35-1.78.66-2.57-1.42-2.38a11.19,11.19,0,0,0-2.71.94h0a17.06,17.06,0,0,1-2.32-6.84c2,.65,3.11-1.44,5-1.24.53,0,.71-1.37.23-1.62-1.15-.6-2.29-1.57-3.71-1.23-.28.07-.51.3-1.12.78a1.06,1.06,0,0,1-.37-.18c1.36-2.89,1.61-5.18-.25-7.66-.89,1.51,1,4-1.62,4.67h0l-2.31-8.15h0A2.4,2.4,0,0,0,210.65,121.08Z"/><path class="cls-10" d="M172.94,97c.91-1,.15-1.38-.78-1.86a1.29,1.29,0,0,1-.37-2,3.05,3.05,0,0,0-.45-4.12c-1.11-1.15-.1-1.56.66-2.22,1.54-1.31,3.77-.91,5.35-2l.54.42c1.82,1.69-.91,3.43.31,5.13l-.4.51c-1.63,1-5.62,1.4-.7,3.89.74.37.44,1.21.25,1.77-1,2.93.38,5.79.64,8.68,0,.06.38.1.58.15.23.55.13,1.32-.34,1.3-2.9-.07-1.11,1.17-.56,2.07a5.09,5.09,0,0,0-1.44,3L173.59,113c.55-2.62-.08-4.64-2.28-6h0a43.37,43.37,0,0,1-1.24-9.86C171.19,98.8,172.14,97.84,172.94,97Z"/><path class="cls-11" d="M54.22,67.26l-.12,0C52,64.5,50,61.53,46.52,59.46c1.32,3.74,4,6.15,5.41,9.3l0,0c-2.82-3.93-7.42-5.57-11.08-8.43-1.42-1.12-.4.82-.9,1h0c-1.88-2.29-5-3.22-6.44-6h0l.22,0c1.32,1.1,2.57,2.28,4,3.25s.56-.59.85-.89a2,2,0,0,0,.13-2.36c.76-1.53.17-3.89,2.55-4.44a1.16,1.16,0,0,1,0,.18c-.49,1.66,1.23,5.84,2.66,6.11,1,.2,1.45-.54,1-1.35a9.55,9.55,0,0,0-1.75-1.92c1.87-.36,3.56-2,5.2,1.31,1.15,2.33,2,.12,2.46-1.17h0a58.08,58.08,0,0,1,7.52,12.5C56.66,65.59,55,64.82,54.22,67.26Z"/><path class="cls-12" d="M216.17,178.66h0c-1.55.87-2.41,2-1.31,3.88h0c-1.31.6-2.82,1-2.41,3a1.88,1.88,0,0,1-.41,1.33l-.13.08a.24.24,0,0,1-.29,0c-4-3.43-3.06,2.26-5,2.49a3.62,3.62,0,0,0,.93,0c3.45-1.05,5.08.23,4.42,3.57a6.05,6.05,0,0,1-3.74,4.76h0c-.17-1.11-1.41-2.25,0-3.29.54-.81,1.4-1.46,1.51-2.89a6.33,6.33,0,0,0-3.12,1.64,4.51,4.51,0,0,1-4.85,2.5c-1.48-.2-2.14.56-2.44,1.83,1.49.95,4.58-1.21,4.41,2-.12,2.37-2,3.84-5.15,2.08.94,2,2.89,3.15,2.54,5.21H201c-1.11-1.63-2-2.64-3.44-.1-.67,1.17-2.63,1.57-4.07,2.29l0,0c3.36-2,3.91-5.38,3.6-9-.45,0-.62.78-1.09,1.2l-.09,0c-.2-1,.63-1.63,1.09-2.37h0l.83-1.06h0l3.57-4.55c3.83-2.28,5.43-6.47,8.1-9.71,2.26-2.74,5.07-4.89,7.2-7.7,1-1.3,1.36.4,2,.65h0l-.84,3.42h0C217.34,179.46,217.38,178.23,216.17,178.66Z"/><path class="cls-12" d="M93,161.25l-2.14-1.67c-.09-.61-.19-1.22-.28-1.84.44-.55.8-1.24,1.71-1.13h0c-.47,2.71,3.06,1.16,3.52,3.21.11.47,1.26-.68,1.79-1.3s.07-1.76,1.29-1.43c.85.24.61,1,.69,1.67.21,1.71,1,2,2.43,1.11a13.29,13.29,0,0,1,3.31-1.87c1.73-.49,1.59-2.17.76-3.51a4.58,4.58,0,0,1-.92-3.38h0c1.27.38,2-.28,2.65-1.2l14.06-7.07h0c0,.32.09.64.14,1-.22.64-.44,1.29-.65,1.93-.61-.43-1.15-1-2-.73-.56.69-.11,1.42,0,2.16.19,1.62-.92,2.52-2,3.35s-1.84,0-2.67-.86a2.22,2.22,0,0,0-3,0c-.82.62-1.9,1.67-.65,2.62s-1.3,3.06,1.47,2.87h0a102.81,102.81,0,0,1-15.66,9.08h0A4.69,4.69,0,0,0,93,161.25Z"/><path class="cls-6" d="M127.62,99.16c3.24,1.06.68-2.14,1.88-2.58.39.47.45,1.44,1.34,1.17,1.09-.34,1.11-1.44,1.31-2.37h0l2.22,1.7h0l.88.81c-.13,2.25.93,4.33,1.21,6.52,1.31,4.86.57,9.9,2.09,14.73l-.51-.4c-.44-.33-.87-.9-1.34-1-3.15-.4-3.09-2-2.31-4.42.84-2.63-1.68-4-3.25-5.47-.16-.16-.28-.09-.39,0h0c-.2.23-.35.7-.57.91h0Q128.9,104,127.62,99.16Z"/><path class="cls-13" d="M29.74,102.6c2.11-.24,3.3,1.58,5.19,2s0,1.53-.3,2.34a5.6,5.6,0,0,0-2.14-2.48c-.54-.35-1-1-1.71-.76s-.69,1.25-.71,2a1,1,0,0,0,1.23,1.13c1.47-.13,1.46.57,1.38,1.8-.09,1.44,1,.92,1.84.7-.68,1.13,3.86,1.45.64,3.07-.3.15.29.71.73.8.79.16,1.83,1.12,2.32,0,.71-1.63,2.42-2,3.5-3.15l.54.41c-.3,3.88.73,4.86,4.43,4.26a1.43,1.43,0,0,0,1.39,2.26c2.18-.18,3.24,1.3,4.59,2.43h0l-4.22.92c.08-1.15-.89-1.25-1.6-1.77-1.9-1.4-5.14,0-6.21-3.25-.14-.4-1.61-.2-2.54.83,3.14.51,2.58,2.54,2.4,4.43h0l-1.91.08c-1.47-1,2.34-1.57-.07-3.26-1.61-1.14-2.42-1.34-3.8-.54-.35-.43-.61-1-1.05-1.27-1.39-.79-2.82-1.55-3-2.14a2.13,2.13,0,0,1,.17-.45c.41-.29,1.45-.49,3.5-.55-1.09-1.57-2.71-.65-3.4-1.8a1.41,1.41,0,0,1-.67-1.34c-.67-1.56-1.47-3-3.35-3.42.17-1.83-.13-3.44-2.18-4.24h0a8.15,8.15,0,0,1,4.31-.81h0C28.57,101.61,28.46,102.74,29.74,102.6Z"/><polygon class="cls-13" points="42.25 110.37 42.25 110.37 42.25 110.37 42.25 110.37"/><path class="cls-14" d="M185.73,109c.29,1.28.47,2.29-.44,3.24-1-1.06-2.41-1.33-3.61-2a1.55,1.55,0,0,1-.72-1.27l.07,0c.82.61,1.16.19,1.3-.64.07-.4.35-1,.19-1.18-3.87-3.58-2.93-8-3-12.31,0-1.54,0-3.06-1.77-3.91l.4-.51c.87-.39,1.65-.45,2.26.58a3.46,3.46,0,0,0,3.7,1.67c1.09.73,1,1.94,1.2,2.94a92.39,92.39,0,0,0,2.94,11.65C185.84,105.59,185.28,107,185.73,109Z"/><path class="cls-15" d="M192.42,142.55a5.75,5.75,0,0,1-1.57,3.39q-2-9-4.09-17.93c.13-.17.39-.36.37-.51-.53-3.1,2.55-5.39,1.54-8.59.46-.59.86-1.26,1.81-1.11h0c1.24,7.88,3.32,15.67,4.13,23.6C193.18,140.56,192.59,141.24,192.42,142.55Z"/><path class="cls-16" d="M85.21,35.21c-.08.47-.17.95-.25,1.43l-.54-.42h0c-2.12.57-3,2.64-4.63,3.74-1-.57-1.67-1.83-3.08-1.57l-1.53-.32h0a3.41,3.41,0,0,1,.56-2.86,9.2,9.2,0,0,1,1.17-.9c.71.69-.07,2.87,2,2.14a7.58,7.58,0,0,0,4.28-3,2.61,2.61,0,0,1,.17-.28c2.57-3.49,2.51-3.27-1.87-4.66-3.17-1,.51-1.88.16-3.15-2.21-.12-3,1.63-3.92,3-.51.73-.25,2-1.64,2.05h0a15.93,15.93,0,0,1,1.31-5.32c.31-.05.71,0,.93-.18,4.75-3.6,4.76-3.61,9.66.09-.26,1.53.21,3.11-.88,4.6S87.45,32.18,89,33c.17-1.66-.1-3.4,1.37-4.46h0c.52,1.53,1,3.05,1.55,4.57-1.52-.09-2.79,1-4.62-.08C85.89,32.17,85.22,33.76,85.21,35.21Z"/><path class="cls-12" d="M200.93,183.7c1.43-.13,1.11-1.86,2.32-2.13s2.32.6,3.49.37l.52.39-5,6.31-.12-.11c.16-.68.31-1.35.48-2.1-2.88,1-4.48,3.81-7.82,4.11-2.79.25-.35,2.46-.41,3.67,0,1,.24,3.43,2.73,2.29l.66,1.33-.83,1.06c-2.66.54-3.8,2.73-5.23,4.6l-.12,0c-.27-1.05.63-1.6,1-2.36.26-.49.35-1.36-.27-1.26-3.53.57-2.31-2.6-3.38-3.94a66.72,66.72,0,0,1,13.76-15.6h0C202.27,181.41,201,182.06,200.93,183.7Z"/><path class="cls-17" d="M48.36,55.2c-1.64-3.33-3.33-1.67-5.2-1.31-1.09-.75-.4-2.53-1.9-3h0l-.08,0c-2.38.55-1.79,2.91-2.55,4.44-.92-.12-1.28.57-1.73,1.12-.76.24-1.12,0-1.07-.84-.23-2.42-1-4.37-3.82-4.74l-.14-.12c.6-.67.94-1.59,1.9-1.91,1.26.33,0,2.18,1.36,2.23s1-1.17,1.22-2.11,1.06-.88,1.79-.25c1.73,1.52,1.72,1.53,3.88-.46-2.43,0-4.37-.62-5-3.1h0c1.2-.26,2.63-1.38,3.13,2.06a10.76,10.76,0,0,1,2.58-5c.19.13.38.26.56.4C41,45.51,43,45.77,45.41,45.77h0c1.86,2.72,4,5.27,5.41,8.26h0C50.39,55.32,49.51,57.53,48.36,55.2Z"/><path class="cls-18" d="M82.87,83.47c2.46.09,5-.86,7.4.55h0c1.57,4.42.91,9,1.59,13.47-1.68-1.25-4.73-.57-5-4-.06-.79-1.86-.28-2.2,1h0a24.83,24.83,0,0,1-2.87-9.59h0C82,84.33,82.11,83.44,82.87,83.47Z"/><path class="cls-19" d="M22,36.38c-1.12-1.41-2.66-.74-3.94-1.11,1.23-1.37,1.06-2.61-.57-3.7-.32-1.07-.64-2.13-1-3.2,1.2.24,1.44-1.44,2.65-1.2h0a1.5,1.5,0,0,0-.18,1.5c.33.68.56,1.49,1.48,1.57a.9.9,0,0,0,.74-.45c.39-.92-.44-1.32-1-1.8-.33-.29-.69-.55-1-.82h0c1.38.42,3.7.56,3.95,1.31.82,2.34,2,.84,3,.82-1.27,1.4-.77,3.45-1.67,5a1.72,1.72,0,0,0,.9,2.22C27.75,37.82,28,40,28.14,42.26c-1.78-.2-2.81,1.64-4.6,1.41h0a19.26,19.26,0,0,1-5.38-6.59h0C19.79,38.44,20.91,37.63,22,36.38Z"/><path class="cls-20" d="M192.38,199.84c.62-.1.53.77.27,1.26-.39.76-1.29,1.31-1,2.36,0,.06,0,.1,0,.16h0l-2.69,1.2a32.2,32.2,0,0,0-3.53,1.44,1.82,1.82,0,0,0-1.07,1.85,1.67,1.67,0,0,0,1.39,1.27c.87.23,1.69-.06,1.84-.88.22-1.26,1.36-1.56,2-2.34.22.45.45.9.68,1.35l-.39.5c-1.21-.07-1.51,1-2.12,1.63h0l-.2.25-.19.25h0c-1.81.41-3.8.54-4.31,2.95-1.75-1.69.79-3.26-.71-4.77-1.87,1.16-2.67,2.64-1.62,4.83l-2.4-.24a1.18,1.18,0,0,0-.21-1.79h0c-.12-2.39,2.15-3.3,3.22-4.9,2.37-3.55,4.32-7.47,7.64-10.33C190.07,197.24,188.85,200.41,192.38,199.84Z"/><path class="cls-21" d="M113.21,141.86h0c-.62-.32-1.33-.69-1.46.33-.16,1.24.89,1.31,1.74,1.51v.14c-3.4,2.77-7.65,4.2-11.28,6.61h0l-2.24.72c1.77-2.75,0-5.17-1.11-7.64h0a102.43,102.43,0,0,1,15.31-4C113.67,140.25,116,142.2,113.21,141.86Z"/><path class="cls-22" d="M136.72,66.28A4.66,4.66,0,0,0,135,64.1c.43-.64.82-1.48.14-2s-1,.74-1.75.77l-.54-.41h0c-1.27-2.15-3.17-2.56-5.4-2.19,1.69.9,3.53,1.49,4.62,3.2h0c-.31.57-.25,2.28-1.39.94-2.3-2.69-4.4-3.06-6.79-.65-.52-2.94.67-5.4,1.93-7.82,1.65-3.17,4.93-3.45,7-.44,2.16,3.21,4.44,6.43,5.19,10.31h0A1.18,1.18,0,0,1,136.72,66.28Z"/><path class="cls-10" d="M33,40.05c-.26,1.45,1.57,1.77,1.36,3l-2.52-1.16c-1.37-.76-2.29,1.48-3.72.37C28,40,27.75,37.82,25.4,36.55a1.72,1.72,0,0,1-.9-2.22c.9-1.58.4-3.63,1.67-5,1.86,3.28,2.14,7.44,5.69,9.78,1.74-1.38-.49-5.1,3.32-5,.4,0,.32-1.16-.09-1.75s-1.26-1-1.19-1.9l.36-.46a9.07,9.07,0,0,1,3.57,4.27c0,1.64,1.11,2.59,2.3,3.49l.8,1.38C37.87,37.44,35.87,41.07,33,40.05Z"/><path class="cls-23" d="M101,91c-2.6,3.43-3.45,1.31-3.88-1.42-2.27,0,.32,4.46-3.2,3h0L93,87c1,.1,2,.21,2.94.29.59.05,1.43-.41,1.15-.72-1.38-1.48-2.57-2.77-.71-4.61.22-.22-.77-.61-1.28-.41-.77.29-1.42,1.08-2.38.32.13-1,.65-2-.44-2.79h0c-.88-.58-.46-1.53-.76-2.28h0a4,4,0,0,0,2.1-1.6c-.17,3.61.88,4.66,3.88,3.85h0c.63.38,1.28,1.22,2,.49s.39-1.77-.42-2.54c.9-.45,1.82-1.07,2.59.31h0l.21,2.73a3.8,3.8,0,0,1-1,.69c-1.58.38-3.09,1.23-2.68,2.89.49,2,2.49,1.59,4.06,1.53V90.8h0C101.83,90.85,101.18,90.73,101,91Zm-1.14-2.83a.93.93,0,0,0-.1-1.42c-.51-.39-1-.23-1.58.5a.83.83,0,0,0,.07,1.18C98.92,89,99.44,88.68,99.87,88.13Z"/><path class="cls-23" d="M92.75,81.9h0l0,.53A.74.74,0,0,1,92.75,81.9Z"/><path class="cls-24" d="M74,170.85c.12-1.27,1.82-.41,2.25-1.38l.78-1h0c.74,0,1.54-.37,1.14-1-.67-1.06-1.46.05-2.2.18-1-1.54.1-3.66-2-5,1.42-.77,3.2-.21,3.81-1.75,1,.19,1.69-1.28,2.79-.28-1.26,1.26,1.32,3.61-1.52,4.24,2.48,1.84,4.4-1.74,6.48.44h0c-.34,1.58-.51,3.09,1.61,3.75h0a80.85,80.85,0,0,1-11.25,4.21c.06-.29.26-.77.16-.84C75.38,171.88,73.88,172.38,74,170.85Z"/><path class="cls-25" d="M64.92,166.37c-.39.5-.78,1-1.18,1.51h0c-.09-1.12-.44-1.88-1.8-1.38-.65.24-1.28.64-.92,1.38.51,1.07,1.35,1.45,2.33.53.91,1.13-.35,2.17,0,3.28h0c1.07.81,1.9.07,2.79-.28,1.6.84,2.4,3.05,4.63,2.8a18.75,18.75,0,0,1-9.67,1.59c-.08-1.26.91-2,1.51-3.08-2-1-3.55.39-5.25.07h0l-1.68,1.05h0c-1.9-3.19.44-5.28,1.69-7.65,1.72-.24,4.42.32,2.41-2.95l.78-.27C62.7,163.24,63.76,164.88,64.92,166.37Z"/><path class="cls-25" d="M96.23,108.34h0A76.44,76.44,0,0,1,94.64,97.2c.58-.61.29-1.72,1.19-2.14.46-.21.94-.62,1.48-.25,1.92,1.31,1.91,1.32,4-.47.21-.18.6-.16.91-.23h0c-.48,4.57-.28,9.23-1.38,13.71l-.82.12A2.86,2.86,0,0,0,96.23,108.34Z"/><path class="cls-26" d="M62.92,104.15c3.25-1.08,5.43-1,7,1.56a.14.14,0,0,1,0,.06c-1.39-.09-2.63.08-3,1.7-.88-1.84-2.09-2.94-4.26-2.18-.49.17-1.12,0-1.62.15-.82.25-1.34-1.85-2.07-.45-.64,1.24,1.09,1.3,1.71,2.14-3.8,1.6-6.47-2-9.76-2.31l.79-1h0c1.23-.88,3-.08,4.2-1.07.43-.34,1-.46.77-1.14-.16-.49-.57-.57-1.06-.44-2.8.72-1.57-.9-1.25-2h0A30.62,30.62,0,0,1,63,100.34C62.64,101.62,67.33,102,62.92,104.15Z"/><path class="cls-27" d="M99.12,77l-.53-.4c-.15-.17-.31-.33-.44-.51-.67-1,1.82-1.72.11-2.7a2,2,0,0,0-2.39.59c-1,1-.78,2.35-.11,3.56.24.45.83.73,1.27,1.08l.5.43h0c-3,.81-4-.24-3.88-3.85-2.17-2.73-3.78-5.57-2.39-9l.14,0c1.16,2.3,3.23.84,4.85,1.23h0c1.89.37,2.72,2.57,4.68,2.82a21.69,21.69,0,0,1,.78,7h0C100.94,76,100,76.58,99.12,77Z"/><path class="cls-28" d="M228,160.12a29.43,29.43,0,0,1-3.41-10h0c.37.25.74.67,1.12.7,1.24.11,2.48,2,3.51.77a4.08,4.08,0,0,0,.93-4.43c-1-2.16.16-3.16,2.21-3.47h0c1,2.44.74,5,1.07,7.47-1.6.06-2.42,1.28-1.67,2.35s-.7,3.52,2,3.73h0a7.68,7.68,0,0,1-.17,3.84h0C231.68,160.58,230.21,157.18,228,160.12Z"/><path class="cls-27" d="M80,50.75l.53.41-.79,1c-2,1.27-.78,2.38.39,3.44a1.12,1.12,0,0,0,.92,0,.74.74,0,0,0,.37-1.08c-.31-.69-1.22-1.06-1.15-2l0,0A14.13,14.13,0,0,1,83.64,56l.53.41h0c-1,.38-1.64.94-1.32,2.18s1.3,1,2.1,1.28c1.33.45,1.8-.21,1.91-1.36l1.6,1.25c-.69,1.23-.13,1.89,1.15,1.91a16.38,16.38,0,0,0,2.85-.44c-.08.48-.16,1-.25,1.44-.92-.12-1.27.57-1.74,1.12a6,6,0,0,1-6.86-.8c-.47-.38-1.21.21-1.64.71l-.94.1h0c-.79-.85-2.2-1.18-2.28-2.62,1.07.24,1.79,2.83,3.19.67.29-.45.84-1.27.18-1.71-.92-.61-2-1.54-3.14-.39-.85-.43-1-2.71-2.65-1.1h0c-.2-1.71-.91-3.42-.28-5.13C76.57,51.54,78.66,51.65,80,50.75Z"/><path class="cls-29" d="M7.47,18.68c-.38-1.09-1-2.55.6-3s3.39-1.88,5,.24c.73.95,3.13,1,1.49,3.34-.88,1.27,1.11.32,1.66.72-.37,1.45.45,2,1.75,2.17h0c-.8,1.17-1.66,2.12-3.4,1.68-1.33-.34-1.62.64-1.77,1.66-1.14-.69-2.31-2.17-3.39-.09h0a12.37,12.37,0,0,1-3.16-4.86h0C7,20.1,7.94,20,7.47,18.68Z"/><path class="cls-30" d="M129.31,139.68c-2.09.73-4.08,1.72-6.11,2.61a1.37,1.37,0,0,0-1.33.56h0l-14.06,7.07a3.52,3.52,0,0,0-2.65,1.2h0a21.76,21.76,0,0,1-2.41.45c-1.08.09-.88-.51-.55-1.12h0c3.63-2.41,7.88-3.84,11.28-6.61l3.59-1.34h0a3.94,3.94,0,0,0,2.66-1.28v0c2.65-.87,5.11-2.16,7.89-2.73,2.28-.46.43-1.17-.08-1.77,1.74-.06,3.58,1.82,5.21,0h0c2.58,1.66-1.31,2.4-.38,3.82h0c-.42.23-.84.46-1.27.68h0C132,139,130.35,139.33,129.31,139.68Z"/><path class="cls-31" d="M227.21,142.33c-.41-.58-.81-1.17-1.21-1.75,1.47-2.16,0-3-1.82-3a3.92,3.92,0,0,1-3-.77c-.3-2,2.16-.87,2.51-2.13.48-1,1-2,1.45-3,2.24-.35,2.84-1.92,1.69-4.39,0-1.71-2.44-1.82-2.42-3.52a1.31,1.31,0,0,1,1.33-.6c-.27,2.74,1.43,3.15,3.59,3h0c2,3.9,2.08,8.13,2.69,12.27h0C230.42,139.79,228.18,140.31,227.21,142.33Zm1.44-6.86c-1-.64-1.82.15-2.7.35-.56.87,0,1.41.61,1.92.84.73,1.71,1.11,2.43,0A1.5,1.5,0,0,0,228.65,135.47Z"/><polygon class="cls-31" points="225.99 140.58 226 140.58 225.99 140.58 225.99 140.58"/><path class="cls-31" d="M221.17,136.83c0,.09,0,.18.05.27A.52.52,0,0,1,221.17,136.83Z"/><path class="cls-32" d="M178.08,127.9c.47-.88,0-1.6-.68-2.21,2.64.85,2.63.85,1.29,3.15a1.67,1.67,0,0,0,.72,2.26,2.59,2.59,0,0,0,3.42-.72c.62-.76.67-2,1-3h.07c1.92,2.51,2.15,5.49,2.33,8.33.21,3.26,1.22,6.36,1.72,9.54h0L186.34,144c-.19-.27-.55-.54-.55-.8,0-5.69-1-6.55-6.82-6.43h0c-.53-3-2.57-5.64-2.8-8.74h0C176.87,128.43,177.6,128.8,178.08,127.9Z"/><path class="cls-33" d="M224.51,164.65l2.14,1.66c.53-1.11-.62-1.82-.59-2.74-.29-1.06-.57-2.13-.86-3.19Q223.63,154.67,222,149h0c-.32-1.06-.63-2.12-.95-3.19h0c-.49-2.32-1.45-4.63-.6-7h0l1-.09.49.43h0c-.12,2.72,1.19,5.2,1.69,7.82.3,1.06.61,2.12.91,3.18h0a29.43,29.43,0,0,0,3.41,10c-.29,2.52,1.27,4.79,1.4,7.26.06,1.16.57,2.34-.12,3.43l-.77-.46h0l-5.07-6.49,1.1.79Z"/><path class="cls-10" d="M175.8,115.12c1.41-.86,1.88-2,.43-3.44h0a5.09,5.09,0,0,1,1.44-3c1.32.86.38,3.21,2.49,3.54l3.12,10h0c.33,1.54.67,3.08,1,4.62h0c-.15.16-.3.32-.44.49h-.06c-2.58-1.2-4-3.78-6.35-5.33a1.5,1.5,0,0,1,.55-2.76c1.05-.3,1.84-.72,1.58-2-.16-.8-.88-1-1.54-1-1.15-.07-2.32,0-2.46,1.42-.12,1.1-.07,2.11-1.64,1.19h0a1.9,1.9,0,0,1-.36-1.71C173.85,116,174.88,115.67,175.8,115.12Z"/><path class="cls-34" d="M183.82,142c.69.8.84,2.41,2.52,2l1.58,1.23h0c1.56,5,1.79,10.23,3.73,15.14-.59.29-1.08-.1-1.6-.3h0a153,153,0,0,1-9.38-18.78C182,140.17,182.84,140.84,183.82,142Z"/><path class="cls-32" d="M21.92,116.61A2.61,2.61,0,0,0,25,118.44c1.34-.53.73-1.85-.16-2.93s.21-1.2.91-1.42c1.14-.35.94-.94.24-1.64l3.18-.79h0c1.5,1,1.5-.22,1.71-1.11.69,1.15,2.31.23,3.4,1.8-2,.06-3.09.26-3.5.55a.37.37,0,0,0-.17.45c.19.59,1.62,1.35,3,2.14.44.25.7.84,1.05,1.27-.22.64-.43,1.29-.64,1.93h0A2.15,2.15,0,0,0,31,117.38l2.52,3.41h0a39.49,39.49,0,0,1-14.1-2h0Zm6.62-.17a.67.67,0,0,0,0-1.09c-.38-.4-.84-.82-1.39-.49s-.41,1-.07,1.4A1.06,1.06,0,0,0,28.54,116.44Z"/><path class="cls-35" d="M141.34,134.41c-.15-.95-.3-1.9-.44-2.85h0c-.35-1.36-.69-2.72-1-4.08l-.15-.91a10.84,10.84,0,0,0-.71-4.63h0a4.27,4.27,0,0,0-.45-2.79h0c-1.52-4.83-.78-9.87-2.09-14.73l1,.81h0l.93.86h0a10.92,10.92,0,0,0,.84,4.53h0v0h0c.14,1.1,0,2.24.74,3.24-.66,1,.24,1.83.47,2.74h0a71.36,71.36,0,0,0,1.77,11.11c0,.3.07.61.11.91a8,8,0,0,0,1.3,5h0c.11,1.71-.18,3.49,1.19,4.95-.1.59,0,1.61-.73,1.5a2.89,2.89,0,0,1-2.52-2.89h0C143.43,136.22,141.49,135.35,141.34,134.41Z"/><path class="cls-26" d="M48.07,116.89a1.43,1.43,0,0,1-1.39-2.26A4.15,4.15,0,0,0,48.8,113c1.36,2.52,4.37,2.21,6.33,3.78,1.17.94,2.57,0,2.15-1.14-1.77-4.92,2.13-2.45,3.76-2.92l.54.41c2.31.95,1.9-2.05,3.44-2.21-.16,1.54-1.67,3.19.61,4.54h0a41.44,41.44,0,0,1-13,3.84h0C51.31,118.19,50.25,116.71,48.07,116.89Z"/><path class="cls-36" d="M80.41,68.82c.52-.77,2.48-.52,3.3.86.56.93.81,1.14,1.65.74l.5.39v0c-.42,1.34-3.83.15-2.51,2.92.87,1.83,2.42,2.2,3.66.92,2.91-3,2.19,0,2.5,1.42a2.82,2.82,0,0,0,.52,3.7,2.83,2.83,0,0,1-3.14-.26c-2.44-2.2-4.41-1.63-6.35.26h0c-1.47-3.55-1.61-7.33-2.46-11C79.53,70.13,79.53,70.13,80.41,68.82Zm5.64,7.73a1.23,1.23,0,0,0,.4,1.92.85.85,0,0,0,1.33-.32,1.55,1.55,0,0,0-.07-1.6C87,76.12,86.4,76.13,86.05,76.55Z"/><path class="cls-31" d="M218.1,101a7.36,7.36,0,0,1-1.38-6c-.22-1.85-2-.06-2.54-1.16l.79-1c.33-.29,1.15-.43.55-1.08s-1.16-.23-1.62.25c-1.05-.49-2.65-.28-2.68-2.08.32-.49.53-2.13,1.08-1.14,1.4,2.54,2.15,1,3.35.21.74-.52,1.44-1.34,2.57-1.14,1.75,4.44,3.52,8.88,3.93,13.63h0C220.67,102.91,219.54,99.93,218.1,101Z"/><path class="cls-37" d="M38.59,101.81c-.14.17-.27.34-.4.52-3,1.27.56,3.87-.88,5.45,1,.72,1.81.09,2.75-.12,2.18-.48.71,1.77,1.65,2.3-1.08,1.13-2.79,1.52-3.5,3.15-.49,1.14-1.53.18-2.32,0-.44-.09-1-.65-.73-.8,3.22-1.62-1.32-1.94-.64-3.07.71-.73,0-1.58.11-2.36.27-.81,2.11-2,.3-2.34s-3.08-2.2-5.19-2c-1.28.14-1.17-1-.71-1.86h0a15.46,15.46,0,0,1,7.44-.58C37.55,100.23,37.89,101.25,38.59,101.81Z"/><path class="cls-38" d="M37.07,45.13h0c.58,2.48,2.52,3,5,3.1-2.16,2-2.15,2-3.88.46-.73-.63-1.61-.71-1.79.25s.22,2.15-1.22,2.11-.1-1.9-1.36-2.23c-1,.32-1.3,1.24-1.9,1.91l-.07.08c-.92-2.18-1.34-4.26,1-5.71h0c1.47,0,1.34-1.14,1.56-2.05h0c.21-1.23-1.62-1.55-1.36-3,2.85,1,4.85-2.61,7.91-.95a2.69,2.69,0,0,1,1.24,1.74A22.27,22.27,0,0,0,38.45,42C37.25,42.54,35.71,43.24,37.07,45.13Z"/><path class="cls-39" d="M77.72,28.43c1-1.39,1.71-3.14,3.92-3,.35,1.27-3.33,2.14-.16,3.15,4.38,1.39,4.44,1.17,1.87,4.66a2.61,2.61,0,0,0-.17.28,7.58,7.58,0,0,1-4.28,3c-2.06.73-1.28-1.45-2-2.14a9.2,9.2,0,0,0-1.17.9c0-1.59-.32-3.22.34-4.73h0C77.47,30.46,77.21,29.16,77.72,28.43Z"/><path class="cls-40" d="M28.14,42.26c1.43,1.11,2.35-1.13,3.72-.37-1,1.39-.21,2.35,1,3.21h0c-2.36,1.45-1.94,3.53-1,5.71l.21,0c2.78.37,3.59,2.32,3.82,4.74-.77.06-1.25-2.41-2.23-.35l-.14.1h0c-1-1.06-2.08-2.05-3-3.19-2.25-2.88-5.61-4.88-6.94-8.48h0C25.33,43.9,26.36,42.06,28.14,42.26Z"/><path class="cls-41" d="M145.86,179.5c.06,2.13,1.32,2.51,2.78,1.55a10.34,10.34,0,0,0,3.6-3.11h0l.53.4h0c-.43,1.27-2.7,1.83-1.37,3.8h0l-.37.54c-1.32-.48-2,.89-3.14.92h0c-2.41-.58-6,1.7-6.9,4.34h0l-1.72,1.13h0c.25-2.3,1.87-3.61,3.53-4.89.41-.32.93-.65.56-1.28s-.94-.33-1.46-.26c-1.2.16-1.92,1.88-3.47.89l-.81-2.26v0c0-.9-.69-1.29-1.26-1.79,1.88-2.4,5-2.73,7.49-4.08-.92,1.67-1.83,3.34-2.75,5A41.63,41.63,0,0,1,145.86,179.5Z"/><path class="cls-42" d="M130.76,107.93h0c.11-.13.23-.2.39,0,1.57,1.52,4.09,2.84,3.25,5.47-.78,2.42-.84,4,2.31,4.42.47.06.9.63,1.34,1a4.34,4.34,0,0,0,.42,2.78h0c-3.36,2.42-.12,5,.21,7.49h0l.67,1.35L138,131c-3.61-7.07-5.87-14.55-7.83-22.12h0C130.41,108.63,130.56,108.16,130.76,107.93Z"/><path class="cls-43" d="M216.68,175.87c-2.13,2.81-4.94,5-7.2,7.7-2.67,3.24-4.27,7.43-8.1,9.71l-1.52-.34h0c-.11-1.84,1.56-2.65,2.22-4h0l.21-.26,5-6.31h0l.8-1a1,1,0,0,0,.63-.37c1.53-.92,2.34-2.66,4-3.42l1.42-2.78.12.11c.16.62-.32,1.36.66,2,.8-1,1.62-2.09,2.44-3.14h0l1.07.87c.63.56.89,1.15.32,1.85h0C218,176.27,217.67,174.57,216.68,175.87Z"/><path class="cls-44" d="M175.58,117.73c.14-1.39,1.31-1.49,2.46-1.42.66,0,1.38.2,1.54,1,.26,1.26-.53,1.68-1.58,2a1.5,1.5,0,0,0-.55,2.76c2.35,1.55,3.77,4.13,6.35,5.33v0c-.3,1-.35,2.22-1,3a2.59,2.59,0,0,1-3.42.72,1.67,1.67,0,0,1-.72-2.26c1.34-2.3,1.35-2.3-1.29-3.15a1.63,1.63,0,0,1-1.59-.42h0c-1.36-1.94-1.08-4.27-1.87-6.35h0C175.51,119.84,175.46,118.83,175.58,117.73Z"/><path class="cls-45" d="M178.13,232.33c-2.19-1.94-4.08-2.05-5.69.34l-.06,0c0-.74.07-1.49.1-2.23s.09-1.57.13-2.36c2.47-1.34,2.46-1.34,4.58.74.48.47,1,.21,1.55.14,1.28-.18,2.57-.31,3.86-.46a7.64,7.64,0,0,0,3.68,2h0a17.61,17.61,0,0,1-5,5.29c.67-1,1.34-2.06,2-3.09C181.41,235.18,179.73,233.75,178.13,232.33Z"/><path class="cls-46" d="M4.67,2.37c1.29,1-2.06,1.41,0,2.5S8,5.58,9.06,3.75h0C9.59,6.1,6.31,6.14,6.44,8.24v0c-.4,2.38-.76,4.79-4.23,4.11C.64,9.28-.71,6.17.41,2.73,1.85,2.4,3.41,3.27,4.67,2.37Z"/><path class="cls-47" d="M92.47,61.25a16.38,16.38,0,0,1-2.85.44c-1.28,0-1.84-.68-1.15-1.91,3-.13,2-3.29,3.53-4.6h0c.67,1.5,2,1.29,3,.86.51-.22-.23-1.09-.7-1.56,2.72-1.51-1-2.39-.56-3.69l.79-1c1.34.83,1.72,2.28,2.44,3.51h0c.29,1.75-1,3.31-.09,5.23.64,1.34,1.23,1.92,2.62,1.54h0A2.13,2.13,0,0,1,99.65,62h0c-1.42-.09-2.79.77-4.24,0C94.68,60.32,93.56,60.89,92.47,61.25Z"/><path class="cls-22" d="M100,151.17c-.11.13-.21.27-.31.4l-.13.05a9.2,9.2,0,0,1-.9-.86c-.62-.74.38-2.19-1-2.47-1-.19-1.33.91-1.76,1.58-.83,1.29-.06,2.2,1,3-.36.51-1,1-1,1.54.27,3.07-1.63,2.68-3.61,2.23h0c.43-.57,1-1.08.67-2,.88-.49,2.07-.72,1.85-2.56-1,.79-3,.31-1.88,2.52v0h0l0,0c-.85.48-2,.28-2.66,1.21h0l-.53-.41c.47-2.52,2.49-3.87,4.26-5.3s2.24-2.45.21-4c-.16-.12.09-.76.15-1.15h0a12.57,12.57,0,0,1,4.49-1.43h0C100,146,101.73,148.42,100,151.17Z"/><path class="cls-48" d="M79.47,108.63s.08,0,.12,0l-.11,0a2.67,2.67,0,0,0,.16-.57c-4-.34-7.61,1.74-11.55,1.23h0c-2.1.58-4.43.38-6.37,1.52-1.26-.2-2.6.1-4.05-.94,3-1.54,6.25-1.49,9.21-2.36h0l8.8-1.3a7.18,7.18,0,0,0,3.71-.36h0a5.56,5.56,0,0,1,4,1.32l-5.51,4A9.08,9.08,0,0,0,79.47,108.63Z"/><path class="cls-31" d="M222.67,110.08c.43,4-3.07,5.32-4.84,7.82l-1.21-1.76a2.29,2.29,0,0,0-.28-1.85c1.5-1.07.93-3,1.69-4.4h0c.48-1.39,1.56-2.64.78-4.3h0l.63-1.95c1.78-1.3,1.86.34,1.76,1.24-.27,2.46,1.21,2.27,2.79,2.11h0l.74.9h0C224.12,108.71,222.53,108.76,222.67,110.08Zm-2.81.48c.14.26.23.62.45.78A.38.38,0,0,0,221,111c0-.26-.32-.52-.55-.74C220.37,110.23,220.09,110.43,219.86,110.56Z"/><path class="cls-49" d="M145.85,127.37h0c-1.27-.33-2.58-.9-3.6.36a71.36,71.36,0,0,1-1.77-11.11h0c1.29-.17,2.83-1.51,3.47,1.12.23,1,1.39.88,2.27.64h0c0,3-.05,6-.08,9h-.29Z"/><path class="cls-50" d="M111,152.3c-1.25-1-.17-2,.65-2.62a2.22,2.22,0,0,1,3,0c.83.85,1.46,1.75,2.67.86s2.23-1.73,2-3.35c-.08-.74-.53-1.47,0-2.16,1.11.51,1.85,2.42,3.47,1.06a3.23,3.23,0,0,1,2.42-1.07h0l-1.37,2a35.6,35.6,0,0,1-11.45,8.16h0C109.66,155.36,112.07,153.15,111,152.3Z"/><path class="cls-15" d="M171.16,83.76c2.41-2.3,4.37-1.23,6.19,1-1.58,1.13-3.81.73-5.35,2-.76.66-1.77,1.07-.66,2.22a3.05,3.05,0,0,1,.45,4.12,1.29,1.29,0,0,0,.37,2c.93.48,1.69.91.78,1.86s-1.75,1.78-2.87.14c-.64-4.39-1.42-8.79-.09-13.09h0C170.38,84,170.91,84,171.16,83.76Z"/><path class="cls-51" d="M94.75,45.07a3.1,3.1,0,0,0-3.19.77h0c-.18-1-.17-2.1-1.34-2.65h0c.59-.46,1.92-.65.75-1.81s-1.75-.28-2.36.54c-.36-1.11.6-2.93-2-2.74-1.35.1-1-1.69-1.63-2.54h0c.08-.48.17-1,.25-1.43,1.41,1.25,2.77,1.95,4.26.23.65-.75,1.59-.52,2.42.05h0c-1.51,1.74-2,3.44.37,5,1.7-.46-.93-2.81,1.35-2.88h0c.93,2.52,2.18,5,2.43,7.65A1.19,1.19,0,0,0,94.75,45.07Z"/><path class="cls-52" d="M68.23,163.22c-1.28-.16-2.41-.15-2.13,1.62h0c.06,1.3,1.27,1.65,2,2.39,1.77,1.72.6,1.83-.92,1.73l-1.06-.83c.07-.9-.64-1.29-1.22-1.76-1.16-1.49-2.22-3.13-4.34-3.4,2.88-2.19,5.24-5.1,9-6.12h0A8.28,8.28,0,0,1,68.23,163.22Z"/><path class="cls-53" d="M208.19,197.76a6.05,6.05,0,0,0,3.74-4.76c.66-3.34-1-4.62-4.42-3.57a3.62,3.62,0,0,1-.93,0c2-.23,1-5.92,5-2.49a.24.24,0,0,0,.29,0,.35.35,0,0,0,.13-.08,1.88,1.88,0,0,0,.41-1.33c-.41-2,1.1-2.42,2.41-3,.47,1.91-.28,3.67-.81,6.16l1.54-1.53h0c-.9,3.73-1.91,7.41-4.55,10.33C210,196.65,209.47,200,208.19,197.76Z"/><path class="cls-54" d="M85.55,165.27h0c.09-1.57-3.15-3.48.25-4.72l.52.42c.23,1.36.88,1.64,1.93.79.88-.72,1.73-1.45,2.59-2.18L93,161.25c-3-.29-1.09,2.66-2.41,3.79-1,.82,1.22.29,1.7,1.11,0,.17,0,.34.08.52h0L87.16,169h0C85,168.36,85.21,166.85,85.55,165.27Z"/><path class="cls-15" d="M168.88,228.42c.84-1,2.67,1.27,3.19-.78h0l.54.41c0,.79-.08,1.58-.13,2.36-.51.88-1.81,1.59-.5,2.87-.22.64-.43,1.29-.65,1.94-1.41,0-1.66,1-1.29,2,.72,1.84-.24,2.71-1.38,3.25-.66,2.13,2.92.1,1.92,2.41-2.38.49-4.28.11-4.84-2.73-.59-1.92,3.26-3.1.67-5.36l0,0C169.73,232.91,170.54,230.83,168.88,228.42Z"/><polygon class="cls-15" points="166.4 234.74 166.4 234.74 166.4 234.75 166.4 234.74"/><path class="cls-53" d="M23.7,106.57c-.38.85.64,2.37-1,2.57-1.45.17-1.13-1.32-1.7-2a18.91,18.91,0,0,0-1.67-1.55c-.36-.55-.64-1.26-1.51-.9A1.18,1.18,0,0,0,17,106c0,3.31-.87,3.79-3.81,2.28-.69-.35-1.44-.59-2.16-.87h0l-.48-.39c3-3.06,7-3.79,11-4.61A3.61,3.61,0,0,0,23.7,106.57Z"/><path class="cls-55" d="M79.37,105.81h0a7.18,7.18,0,0,1-3.71.36c-1.89-1.32-3.84.15-5.75-.4l0-.06c-1.52-2.51-3.7-2.64-7-1.56,4.41-2.15-.28-2.53,0-3.81,3.36,1.55,7.12.25,10.48,1.94,1.84.92,3.48,2.39,5.7,2.32Z"/><path class="cls-17" d="M141.77,101c-.77,1.13-.48,2.46,1.27,3.11,1.28.48,1,1,.14,1.86a60.05,60.05,0,0,0-3.92,4.64,10.92,10.92,0,0,1-.84-4.53h0c1.2-2.29-.44-5.57,2.29-7.32,2.4.48,2.72-1.83,4-2.83h0c.23,1.88.45,3.77.68,5.66C144.24,100.82,143,99.25,141.77,101Z"/><path class="cls-56" d="M179.79,170h0c.38-.49.76-1,1.28-1.65-4,.13-6,3.44-9.29,4.37h-.08c-1.27,0-2,.87-3,1.58-1.52,1.16-3,2.85-5.42,1.6a3.36,3.36,0,0,0,.32-.51h0c1.35-2,4.21-1.86,5.61-3.77,2.34-.75,4.59-1.53,6.23-3.54,1.46-1.76,4.21-1.15,6-2.42,1.83,4-1.65,5.06-3.61,7h0l1.5-2.11Z"/><path class="cls-3" d="M142.42,113.16h0c.17-.39.52-.78.48-1.16-.11-1.29,2.69-1.23,1.4-2.62-1-1.09-2,.86-3.15.87a9.68,9.68,0,0,0-1.88.39h0v0h0a60.05,60.05,0,0,1,3.92-4.64c.83-.83,1.14-1.38-.14-1.86-1.75-.65-2-2-1.27-3.11,1.21-1.75,2.47-.18,3.63.59a42.74,42.74,0,0,1,.78,11.21C144.59,110.64,143.74,113.53,142.42,113.16Z"/><path class="cls-57" d="M68.09,109.26c3.94.51,7.52-1.57,11.55-1.23a2.67,2.67,0,0,1-.16.57v0a9.08,9.08,0,0,1-1.65,2.45c-3.48,1.18-6.65,3.11-10.41,3.59C68.29,113,69.44,111.33,68.09,109.26Z"/><path class="cls-58" d="M192.66,154.69l-.11-.13c-1-2.82-2-5.61-1.7-8.62h0a5.75,5.75,0,0,0,1.57-3.39c.17-1.31.76-2,2.19-1.15.93,2.91.46,5.89.91,8.82C193.09,150.74,194.52,153.8,192.66,154.69Z"/><path class="cls-59" d="M76.4,40.67c.35.89.77.34,1.13,0l1.07.83c1,.95,1.59,2.46.73,3.21-2.69,2.35-.23,4.1.68,6h0c-1.35.9-3.44.79-4,2.79a86,86,0,0,1-1-13.09C75.6,39.87,76,39.68,76.4,40.67Z"/><path class="cls-60" d="M10.86,107.61l-.19.25c-2.06,3.18-1.55,4.33,2.07,5.72,1.71.65,2.91,2.33,4.78,2.89.63.19,1.26.75,1.71,0,.56-.93-.4-1.32-.93-1.84,0-.31-.09-.62-.13-.93,1.61-.1,2,2.09,3.61,2,0,.3.09.61.14.92l-2.54,2.2h0c-3.31-.67-6-2.69-8.94-4.17-1.91-1-3.39-1.75-3.3-3.93s1.58-3.13,3.44-3.74l.48.39Z"/><path class="cls-9" d="M219.68,153.13c-.31-1.94-2-3.55-1.61-5.66.89,1.77,2.54,1.31,4,1.48h0q1.58,5.72,3.16,11.43c-2.17-.76-2.59.42-2.52,2.16h0a5.38,5.38,0,0,1-2-3.16c1.84,1,1.46-1,2.06-1.57.33-.34.05-.87-.34-1.12-1.07-.69-1.86-.13-2.6.55h0a3.81,3.81,0,0,1-.78-2.37C220.69,154.89,219.8,153.88,219.68,153.13Z"/><path class="cls-61" d="M86.9,79.55a2.83,2.83,0,0,0,3.14.26c0,1.4-.4,2.81.23,4.21h0c-2.43-1.41-4.94-.46-7.4-.55-.76,0-.83.86-1.08,1.43h0c-1.13-1.56-1.17-3.33-1.24-5.09h0C82.49,77.92,84.46,77.35,86.9,79.55Z"/><path class="cls-62" d="M55,74.14l-.31-.24.39.22Z"/><path class="cls-62" d="M40.8,60.35c3.66,2.86,8.26,4.5,11.08,8.43l.18.23c.08,1.46,1.46,1.8,2.32,2.59.79.62,1.51,1.27,1.3,2.33l-.25.08L44.37,65.58h0c-1.48-1.42-3.52-2.25-4.47-4.22h0C40.4,61.17,39.38,59.23,40.8,60.35Z"/><path class="cls-44" d="M140.65,92.19h0c0-.09,0-.19,0-.28A.45.45,0,0,1,140.65,92.19Z"/><path class="cls-44" d="M140.77,89.85h0l-.4.48c-.61-.07-1.19.14-1.17.73,0,.79,1,.64,1.45,1.13a2.76,2.76,0,0,1-3.72.37c-.22-1.62-1.19-1-2-.74l-1.2-1.77h0c-.28-.37-1.07-.84,0-1,.66-.09,1.07,1.41,1.91.61,1.6-1.54,4.72-1.59,4.67-4.8a2.33,2.33,0,0,1,1.9-2.26h0a8.64,8.64,0,0,1,.84,5.63h0C141.64,87.9,141.87,89.75,140.77,89.85Z"/><path class="cls-63" d="M94.21,146.11c2,1.6,1.46,2.7-.21,4s-3.79,2.78-4.26,5.3c-1.65-1.52-3.94-2.8-.35-4.72,1.29-.7-1.49-2.15-.9-3.58a2.77,2.77,0,0,1,2.27-.92c-.11.52-.8,1.37.27,1.41s1.3-.89,1-1.87h0l2.32-.82h0C94.3,145.35,94.05,146,94.21,146.11Z"/><path class="cls-12" d="M89.39,150.74c-3.59,1.92-1.3,3.2.35,4.72l.53.41h0c-1,.38-1.27,1-.64,2-1.83,1.24-3.83.15-5.74.11-.87,0-1.28-.85-1.21-1.71a1.06,1.06,0,0,1,1-1c.76-.08,1.72,1.47,2.21.09s-1-1.81-1.78-2.53c1.79-.6.44-1.87.49-2.85l0,0c3.36,2.15,2.45-1.46,3.48-2.45h0a.46.46,0,0,1,.37-.26C87.9,148.59,90.68,150,89.39,150.74Z"/><path class="cls-5" d="M86.86,93.48c.27,3.44,3.32,2.76,5,4a11.25,11.25,0,0,1,.92,6.47c-3.24-.27-4.49-2.4-5.32-5.18-.31-1,.39-3.51-2.36-2.57h0c-.15-.57-.3-1.14-.44-1.72h0C85,93.2,86.8,92.69,86.86,93.48Z"/><path class="cls-64" d="M55.74,74.49l.5.29A.47.47,0,0,1,55.74,74.49Z"/><path class="cls-64" d="M55.65,74.18a2.13,2.13,0,0,0,0-.25c.21-1.06-.51-1.71-1.3-2.33-.19-1.37-1.48-1.79-2.32-2.59h0c0-.09-.09-.16-.13-.25-1.36-3.15-4.09-5.56-5.41-9.3C50,61.53,52,64.5,54.1,67.3l.07.09h0c.51,1.65,2.16,2.49,3,3.94.27,1.53,2.29,1.92,2.47,3.52-1.07-.78-1.94-.11-2.84.28a3.15,3.15,0,0,1-.52-.35l-.59-.6Z"/><path class="cls-63" d="M66.16,171.41a4.08,4.08,0,0,0,1-2.45c1.52.1,2.69,0,.92-1.73-.75-.74-2-1.09-2-2.39h0c1.79.57,2.58,2.82,4.7,2.83.82,1,1.36,3.62,2.91.65a4.83,4.83,0,0,0,2.56,1.15c-.43,1-2.13.11-2.25,1.38-.14,1.53,1.36,1,2,1.54.1.07-.1.55-.16.84l-5.12,1h0C68.56,174.46,67.76,172.25,66.16,171.41Zm5.76.84c.61-.4.31-.91-.15-1.31a1.64,1.64,0,0,0-2.08-.31c-.38.58,0,1,.42,1.35A1.5,1.5,0,0,0,71.92,172.25Z"/><path class="cls-65" d="M109.67,199.52c-.6,2.18-2.31,4.66,2.14,5.17,1,.11,1.39,1.56,1.35,2.7a18.5,18.5,0,0,1-3.5.68c-3.22,0-4.42-1.58-3.81-4.84l4.06-5.18A1.42,1.42,0,0,1,109.67,199.52Z"/><polygon class="cls-65" points="109.9 198.02 109.9 198.02 109.9 198.02 109.9 198.02 109.9 198.02"/><path class="cls-29" d="M230.12,147.14a4.08,4.08,0,0,1-.93,4.43c-1,1.25-2.27-.66-3.51-.77-.38,0-.75-.45-1.12-.7h0c-.3-1.06-.61-2.12-.91-3.18,1.33-.56,2.31-.28,2.77,1.25.16.49.23,1.19,1,1.1s1-.82.83-1.46c-.34-1.38.4-2.78-.33-4.13,1.22-2,2.71-2.36,4.57-.52a.88.88,0,0,1-.12.51h0C230.28,144,229.16,145,230.12,147.14Z"/><path class="cls-15" d="M55.56,101.16c.49-.13.9,0,1.06.44.23.68-.34.8-.77,1.14-1.24,1-3,.19-4.2,1.07-2-2.85-5.22-2.35-8-3l-.12-1h0c3.52-.92,7.15-.79,10.79-.63h0C54,100.26,52.76,101.88,55.56,101.16Z"/><path class="cls-12" d="M175.34,239.92c1.83-1.78,1.8-4.25,2.28-7-1.89,1.5-3.54.34-5.24-.14v0a.7.7,0,0,0,.06-.09c1.61-2.39,3.5-2.28,5.69-.34,1.6,1.42,3.28,2.85,5.18.38-.68,1-1.35,2.06-2,3.09a22.21,22.21,0,0,1-6.35,4.81l.4-.69Z"/><path class="cls-66" d="M81,63.82h0l.94-.1c.75,2.4,5.21,3.13,3.38,6.7h0c-.84.4-1.09.19-1.65-.74-.82-1.38-2.78-1.63-3.3-.86-.88,1.31-.88,1.31-2.32,0h0c-.2-1.25-.41-2.5-.61-3.75C79.09,65.71,79.89,64.33,81,63.82Z"/><path class="cls-19" d="M212.2,127c1.86,2.48,1.61,4.77.25,7.66-.12.24-.22.48-.35.74l.72-.56c.61-.48.84-.71,1.12-.78,1.42-.34,2.56.63,3.71,1.23.48.25.3,1.67-.23,1.62-1.91-.2-3,1.89-5,1.24q-.9-3.24-1.82-6.48h0C213.15,131.07,211.31,128.53,212.2,127Z"/><path class="cls-67" d="M188.67,118.91c-.4.42-.93.74-1.25,0-.95-2.26-2.14-1.75-3.45-.56h0c-.83-2.55-1.67-5.09-2.5-7.63h0l.21-.51c1.2.66,2.62.93,3.61,2,.54,2.55,1.41,4.56,4.57,2.92a4.56,4.56,0,0,1,.62,2.68h0C189.53,117.65,189.13,118.32,188.67,118.91Z"/><path class="cls-68" d="M175.5,168.07c-1.64,2-3.89,2.79-6.23,3.54l-.06-.1c1.87-1,2.12-2.92,2.8-4.63.42-1-.55-1-.95-1.36h0c3.45-.87,6.91-1.69,10.46.13C179.71,166.92,177,166.31,175.5,168.07Z"/><path class="cls-69" d="M178.35,212.92l2.4.24c.5.75,2.46,1,1.09,2.42-1.23,1.29-3.16,1.87-3.85,3.7-1-1.59-3-.56-4.13-1.68a5.28,5.28,0,0,1,3-4C177.29,213.21,177.68,212.8,178.35,212.92Z"/><path class="cls-11" d="M230.61,171.06h0a1.14,1.14,0,0,1-1.36-.25h0c.69-1.09.18-2.27.12-3.43-.13-2.47-1.69-4.74-1.4-7.26,2.24-2.94,3.71.46,5.54.94h0a3.09,3.09,0,0,1-.76,2.77C229,165.22,230.78,168.47,230.61,171.06Z"/><path class="cls-49" d="M140.71,98.76c0-.39.07-.91-.14-1.15-.4-.44-.67.07-.94.31-1-1.16,2.15-1.69.36-2.88-1.45-1-1.79.58-2.51,1.22a6,6,0,0,0-.55-3.7,2.76,2.76,0,0,0,3.72-.37h0c.51.82-.88,1.88.44,2.57.59.3,1-.11,1.36-.49a2,2,0,0,0,0-2.87,11.92,11.92,0,0,0-1.69-1.55c1.1-.1.87-1.95,2.29-1.63h0c1.47,2.42,1.49,5.08,1.66,7.71h0C143.43,96.93,143.11,99.24,140.71,98.76Z"/><path class="cls-69" d="M84.62,149.86v0c-.05,1,1.3,2.25-.49,2.85-2.27,1.56-5.81.37-7.55,3.08h0c-.38,1.68-1.17.71-1.89.19l-.6-1.32h0l.33-.64h0c3.1-1.78,6.14-3.68,9.71-4.56l.49.38Z"/><path class="cls-70" d="M101.32,94.34c-2.1,1.79-2.09,1.78-4,.47-.54-.37-1,0-1.48.25-.9.42-.61,1.53-1.19,2.14-.24-1.54-.48-3.08-.71-4.62h0c3.52,1.42.93-3,3.2-3,.43,2.73,1.28,4.85,3.88,1.42.17-.23.82-.11,1.25-.16h0l0,3.31h0C101.92,94.18,101.53,94.16,101.32,94.34Z"/><path class="cls-37" d="M165.2,182.34a1.39,1.39,0,0,1,.24-1.49h0c0-1.35.24-2.26,1.93-2.66s3.72-1.12,3.76-3.54c.6-.94,1.8-.73,2.65-1.2,1.16-1.13,3-1.38,3.71-3.18a1.55,1.55,0,0,1,2.3-.28h0l-.38.52c-2.11.74-2.7,2.87-4,4.3h0a41.58,41.58,0,0,1-7.43,5.6C166.18,179.93,166,181.56,165.2,182.34Z"/><path class="cls-71" d="M121.32,192.27a7.22,7.22,0,0,1-3.93.9l1.16,2.65c-1.63,0-1.4,3.68-4,1.8.33-1-2-1.25-.79-2.46h0c3.24-3,6.3-6.19,10.56-7.88-.74,1.27-1,2.9-2.78,3.35C120.38,190.93,120.63,191.57,121.32,192.27Z"/><path class="cls-72" d="M21.53,17.92c-2-2.1-4.49-4.12-3.89-7.5l.43-.67h0c2.67,2.34,6,4.14,7,7.88h0C23.82,17.35,22.59,19,21.53,17.92Z"/><path class="cls-73" d="M74.09,154.68h0c-.8,1.08-.76,2.68-2.26,3.35-1,.44-.74,1.51-.38,2.3,1.1,2.44,1,5.06,1.74,7.56h0c-.69-.58-1-1.59-2.13-1.65l-2.82-3a8.28,8.28,0,0,0,1.33-6.36h0L74.41,154h0Z"/><path class="cls-10" d="M185.29,112.2c.91-1,.73-2,.44-3.24-.45-2,.11-3.37,2.57-1.77a40.17,40.17,0,0,1,1.56,7.93h0C186.7,116.76,185.83,114.75,185.29,112.2Z"/><path class="cls-58" d="M193.25,160.73h0q-.31-3-.64-6h0s0,0,.06,0c1.86-.89.43-3.95,2.86-4.47,1.39,3.88.24,7.55-.34,11.27h0l-.87.89C194,161.83,193.6,161.28,193.25,160.73Z"/><path class="cls-60" d="M192.46,223.52c-.87.8-1.35,2.66-2.93,1.75-1.19-.69-1.07-2.21-.68-3.38,1.45-.43,1.4,1.42,2.49,1.37.61-.94,1.2-1.88,1.8-2.81l.05-.07c2.86-1.48,4-4.51,6.06-6.71h0l1.59-2a1.22,1.22,0,0,0,1.87-.19h0q-3.56,4.59-7.1,9.17C193.82,220.8,193.51,222.55,192.46,223.52Z"/><path class="cls-69" d="M208.38,76.41c-1.56,1.64-3.11.85-4.61-.39h0c.55-2.57,2.58-3.22,4.84-3.49s3.42,1.26,4.24,3.11C211.69,77.34,209.66,75.07,208.38,76.41Z"/><path class="cls-72" d="M214.12,79.63c-1.05-2-2.7-.64-4.05-1-2.55-.62-4.35,2.73-7,.79h0c.24-1.14.49-2.29.73-3.43h0c1.5,1.24,3,2,4.61.39,1.28-1.34,3.31.93,4.47-.77a6.79,6.79,0,0,1,2,3.06h0Z"/><polygon class="cls-41" points="208.95 202.41 208.95 202.41 208.95 202.41 208.95 202.41"/><path class="cls-41" d="M202.71,211.45a1.22,1.22,0,0,1-1.87.19c1.09-1.4,2.19-2.79,3.25-4.2.6-.8,1.63-1.56.43-2.74-1.3-1.41-.17-1.6.87-1.72,1.31-.15,2.33-.65,2.44-2,.12-1.57-1.56-1.26-2.29-2,.08-.78-.59-1.63.11-2.36l2.55,1.16h0c1.28,2.2,1.77-1.11,2.85-.26-.24.63-.95,1.08-.69,1.91-.52,1-1.81,1.55-1.4,3-1.27,2-3.61,3.35-3.87,6l-.39.5A2.06,2.06,0,0,0,202.71,211.45Z"/><path class="cls-74" d="M125.26,145h0a3.23,3.23,0,0,0-2.42,1.07l-1.47-.33h0c.21-.64.43-1.29.65-1.93,1.23.14,2.48.29,1.19-1.53,2-.89,4-1.88,6.11-2.61,1-.35,2.69-.67,1.79,1.54h0l-3,2.44c-1.4.11-1.86,1.24-2.47,2.21h0c-.5.51-.83,1.27-1.77,1.14l1.37-2Z"/><path class="cls-72" d="M9.06,3.75C8,5.58,6.61,5.89,4.66,4.87s1.3-1.48,0-2.5c-1.26.9-2.82,0-4.26.36C1.49-.3,3.25-.72,7.68,1h0C8.83,1.63,8.9,2.71,9.06,3.75Z"/><path class="cls-75" d="M144,117.74c-.64-2.63-2.18-1.29-3.47-1.12h0c-.23-.91-1.13-1.74-.47-2.74.6-.82,1.6-.5,2.41-.72h0c1.32.37,2.17-2.52,3.76-.36a14.76,14.76,0,0,1,0,5.58h0C145.34,118.62,144.18,118.7,144,117.74Z"/><path class="cls-76" d="M185.79,143.24c0,.26.36.53.55.8-1.68.36-1.83-1.25-2.52-2-1-1.15-1.86-1.82-3.15-.66.1-1.72-2.13-2.69-1.7-4.52h0C184.83,136.69,185.74,137.55,185.79,143.24Z"/><path class="cls-77" d="M149.64,189.73c1.55-1.2,1.69-2.46.92-4.13h0c.55-.64,1.09-1.29,1.64-1.94h0l.49.34h0l.15.06c2.22.62,2.81,3.35,1.22,5.93l-3.51,1.31h0C150.05,190.86,147.84,191.1,149.64,189.73Z"/><path class="cls-78" d="M172,166.88c-.68,1.71-.93,3.66-2.8,4.63-3.21,0-3-2.47-3.46-4.46h0a8.82,8.82,0,0,1,5.31-1.53h0C171.46,165.92,172.43,165.84,172,166.88Z"/><path class="cls-45" d="M217.43,144.07c2.08-.19,2.77.6,1.42,2.38l-.78,1h0c-.43,2.11,1.3,3.72,1.61,5.66.12.75,1,1.76-.67,1.74a37,37,0,0,1-4.29-9.86h0A11.19,11.19,0,0,1,217.43,144.07Z"/><path class="cls-6" d="M168.66,240.43c1.14-.54,2.1-1.41,1.38-3.25-.37-1-.12-2,1.29-2,1.34,1.57,2.68,3.13,4,4.7l-.4.69a7.33,7.33,0,0,1-4.36,2.23C171.58,240.53,168,242.56,168.66,240.43Z"/><path class="cls-15" d="M180.46,90.93c-.61-1-1.39-1-2.26-.58-1.22-1.7,1.51-3.44-.31-5.13l2.46.2h0c3,1.58,2.88,4.62,3.81,7.18h0A3.46,3.46,0,0,1,180.46,90.93Z"/><path class="cls-79" d="M177.89,85.22l-.54-.42c-1.82-2.27-3.78-3.34-6.19-1-.25.24-.78.21-1.18.31h0c1.43-4.75,4.15-5.76,7.36-2.62a31.85,31.85,0,0,1,3,4h0Z"/><path class="cls-80" d="M59.6,74.85h0c-.18-1.6-2.2-2-2.47-3.52.78-2.57.18-4.15-3-3.94h0a.69.69,0,0,1,0-.13c.8-2.44,2.44-1.67,4.12-.73h0c1.81,2.46,2,5.45,3.17,8.14h0A1.23,1.23,0,0,1,59.6,74.85Z"/><path class="cls-65" d="M38.09,116.05c.93-1,2.4-1.23,2.54-.83,1.07,3.21,4.31,1.85,6.21,3.25.71.52,1.68.62,1.6,1.77-2.58.94-5.33-.13-7.95.24h0C40.67,118.59,41.23,116.56,38.09,116.05Z"/><path class="cls-81" d="M211.94,173.17c1.17-.61,2.23-.86,2.6,1h0l-.36.55h0a.75.75,0,0,1-.07.12l-1.42,2.78c-2.46-1.78-3.54-.77-4,1.71a15.23,15.23,0,0,1-.66,2.08,4.34,4.34,0,0,0,.63-.37,1,1,0,0,1-.63.37l-.8,1h0l-.52-.39c-1.13-2,1.73-3.38.63-5.38h0l2.54-2.1C210.92,174.53,211.22,173.55,211.94,173.17Z"/><path class="cls-82" d="M226.3,119.62a3.12,3.12,0,0,1-4-.27c-1.45-1.14.4-1.41.83-2.06.3-.46,0-.79-.23-1.18-1.16-2.33-.22-2.27,1.56-1.32a2,2,0,0,0,1.89-.09c1.19,1.31,1.1,3,1.51,4.52h0C227.09,118.51,226.76,119.26,226.3,119.62Z"/><path class="cls-12" d="M12.82,25.46c-.23,1.29.15,2.13,1.67,1.92.94-.13,1.69,0,2.09,1s.63,2.13,1,3.2c-2.56.54-3.6-2.25-5.69-2.75h0a8.39,8.39,0,0,1-2.41-3.45h0C10.51,23.29,11.68,24.77,12.82,25.46Z"/><path class="cls-45" d="M33.9,30.42c-1.69-2.19-4-3.65-6-5.51L27.72,24c.77-2.49-2.81-3.53-2.29-5.93h0c1.74,1.81,3.24,3.81,4.95,5.66s3.95,3.4,3.88,6.25Z"/><path class="cls-31" d="M88,25.07c-4.9-3.7-4.91-3.69-9.66-.09-.22.17-.62.13-.93.18.72-5.68,3.14-6.76,8.12-3.61.19,1.63,1.82,2,2.73,3h0a1.46,1.46,0,0,1-.22.53l0,0A.06.06,0,0,0,88,25.07Z"/><path class="cls-44" d="M173.59,113l2.64-1.35h0c1.45,1.42,1,2.58-.43,3.44-.92.55-2,.9-2.22,2.09-.74-3.4-2-6.71-2.27-10.19h0C173.51,108.39,174.14,110.41,173.59,113Z"/><path class="cls-31" d="M92.35,166.67a.77.77,0,0,0-.08-.52c-.48-.82-2.66-.29-1.7-1.11,1.32-1.13-.56-4.08,2.41-3.79a4.69,4.69,0,0,1,3.79,3h0a14,14,0,0,1-4.42,2.42Z"/><path class="cls-83" d="M87.46,98.78c.83,2.78,2.08,4.91,5.32,5.18-.54.94,1,2.49-.61,3-1,.32-1.09-.82-1.48-1.42-.39-1.85-2.27-2.27-3.39-3.42h0c-.57-1-1.13-2-1.69-3.06h0l-.51-2.88h0C87.85,95.27,87.15,97.73,87.46,98.78Z"/><path class="cls-25" d="M97,53.3h0c-.72-1.23-1.1-2.68-2.44-3.51-.33-2.5-2-1.3-3.19-1.13-.76-1.18.81-1.82.23-2.81h0a3.1,3.1,0,0,1,3.19-.77c.11,3.79.11,3.79,2,4h0a5.78,5.78,0,0,1,.77,4.68C97.37,53.6,97.16,53.45,97,53.3Z"/><path class="cls-84" d="M96.25,67.46h0L95,65.7a1.44,1.44,0,0,0-.68-1.34c.26-.34.53-.67.8-1,1.41,1.3,3.92,1.31,4.38,3.71.27-.14.53-.29.79-.44h0a5.92,5.92,0,0,1,.6,3.66C99,70,98.14,67.83,96.25,67.46Z"/><path class="cls-85" d="M40.2,47.19c-.5-3.44-1.93-2.32-3.13-2.06h0c-1.36-1.89.18-2.59,1.38-3.18a22.27,22.27,0,0,1,3.72-1.11l.61,1.38A10.76,10.76,0,0,0,40.2,47.19Z"/><path class="cls-3" d="M206.74,181.94c-1.17.23-2.23-.64-3.49-.37s-.89,2-2.32,2.13c0-1.64,1.34-2.29,1.83-3.4h0c1.31-1.52,2.55-3.12,4.61-3.74h0C208.47,178.56,205.61,179.92,206.74,181.94Z"/><path class="cls-86" d="M91.89,35.49c-.83-.57-1.77-.8-2.42-.05-1.49,1.72-2.85,1-4.26-.23,0-1.45.68-3,2.13-2.16,1.83,1.13,3.1,0,4.62.08h0c.31.74.61,1.49.92,2.23Z"/><path class="cls-87" d="M145.86,179.5a41.63,41.63,0,0,0-4.76.86c.92-1.66,1.83-3.33,2.75-5l.18-.22.28-.08h0C148.3,175.51,145.87,177.86,145.86,179.5Z"/><path class="cls-88" d="M17.53,31.57c1.63,1.09,1.8,2.33.57,3.7-.1.49-.19,1-.29,1.46h0a41.64,41.64,0,0,1-6-7.91h0C13.93,29.32,15,32.11,17.53,31.57Z"/><path class="cls-89" d="M65,110.94c1.1-.43,2.44-.46,3-1.69h0c1.35,2.07.2,3.71-.68,5.41l-1.78.81h0C63.35,114.13,64.86,112.48,65,110.94Z"/><path class="cls-90" d="M34.07,118.69h0c.21-.64.42-1.29.64-1.93,1.38-.8,2.19-.6,3.8.54,2.41,1.69-1.4,2.25.07,3.26a3.91,3.91,0,0,1-3.31.08C35.4,119.69,34.7,119.21,34.07,118.69Z"/><path class="cls-72" d="M204.82,97.22c1.33,1.52,2.87,3,2.63,5.26-1.15-1.72-2.69.49-3.91-.56a6.41,6.41,0,0,1-.34-4.09h0C203.58,97.24,203.91,96.2,204.82,97.22Z"/><path class="cls-10" d="M114.58,197.62c-.47.87.67,1.83-.14,2.91-1.4-1.58-3.25.16-4.77-1a1.42,1.42,0,0,0,.24-1.47h0s0,0,0,0h0a8.33,8.33,0,0,1,3.89-2.86h0C112.59,196.37,114.91,196.65,114.58,197.62Z"/><path class="cls-91" d="M98.21,83.65c-.41-1.66,1.1-2.51,2.68-2.89a3.8,3.8,0,0,0,1-.69c.81,1.69.27,3.41.35,5.11C100.7,85.24,98.7,85.63,98.21,83.65Z"/><path class="cls-92" d="M119.73,141.24v0a2.2,2.2,0,0,0-2.66,1.28h0l-3.59,1.34v-.14a1.2,1.2,0,0,0-.28-1.84h0c2.8.34.46-1.61,1-2.3h0c2.28.21,4.49-1.07,6.81,0C120.56,140.12,120.15,140.68,119.73,141.24Z"/><path class="cls-93" d="M89,33c-1.59-.84-3.08-1.79-1.94-3.35s.62-3.07.88-4.6a.06.06,0,0,1,0,0l0,0c1.08,1,2.67,1.64,2.39,3.5h0C88.94,29.62,89.21,31.36,89,33Z"/><path class="cls-12" d="M143.66,133.68h0a8,8,0,0,1-1.3-5c1.83,1.16,2.71.08,3.49-1.27h.29c.77,2-.11,3.78-.14,5.67C144.88,132.24,144.23,132.85,143.66,133.68Z"/><path class="cls-15" d="M182.6,228.47c.48-.41.89-1.07,1.45-1.19,1.34-.3,3-1.71,4-.58,1.17,1.34-1.09,2.19-1.47,3.45h0a.55.55,0,0,1-.29.36h0A7.64,7.64,0,0,1,182.6,228.47Z"/><path class="cls-28" d="M79,59.77c-.07.48-.15,1-.23,1.43.08,1.44,1.49,1.77,2.28,2.62h0c-1.15.51-2,1.89-3.56,1.26a1.94,1.94,0,0,1-.34-1.82,1.78,1.78,0,0,0-.57-2.84h0c-.08-.58-.15-1.16-.23-1.75h0C78,57.06,78.14,59.34,79,59.77Z"/><path class="cls-49" d="M130.56,94.13a4.1,4.1,0,0,0-1.06,2.45c-1.2.44,1.36,3.64-1.88,2.58l-.81-4.65A2.76,2.76,0,0,1,130.56,94.13Z"/><path class="cls-94" d="M215.59,187.17l-1.54,1.53c.53-2.49,1.28-4.25.81-6.16h0c.43-1.3,1.41-2.39,1.31-3.88h0c1.21-.43,1.17.8,1.7,1.28h0a3.84,3.84,0,0,1-.61,2.84A6,6,0,0,0,215.59,187.17Z"/><polygon class="cls-94" points="215.59 187.18 215.59 187.18 215.59 187.18 215.59 187.18"/><path class="cls-27" d="M95.16,63.35c.08-.48.17-1,.25-1.44,1.45.81,2.82,0,4.24,0h0c1,1.48,0,3.15.68,4.67h0c-.26.15-.52.3-.79.44C99.08,64.66,96.57,64.65,95.16,63.35Z"/><path class="cls-95" d="M221.2,104.89c.1-.9,0-2.54-1.76-1.24-.51-.87-.36-2-1.34-2.69h0c1.44-1,2.57,2,4.05.51h0c.12,2,1.84,3.51,1.84,5.53h0C222.41,107.16,220.93,107.35,221.2,104.89Z"/><path class="cls-96" d="M217.32,173.8h0c-1-.18-1.67,1.35-2.79.32h0c-.37-1.82-1.43-1.57-2.6-1-.72.38-1,1.36-2,1.29.52-.93,1.78-1.48,1.41-2.86h0c1.88-1,3.81,0,5.68.27C218.41,172.05,217.71,173.08,217.32,173.8Z"/><path class="cls-6" d="M168.88,228.42c1.66,2.41.85,4.49-2.45,6.35a14.85,14.85,0,0,1,1.44-6.28Z"/><path class="cls-97" d="M57.38,172.79c1.7.32,3.29-1.11,5.25-.07-.6,1.05-1.59,1.82-1.51,3.08a5.15,5.15,0,0,1-3.88-.57C57.76,174.47,58.48,173.72,57.38,172.79Z"/><path class="cls-98" d="M13.34,4.25c-.1-.12-.2-.26-.31-.37C13.13,4,13.24,4.12,13.34,4.25Z"/><path class="cls-98" d="M17.64,10.42c-2.16-2-5.1-3.17-6.58-5.93,1.3-1.26,2.1.22,3.08.7h0c1.67,1.22,2.59,3.06,3.93,4.56h0Z"/><path class="cls-82" d="M96.86,58.53c-.92-1.92.38-3.48.09-5.23h0c.21.15.42.3.62.46,1.35,1.93,1.6,4.13,1.91,6.31h0C98.09,60.45,97.5,59.87,96.86,58.53Z"/><path class="cls-99" d="M127.54,136.74h0c.51.6,2.36,1.31.08,1.77-2.78.57-5.24,1.86-7.89,2.73.42-.56.83-1.12,1.24-1.69l5.23-2.34h0A1.22,1.22,0,0,0,127.54,136.74Z"/><path class="cls-8" d="M23.7,106.57a3.61,3.61,0,0,1-2.08-4.21l2.32-.6c.5,1.23,1,2.47,1.49,3.7C25,106,24.62,106.7,23.7,106.57Z"/><path class="cls-81" d="M172.07,227.64h0c-.52,2.05-2.35-.22-3.19.78l-1,.07c-.34-1.36.42-2.17,1.36-2.9h0C171,225.18,172.62,224.86,172.07,227.64Z"/><path class="cls-6" d="M43.64,100.84a4.93,4.93,0,0,0-2.5,2.13h0c-.8-.51-1.4-1.47-2.54-1.16-.7-.56-1-1.58-2.12-1.65,2.22-1.35,4.74.15,7.05-.36h0Z"/><path class="cls-28" d="M227.88,143.68c-.22-.45-.45-.89-.67-1.34h0c1-2,3.21-2.54,4.8-3.82h0c.14,1.55.29,3.1.44,4.66h0C230.59,141.32,229.1,141.66,227.88,143.68Z"/><path class="cls-100" d="M230.61,171.06h0c.17-2.59-1.65-5.84,2.14-7.23-.45,1.59.35,3.45-.91,4.85h0C231.41,169.46,231.46,170.51,230.61,171.06Z"/><path class="cls-45" d="M231.73,153.49c-.75-1.07.07-2.29,1.67-2.35,1.17,2-.06,4.05.28,6.08h0C231,157,232.57,154.7,231.73,153.49Z"/><path class="cls-101" d="M225.2,160.38c.29,1.06.57,2.13.86,3.19-1-.36-1.49.09-1.55,1.08l-1.1-.79h0c-.24-.44-.48-.88-.73-1.32h0C222.61,160.8,223,159.62,225.2,160.38Z"/><path class="cls-102" d="M143.66,133.68h0c.57-.83,1.22-1.44,2.34-.65.41,2.06-.75,3.74-1.15,5.6h0C143.48,137.17,143.77,135.39,143.66,133.68Z"/><path class="cls-103" d="M92.26,40.54c-2.41-1.61-1.88-3.31-.37-5h0l1-.13c.24.77.49,1.53.73,2.3h0C91.33,37.73,94,40.08,92.26,40.54Z"/><path class="cls-104" d="M191.65,160.41a1.56,1.56,0,0,0,1.59.32h0c.35.55.7,1.1,1.06,1.65-.38,1.09.84,3-.35,3.26-2,.45-.56-1.88-1.52-2.59a14.91,14.91,0,0,1-1.66-1.62h0l-.73-1.32h0C190.57,160.31,191.06,160.7,191.65,160.41Z"/><path class="cls-41" d="M26.9,105.79c-.09.47-.17.95-.26,1.43-1.75.29-.68-1.25-1.21-1.76-.5-1.23-1-2.47-1.49-3.7l.78-.21h0C26.77,102.35,27.07,104,26.9,105.79Z"/><path class="cls-2" d="M55.43,74l.22.17h0l.59.6-.5-.29-.66-.37-.39-.22a39.6,39.6,0,0,1-10.32-8.32h0Z"/><path class="cls-53" d="M31,117.38a2.15,2.15,0,0,1,3.11,1.31h0c.63.52,1.33,1,1.2,2a1.43,1.43,0,0,1-1.79.15h0Z"/><path class="cls-72" d="M225.73,123.23l3.33,1h0c.09.67.18,1.35.26,2h0C227.16,126.38,225.46,126,225.73,123.23Z"/><path class="cls-66" d="M222.39,156.69c.39.25.67.78.34,1.12-.6.61-.22,2.52-2.06,1.57a2.57,2.57,0,0,1-.88-2.14h0C220.53,156.56,221.32,156,222.39,156.69Z"/><path class="cls-8" d="M18.1,35.27c1.28.37,2.82-.3,3.94,1.11-1.13,1.25-2.25,2.06-3.88.7h0a.84.84,0,0,1-.35-.35h0C17.91,36.24,18,35.76,18.1,35.27Z"/><path class="cls-31" d="M215.41,87.08c-.48-.2-.5-.94-.19-1.06,1.08-.44-.55-3,1.83-2.27a2,2,0,0,1,.71,2.2h0C217.14,86.64,216.61,87.58,215.41,87.08Z"/><path class="cls-25" d="M127.06,84.07c.17,1.28.27,2.69-1.49,3.06a5.43,5.43,0,0,1-.61-3.75h0C125.62,83.77,126.86,82.51,127.06,84.07Z"/><path class="cls-54" d="M98.34,112.32c-.7-2,.72-3.08,1.69-4.38l.82-.12-1.08,4.85h0A1.2,1.2,0,0,1,98.34,112.32Z"/><path class="cls-46" d="M11.06,4.49h0c-.59-.45-1.13-1-2-.74h0C8.9,2.71,8.83,1.63,7.69,1h0A12.57,12.57,0,0,1,13,3.88c.11.11.21.25.31.37a7.27,7.27,0,0,1,.79.94h0C13.16,4.71,12.36,3.23,11.06,4.49Z"/><path class="cls-29" d="M206.22,83.14c-1.16.9-2,1.9-3.49,1.94-.72-.84-.4-1.58.1-2.3h0C203.83,82.68,204.83,82.26,206.22,83.14Z"/><path class="cls-12" d="M94.75,45.07a1.19,1.19,0,0,1,1.29.24h0c.25,1.26.5,2.52.76,3.77h0C94.86,48.86,94.86,48.86,94.75,45.07Z"/><path class="cls-63" d="M84.64,149.87h0l-.49-.38a5.6,5.6,0,0,1,4-2.06h0C87.09,148.41,88,152,84.64,149.87Z"/><path class="cls-105" d="M140.9,131.56c.14.95.29,1.9.44,2.85a1.54,1.54,0,0,1-1.48-.37h0c-1.09-.76-1.4-2-1.84-3.08l1.33-.6Z"/><path class="cls-88" d="M43.34,42.62a5.47,5.47,0,0,1,2.07,3.15h0C43,45.77,41,45.51,43.34,42.62Z"/><path class="cls-106" d="M76.71,38.39c.79.6,1.58,1.2.82,2.27-.36.35-.78.9-1.13,0s-.8-.8-1.31-.22l.09-2.38h0Z"/><path class="cls-107" d="M82.24,105.22c.26,1,1.24.73,1.93,1l-.35.63h0l-.49.27h0a5.56,5.56,0,0,0-4-1.32h0l-.24-1.21c1.27-.23,2.5-.77,3.86-.26C82.73,104.64,82.18,105,82.24,105.22Z"/><path class="cls-6" d="M165.74,240.11c-.85-2-.12-3.67.66-5.37h0C169,237,165.15,238.19,165.74,240.11Z"/><path class="cls-78" d="M177.4,125.69c.72.61,1.15,1.33.68,2.21s-1.21.53-1.91.17h0l-.36-2.8h0A1.63,1.63,0,0,0,177.4,125.69Z"/><path class="cls-49" d="M57.39,166.19a8.39,8.39,0,0,1,2.41-2.95h0C61.81,166.51,59.11,166,57.39,166.19Z"/><path class="cls-108" d="M84.17,106.23c-.69-.28-1.67,0-1.93-1-.06-.23.49-.58.75-.88a1.53,1.53,0,0,1,.4-.26h0C85.1,104.34,85.5,105,84.17,106.23Z"/><path class="cls-60" d="M209,202.38h0c-.7,2.39-2.44,4.1-3.87,6C205.34,205.73,207.68,204.41,209,202.38Z"/><path class="cls-85" d="M138,70.51c-.48-.3-.94-.75-.73-1.32.36-1,1.13-.67,1.85-.29.06.26.12.52.17.78h0C139,70.05,139.05,71.13,138,70.51Z"/><path class="cls-3" d="M109.91,198.05h0l-4.06,5.18c.43-2.45,2-4,4.06-5.18Z"/><path class="cls-57" d="M179.41,170.51l-1.5,2.11h0c-.79.81-1.17,2-2.55,2.19h0C176.71,173.38,177.3,171.25,179.41,170.51Z"/><path class="cls-109" d="M141.34,134.41c.15.94,2.09,1.81.26,2.83h0l-1.74-3.19h0A1.54,1.54,0,0,0,141.34,134.41Z"/><path class="cls-110" d="M57.38,172.79c1.1.93.38,1.68-.14,2.44-.82-.13-1.12-.83-1.54-1.39h0l1.68-1.05Z"/><path class="cls-111" d="M91,147.65c-1.07,0-.38-.89-.27-1.41l1.28-.46h0C92.33,146.76,92,147.69,91,147.65Z"/><path class="cls-53" d="M215.59,187.18h0a6,6,0,0,1,1.67-4.39,7.09,7.09,0,0,1-1.67,4.39h0Z"/><path class="cls-38" d="M37.83,34.23c1,1,2.09,2,2.3,3.49h0C38.94,36.82,37.82,35.87,37.83,34.23Z"/><path class="cls-16" d="M85.51,21.55c1,.91,2.58,1.32,2.73,3h0C87.33,23.53,85.7,23.18,85.51,21.55Z"/><path class="cls-6" d="M178.35,212.92c-.67-.12-1.06.29-1.47.67-.11-1.1.69-1.72,1.26-2.46h0A1.18,1.18,0,0,1,178.35,212.92Z"/><path class="cls-60" d="M204.69,208.91l-2,2.54h0A2.06,2.06,0,0,1,204.69,208.91Z"/><path class="cls-69" d="M165.44,180.85h0a1.39,1.39,0,0,0-.24,1.49h0s0,0,0,0a.56.56,0,0,1-.42.42c-.32-.24-.95-.55-.92-.7A1.39,1.39,0,0,1,165.44,180.85Z"/><path class="cls-60" d="M209,202.38c-.41-1.42.88-2,1.4-3,.33,1.39-.86,2-1.4,3h0s0,0,0,0Z"/><path class="cls-30" d="M128.12,143.66c-.7.87-1.22,1.94-2.47,2.21h0C126.26,144.9,126.72,143.77,128.12,143.66Z"/><path class="cls-69" d="M165.19,182.35h0c.81-.78,1-2.41,2.73-1.92-1,.48-1.47,1.75-2.73,1.93Z"/><path class="cls-27" d="M77.14,63.26l-.57-2.83h0A1.78,1.78,0,0,1,77.14,63.26Z"/><path class="cls-10" d="M138.43,183.52c-.27,1,1.48,1.56.59,2.82-1.27-1.08-2.53-1.33-3.73,0a1.33,1.33,0,0,1-2.26-.06c-1.85-2.53-2.9-.86-4,.51-.23-.44-.46-.89-.68-1.34,1.46-2,3.95-2.09,6-3,.24-.12.08,1.78,1.37,1.08.72-.39.78-1.18.82-2s.59-.6,1.09-.32l0,0Z"/><path class="cls-112" d="M141,187.93h0l4.49-2.26c.2.76-.2,1.68.71,2.26h0c-1.81,1.23-3.64,2.44-5.44,3.69-.55.38-.78,1.55-1.72,1s.06-1.28.16-1.93a14.35,14.35,0,0,0,.08-1.61h0Z"/><path class="cls-113" d="M145.48,185.68c.43-1.12,1.7-1.29,2.41-2.09h0c1.14,0,1.82-1.4,3.14-.92l1.17,1h0c-.55.65-1.09,1.3-1.64,1.94h0c-2.06-.26-2.61,2.08-4.37,2.34h0C145.28,187.36,145.68,186.44,145.48,185.68Z"/><path class="cls-10" d="M129,186.8c1,.4,2.65-.41,2.79,1s-1.4.66-2.25.69a1.63,1.63,0,0,0-1.66,1.23c-.25.9-.74,1.3-1.63.6s-1.23-1.62-.46-2.5a33.18,33.18,0,0,1,2.53-2.35C128.55,185.91,128.78,186.36,129,186.8Z"/><path class="cls-114" d="M117.39,193.17a7.22,7.22,0,0,0,3.93-.9c.85.33,2.23.12,2,1.65-.18,1.13-.71,2-2.15,1.85a20.67,20.67,0,0,0-2.61,0h0Z"/><path class="cls-115" d="M130.48,193.77a26,26,0,0,1,7.44-4.57C137.46,192,134.37,193.88,130.48,193.77Z"/><path class="cls-37" d="M120,197.34c1.65.11,3-.24,3.36,1.42a1.2,1.2,0,0,1-1.22,1.53C120.25,200.33,120.88,198.6,120,197.34Z"/><path class="cls-28" d="M89.56,71.7c-1.12-.85-2.21-1.82-3.67-.87l0,0-.5-.39h0c1.83-3.57-2.63-4.3-3.38-6.7.43-.5,1.17-1.09,1.64-.71a6,6,0,0,0,6.86.8c.28.75.55,1.5.83,2.26l0,.14c-1.39,3.45.22,6.29,2.39,9a4,4,0,0,1-2.1,1.6h0L91.25,75C90,74.25,90.68,72.56,89.56,71.7Z"/><path class="cls-27" d="M87,74.69c-1.24,1.28-2.79.91-3.66-.92C82,71,85.45,72.19,85.87,70.85a0,0,0,0,0,0,0c1.46-1,2.55,0,3.67.87S90,74.25,91.25,75l-1.73,1.09C89.21,74.72,89.93,71.69,87,74.69Z"/><path class="cls-27" d="M92.75,81.9c1,.76,1.61,0,2.38-.32.51-.2,1.5.19,1.28.41-1.86,1.84-.67,3.13.71,4.61.28.31-.56.77-1.15.72-1-.08-2-.19-2.94-.29h0c-.08-1.53-.16-3.07-.25-4.6l0-.53Z"/><path class="cls-116" d="M100,107.94c-1,1.3-2.39,2.4-1.69,4.38-.44-1.45-4.73-1.06-2.11-4h0A2.86,2.86,0,0,1,100,107.94Z"/><path class="cls-5" d="M90.69,105.57c-1.13-1.14-3-1.61-3.39-3.42h0C88.42,103.3,90.3,103.72,90.69,105.57Z"/><path class="cls-27" d="M92.75,81.9h0a1.93,1.93,0,0,1-.44-2.79h0C93.4,79.94,92.88,80.94,92.75,81.9Z"/><path class="cls-95" d="M9.07,3.76h0c.85-.31,1.39.29,2,.74C10.51,6.06,8.69,7.3,10,9.31c.39.6,1.42,1,.83,1.86-.75,1-1.52-.2-2.29-.3-1.62-.23-1.6-1.59-2.08-2.62h0C6.31,6.14,9.59,6.1,9.07,3.76Z"/><path class="cls-117" d="M16.24,20c1.72-.47,3.42-1.59,4.78,1,1.13,2.16-.34,2.69-1.62,3.49-.55-.73.65-2.44-1.41-2.32h0C16.69,22,15.87,21.4,16.24,20Z"/><path class="cls-118" d="M26.69,27.2c.26.56.17,1.17-.6,1.08s-1.55-.25-1.77-.66c-.83-1.57.81-2.63,1.06-4.06.22-1.26,1.55,0,2.34.42l.15.93C27.34,25.6,26.09,25.88,26.69,27.2Z"/><path class="cls-36" d="M208.62,103c1.57,2,2.18,2.12,2.7-.62.28-1.53-.42-3.24.63-4.6,1.37,2.44,3,4.29,6.15,3.14,1,.66.83,1.82,1.34,2.69l-.63,1.95h0c-1.12-.51-1.86-2.43-3.48-1.08h0l0,0c-.72-1.55-1.54-2.59-2.91-.66h0c-.5,1,.29,2.81-1.37,2.85s-3.77-.07-4.89-1,.7-2.16,1.32-3.21h0C207.85,102.67,208.39,102.74,208.62,103Z"/><path class="cls-119" d="M218,109.89c-.76,1.39-.19,3.33-1.69,4.4-2.11.69-4.66,2.87-5.08-1.82-.08-.77-1-.69-1.68-.79s-1.6.49-1.89-.71c-.26-1,.67-1.19,1.22-1.64.77-.63,1.79-.85,2.36-.07,2.39,3.21,3.68.92,5.16-.61A1.83,1.83,0,0,0,218,109.89Z"/><path class="cls-118" d="M225,127.53c-1.68.53-2.84-.51-4-1.49l.39-.5c.55-.67,1.6-.94,1.41-2.18a.81.81,0,0,1,1.18-.92c.29.13.32.91.47,1.39,0,1.7,2.45,1.81,2.42,3.52Z"/><path class="cls-120" d="M218.81,105.6h0c.78,1.66-.3,2.91-.78,4.3h0a1.83,1.83,0,0,1-1.6-1.24c.4-1.54,1-3.12-1.1-4.13h0C217,103.17,217.69,105.09,218.81,105.6Z"/><path class="cls-119" d="M217.83,117.9c.23,1-.22,2-1.11,1.82-1.23-.29-1.43-1.87-1.74-2.87s.9-.79,1.64-.71Z"/><path class="cls-121" d="M221,126a5.78,5.78,0,0,1-3.07-1.57l-.15-.92c2.23-1.28,2.75.68,3.61,2Z"/><path class="cls-22" d="M212.4,103.88h0c1.37-1.93,2.19-.89,2.91.66-1.39,2-1.91-.58-2.91-.66Z"/><path class="cls-122" d="M151,182.67l.37-.54h0l3.39-2.92h0l.89-.21h0c1.78.57,3.12.45,3.08-1.83a3.87,3.87,0,0,0,.35-.45h0c.89-.07,2-.14,2.36.74.37,1-.91,1.27-1.57,1.73-2.36,1.62-4.76,3.19-7.15,4.77l-.06,0h0l-.49-.34h0Z"/><path class="cls-8" d="M152.77,178.33h0l-.53-.4h0a5.68,5.68,0,0,0-.93.19c-2.51,1-1.16-2-2.55-2.5-.52-.18.34-1.52,1.12-1.3,1.72.5,3.4,1.28,3.3,3.53C153,178,152.91,178.18,152.77,178.33Z"/><path class="cls-123" d="M158.76,177.17c-.9,0-1.3.66-1.82,1.17h0c.1-1.37-.9-2.15-1.8-2.93-.67-.57-2.22-.21-1.92-1.75a1.26,1.26,0,0,1,.94-.72,2.7,2.7,0,0,1,2.84,1.28,5.8,5.8,0,0,0,2.11,2.5h0A3.87,3.87,0,0,1,158.76,177.17Z"/><path class="cls-124" d="M151.4,182.13h0c-1.33-2,.94-2.53,1.37-3.8h0c.14-.15.27-.31.4-.47.45.57,2.51-.82,1.62,1.35h0Z"/><path class="cls-55" d="M163.34,175.89c-2,1-2.93-1.54-4.62-1.59,0-.29,0-.78.12-.84,1.79-.75,3.1.45,4.46,1.37.17.11.24.36.36.55h0A3.36,3.36,0,0,1,163.34,175.89Z"/><path class="cls-125" d="M158.76,177.17c0,2.28-1.3,2.4-3.08,1.83h0l1.26-.66h0C157.46,177.83,157.86,177.13,158.76,177.17Z"/><path class="cls-69" d="M171.78,172.71l2,.74c-.85.47-2.05.26-2.65,1.2-.34-.82.18-1.32.59-1.87l.06-.08Z"/><path class="cls-72" d="M190.34,214.08h0c2-.86,1.18-2.9,1.71-4.37h0l.81-1h0l.5.4h0l.13-.06c1.44-.72,3.4-1.12,4.07-2.29,1.48-2.54,2.33-1.53,3.44.1a.36.36,0,0,1,.07.1c-.7,1.31-2.08,1.28-3.33,1.59a4.18,4.18,0,0,0-3.44,4.39c0,.72.31,1.29,1.18,1.25.68,0,.94-.42.8-1.07-.76-3.61,1.93-1.87,3.1-2.23,2.07,1.46-4.55,1-.13,2.82h0c-2.06,2.2-3.2,5.23-6.06,6.71H193c-3.66.06-6.72,2.38-10.44,2.2-.91,0-2.05,0-1.88-1.24s.32-2.69,1.72-3.24c1.19-.48,1.45.23,1.53,1.33s.75.74,1.21.23c.62-.69,1.39-.37,2.15-.3,3.74.36,3.86.24,2.79-3.14a2.27,2.27,0,0,1,.23-2.15Z"/><path class="cls-126" d="M188.06,211.52c2.17-.35,2.38,1,2.28,2.56h0c-1.47.43-2.86.94-3.25,2.66a1.42,1.42,0,0,1-1.63,1.22,1,1,0,0,1-.92-.82c-.2-.76.32-1.11.85-1.53,1-.79,2.08-1.55,1.88-3.1l.79-1Z"/><path class="cls-127" d="M188.06,211.52h0l-.79,1,.12-2.36h0l.19-.25.2-.25h0C189.62,210.1,188.44,210.85,188.06,211.52Z"/><path class="cls-3" d="M141.2,78.08h0c-.83,1.47-.54,3.79-3,4C137,77.71,137.53,77,141.2,78.08Z"/><path class="cls-73" d="M132.05,63.45l.78-1h0l.54.41L135,64.1a4.66,4.66,0,0,1,1.74,2.18c-.19.56.6,1.37-.15,1.72s-1.47-.41-1.86-1c-.84-1.23-1.14-2.82-2.66-3.58Z"/><path class="cls-57" d="M133.91,82.05c-.25.74,0,1.8-1.22,1.92-.67-2.33-.67-2.33-2.77-3.4h0l1.71-1.11C134.61,78.45,133.9,80.55,133.91,82.05Z"/><path class="cls-95" d="M212,97.82c1.81-.85,1.92-1.67.09-3-2.26-1.62-2.49-3.72-.82-4.93,0,1.8,1.63,1.59,2.68,2.08l1.07.83-.79,1c-.17,1.63-.17,1.63,2.54,1.16a7.36,7.36,0,0,0,1.38,6h0C215,102.11,213.32,100.26,212,97.82Z"/><path class="cls-128" d="M209.67,88.12c-3.12,2.28-2.53,4.77-.2,7.49.8.94.29,1.86-.45,2.6-.45.45-1.36,1-1.59.37-.36-1.07-2.32-1.52-1.61-2.56,1.35-2-.21-3.44-1-4.76a2.35,2.35,0,0,1,.72-3.31c.95-.75,2.55-.7,3.82-1C209.77,87.36,210.13,87.79,209.67,88.12Z"/><path class="cls-63" d="M134,94.23l-1.54-.3h0c-.73-.75-2.54-.33-2.47-1.69.06-1.11,1.62-.57,2.41-1a8.3,8.3,0,0,0,1-.7C133.56,91.78,133.75,93,134,94.23Z"/><path class="cls-7" d="M125.65,78.56l4.27,2h0C127.77,82.71,127.43,82.57,125.65,78.56Z"/><path class="cls-98" d="M130.56,94.13c.52.42,1.05.83,1.58,1.24h0c-.2.93-.22,2-1.31,2.37-.89.27-1-.7-1.34-1.17A4.1,4.1,0,0,1,130.56,94.13Z"/><path class="cls-34" d="M132.41,93.93h0l1.54.3,1,.88,0,0v0h0c-.19.66-.37,1.32-.55,2l-2.22-1.7v0C132.24,94.89,132.33,94.41,132.41,93.93Z"/><path class="cls-129" d="M135,95.07l0,0-1-.88c-.2-1.22-.39-2.45-.59-3.67h0l.35-.51h0l1.2,1.77C134.94,92.9,135,94,135,95.07Z"/><path class="cls-5" d="M221.54,133c-.7-.58-1.48-1.14-.88-2.16a1.29,1.29,0,0,0-.33-2c-1-.7-1.1.24-1.65.69-1.49,1.26-3.12.34-3.85-1.49-1.33-3.34,2.14-2.35,3-3.63A5.78,5.78,0,0,0,221,126c1.17,1,2.33,2,4,1.49-1.55,1.39.35,2.81.17,4.21-.48,1-1,2-1.45,3A2.28,2.28,0,0,0,221.54,133Z"/><path class="cls-130" d="M221.22,137.1c.08.52.17,1,.25,1.57h0l-1,.09h0c-.31-.44-.6-.91-.93-1.34-1.25-1.59,1.26-2.91.1-4.49l1.88.12h0a2.28,2.28,0,0,1,2.14,1.66c-.35,1.26-2.81.13-2.51,2.13A.52.52,0,0,0,221.22,137.1Z"/><path class="cls-131" d="M222,149h0c-1.43-.17-3.08.29-4-1.48h0l.78-1a1.92,1.92,0,0,0,2.24-.68h0C221.41,146.83,221.72,147.89,222,149Z"/><path class="cls-15" d="M180.71,107h0c-.71-.51-.45-1.39-.81-2-.77-1.26-1.08-.44-1.33.33-.2,0-.57-.09-.58-.15-.26-2.89-1.63-5.75-.64-8.68.19-.56.49-1.4-.25-1.77-4.92-2.49-.93-2.91.7-3.89,1.74.85,1.77,2.37,1.77,3.91,0,4.28-.92,8.73,3,12.31.16.15-.12.78-.19,1.18C181.91,107.7,181.88,106.62,180.71,107Z"/><path class="cls-44" d="M179.9,105c.36.6.1,1.48.81,2h0l-.32.46c-1.55-.07-1.57,0-.54,2.91h0c.11.63.21,1.26.31,1.88h0c-2.11-.33-1.17-2.68-2.49-3.54-.55-.9-2.34-2.14.56-2.07.47,0,.57-.75.34-1.3C178.82,104.58,179.13,103.76,179.9,105Z"/><path class="cls-132" d="M41.26,50.84c1.5.52.81,2.3,1.9,3a9.55,9.55,0,0,1,1.75,1.92c.42.81,0,1.55-1,1.35-1.43-.27-3.15-4.45-2.66-6.11,0-.07,0-.15,0-.21Z"/><path class="cls-133" d="M33.6,55.24c1-2.06,1.46.41,2.23.35,0,.8.31,1.08,1.07.84l1.6,1.24c-.29.3.69,1.95-.85.89s-2.65-2.15-4-3.25l-.08-.07Z"/><path class="cls-40" d="M36.9,56.43c.45-.55.81-1.24,1.73-1.12a2,2,0,0,1-.13,2.36Z"/><path class="cls-60" d="M201.07,206.92s0-.06,0-.1c.35-2.06-1.6-3.23-2.54-5.21,3.15,1.76,5,.29,5.15-2.08.17-3.19-2.92-1-4.41-2,.3-1.27,1-2,2.44-1.83a4.51,4.51,0,0,0,4.85-2.5,1.87,1.87,0,0,0,1.61,1.25c-1.38,1-.14,2.18,0,3.29l-2.55-1.16c-.75-.11-1.93-.41-2,.34-.14,1,1.27,1.32,1.93,2s2.41.4,2.29,2c-.11,1.4-1.13,1.9-2.44,2-1,.12-2.17.31-.87,1.72C203.8,206.07,203.53,208.08,201.07,206.92Z"/><path class="cls-58" d="M191.62,206.88h0c1-2.19,2.91-3.65,4.27-5.56h0s.06-.06.09-.1c.47-.42.64-1.16,1.09-1.2.31,3.59-.24,6.95-3.6,9l-.11.08h0l-.5-.4h0c-.87-1.54-1.34-.5-1.87.19-.28.23-.55.76-1,.32-.22-.24-.11-.76-.14-1.16l.39-.5A1.29,1.29,0,0,0,191.62,206.88Z"/><path class="cls-134" d="M195.89,201.26s0,0,0,.06h0c-1.36,1.91-3.28,3.37-4.27,5.56h0c-1.55-1.17.6-2.14,0-3.25h0a1.13,1.13,0,0,1,.1-.13c1.43-1.87,2.57-4.06,5.23-4.6h0C196.52,199.63,195.69,200.21,195.89,201.26Z"/><path class="cls-135" d="M199.86,192.94l1.52.34-3.57,4.55h0l-.66-1.33Z"/><path class="cls-53" d="M206.56,193.22a6.33,6.33,0,0,1,3.12-1.64c-.11,1.43-1,2.08-1.51,2.89A1.87,1.87,0,0,1,206.56,193.22Z"/><path class="cls-53" d="M216.17,178.66h0c.1,1.49-.88,2.58-1.31,3.88C213.76,180.67,214.62,179.53,216.17,178.66Z"/><path class="cls-67" d="M78.59,159.85c1.35-2.25-.89-2.89-2-4h0c1.74-2.71,5.28-1.52,7.55-3.08.8.72,2.23,1.26,1.78,2.53s-1.45-.17-2.21-.09a1.06,1.06,0,0,0-1,1c-.07.86.34,1.69,1.21,1.71,1.91,0,3.91,1.13,5.74-.11l.93-.09c.09.62.19,1.23.28,1.84-.86.73-1.71,1.46-2.59,2.18-1,.85-1.7.57-1.93-.79.62.35,1.24.6,1.67-.18a.77.77,0,0,0-.38-1.1c-1-.52-1.33.34-1.81.86h0c-3.4,1.24-.16,3.15-.25,4.72h0c-2.08-2.18-4,1.4-6.48-.44,2.84-.63.26-3,1.52-4.24-1.1-1-1.82.47-2.79.28Zm2,.74h0c.66.61,0,2.25,1.58,2.06.54-.07.73-.78.56-1.36C82.35,160,81.65,159.64,80.59,160.59Z"/><path class="cls-31" d="M95.9,154.39c0-.5.65-1,1-1.54,1-.6,1.14,1.08,2,.77.43.33.85.69,1.31,1,.62.42,1.34,1,1.89.06.4-.71-.25-1.16-.74-1.58s-1.21-.95-1.81-1.43h0l.08-.1c.1-.13.2-.27.31-.4l2.24-.72h0c-.33.61-.53,1.21.55,1.12a21.76,21.76,0,0,0,2.41-.45,4.58,4.58,0,0,0,.92,3.38c.83,1.34,1,3-.76,3.51a13.29,13.29,0,0,0-3.31,1.87c-1.48.91-2.22.6-2.43-1.11-.08-.64.16-1.43-.69-1.67-1.22-.33-.88.93-1.29,1.43s-1.68,1.77-1.79,1.3c-.46-2.05-4-.5-3.52-3.21C94.27,157.07,96.17,157.46,95.9,154.39Z"/><path class="cls-62" d="M89.63,157.83c-.63-1-.32-1.58.64-2h0c.62-.93,1.81-.73,2.66-1.21h0c.35.87-.24,1.38-.67,2h0c-.91-.11-1.27.58-1.71,1.13Z"/><path class="cls-57" d="M123.2,142.29c1.29,1.82,0,1.67-1.19,1.53-.05-.33-.09-.65-.14-1h0A1.37,1.37,0,0,1,123.2,142.29Z"/><path class="cls-57" d="M122.83,146.08c-1.62,1.36-2.36-.55-3.47-1.06.85-.3,1.39.3,2,.73h0Z"/><path class="cls-31" d="M107.81,149.92c-.63.92-1.38,1.58-2.65,1.2A3.52,3.52,0,0,1,107.81,149.92Z"/><path class="cls-136" d="M135.84,97.29h0c1.14,1,.67,2.53,1.36,3.68-.31,1.42,1,2.82.29,4.25l-1-.81c-.28-2.19-1.34-4.27-1.21-6.52Z"/><path class="cls-109" d="M139,121.93l-.54-.41h0a4.34,4.34,0,0,1-.42-2.78l.51.4h0A4.27,4.27,0,0,1,139,121.93Z"/><path class="cls-61" d="M134.93,95.1h0a2.39,2.39,0,0,1,.86,2.2l-.58.6-.88-.81h0C134.56,96.42,134.74,95.76,134.93,95.1Z"/><path class="cls-6" d="M42.25,110.37h0l-.54-.41c-.94-.53.53-2.78-1.65-2.3-.94.21-1.75.84-2.75.12,1.44-1.58-2.08-4.18.88-5.45.92.55,1.7,1.88,2.94.64h0C42.32,105.36,43.06,107.79,42.25,110.37Z"/><path class="cls-6" d="M44.64,110.62h0c1.12,0,2.24,1.36,3.35.15l2,.72h0L48.8,113a4.15,4.15,0,0,1-2.12,1.61c-3.7.6-4.73-.38-4.43-4.26h0Z"/><path class="cls-8" d="M32.68,108.56c.08-1.23.09-1.93-1.38-1.8a1,1,0,0,1-1.23-1.13c0-.72-.1-1.63.71-2s1.17.41,1.71.76a5.6,5.6,0,0,1,2.14,2.48c-.08.78.6,1.63-.11,2.36C33.73,109.48,32.59,110,32.68,108.56Z"/><path class="cls-32" d="M27.83,108.33c-1.37,1.54,1.72,1.89,1.38,3.33h0c-1.51-1.13-3.31-2.11-2.56-4.44.09-.48.17-1,.26-1.43,1.88.42,2.68,1.86,3.35,3.42C29.46,108.79,28.64,107.41,27.83,108.33Z"/><path class="cls-46" d="M29.21,111.66h0c.34-1.44-2.75-1.79-1.38-3.33.81-.92,1.63.46,2.42.88a1.41,1.41,0,0,0,.67,1.34C30.71,111.44,30.71,112.63,29.21,111.66Z"/><path class="cls-137" d="M179.85,110.38c-1-2.87-1-3,.54-2.91l.56,1.38h0s0,.05,0,.09a1.55,1.55,0,0,0,.72,1.27l-.21.51h0C181,110.46,180.45,110.12,179.85,110.38Z"/><path class="cls-92" d="M181,108.85l-.56-1.38.32-.46h0c1.17-.39,1.2.69,1.62,1.25-.14.83-.48,1.25-1.3.64a.35.35,0,0,1-.08-.05Z"/><path class="cls-138" d="M191.65,160.41c-1.94-4.91-2.17-10.15-3.73-15.14h0c-.5-3.18-1.51-6.28-1.72-9.54-.18-2.84-.41-5.82-2.33-8.33,0,0,0,0,0,0h0c.14-.17.29-.33.44-.49h0l.9-.11h0l1.56,1.24h0q2,9,4.09,17.93h0c-.33,3,.73,5.8,1.7,8.62a1.54,1.54,0,0,0,0,.17h0q.33,3,.64,6h0A1.56,1.56,0,0,1,191.65,160.41Z"/><path class="cls-72" d="M185.2,126.77h0c.7-1.64-.9-3-.69-4.64l-.54-3.78h0c1.31-1.19,2.5-1.7,3.45.56.32.75.85.43,1.25,0,1,3.2-2.07,5.49-1.54,8.59,0,.15-.24.34-.37.51h0Z"/><path class="cls-139" d="M89.59,48.37h0c-1.74-.83-2.39-2.72-3.86-3.82h0c-.81-1.65-1.5-3.76-3.47-1.06-1.61.19-1.23-.9-1.21-1.76,3.2-.53,3.16-3.11,3.42-5.51l.54.42h0c.58.85.28,2.64,1.63,2.54,2.61-.19,1.65,1.63,2,2.74,0,1.07.56,1.49,1.61,1.27h0c1.17.55,1.16,1.65,1.34,2.65h0Z"/><polygon class="cls-139" points="84.42 36.22 84.42 36.22 84.42 36.22 84.42 36.22"/><path class="cls-86" d="M81,41.73,79.79,40h0c1.67-1.1,2.51-3.17,4.63-3.74h0C84.16,38.62,84.2,41.2,81,41.73Z"/><path class="cls-86" d="M78.6,41.49l-1.07-.83c.76-1.07,0-1.67-.82-2.27,1.41-.26,2.08,1,3.08,1.57h0A1.65,1.65,0,0,0,78.6,41.49Z"/><path class="cls-60" d="M202.08,188.91c-.66,1.38-2.33,2.19-2.22,4h0l-2.71,3.56c-2.49,1.14-2.78-1.33-2.73-2.29.06-1.21-2.38-3.42.41-3.67,3.34-.3,4.94-3.15,7.82-4.11-.17.75-.32,1.42-.48,2.1l-.09.37Z"/><path class="cls-117" d="M20.27,28c.56.48,1.39.88,1,1.8a.9.9,0,0,1-.74.45c-.92-.08-1.15-.89-1.48-1.57a1.5,1.5,0,0,1,.18-1.5C19.58,27.44,19.94,27.7,20.27,28Z"/><polygon class="cls-117" points="19.23 27.17 19.23 27.17 19.23 27.17 19.23 27.17"/><path class="cls-77" d="M189.61,206.17c-.68.78-1.82,1.08-2,2.34-.15.82-1,1.11-1.84.88a1.67,1.67,0,0,1-1.39-1.27,1.82,1.82,0,0,1,1.07-1.85,32.2,32.2,0,0,1,3.53-1.44C189.16,205.28,189.39,205.72,189.61,206.17Z"/><path class="cls-6" d="M190,209.18c.4.44.67-.09,1-.32.57,0-.64,2.24,1.06.85h0c-.53,1.47.27,3.51-1.71,4.37h0c.1-1.59-.11-2.91-2.28-2.56h0c.38-.67,1.56-1.42-.28-1.87h0c.61-.65.91-1.7,2.12-1.63C189.93,208.42,189.82,208.94,190,209.18Z"/><path class="cls-6" d="M191.62,206.88h0a1.29,1.29,0,0,1-1.33.64c-.23-.45-.46-.9-.68-1.35s-.45-.89-.67-1.34l2.69-1.2h0C192.22,204.74,190.07,205.71,191.62,206.88Z"/><path class="cls-65" d="M111.75,142.19c.13-1,.84-.65,1.46-.33h0a1.2,1.2,0,0,1,.28,1.84C112.64,143.5,111.59,143.43,111.75,142.19Z"/><path class="cls-7" d="M132.05,63.45c-1.09-1.71-2.93-2.3-4.62-3.2,2.23-.37,4.13,0,5.4,2.19h0Z"/><path class="cls-7" d="M133.37,62.85c.72,0,1-1.37,1.75-.77s.29,1.38-.14,2Z"/><path class="cls-81" d="M31.86,41.89l2.52,1.16h0c-.22.91-.09,2.09-1.56,2.05h0C31.65,44.24,30.9,43.28,31.86,41.89Z"/><path class="cls-121" d="M97,78.65c-.52-1.47,0-2.13,1.56-2l.53.4c.81.77,1.3,1.66.42,2.54s-1.38-.11-2-.49h0Z"/><path class="cls-66" d="M98.19,87.21c.55-.73,1.07-.89,1.58-.5a.93.93,0,0,1,.1,1.42c-.43.55-1,.91-1.61.26A.83.83,0,0,1,98.19,87.21Z"/><path class="cls-54" d="M73.19,167.9h0c-.7-2.5-.64-5.12-1.74-7.56-.36-.79-.63-1.86.38-2.3,1.5-.67,1.46-2.27,2.26-3.35h0l.6,1.32c-.26.34-.53.67-.78,1-2,2.83-1.65,3.59,2.22,4.09.38-1.18-2.46-2.18-.66-3.16,1.49-.82,2.22,1,3.12,1.89l-.79,1c-.61,1.54-2.39,1-3.81,1.75,2.1,1.34,1,3.46,2,5l1.06.84h0l-.78,1a4.83,4.83,0,0,1-2.56-1.15Z"/><path class="cls-63" d="M78.19,167.44c.4.65-.4,1-1.14,1h0L76,167.62C76.73,167.49,77.52,166.38,78.19,167.44Z"/><path class="cls-8" d="M64.62,169c-.08-1.12.74-1,1.52-.85l1.06.83a4.08,4.08,0,0,1-1,2.45c-.89.35-1.72,1.09-2.79.28h0C64,170.88,64.71,170.17,64.62,169Z"/><path class="cls-52" d="M63.34,168.41c-1,.92-1.82.54-2.33-.53-.36-.74.27-1.14.92-1.38,1.36-.5,1.71.26,1.8,1.38v0Z"/><path class="cls-63" d="M66.14,168.13c-.78-.16-1.6-.27-1.52.85s-.66,1.9-1.25,2.71h0c-.38-1.11.88-2.15,0-3.28l.39-.51v0c.4-.5.79-1,1.18-1.51C65.5,166.84,66.21,167.23,66.14,168.13Z"/><path class="cls-15" d="M66.86,107.47c-3,.87-6.24.82-9.21,2.36,1.45,1,2.79.74,4.05.94l-.12,2.38-.54-.41c-1.53-1.61-3.54-1.62-5.49-1.83.72-1.24.28-1.8-1.13-1.72-1,0-1.91.16-2.86.25l-4.21.07h0c-2.59-1.41-3.36-3.91-4.2-6.5,1-.63,1.79,2.08,2.87.36.37-.6,1-.42,1.08.32.42,3.69,2.3,1.58,3.76,1.13,3.29.31,6,3.91,9.76,2.31-.62-.84-2.35-.9-1.71-2.14.73-1.4,1.25.7,2.07.45.5-.15,1.13,0,1.62-.15,2.17-.76,3.38.34,4.26,2.18Z"/><path class="cls-72" d="M47.1,103.69c-.08-.74-.71-.92-1.08-.32-1.08,1.72-1.87-1-2.87-.36.84,2.59,1.61,5.09,4.2,6.5a4.47,4.47,0,0,0-.44.43h0c-.73.31-2.26-1.68-2.27.68h0l-2.39-.25h0c.81-2.58.07-5-1.11-7.4h0a4.93,4.93,0,0,1,2.5-2.13c2.79.62,6,.12,8,3h0l-.79,1C49.4,105.27,47.52,107.38,47.1,103.69Z"/><path class="cls-15" d="M66.86,107.47h0c.36-1.62,1.6-1.79,3-1.7h.06c1.91.55,3.86-.92,5.75.4Z"/><path class="cls-47" d="M90.48,63.81c.47-.55.82-1.24,1.74-1.12l1.07.84c.23,1,.09,2.26,1.75,2.17l1.21,1.76h0c-1.62-.39-3.69,1.07-4.85-1.23l-.09-.16C91,65.31,90.76,64.56,90.48,63.81Z"/><path class="cls-23" d="M97,78.65c-.44-.35-1-.63-1.27-1.08-.67-1.21-.88-2.55.11-3.56a2,2,0,0,1,2.39-.59c1.71,1-.78,1.73-.11,2.7.13.18.29.34.44.51C97.05,76.52,96.51,77.18,97,78.65Z"/><path class="cls-106" d="M79.79,40,81,41.73c0,.86-.4,2,1.21,1.76.48.52,1,1.27.05,1.49-3,.67-2,2.52-1.28,4.47.61-2.61,3.63-2.82,4.7-4.9h0c1.47,1.1,2.12,3,3.86,3.82l0,0h0a11.26,11.26,0,0,1-8.09,2.67h0l-.94.1L80,50.75h0c-.91-2-3.37-3.7-.68-6,.86-.75.31-2.26-.73-3.21A1.65,1.65,0,0,1,79.79,40Z"/><path class="cls-51" d="M84.18,56.43h0L83.64,56c.81-2.48-.49-3.81-3.34-3.43h0l0,0-.53-.43.79-1,.94-.1h0c3.46,4.21,5.75.55,8.38-.82h0c-.54,1-1.7,1.57-1.19,3.32.65,2.25,1.56,2.51,3.33,1.61-1.48,1.31-.53,4.47-3.53,4.6l-1.6-1.25C85.92,57.89,86.67,55.08,84.18,56.43Z"/><path class="cls-140" d="M86.87,58.53c-.11,1.15-.58,1.81-1.91,1.36-.8-.27-1.79-.11-2.1-1.28s.31-1.8,1.32-2.18h0C86.67,55.08,85.92,57.89,86.87,58.53Z"/><path class="cls-103" d="M79,59.77c1.14-1.15,2.22-.22,3.14.39.66.44.11,1.26-.18,1.71-1.4,2.16-2.12-.43-3.19-.67C78.84,60.73,78.92,60.25,79,59.77Z"/><path class="cls-95" d="M93.29,63.53l-1.07-.84c.09-.48.17-1,.25-1.44,1.09-.36,2.21-.93,2.94.66-.08.48-.17,1-.25,1.44-.27.34-.54.67-.8,1Z"/><path class="cls-141" d="M80.28,52.61c-.07.91.84,1.28,1.15,2a.74.74,0,0,1-.37,1.08,1.12,1.12,0,0,1-.92,0c-1.17-1.06-2.43-2.17-.39-3.44Z"/><path class="cls-63" d="M83.64,56a14.13,14.13,0,0,0-3.34-3.43h0C83.15,52.21,84.45,53.54,83.64,56Z"/><path class="cls-21" d="M119.73,141.22a3.94,3.94,0,0,1-2.66,1.28h0A2.2,2.2,0,0,1,119.73,141.22Z"/><path class="cls-12" d="M225,127.53l1.86-.18c1.15,2.47.55,4-1.69,4.39C225.31,130.34,223.41,128.92,225,127.53Z"/><path class="cls-79" d="M226.56,137.74c-.57-.51-1.17-1.05-.61-1.92.88-.2,1.72-1,2.7-.35a1.5,1.5,0,0,1,.34,2.26C228.27,138.85,227.4,138.47,226.56,137.74Z"/><path class="cls-28" d="M222,139.1h0l-.49-.43h0c-.08-.53-.17-1-.25-1.57,0-.09,0-.18-.05-.27a3.92,3.92,0,0,0,3,.77c1.86,0,3.29.82,1.82,3h0C225.86,136.44,223.23,139.83,222,139.1Z"/><path class="cls-28" d="M225.44,142.23c-.48-.69.26-1.13.55-1.65h0c.4.58.8,1.17,1.21,1.75h0C226.61,142.56,225.92,142.92,225.44,142.23Z"/><path class="cls-82" d="M222,139.1c1.27.73,3.9-2.66,4,1.48h0c-.29.52-1,1-.55,1.65s1.17.33,1.77.11c.22.45.45.89.67,1.34.73,1.35,0,2.75.33,4.13.16.64,0,1.37-.83,1.46s-.8-.61-1-1.1c-.46-1.53-1.44-1.81-2.77-1.25-.5-2.62-1.81-5.1-1.69-7.82Z"/><path class="cls-57" d="M226.65,166.31l-2.14-1.66h0c.06-1,.51-1.44,1.55-1.08C226,164.49,227.18,165.2,226.65,166.31Z"/><path class="cls-142" d="M184.51,122.13l-1.23.12h0l-3.12-10h0c-.1-.62-.2-1.25-.31-1.88h0c.6-.26,1.1.08,1.62.34h0c.83,2.54,1.67,5.08,2.5,7.63h0Z"/><path class="cls-143" d="M184.51,122.13c-.21,1.59,1.39,3,.69,4.64h0l-.9.11h0c-.34-1.54-.68-3.08-1-4.62h0Z"/><path class="cls-13" d="M29.2,111.66l-3.18.79a1.43,1.43,0,0,1-1.47-.32h0a10.33,10.33,0,0,1-5.25-6.53A18.91,18.91,0,0,1,21,107.15c.57.67.25,2.16,1.7,2,1.67-.2.65-1.72,1-2.57.92.13,1.28-.56,1.73-1.11.53.51-.54,2.05,1.21,1.76C25.89,109.55,27.69,110.53,29.2,111.66Z"/><path class="cls-29" d="M24.55,112.13h0a1.43,1.43,0,0,0,1.47.32c.7.7.9,1.29-.24,1.64-.7.22-1.79.34-.91,1.42s1.5,2.4.16,2.93a2.61,2.61,0,0,1-3.11-1.83c-.05-.31-.1-.62-.14-.92C21.49,113.55,22.39,112.35,24.55,112.13Z"/><path class="cls-26" d="M27.16,114.86c.55-.33,1,.09,1.39.49a.67.67,0,0,1,0,1.09,1.06,1.06,0,0,1-1.45-.18C26.75,115.83,26.58,115.21,27.16,114.86Z"/><path class="cls-144" d="M141.15,110.25c1.2,0,2.15-2,3.15-.87,1.29,1.39-1.51,1.33-1.4,2.62,0,.38-.31.77-.48,1.16h0c-.81.22-1.81-.1-2.41.72-.74-1-.6-2.14-.74-3.24h0A9.68,9.68,0,0,1,141.15,110.25Z"/><path class="cls-145" d="M137.2,101c2.83-.33.27-1.93.55-2.86h0a2.28,2.28,0,0,0,1.88-.19c.27-.24.54-.75.94-.31.21.24.1.76.14,1.15-2.73,1.75-1.09,5-2.29,7.32h0l-.93-.86h0C138.21,103.79,136.89,102.39,137.2,101Z"/><path class="cls-105" d="M139,121.93h0a3.94,3.94,0,0,0,.71,4.63l.15.91L138.68,129h0c-.33-2.5-3.57-5.07-.21-7.49h0Z"/><path class="cls-77" d="M145.85,127.37h0c-.78,1.35-1.66,2.43-3.49,1.27,0-.3-.07-.61-.11-.91C143.27,126.47,144.58,127,145.85,127.37Z"/><path class="cls-109" d="M139.87,127.48c.34,1.36.68,2.72,1,4.08h0l-1.55-1.2-.67-1.35h0Z"/><path class="cls-109" d="M139,121.94a10.84,10.84,0,0,1,.71,4.63A3.94,3.94,0,0,1,139,121.94Z"/><path class="cls-13" d="M50,111.49h0l2.29-.61h0l3.28,0h0c2,.21,4,.22,5.49,1.83-1.63.47-5.53-2-3.76,2.92.42,1.18-1,2.08-2.15,1.14-2-1.57-5-1.26-6.33-3.78Z"/><path class="cls-13" d="M61.7,110.77c1.94-1.14,4.27-.94,6.37-1.52-.61,1.23-1.95,1.26-3,1.69-1.54.16-1.13,3.16-3.44,2.21Z"/><path class="cls-66" d="M87.78,78.15a.85.85,0,0,1-1.33.32,1.23,1.23,0,0,1-.4-1.92c.35-.42.91-.43,1.66,0A1.55,1.55,0,0,1,87.78,78.15Z"/><path class="cls-5" d="M214.18,93.84c.54,1.1,2.32-.69,2.54,1.16C214,95.47,214,95.47,214.18,93.84Z"/><path class="cls-5" d="M215.52,91.74c.6.65-.22.79-.55,1.08L213.9,92C214.36,91.51,214.94,91.1,215.52,91.74Z"/><path class="cls-146" d="M38.19,102.33c.13-.18.26-.35.4-.52,1.14-.31,1.74.65,2.54,1.16C39.89,104.21,39.11,102.88,38.19,102.33Z"/><path class="cls-147" d="M145.48,185.68,141,187.94h0c.87-2.64,4.49-4.92,6.9-4.34h0C147.18,184.39,145.91,184.56,145.48,185.68Z"/><path class="cls-3" d="M208.06,181.37a15.23,15.23,0,0,0,.66-2.08c.43-2.48,1.51-3.49,4-1.71-1.66.76-2.47,2.5-4,3.42A4.34,4.34,0,0,1,208.06,181.37Z"/><path class="cls-2" d="M214.89,177c-1-.68-.5-1.42-.66-2a.86.86,0,0,0,0-.23h0l.36-.55h0c1.12,1,1.81-.5,2.79-.32C216.51,174.86,215.69,175.91,214.89,177Z"/><path class="cls-6" d="M172.38,232.76v0l-.39.5c-1.31-1.28,0-2,.5-2.87,0,.74-.06,1.49-.1,2.23Z"/><path class="cls-25" d="M88.67,53.57c-.51-1.75.65-2.28,1.19-3.32,1.27.38,2.7-.91,3.86.55-.49,1.3,3.28,2.18.56,3.69a2,2,0,0,0-2.26.7h0C90.23,56.08,89.32,55.82,88.67,53.57Z"/><path class="cls-51" d="M89.86,50.25h0a1.2,1.2,0,0,0-.29-1.85h0l0,0,2-2.52c.58,1-1,1.63-.23,2.81,1.18-.17,2.86-1.37,3.19,1.13l-.79,1C92.56,49.34,91.13,50.63,89.86,50.25Z"/><path class="cls-148" d="M94.28,54.49c.47.47,1.21,1.34.7,1.56-1,.43-2.29.64-3-.86A2,2,0,0,1,94.28,54.49Z"/><path class="cls-145" d="M99.57,151.67c0,.72.53,1.66-.65,2-.87.31-1-1.37-2-.77-1.09-.78-1.86-1.69-1-3,.43-.67.81-1.77,1.76-1.58,1.36.28.36,1.73,1,2.47a9.2,9.2,0,0,0,.9.86l0,0Z"/><path class="cls-63" d="M92.93,154.66l0,0h0c-1.13-2.21.89-1.73,1.88-2.52.22,1.84-1,2.07-1.85,2.56Z"/><path class="cls-119" d="M220.31,111.34c-.22-.16-.31-.52-.45-.78.23-.13.51-.33.54-.29.23.22.53.48.55.74A.38.38,0,0,1,220.31,111.34Z"/><path class="cls-149" d="M88.6,41.92c.61-.82,1.3-1.59,2.36-.54s-.16,1.35-.75,1.81h0C89.16,43.41,88.62,43,88.6,41.92Z"/><path class="cls-54" d="M68.23,163.22l2.82,3c-.08.47-.17.95-.25,1.43-2.12,0-2.91-2.26-4.7-2.83h0C65.82,163.07,67,163.06,68.23,163.22Z"/><path class="cls-150" d="M87.61,159.69a.77.77,0,0,1,.38,1.1c-.43.78-1,.53-1.67.18l-.52-.42h0C86.28,160,86.62,159.17,87.61,159.69Z"/><path class="cls-81" d="M172.37,232.78h0c1.7.48,3.35,1.64,5.24.14-.48,2.75-.45,5.22-2.28,7h0c-1.33-1.57-2.67-3.13-4-4.7.22-.65.43-1.3.65-1.94Z"/><path class="cls-32" d="M24.55,112.13h0c-2.16.22-3.06,1.42-2.77,3.56-1.61.09-2-2.1-3.61-2a4.63,4.63,0,0,0-2.54-1.15c-.83-2.41-4.13-2.26-5-4.68l.19-.25.2-.25h0c.72.28,1.47.52,2.16.87,2.94,1.51,3.8,1,3.81-2.28a1.18,1.18,0,0,1,.76-1.25c.87-.36,1.15.35,1.51.9A10.33,10.33,0,0,0,24.55,112.13Z"/><path class="cls-57" d="M171.78,172.71h0c3.28-.93,5.32-4.24,9.29-4.37-.52.66-.9,1.16-1.28,1.65h0a1.55,1.55,0,0,0-2.3.28c-.68,1.8-2.55,2-3.71,3.18Z"/><path class="cls-97" d="M15.63,112.54c-.52,2.51,1,2.44,2.67,2.08h0c.53.52,1.49.91.93,1.84-.45.76-1.08.2-1.71,0-1.87-.56-3.07-2.24-4.78-2.89-3.62-1.39-4.13-2.54-2.07-5.72C11.5,110.28,14.8,110.13,15.63,112.54Z"/><path class="cls-151" d="M15.63,112.54a4.63,4.63,0,0,1,2.54,1.15c0,.31.09.62.13.93h0C16.59,115,15.11,115.05,15.63,112.54Z"/><path class="cls-11" d="M52.06,69c.84.8,2.13,1.22,2.32,2.59-.86-.79-2.24-1.13-2.32-2.59Z"/><path class="cls-41" d="M137.75,98.11h0c-.28.93,2.28,2.53-.55,2.86-.69-1.15-.22-2.67-1.36-3.68h0a2.39,2.39,0,0,0-.86-2.2h0v0c0-1.08,0-2.17-.07-3.25.83-.22,1.8-.88,2,.74a6,6,0,0,1,.55,3.7Z"/><path class="cls-65" d="M140.61,91.91l-.24-1.58.4-.48h0a11.92,11.92,0,0,1,1.69,1.55,2,2,0,0,1,0,2.87c-.38.38-.77.79-1.36.49-1.32-.69.07-1.75-.44-2.57h0A.45.45,0,0,0,140.61,91.91Z"/><path class="cls-49" d="M139.2,91.06c0-.59.56-.8,1.17-.73l.24,1.58c0,.09,0,.19,0,.28h0C140.24,91.7,139.23,91.85,139.2,91.06Z"/><path class="cls-11" d="M57.13,71.33c-.8-1.45-2.45-2.29-3-3.94C57.31,67.18,57.91,68.76,57.13,71.33Z"/><path class="cls-95" d="M71.05,166.24c1.09.06,1.44,1.07,2.13,1.65h0l.52.42c-1.55,3-2.09.37-2.91-.65C70.88,167.19,71,166.71,71.05,166.24Z"/><path class="cls-95" d="M69.69,170.63a1.64,1.64,0,0,1,2.08.31c.46.4.76.91.15,1.31a1.5,1.5,0,0,1-1.81-.27C69.65,171.62,69.31,171.21,69.69,170.63Z"/><path class="cls-17" d="M137.75,98.11h0l-.27-1.85c.72-.64,1.06-2.17,2.51-1.22,1.79,1.19-1.37,1.72-.36,2.88A2.28,2.28,0,0,1,137.75,98.11Z"/><path class="cls-49" d="M78.59,159.85c-.9-.91-1.63-2.71-3.12-1.89-1.8,1,1,2,.66,3.16-3.87-.5-4.27-1.26-2.22-4.09.25-.35.52-.68.78-1,.72.52,1.51,1.49,1.89-.19h0C77.7,157,79.94,157.6,78.59,159.85Z"/><path class="cls-12" d="M199.38,210.85c-1.17.36-3.86-1.38-3.1,2.23.14.65-.12,1-.8,1.07-.87,0-1.18-.53-1.18-1.25a4.18,4.18,0,0,1,3.44-4.39c1.25-.31,2.63-.28,3.33-1.59,2.46,1.16,2.73-.85,3.45-2.22,1.2,1.18.17,1.94-.43,2.74-1.06,1.41-2.16,2.8-3.25,4.2l-1.59,2h0C194.83,211.86,201.45,212.31,199.38,210.85Z"/><path class="cls-53" d="M203.61,196.94c.11-.75,1.29-.45,2-.34-.7.73,0,1.58-.11,2.36C204.88,198.26,203.47,198,203.61,196.94Z"/><path class="cls-27" d="M93.29,63.53l1.07.83A1.44,1.44,0,0,1,95,65.7C93.38,65.79,93.52,64.52,93.29,63.53Z"/><path class="cls-25" d="M192.05,209.71c-1.7,1.39-.49-.83-1.06-.85.53-.69,1-1.73,1.87-.19h0l-.81,1Z"/><path class="cls-32" d="M82.73,161.29c.17.58,0,1.29-.56,1.36-1.58.19-.92-1.45-1.58-2.06h0C81.65,159.64,82.35,160,82.73,161.29Z"/><path class="cls-22" d="M99.57,151.67h0c.6.48,1.22.93,1.81,1.43s1.14.87.74,1.58c-.55,1-1.27.36-1.89-.06-.46-.31-.88-.67-1.31-1C100.1,153.33,99.53,152.39,99.57,151.67Z"/><path class="cls-152" d="M52.27,110.88h0l-2.29.61h0l-2-.72c-.37-.27-1.15,0-1.08-.83a4.47,4.47,0,0,1,.44-.43h0l4.21-.07A1.54,1.54,0,0,1,52.27,110.88Z"/><path class="cls-153" d="M48,110.77c-1.11,1.21-2.23-.19-3.35-.15h0c0-2.36,1.54-.37,2.27-.68h0C46.84,110.77,47.62,110.5,48,110.77Z"/><path class="cls-86" d="M81,49.45c-.76-2-1.74-3.8,1.28-4.47,1-.22.43-1-.05-1.49,2-2.7,2.66-.59,3.47,1.06h0C84.61,46.63,81.59,46.84,81,49.45Z"/><path class="cls-154" d="M52.27,110.88h0a1.54,1.54,0,0,0-.71-1.44c.95-.09,1.91-.2,2.86-.25,1.41-.08,1.85.48,1.13,1.72h0Z"/><path class="cls-139" d="M89.57,48.39a1.2,1.2,0,0,1,.29,1.85c-2.63,1.37-4.92,5-8.38.82h0A11.26,11.26,0,0,0,89.57,48.39Z"/></g></g></svg>