<svg xmlns="http://www.w3.org/2000/svg" viewBox="0 0 588.64 714.49"><defs><style>.cls-1{opacity:0.25;}.cls-2{fill:#de9877;}.cls-3{fill:#e9cbbe;}.cls-4{fill:#e5c2af;}.cls-5{fill:#e6c4b2;}.cls-6{fill:#e5c1ae;}.cls-7{fill:#e4beaa;}.cls-8{fill:#e8cabd;}.cls-9{fill:#e8cbbe;}.cls-10{fill:#e5c0ad;}.cls-11{fill:#e5c1ad;}.cls-12{fill:#e0a688;}.cls-13{fill:#e6c3b1;}.cls-14{fill:#efc7b4;}.cls-15{fill:#e2b198;}.cls-16{fill:#e9cbbd;}.cls-17{fill:#efc7b5;}.cls-18{fill:#e5bfac;}.cls-19{fill:#efc6b3;}.cls-20{fill:#e2b297;}.cls-21{fill:#e8cabb;}.cls-22{fill:#e0a587;}.cls-23{fill:#e3b79f;}.cls-24{fill:#e3b59d;}.cls-25{fill:#e2b299;}.cls-26{fill:#e4bda8;}.cls-27{fill:#e6c5b3;}.cls-28{fill:#e5bfaa;}.cls-29{fill:#e1ab8e;}.cls-30{fill:#efc6b4;}.cls-31{fill:#e1ae92;}.cls-32{fill:#e2ae92;}.cls-33{fill:#e3b9a2;}.cls-34{fill:#de997a;}.cls-35{fill:#e3b8a0;}.cls-36{fill:#e2b196;}.cls-37{fill:#e2b59c;}.cls-38{fill:#e4bea9;}.cls-39{fill:#e3b69e;}.cls-40{fill:#e1ad92;}.cls-41{fill:#eec5b2;}.cls-42{fill:#e5bfa9;}.cls-43{fill:#e1ac8f;}.cls-44{fill:#e4bda6;}.cls-45{fill:#e3b8a1;}.cls-46{fill:#e4bfac;}.cls-47{fill:#e3b79d;}.cls-48{fill:#e2b69e;}.cls-49{fill:#e4bca5;}.cls-50{fill:#e3b9a3;}.cls-51{fill:#e5bda8;}.cls-52{fill:#f0c7b3;}</style></defs><g id="Layer_2" data-name="Layer 2"><g id="Layer_1-2" data-name="Layer 1"><g class="cls-1"><path class="cls-2" d="M290.39,476.41c-3.45,6.87-6.75,13.82-10.38,20.6-11.22,21-26.12,39.4-41.38,57.51-1.47,1.74-3,3.44-4.7,5.1,7.5-19,9.3-38.32,3-58,0-1.32-1.15-2.11-1.58-3.22-.88-2.34-1.88-1.64-3-.18a2,2,0,0,0-.08,1c.07.5.78,1.11,0,1.46s-1.63.09-2.31.59c-2.38,1.75-3.45.2-4.44-1.69-.8-1.51-.64-4.32-3.17-3.75-2.36.54-.5,3-1.06,4.46-1.34,3.53.41,6.91.38,10.38,0,2.41-.78,2.53-2.61,1.73-1.18-.52-2.43-2.26-3.64-.95-1.35,1.47-2.37,3.46-1.57,5.68a6.53,6.53,0,0,1-1.59,7.27,8.92,8.92,0,0,0-2,3.61c-.71,2.35-1.79,1.69-2.8.27a29.89,29.89,0,0,0-1.57-2.66c-.69-.79-1.46-1.65-2.62-1.25s-1.14,1.61-1.06,2.64c.27,3.55,1,7,1.19,10.61.09,1.6.33,3.13-1.48,3.74s-3-.71-3.58-2c-1.77-3.83-4.62-6.83-7.19-10-2.63-3.38-6.28-5.56-9.53-8.23-6.61-4.22-13.86-7.21-20.91-10.54-11.27-5.32-18-13.66-19.77-26.21-1.51-10.57-3.84-21.06-8.59-30.76-3.14-6.41-6.87-12.64-12.2-17.41-7.26-6.51-11.89-14.18-13.26-23.82-1-3.41-1.75-6.89-2.41-10.36-2.31-12.15-6-23.95-8.93-35.95-.38-1.57-.59-3.14-.87-4.72-5.57-20-11.7-39.91-19.12-59.33a212.33,212.33,0,0,0-17.47-35.11c-6.8-11.12-11.41-23.29-17.15-34.92-.91-1.85-1.58-3.86-3.53-5-3.85.06-5.72,2.61-7.16,5.7-.46,3.62,1.67,6.38,3.27,9.23,3.6,6.41,7,12.95,10.3,19.48,4,7.76,7.31,15.84,11.59,23.48,5,8.93,8.15,18.74,11.61,28.35q8.6,23.85,15.13,48.35c2,7.55,3.55,15.22,5.59,22.76,3.06,10.86,5.4,21.9,7.82,32.92a6.53,6.53,0,0,0,.24,1.15c1,2.79,2.46,5.42,3.61,8.15a26.26,26.26,0,0,0,6.25,8.16,98.33,98.33,0,0,1,22.77,30,120.34,120.34,0,0,1,7.8,23.15A79.94,79.94,0,0,0,144,507.71c2.66,4.75,6.38,8.39,10.48,11.75,1.41,1.17,2.93,2.22,4.34,3.39a25.6,25.6,0,0,0,9,4.77,41.43,41.43,0,0,1,17.05,12.79c5.06,6.26,6.83,13.82,9.79,20.93A108.13,108.13,0,0,1,198,577.49a44.2,44.2,0,0,1-3.64,24.06c.46-5.65-1.12-11.8-1.79-18-.52-4.87-.81-9.84-2.74-14.47-3.31-2.31-3.88-2.17-7.42,1.82-4.82-2.31-6.52-7.11-8.94-11.3a67.29,67.29,0,0,0-5.23-8.09c-1-1.23-2.1-2.44-3.5-.38a2.78,2.78,0,0,0-.2.95,8.22,8.22,0,0,0,.3,1.8c-1-.37-1.59-1.24-2.38-1.77a54.43,54.43,0,0,0-9.37-5.66c-.82-.44-1.84-.64-2.45.34a1.68,1.68,0,0,0,.56,2.15c4.17,3.58,6.28,8.62,9.38,13,4.56,5.26,7.38,11.58,10.63,17.64a46.44,46.44,0,0,0,2.38,4.18c.53.78,1,1.64.19,2.49a1.84,1.84,0,0,1-2.78.09c-5.67-5.18-12.29-9.25-17.48-15-6.78-6.6-14.72-11.71-22.28-17.31-.89-.66-2.07-1.62-3.08-.64-1.29,1.25-.22,2.57.59,3.65,2.81,3.74,5.88,7.26,8.92,10.81.18.45-.56.17-.11.07.16,0,.17-.18,0-.33a32.22,32.22,0,0,0-13.81-6.23,1.46,1.46,0,0,0-.49,1.88,27.82,27.82,0,0,0,6.5,5.79c6.11,4.1,11.32,9.37,17.43,13.47a7.49,7.49,0,0,1,3.16,5c7,2.94,13.8,6.4,19.71,11.33a6.68,6.68,0,0,0,1.59,1.3c7,2.74,7.45,8.86,7.94,15a6.53,6.53,0,0,1-2.4,5.76c-12,10.25-23.16,21.51-35.47,31.44-8.46,6.83-16.95,13.62-25.31,20.57-1,.84-2.35.91-3.15,1.92,1.36,2.35,4,.32,5.82,1.74.7.55,2.2.43,1.9,1.74-.27,1.12-1.56.61-2.32.46-1.74-.35-3.82-2.17-4,1.6,0,.91-1.14.13-1.66-.06-1.85-.68-2.43.37-2.25,1.83s-.4,3.63,1.81,4.39c1.84.64,3.47.29,4.45-1.48,1.25-2.28,3.77-1.16,5.45-2.22,7.36-3.73,13.57-9.16,20.3-13.82,1.69-1.17,2.39-.91,3.5.53,6.33,8.23,14.64,14.09,23.39,19.42,2.42,1,4.81,1.53,7.13-.29a1.86,1.86,0,0,1,1.59-.51c6,1.7,11.95-.79,18-.51,8.43.4,16.88-.46,25.33-.57a255,255,0,0,0,37.69-4.13c4.64-.88,9.36-1.25,13.93-2.46a16.89,16.89,0,0,0,2-.45c1.12-.47,2.83-.64,2.51-2.29-.28-1.46-1.84-1.12-2.93-1-17.08,1.54-34.27.26-51.34,2a9.49,9.49,0,0,1-1.35,0c6.63-.93,14-1.34,21.28-2.66q14.61-2.64,29.08-6c1.12-.25,2.22-.58,3.32-.93,1.29-.42,3.16-.74,2.88-2.4-.33-1.9-2.24-1.14-3.47-.94-12,2-24.09,1.51-36.13,2.19-2.18.12-4.34.59-6.56.3a210.15,210.15,0,0,0,25.11-5,223,223,0,0,0,24.17-7.09c1.07-.39,2.95-.49,2.43-2.23-.42-1.44-2.15-1.31-3.32-1-6.79,1.7-13.89,1.2-20.32,3,7.35-1.51,14.73-4.09,22.16-6.48,3-1,5.92-1.88,8.82-3,1.15-.43,2.94-.68,2.56-2.23-.45-1.85-2.3-1.12-3.51-.81-10.83,2.77-21.87,4.42-32.87,6.27-4.19.7-8.42,1-12.65,1.63,4.55-1.69,9.25-3,13.9-4.19,10-2.62,19.75-6.31,29.8-8.75,13.07-3.18,26.24-6,39.58-7.9,16.05-2.33,32.05-5,48-7.88,7.25-1.29,14.5-2.15,21.93-1a74.67,74.67,0,0,0,18.24.61,56.21,56.21,0,0,1,16.81,1c5.53,1.17,11.2,1.22,16.84,1.42a45.75,45.75,0,0,1,5.84.53,74.79,74.79,0,0,0,25.16-5.41,137.14,137.14,0,0,0,36.82-22c10.21-8.4,21.5-15.33,33-22,10.95-6.35,21.88-12.67,33.5-17.73A11.09,11.09,0,0,0,588,555.4c1.07-2.64.89-4.83-2.12-6-1.6-.46-2.9.37-4.26,1a376,376,0,0,0-51.56,27,163.59,163.59,0,0,0-19.64,14.6,95.84,95.84,0,0,1-34.84,19.72,68.73,68.73,0,0,1-29.36,2.24c-2.5-.32-5-.53-7.52-.89A246.68,246.68,0,0,0,409.46,614c-11.91,1.1-23.77,2.83-35.79,2.24-6.09-.3-12.14-1.47-18.22-1.41-10.38.1-20.6,2-30.87,3.38-5.93.77-11.9,1.22-17.72,2.74-9.74,2.26-19.55,4.14-29.46,5.53-10.6,1.48-21.24,2.8-31.72,4.81-5.88,1.12-11.62,3.56-17.42,5.4a21.89,21.89,0,0,1-2.67.84c-1.22-.65.61-2.3-.9-2.83-2.58-.19-5,.85-7.42,1.31a107.71,107.71,0,0,1-17.61,1.58c11-5.39,23.78-9.5,36.51-13.68,5.54-2.79,11.56-4.26,17.32-6.44,1.42-.53,2.64-1.39,4-2,6.65-3.18,13.56-5.78,20.43-8.38,10.37-3.91,20.18-9,30.21-13.59a7.66,7.66,0,0,0,1.56-1c2-1.8,4.54-2.52,6.89-3.65,2.78-1.81,5.8-3.23,8.49-5.18.92-.67,2.63-1.42,1.78-2.82-.62-1-2.12-.21-3.17.19-7.49,2.84-15.18,5.11-22.63,8.06a16.67,16.67,0,0,1-2,.58C289,593.39,279,597,269.1,601.06c-6.61,3-13.5,5.14-20.27,7.65-5.39,2-10.89,3.69-16.22,5.81-2.72,1.08-4.93,1.83-6.42-1.5-11.58,6.1-23.95,10.49-35.75,16.39,0-1.64,1.38-2.15,2.2-2.94,30-28.72,55.71-60.91,78.28-95.68a4.35,4.35,0,0,1,4.62-2.37,165.18,165.18,0,0,0,28.48-.34c1.2-2-1.33-2.9-1.4-4.11,6.75-3.39,12.7-8.06,20.09-9.6,6.36-4.31,14.28-6.07,19.67-12.15-7.21.52-13.68,3.54-20.58,5.13,6.91-3.42,13.13-8,19.82-11.72a3.87,3.87,0,0,0,.58-.38c.9-.83,2.33-1.65,1.36-3.05-.8-1.13-2.13-.56-3.12.07a36.78,36.78,0,0,1-7.28,3.09c-4.19,1.53-8.15,3.66-12.08,4.8a177.71,177.71,0,0,0,23.72-13.84c3.29-2.52,7.29-4,10.33-6.84-.13-3.24-2.36-2.31-3.91-1.68-3.24,1.3-6.51,2.53-9.68,4-.43.16-.07-.62-.1-.16,0,.13.1.14.34,0,5.42-2.36,9.9-6.15,14.38-9.86,4-3.27,7.85-6.68,11.69-10.12a54.9,54.9,0,0,1,10.46-8.29c8.39-5.42,17.44-9.55,26.51-13.69,5.6-2.55,11.45-4.68,16.44-8.45,5.49-3.56,9.78-8.37,13.61-13.56,11.06-15,25.41-26,41.48-35.14,6.84-3.89,14.21-7.06,20.13-12.48a82.18,82.18,0,0,0,8-9.61,5.37,5.37,0,0,0,1.12-3.81c-.5-3.06-2.55-2.19-4.13-1.36-3.86,2-7.63,4.2-11.41,6.35-10,5.67-19.21,12.51-28.91,18.63-6.68,4.21-13.58,8.13-19.42,13.58a80.67,80.67,0,0,0-9.36,9.58c-6.69,9.65-13.31,19.49-25.07,23.64-10.43,3.68-20.29,8.59-30.1,13.58-8.78,4.46-16,11.1-23,18-8.08,7.94-17.38,14.27-26.55,20.8a15,15,0,0,1-2.79,1.35c-6.21,4-11.55,9.06-17.32,13.59-6.81,5.36-13.9,10.09-22.68,13.08a20.28,20.28,0,0,1,5-5.58c9.9-8.22,19.53-16.75,29.4-25a210.43,210.43,0,0,0,18.23-16.74c.75-2.14,2.55-3.51,3.89-5.21a8.85,8.85,0,0,0,1.87-2.86c.23-.78.46-1.62-.24-2.26a1.83,1.83,0,0,0-2.53,0c-4.12,3.14-8.61,5.71-12.89,8.6-5.05,3.4-9.17,7.86-14.2,11.29a16.15,16.15,0,0,1,3.36-4.51c5.46-6.07,11.77-11.26,17.47-17.07,6.28-6.41,12-13.32,18.16-19.82.87-.93,1.76-2.2.6-3.34s-2.19,0-3.08.64c-4.82,3.68-9.77,7.19-14.53,11-4.33,3.44-8.18,7.42-12.5,10.69a58.8,58.8,0,0,0-8.38,8c-4.83,5.39-9.43,11.21-16.19,14.67-2.64,1.35-2.91,4.76-4,7C293.27,475.49,292.05,475,290.39,476.41Z"/><path class="cls-2" d="M464.72,15.31c.38-3.86.47-7.67-1.32-11.3-2.24-4.56-3.6-5-7.95-2.46-3.17,3-5,6.88-7,10.58-3.86,7.16-8.08,14.16-11.13,21.74a20.34,20.34,0,0,1-.64,2.67c-6,15-11.51,30.19-17.74,45.1-5.48,19.47-12.21,38.53-19.1,57.54-3.33,9.18-4.77,18.93-7.14,28.4-.75,3-2.07,5.84-2.87,8.85,5.35-17,5.82-35,9.78-52.26-.39-3.82.39-7.58.9-11.3.69-5.13.79-10.31,1.62-15.42.17-1,.37-2.32-.8-2.72-1.49-.52-1.95,1-2.3,2-2.59,7.12-5.3,14.22-7,21.64a88.06,88.06,0,0,0-2.23,11.85c-.1,1.18,0,2.57-1.43,3.48-1-.93-.71-2.14-.55-3.16q3.84-24,5.93-48.21c.66-2.47.53-5,.84-7.53.13-1,.32-2.38-1-2.59s-1.57,1.15-1.91,2.07c-2.4,6.48-4.18,13.14-6,19.79-2.55,9.33-3.74,18.9-5.11,28.44a22.88,22.88,0,0,1-2.1,6.88c1,5.35,2,10.72,3.14,16,1.56,7.16,3.27,14.29,4.93,21.43a7.82,7.82,0,0,1,.16,4.35c-7.49,24.13-13.83,48.57-19.66,73.15a13.28,13.28,0,0,1-1.68,4.32c.55-6.58,1.13-13.15,1.61-19.73.18-2.4.18-4.82.12-7.22-.18-7.22-3.18-12.85-9.69-16.25a33.33,33.33,0,0,1-15.13-15.89c-.85-1.29-1.7-2.54-3.52-1.4-1.52,1-1.77,2.1-1.05,3.79,1,2.24,1.27,4.28-2.31,4.41-1.44,0-1.67,1.34-1.24,2.62.25.73,1.43,1.6.76,2.09-2.56,1.84-2.1,3.95-1.08,6.32a1.58,1.58,0,0,1-.61,1.86c-2.59,1.47-3.13,4.39-4.79,6.51-1.26,1.61-1,2.42,1,2.77,1.1.19,2.36.14,2.71,1.71-.79-.21-1.39-1.26-2.27-.52a2.24,2.24,0,0,0-.48,2.53,10.84,10.84,0,0,0,1.06,2.54c2.82,3.66,6.53,6.51,9.44,10.06,6.39,7.78,11.8,16.14,13.3,26.42a2,2,0,0,1-.23,1.59,17.14,17.14,0,0,1-6-7.15c-5.65-13.5-16.2-22.7-27.26-31.47-2.79-2.22-5.64-4.37-8.39-6.65a32.54,32.54,0,0,1-11.43-19.2,122.83,122.83,0,0,0-9.47-28.4c-1.95-4.13-3.26-8.59-5.3-12.73-1.27-2.93-3.09-5.64-3.62-8.88-1.54-4.52-4-8.69-5.16-13.34-1.28-2.82-3-5.46-3.5-8.6-6.21-15.22-10.65-31.07-16.74-46.32-.92-2.3-1.58-4.86-4-6.26-3.22.68-4,3-4,5.88q0,7.48-.05,15c-.12,5.19,2.27,9.6,4.7,13.87q13.14,23.11,24.17,47.3a133.54,133.54,0,0,1,9.94,33.29c1.85,10.86,4.84,21.31,10.08,31,3.43,6.34,8.79,10.89,14.56,15,2.06,1.46,4.15,2.89,6.21,4.36,4,2.8,8.58,4.89,10.86,9.64.63,1.31,2.14,1.64,3.36,2.69a54.27,54.27,0,0,1-3.39,4.42c-2.71,2.87-1.09,4.62,1,6.83-1,.5-1.88-.18-2.63.25-1.59.91-1.72,2.35-.11,3.34a2,2,0,0,1,1,1.26c.13.47.58.69.85,1.18-1.15-.27-2-2.17-3.07-1.11-1.24,1.2-.59,3-.27,4.54.17.79,1.88.94,1.05,2.16-.72,1-1.38-.18-2.07-.21a1.9,1.9,0,0,0-1.75.91,1.59,1.59,0,0,0,.21,1.91,3.46,3.46,0,0,0,4.56,1.25c-1,.61-2.24.51-3.21,1.23-1.94,1.47-2.07,2.62,0,4,1.38.93.61,1.44.18,2.45-.73,1.71-3.11,3.1-1.43,5.46,6.94,7.08,14.9,12.92,22.95,18.63,1.3.92,2.1,1.61,1.5,3.55-8.39,27.1-16.79,54.18-25.78,81.09-.15.43-.36.83-.87,2-1.16-13.8-5.1-25.95-12.44-36.91-4,1.49-6.46,3.9-5.18,6.39s.28,3.39-.77,5c-.87,1.36-.47,2.63,1.31,3.19.74.23,1.62.12,2.23.78-1.72.38-1.78.45-9.21-6.23-3-2.68-6.37-4.94-8.63-8.37-1.31-1.46-2.63-2.9-3.94-4.34-1-1.05-2-2.92-3.55-2s-.43,2.71.13,4c1.31,3.06,2.66,6.11,4.22,9a74.21,74.21,0,0,1,3.62,8.53,11.66,11.66,0,0,0,2.9,2.92,104,104,0,0,1,21.92,25.07,16.35,16.35,0,0,1,1.34,2.8,1.82,1.82,0,0,1,.24,1.39,28.29,28.29,0,0,1-8-5.9A166.72,166.72,0,0,0,284,381.9c-7.1-5.32-13.17-11.86-20.46-16.95a13.26,13.26,0,0,0-1.38-1c-15.12-8-21.22-22.36-26-37.47-5.48-17.49-11.88-34.6-20.43-50.81-5.58-10.57-11.11-21.15-16.33-31.92-4.27-8.82-10.88-16.22-16.08-24.5a91.57,91.57,0,0,0-8.68-12c-2.76-2.92-5.34-6-8.67-8.35-4.16-2.88-7.72-1.95-10.21,2.54,0,3.55,2.5,5.79,4.29,8.42,4.29,6.32,10.3,11.07,15.25,16.8,8.08,9.36,15.12,19.31,20,30.79,2.23,5.27,5.46,10.11,8.66,14.88a140.82,140.82,0,0,1,20.73,47c2.71,11.62,7.39,22.7,11.43,33.94,3.14,8.73,9.14,15,17.35,19.26,4.89,2.53,9.65,5.33,14.72,7.54a71.61,71.61,0,0,1,11.27,6.63c2.66,2,4.48,4.36,4.78,7.8a3.7,3.7,0,0,1-2.38,3.73c-1.35.57-2.11.09-3.15-.39-3.44-1.59-7-2.82-10.44-4.52-1.17-.59-2.78-1.49-3.78-.1s.55,2.55,1.38,3.51a60.79,60.79,0,0,0,9.25,8.24c2.34,1.77,4.59,3.43,5.39,6.45.31,1.15,1.41,1.74,1.89,2.24a204.91,204.91,0,0,0-25.91-11.91,28.32,28.32,0,0,0-6.31-2.62c-1-.28-2.17-.64-2.74.54s.46,1.91,1.24,2.54c1.86,1.5,4,2.69,5.76,4.29,5.38,3.51,10.64,7.2,16.06,10.64,1.95,1.24,3.92,2.54,2.74,5.51-.53,1.32.15,2.45,1.49,3.07L289,430.62a114.4,114.4,0,0,1,14.55,6.1c2,1,2.54,2.07,1.61,4.26-2,4.73-3.74,9.59-5.58,14.4a3.53,3.53,0,0,0,2.81,1,2.74,2.74,0,0,1,2.73,1.68c.4.78.74,1.88,1.9,1.65a3,3,0,0,0,2.56-2.49c.08-2.35,1.54-2.94,3.32-3.72,2.94-1.29,5.78-6.66,5.06-9.84a29.54,29.54,0,0,1-.26-5.77c6.07-13.66,11.06-27.74,16.2-41.75,8.83-24.07,16.15-48.63,23.31-73.24.72-2.48,1.19-3.27,4.3-2.88,9,1.12,18.07,1.4,27.11,2,7.16-5.6,14.35-11.14,22.67-15,3.85-1.8,7.24-4.42,10.92-6.54,5.09-3.37,10.11-6.82,13.83-11.8.34-1.74-.65-2-2-1.71a12.4,12.4,0,0,0-3.51,1.4c-7.32,3.92-15.42,6.06-22.79,9.9,9.75-5.48,19.15-11.45,27.32-19.16,1.44-1.37,4.16-2.85,2.85-4.85-1.19-1.81-3.53.21-5.22.94a170.81,170.81,0,0,0-16.44,8.12c3.47-1.52,8.74-4.94,13.9-8.57,4.12-2.89,7.66-6.18,10-10.74s6.45-7.46,10.53-10.24c7-4.81,14.36-9.16,21.13-14.35a34.73,34.73,0,0,0,10.26-11.93c1.46-2.91,3.57-5.37,5.11-8.19a31.79,31.79,0,0,1,9.88-12.89c1.82-1.38,2.12-4.1,4.37-5.13.22.21.24.42,0,.62-1,1-3,1.86-1.5,3.46s2.61-.26,3.56-1.33a6.5,6.5,0,0,1,3.53-2c-1.64,3.23.11,6.46,3.68,6.78,8-16.3,17.27-31.84,26.53-47.41a38.78,38.78,0,0,0,3.11-6.13c1.21-3.19.21-5.2-3-6.94a5.36,5.36,0,0,0-2.57,1.63c-14.13,14.1-29.23,27.22-42.7,42a6.72,6.72,0,0,0-.63.78c-3.07,4-6.32,8-9,12.31a6.79,6.79,0,0,0-.5.81c-1.22,2.09-2.09,4.4-4,6.05a11.47,11.47,0,0,0-1.82,2.93c-5.05,11.93-14.5,19.46-25.19,26-8.9,5.47-17.33,11.52-22.87,21C424.34,268.4,417.58,272,411.36,276c-10.1,6.42-20.43,12.42-30.76,16.52,7.46-7.5,17.8-12.5,27-19.05a6.88,6.88,0,0,0,1.76-5c0-4,2.19-7.31,5.26-9.79,6.94-5.62,12.25-12.76,18.3-19.22,3.21-3.57,6.25-7.29,9.14-11.12.66-.88,1.66-2.07.64-3s-2.08.25-3,.92c-2.26,1.75-4.11,4-6.49,5.58-7.63,5.15-14.55,11.26-22.33,16.53,3.92-2.62,5.29-5.63,2.2-9.9,1.53-.32,3.38-.28,3.46-2.39.2-5.4,3.43-9.42,6.23-13.59,2.31-3.44,3.89-7.29,6.21-10.71.58-.86,1.13-2-.06-2.73a2.23,2.23,0,0,0-3.31.68,27,27,0,0,1-1.63,2.23c-.85,1-2,1.48-3,.68-2.6-1.93-4.43-.5-6.29,1.16-16.71,15.28-28.91,34-41.18,52.9q3.31-12,6.63-24.05c5.65-20.5,11.34-41,16.92-61.5.7-2.58,1.35-3.9,4.67-3.67,6,.42,11.56-1.83,16.53-5,1.76-1.13,4.26-1,5.36-3.17-.82-2.27,0-3.91,1.48-5.78,8.37-10.56,16.37-21.37,21-34.21a17.36,17.36,0,0,0,.66-2c.23-1,.66-2.23-.56-2.75s-1.78.68-2.41,1.48c-6.47,8.21-13.27,16.18-19.08,24.9a2,2,0,0,1-1.77,1.2c-.94-1.42.07-2.54.77-3.61a123.91,123.91,0,0,0,10.74-20.38c2-4.76,4.73-9.24,5.55-14.45-1.05-2.38-2.43-1.43-3.28,0-5.15,8.43-11.52,16-16.65,24.5-2.26,3.72-4.77,7.31-7.2,10.93-.77,1.14-1.76,2.23-4.19,1.23,1.68.08,2.86.18,2.93-1.24.05-1.09.84-2.3-.34-3.22-1.63-1.27-1.34-2.95-.67-4.39,7.72-16.58,13-34.11,19.59-51.11a13.85,13.85,0,0,1,1-1.82C433.88,81.28,437,74.2,439.84,67c4-7.9,6.83-16.26,10.46-24.3,3.39-7.49,6.77-15,9.69-22.65C460.94,17.53,463.46,17.17,464.72,15.31Z"/><path class="cls-3" d="M10.13,469.59c1.34,9.12,5.19,17.4,9.69,25.21a191.18,191.18,0,0,0,30.65,40.05,156.28,156.28,0,0,0,54,35.62c1.06.41,2.18.68,3.27,1,.5-1.6-1.07-2.69-1-4.24.07-1.86.45-3.47,2.65-3,5,1,6.91-3.25,10-5.53.55-.41.38-1,.29-1.57-.27-1.68.19-2.28,1.81-1.17s2.77-.14,3.88-1.09c1.42-1.2,1.21-2.52.14-3.84,3.09,1.08,5.81.92,7.75-2.19a5.81,5.81,0,0,1,4.26-2.66,17.59,17.59,0,0,0,4.94-1.41c.63-.29,1.46-.71,2-.34,3.44,2.48,5.18.14,7.11-2.23a4.46,4.46,0,0,1,4.52-1.84c3.05.54,4.14-.79,3.38-3.88a10.45,10.45,0,0,0-1.2-3.22c-3.63-3.38-7.93-5.88-11.66-9.14a48.11,48.11,0,0,1-14-20.54c-2.87-8-4.38-16.43-7.1-24.5-4.21-12.45-10.14-23.88-19.47-33.34-6.9-7-13.28-14.43-17-23.67-3.2-8-4.82-16.54-6.41-25C79.49,380.12,76.2,363.19,71,346.7a6.51,6.51,0,0,0-1.49-3.06c-1.45-.87-1.6.39-1.66,1.2-.49,7.08-6,11.68-8.75,17.62-1,2.06-2.68,4.47-6,2.75-1.16-.6-1.83.7-2,1.76-.3,1.8-1.54,2.4-3.08,2.77a44.33,44.33,0,0,0-9.67,3.55,4.73,4.73,0,0,1-2.64.71c-8.12-1-16.52.66-24.4-2.56-.11,0-.23-.14-.32-.11-3.69.85-7.26-.61-10.91-.56a71.22,71.22,0,0,0,4.66,29.82c1,.12,2.07-.38,3,.36,1.86,1.49,3.16.71,4.16-1.08.67-1.19,1.56-1.64,2.85-1,5.37,2.77,11.43,2.83,17.15,4.21a5.57,5.57,0,0,1,4.35,3.39,11,11,0,0,0,5.29,5.66c3.18,1.69,5.49,3.64,5.13,7.92-.13,1.58,1.85,3.36,2.72,5.14.35.72,1.14,1.42.73,2.18-2.28,4.15.82,7.55,1.56,11.25.28,1.45.56,2.42-1,3.05s-2.46,2.68-4.58,2.84c-1.41.1-1.25,1.55-1,2.5a9.32,9.32,0,0,1-1.81,8.73,2.45,2.45,0,0,0-.58,1.6c.12,2.42-1,3.26-3.35,3a2.62,2.62,0,0,0-2.9,2c-.62,2.19-2.07,2.88-4.16,2.69-1.76-.16-3.23.09-3.59,2.23-.21,1.22-1.11,1.35-2.11,1a9,9,0,0,0-9.34,2.26c-.9.82-1.92.52-2.94.37C12.89,470.69,11.66,469.66,10.13,469.59Z"/><path class="cls-4" d="M455.49,624.35c-4.61-1.16-9.34-.61-14-1-8.31-.73-16.44-3.11-24.93-2.11a75.61,75.61,0,0,1-20.53-.85c-6.31-1-12.59-.06-18.72,1-16.67,3-33.41,5.51-50.11,8.26s-33.16,5.7-49.25,11a315,315,0,0,1-31,8.69c-1.53.32-3.2.81-3.49,3.22,16.87-2.09,33.52-4.75,50.08-8.29-11.77,4.61-23.74,8.57-35.9,12.15,8.69-.74,17.38-1.2,26-2.54-4.71,2.65-9.79,4-14.85,5.41-8.15,2.24-16.35,4.34-24.6,6.23-4.32,1-8.78,1.41-13.17,2.09-.66.1-1.59,0-1.48,1s1,.77,1.66.74c9.68-.38,19.36-.71,29-1.18,5.92-.29,11.86-.54,18-2-1.86,2.34-16.19,6-29.42,8-10.08,1.58-20.19,3-30.31,4.58,19.56-.32,39.1.11,58.82-1.3-3.55,2.94-43.18,9-56,8.69a2,2,0,0,0-2.32,2c.4,3.4-1.85,5.72-3,8.48-1.79,0-3.77-2.22-5.27-.08a3.82,3.82,0,0,0,.25,4.77c-2.51-.52-4.31.52-4.83,3.49,12.81,4.41,26.09,6.08,39.54,6.31A122.66,122.66,0,0,0,275,708.28a16.85,16.85,0,0,0,.77-8.2c-.36-1.89-1-2.24-2.83-1.42,1.68-1.21,4.8,1.1,5-2.45a2.26,2.26,0,0,0-2.41-2.68c.05-.07.26-.08.47-.24,1.9-1.43,1.9-1.45,5.7-1.35,1,0,2.2.41,2.71-.82.41-1-.28-1.72-1.05-2.31-.31-.24-.93-.39-.51-1a1.05,1.05,0,0,1,.9-.43c.59,0,.65.55.69,1a22.66,22.66,0,0,0,.58,2.33,3.64,3.64,0,0,0,3.28,3.07c2,.29,3.11-1.27,4.33-2.42.73-.69.23-1.46-.42-2.07s-1.75-.68-2.09-1.67c.35-.79,1.49-.46,1.7-1,1.55-3.87,4.48-3.52,7.61-2.61a1.76,1.76,0,0,0,2.14-.67c1.25-2.06,3.33-3.69,4-6s1.56-2,2.59-.58c1.63,2.24,2.77,2.24,4.35-.12s3.68-2.24,5.09.33c1.28,2.36,3.67,2.45,5.39-.1.81-1.21,1.6-2,3-1.8s1.3,1.73,1.76,2.71c.63,1.34.53,3,1.63,4.12a1.64,1.64,0,0,0,.89.37c1.57-.65,2.74-.74,2.27,1.57a3.8,3.8,0,0,0-.12,1.7c.25,1-.6,2.61,1.09,2.81,1.35.15,1.87-1.1,2.24-2.23a13.55,13.55,0,0,1,.49-2c.6.42,1.19,1.07,1.09,1.38-.89,2.68,1,4.08,2.61,5.32,2.63,2,1.53,5.56,3.68,7.83.58.62-1.49,2.68-1.05,4.42,21.62,6.21,43.46,10.07,65.94,5.32a44.86,44.86,0,0,0,17.8-7.82c-2-.48-4.14.56-5.93-1-1.19-1.06-2.1-2-.11-3.12a4.55,4.55,0,0,0,.85-.58c.75-.68,2-1.18,1.76-2.35s-1.58-1-2.57-1.19a4.51,4.51,0,0,1-1.64-.36c2.51-2.8,1.28-5.29-.54-7.88-1.18-1.68-1.87-3.53-.54-5.71,1.23-2,.13-3.4-2.08-4,2.95-2.09,3.37-4.18,1.53-6.65-.35-.46-.88-1.23-1.27-1-4,2-3.4-2.35-4.95-3.51,2.78,2.51,4.21,2.78,6.49,1.09,2-1.49,1.75-3.52.73-5.25-1.79-3-4.43-2.1-7-1-.43.11-.13-.74-.13-.28,0,.1.12.12.33,0,2-.93,3.94-1.76,6.18-.68a1.59,1.59,0,0,0,2.15-.55c1-1.47-.06-2.59-1-3.81,2-.3,1.82,1.15,2.12,2.09.34,1.1.51,2.43,2.1,2.19s2.76-1.49,2.31-2.89c-1.23-3.87.93-5.23,3.94-6.3,1.22-.44,2.52-1.39,2.69-2.51.34-2.34,1.66-2.94,3.66-3.37.85-.17,1.31-1.5,2.1.22s2.1,1.26,2.68-.22c.9-2.28,2.36-2.49,4.41-1.79a4.78,4.78,0,0,0,4.86-.86c.63-.53,1.4-1.11,2.17-.86,3.72,1.21,7.75-.33,11.4,1.34a2.49,2.49,0,0,0,1.66.35c4.22-1.48,7.63.51,11.1,2.43a2.22,2.22,0,0,0,3.27-.77c1.39-2,2.64-2.08,3.61.1.73,1.64,1.54,1.6,2.94,1.17a80,80,0,0,1,12.67-2.32c2.53-.33,5.1-.49,6.5-3.11,1-1.81,2.41-.65,3.66-.63a2.28,2.28,0,0,0,1.28-.65c.81-2.62,3.3-3.92,5.35-2.79a2.12,2.12,0,0,0,1.88.15c1.26-1.19,1.06-5,4.43-2.46.47.35,1.06-.16,1.47-.6,2.84-3.08,5.71-6.32,9.76-7.58,1.57-.5-.77-2.61,1.5-2.11,1.39.3,2.06-1.74,3.51-1.88.43-.69.85-1.39,1.27-2.09-1.18-.1-2.14-.82-3.31-1,1.51-.89,2,1.24,3.34.94l16.69-26.18c-1.83-1.57-3.5-.51-4.85.61-3.13,2.6-6.88,4.7-8,9.16a4.22,4.22,0,0,1-2.43,2.81c-3.32,1.32-5.1,4.2-7.19,6.74-4,4.89-9.3,8.3-14.23,12.15a28.14,28.14,0,0,1-8.72,5.07c-1.57.51-2.77,3.34-4.8,4.5a5.28,5.28,0,0,1-3.54,1.06,11,11,0,0,0-7.64,1.36,2,2,0,0,1-1.29.43c-6.24-1.29-12.66.33-18.84-1.14-3.08-.73-5.91-2.37-9-3.32-1.63-.51-3.15-1.4-4.92-1.43C457.18,628.74,455.24,627.69,455.49,624.35Z"/><path class="cls-3" d="M255,406.12c-1.86-2.6-5.29-3.43-7.48-6.5,3.52.34,6.1,1.82,8.82,2.8,1.91.47,3.63-1.37,5.64-.41.59.28,1.08-.48.85-1.08-.72-1.95.41-3.48.87-5.21.73-2.77-1.19-4.12-2.69-4.76a3.79,3.79,0,0,0,5.23,0c1.73-1.73,3.58-3.92,3-6.62-.38-1.66,2.25-3.08.12-4.63-4.59-2.35-9.15-4.78-13.79-7a37.5,37.5,0,0,1-19.67-22.43c-3.45-10.08-7.28-20.07-10-30.35-2.93-11-6.09-21.87-11.46-32-3.39-6.38-7.17-12.52-11-18.61a100.46,100.46,0,0,1-8.21-14.6c-5.19-12.27-13.3-22.57-22.32-32.18-6.2-6.59-12.79-12.83-17-21-2.13,5.24-2,10.81-2.26,16.28-.62,11.23-2.26,22.44-.47,33.71A152.74,152.74,0,0,0,160.91,281c8.71,23.3,17.48,46.55,24.85,70.34a85,85,0,0,0,23.8,37.82c12.26,11.31,25.49,21.05,41.08,27.32,1.35-3.13,2.14-6.52,4.54-9.14A.84.84,0,0,0,255,406.12Z"/><path class="cls-3" d="M319,239.28c-6.3-4.73-13.31-8.63-18.16-15.07-5-6.7-8-14.38-10.17-22.42-2.81-10.51-4-21.38-7.2-31.8a97.92,97.92,0,0,0-3.34-9.39c-5.75-13.68-12.56-26.86-19.47-40-3.25-6.18-6.83-12.19-9.9-18.48-1.18-2.4-1.75-5-2.74-7.42-1.92,23.25-3.71,46.53-1.11,69.8,1.32,11.86,4.93,23.29,9.8,34.28a288.83,288.83,0,0,0,50.2,77.63A20.41,20.41,0,0,0,309,278.2c1.62.72,3.45,2.74,4.4-.75.16-.6.91-.6,1.45-.77a1.87,1.87,0,0,0,1.19-3c-1.26-2.11-.38-3.77.32-5.78,1.12-3.18,1.34-6.69,4-9.21a1.92,1.92,0,0,0,.42-1.95c-1.39-4.08-.46-8.47-1.69-12.53C318.57,242.5,320.11,240.89,319,239.28Z"/><path class="cls-5" d="M308.06,592.48c-7.39,3.44-14.69,7.07-22.17,10.25-9.67,4.12-19.72,7.39-29.15,12-6.93,3.35-14.51,4.85-21.25,8.5.82,1.55,2,.71,3,.35,17-6.47,34.93-7.68,52.68-9.89,17.33-2.16,34.64-4.32,51.89-7a89.2,89.2,0,0,1,23-.37,149.62,149.62,0,0,0,34.69-.22c6.52-.85,13.07-.81,19.6-1.08,2.87-.13,5.76,0,8.56-.8a16.25,16.25,0,0,1,4.19-1.5,2.54,2.54,0,0,0,2.15-3.58c-.52-1.66-1.25-3.39-3.61-2.55-.28.1-.53.89-.77.13-1.21-3.75-5.29-5.24-6.75-8.84-.89-2.21-1.58-4.1.95-5.65a2.36,2.36,0,0,0,1.15-2c-.29-4.78,2.3-8.66,4.44-12.44a100.8,100.8,0,0,1,6.64-10.79A42.35,42.35,0,0,0,440.1,553c2.22-3.9,2.26-3.89,6.34-1.75,4.7,2.46,8.53,6.16,12.72,9.3,6.06,4.55,12.76,7.11,19.93,9,4.85,1.26,9.81.37,14.68,1.15a6.6,6.6,0,0,0,4-.82,4.41,4.41,0,0,1,3-.74c3.57.86,6.41-.31,9.19-2.56a16.41,16.41,0,0,1,6.66-2.71c1-.23,2.27-.29,2.85-1.09,3.77-5.3,9.85-8.3,13.09-14.36,2.5-4.69,4.71-9.6,7.63-14.09.66-1,1.55-2.1.54-3.42l-6.26-.48a12.7,12.7,0,0,0-3.92,8.36,2.15,2.15,0,0,1-1.33,1.91c-3,1-4,3.45-5.12,6.06a14.58,14.58,0,0,1-6.09,6.45c-4.1,2.4-7.41,5.72-12.42,7.3-7,2.2-14.19,2-21.19,3.47-5.09,1.06-10.55-1.88-15.21-4.66-6-3.58-11.26-8.24-16.73-12.58a7.52,7.52,0,0,1-1.53-2.26c-3.08-5-10.34-5.64-14.76-1.9-3.89,3.29-5,7.77-6.67,12.12-.41,1.07-.47,2.46-1.56,3-4.76,2.31-6.63,7.17-9.75,10.92-1.29,1.56-2.41,3-4.75,2.81-3.7-.23-4.83,3.24-6.71,5.33-1.68,1.86-3.23,3-5.73,2.85a4.51,4.51,0,0,0-1,.16c-6.42,1.11-7.11,0-3.54,7.58-1.55-1.06-1.75-2.62-2.59-3.7-1.27-1.63-3-2.48-4.83-1.38s-1.53,2.9-.17,4.42c.6.67,1.11,1.27,0,1.92-.86.52-1.76,1.42-2.72.27a16,16,0,0,0-2.8-2.7c1.35.35,2.19,2.69,3.83.89,1.13-1.25.13-4.71-2-5.59a18.51,18.51,0,0,1-6.55-4.35c-3-3.28-6.53-5.93-9.76-8.91-5.71-5.29-8.34-12.62-13.27-18.37a3.34,3.34,0,0,0-3.52-1.4,3.72,3.72,0,0,0-2.7,2.38,7.05,7.05,0,0,0,.88,5c2.39,3.77,4.05,8,6.87,11.5,3.48,4.37,2.67,9.57-2,12.67a12.78,12.78,0,0,0-3.28,2.93,4,4,0,0,1-3.61,1.69,13.28,13.28,0,0,0-11.72,3.77c-.63.61-1.29.08-1.95.06a11.27,11.27,0,0,0-8.45,3.12c-1.9,1.81-3.89,3.27-7,2.73a7.4,7.4,0,0,0-7.8,4.46C310.45,596.38,308.67,594.76,308.06,592.48Z"/><path class="cls-6" d="M.09,370.77a8.34,8.34,0,0,1,4.46,1.68c1.44,1.21,2.5,1.41,3.56-.34a1.32,1.32,0,0,1,1.79-.5c3.6,1.32,7.2,2.78,11.08,2.91,5,.18,10-.54,15.05.53.85.18,2-.55,2.87-1a39.74,39.74,0,0,1,10.67-3.7c1.55-.31,2.55-.87,2.37-2.71-.23-2.38.58-2.33,2.19-.94,1,.88,1.88.75,3.14-.46,3.12-3,4.1-7.27,6.84-10.32,2.43-2.69,3.29-5.74,4.28-9,.39-1.27-.27-2.45.41-3.52a4,4,0,0,0-.09-3q-4.84-16.23-11.18-31.92A24.28,24.28,0,0,1,56,305.39c-1.16-3.31-3.36-4.86-7-4.95-4.79-.12-8.8-3-13.28-4.34-4.31-1.27-8.82-2.59-13-2.43-2.94.11-6.81-1.24-9.47,1.7-.77,12-1.45,24-2.34,36C10.47,337.09,7.46,342,5,347.06A50,50,0,0,0,.09,370.77Z"/><path class="cls-7" d="M288.88,375.91a22.38,22.38,0,0,0-2.17-6.8c-2.45-4.43-4.37-9.16-6.52-13.77l.7-.49,6.85,7.11c2.1.89,3.88.73,4.73-1.7.52-1.49,1.82-2,3-2.72a3.34,3.34,0,0,0,1.73-3.17c-.14-1.55-1.3-1.63-2.51-1.73-1.73-.14-1.26-1.5-1.88-3.2,3.75,2.51,5.87,0,8.29-1.28a86.18,86.18,0,0,1-4.32-12.33,38.19,38.19,0,0,0-14.57-20.4c-5.19-3.66-7.62-8.89-9.5-14.39C268,287.23,260.18,276,247,269.13c-16.48-8.58-30.76-20-43.81-33.1-1.45,1.05-.34,2.05.15,2.95,8.84,16.22,17.61,32.49,25.52,49.19a199.85,199.85,0,0,1,9.87,25.34,220.38,220.38,0,0,0,8,22.68,40.28,40.28,0,0,0,11,14.69c8.7,7.32,17.36,14.68,25.9,22.19C285.17,374.33,286.46,376.27,288.88,375.91Z"/><path class="cls-8" d="M106.36,412.74a32.18,32.18,0,0,0,10.27,21.13,67.52,67.52,0,0,1,20.27,35.22q2.08,9,3.72,18.18c2,11.35,8.91,19,19.32,23.85,7.28,3.37,14.4,7.11,21.59,10.68a2.66,2.66,0,0,0,4.25-1.38c1.44-4.25,5-7.12,6.76-11.12,2-4.54,1.13-8.5-3.23-10.84-2.17-1.17-3.4-2.23-2.81-5,.51-2.39-1.19-3.3-3.42-1.8-1.87,1.27-2.83.94-3.73-.93-.65-1.34-1.73-2.44-2.23-3.87a1.82,1.82,0,0,0-2.39-1.37c-1,.24-2.06,1.64-3.08.29-1.17-1.56-2.54-3.35-2.05-5.31.6-2.43.77-4.2-2-5.27-1.1-.43-1-1.65-.86-2.74.31-3.21,1.6-6.78-3-8.31-.8-.27-.21-1.21,0-1.83.6-1.64,2-2.88,2.54-4.48.48-1.36,2.4-3.86-1.53-3.4-.24,0-.28,0-.41-.23-1.38-3,.38-7.7,3.61-8.69,2.07-.63,3.68-2.4,6.06-2.25.72,0,1.42-.75.77-1.42-2.27-2.32-.21-4.13.79-5.78,2.13-3.55,2.27-3.46-2.07-5.81,2.15.43,3.4,1.77,5,1.3,1.73-.52,2.38-2.07,3.07-3.52s1.46-1.27,2.45-.42c2.07,1.77,3.73,1.55,5.54-.61,1.36-1.63,3.46-1.52,5.46-1,1.4.38,2.85,1.13,4.25-.05a50.06,50.06,0,0,0-11.84-14.37,9.83,9.83,0,0,0-3.3,3c-1.76,2.05-3.7,3.8-6.59,4-.46,0-1,0-1.32.35-4,4.59-10.47,3.38-15.09,6.51a4.07,4.07,0,0,1-3,.48c-3.31-.58-6.6-1-9.76.73a2.34,2.34,0,0,1-2-.13c-4.29-1.77-8.9-2-13.38-2.88s-8.82-2.52-11.71-6.52c-.41-.56-.88-1.27-1.58-1.25-4.79.1-6.39-3.77-8.55-6.87-.8-1.15-1.62-2-3-1.8-2,.22-2.39,1.54-1.94,3.25C106.36,411.2,106.81,411.92,106.36,412.74Z"/><path class="cls-9" d="M540.69,530.85a5.49,5.49,0,0,1-1.74,3.64,8.87,8.87,0,0,0-2.57,5.51,2.59,2.59,0,0,1-.51,1.62c-3.57,3.39-4.52,8.67-8,11.88-3,2.76-5.92,5.5-8.79,8.36-1.72,1.71-5,2-7.56,2.68a4.78,4.78,0,0,0-2.33,1.28c-2.33,2.39-5,3.45-8.36,2.29a2.8,2.8,0,0,0-3.16.73,4.16,4.16,0,0,1-4.2,1c-4.32-1.35-8.72.13-13.14-1-7.4-1.87-14.26-4.31-20.51-8.94-4.89-3.63-9.35-7.92-15-10.63-2.36-1.13-3.52-.6-4.77,1.39-3.17,5.08-6.68,10-9.61,15.15-2.1,3.68-5.27,7.54-4.91,12.45.14,1.84-.18,3.44-2.26,4.12a1.81,1.81,0,0,0-1.2,2.51c1.37,2.82,1.25,6.54,5.17,7.89,1.83.63,1,3.75,3.18,4.62.34.14.42,1.39,1,.31.65-1.27,1.39-1.13,2.1-.31a3.93,3.93,0,0,1,1.15,3.14c-.18,1.12-1.05,1.39-2.06,1.4a5.62,5.62,0,0,0-3.76,1.44c1.07,1.75,2.86,1.27,4.36,1.22a313.45,313.45,0,0,0,36.07-3.26c6.59-1,12.47-4.14,17.94-7.73,14.24-9.33,28.31-19,43.07-27.44,12.81-7.33,25.91-14.48,40.49-18.15,2.25-.56,4.81-.82,6.37-3-8.49-4.16-16.22-9.89-25.46-12.52C548.15,531.46,544.52,530.43,540.69,530.85Z"/><path class="cls-10" d="M199.28,426c-3,.26-5.82-2.44-9-.69-.57.31-1.36.26-1.64,1-1.32,3.55-2.89,1.8-4.44.22s-2.4-1.67-3.29.71c-1.61,4.37-2.05,4.43-6.12,2.38-.75-.38-1.63-1.58-2.34-.55s.54,1.75,1.23,2.5c.88.94,2.19.55,3.37,1.3a38.16,38.16,0,0,1-3.66,5.28c-2.31,2.73-.43,3.08,1.73,4.47-5-.34-8,2.58-11.46,4.54-.28.16-.74.6-.7.66,1.7,2.87-.1,6.22,1,9.17,2-.23.6-2.24,2-2.67a3,3,0,0,1-.59,3.73,16.33,16.33,0,0,0-2.42,4.09c-.78,1.74-3,4,1.54,3.1.81-.16,1.11.44,1.35,1.2a8.4,8.4,0,0,1,.12,5.74c-1,2.46-.2,3.84,2.12,4.38,1.75.4,1.55,1.39,1.12,2.53-.78,2.07.49,7.2,2.25,8.46,1.18.85,1.82-.23,2.61-.86,1-.81,1.77-1.23,2.39.68a24.43,24.43,0,0,0,3.13,5.64c1.3,1.94,2.46.87,3.53-.4.6-.73,1.39-1.47,2.33-.9s.59,1.7.17,2.49c-1.31,2.47.13,3.52,2.07,4.47,5.42,2.65,6.48,5.73,3.74,10.93-1.11,2.12-2.12,4.33-4.15,5.8a3.63,3.63,0,0,0-1.32,2.7c-.38,2.53-1.72,3.93-4.41,3.75,2.9,2.79,6.58,4.69,9,8,3.34.62,7.15-1.39,7.38-4.83.21-3.07,2.29-3.94,4-5.38s4.85-2,2.8-5.38c-.16-.27-.24-.41.11-.43,3.72-.2,3.75-5,7.23-5.73,1.59-.33.58-2.17.57-3.47,2.54,1.15,4-.52,5.38-1.94s.43-2.52-1.19-3c-2.44-.75-2-1.77-1-3.79,1.49-3,2.78-6.12,1.29-9.93-1-2.53-1.69-5.09-3.91-7.32a7,7,0,0,1,3.6,2.05c.8.84,2.6,1,2.56.09-.09-2.61,2.39-3,3.26-4.65-.29-2-1.77-3.23-3-4.49-6-6.23-9-13.93-11.07-22.1A96.24,96.24,0,0,0,199.28,426Z"/><path class="cls-9" d="M37.53,226.93c4.81,10.31,9.24,20.83,14.52,30.9,6.78,12.89,14.33,25.36,20.19,38.73,4.62,10.52,8.05,21.45,11.54,32.36S90.73,351,94.2,362c.2,1.23.2,2.72,2,2.66a3.82,3.82,0,0,0,3.62-2.75c1.31-4.49,5.53-7.3,6.64-11.91.39-1.6,2-1.49,3.46-1.48,3.8,0,4.92-1.53,3.81-5.09,1.45-.24,2.8-1.22,4-1.46,4-.82,7.49-4.9,12.24-2.23,2.46,1.38,2.63-2.38,4.55-2.51-3.35-7-8.24-12.94-12.92-19C107.51,300,91.5,283.55,76.27,266.38c-9.74-11-19.32-22.12-29-33.14C44.61,230.26,42.15,226.89,37.53,226.93Z"/><path class="cls-11" d="M402,366.73c-7.06,3.31-14.42,6.11-21.07,10.09a89,89,0,0,0-14.43,10.3c-.4,1,.07,2.16-.36,3.05s1.22,2.8-1.54,2.45c-1.05-.13-1.79,5.58-.78,6.83.59.73,1.42,1.25.61,2.3-2.66-2.08-2.55-2.05-3.55,1.29-.7,2.32-1.59,4.45.21,6.74.65.82.06,2-.62,2.85s-1,1.81-.08,2.75c1.15,1.12,2.2.79,3.32-.53-.68,2.49-3.17,3.6-3.49,6-.12.93-1.35.6-2.07.85-2.45.84-2.73,2.05-.66,3.65a2.44,2.44,0,0,1,.89,3.31c-1.12,2-1,4.92-4,5.56-.73.16-1.27,1.06-1,1.62,2.46,4.43-1.16,7.11-2.87,10.32a8,8,0,0,0-1.17,2.09c-.15.83.43.93,1,1,3.48-1,5.83-3.62,8.48-5.76a136.8,136.8,0,0,1,27.63-17.38,129.71,129.71,0,0,1,12.25-4.59c6.13-2.17,11.73-5,16.48-9.63,8.28-8.13,16.49-16.33,25.15-24.05.51-2,.55-4.31,3.46-4.78a1.75,1.75,0,0,0,1.16-2.5,1.82,1.82,0,0,0-2.46-.61c-2.88,1.14-4.79-.29-6.66-2.21a49.89,49.89,0,0,0-8.89-7.09c-1.09-.7-2.28-1.56-3.49-.77-2.4,1.57-5.41,1-7.81,2.55-1.23.79-2.37.36-3.19-1-3.28-5.3-3.3-5.29-9.25-4.27A1.87,1.87,0,0,1,402,366.73Z"/><path class="cls-12" d="M420.89,430.36c-10,6.27-21.14,10.13-31.56,15.48a131,131,0,0,0-21.08,13.62,2.27,2.27,0,0,0-.85,1.8c-1,1.64-1.72,3.11-.47,5.17,1.05,1.73-.07,3.55-1.34,5s-1.37,2.66.87,3c1.48.24,1.47.74,1.25,2.14s1.49,2.35,1.74,3.9,1,2.89-1.44,3.26c-1.78.27-1.67,1.42-.48,2.35,1.54,1.2,2.39,3.1,4.18,4,.3.15.82.45.77.62-1.24,4.25,2.63,3.7,4.59,5,.47.3.84.77,1.43.88a42.92,42.92,0,0,0,7.05-8.88c6.73-11.25,16.65-17.9,29-21.82a167.5,167.5,0,0,0,25.93-10.23c12.67-6.51,21.17-16.61,26.29-29.73,1.55-4,3-7.95,4.51-11.93-.85-3.17-.88-3.1-3.31-1.36s-4.46,4.33-7.55,5.3a1.94,1.94,0,0,0-1.15,1.63c-.26,1.61-.94,1.7-2.58,1.58-2.95-.22-5,1.82-6.62,4.15-.64.94-1.07,2-1.68,3s-1.24,2-2.71,1.22c-.79-.43-1.59-.45-2,.56-.47,1.22-1.11.8-1.83.29-2.44-1.73-3.34-.11-3.78,1.9a5.59,5.59,0,0,1-1.87,3.07c-1.4,1.35-2.42,1.3-3.83.25s-3.3-2.08-5.1-1.82C424.16,434.2,422.29,432.86,420.89,430.36Z"/><path class="cls-13" d="M486.83,218.34c-5,6.23-7.5,14.23-14.11,19.27-5.92,4.51-12.09,8.65-18.39,12.61-6.74,4.24-12.95,8.83-16.85,16.18-3.12,5.9-9.45,8.47-14.64,12.15-3.44,2.44-7.18,4.48-10.48,7.21L437.61,274c.1,2-1.37,2.75-2.35,3.66a127.55,127.55,0,0,1-29,20.09c-.73.37-2.18.5-1.68,1.7.42,1,1.58.55,2.45.17,8.71-3.78,17.41-7.59,26.15-11.28.62-.26,1.91-2.27,2.43.25,4.14-1.89,7.1-.91,9.19,3.3.66,1.31,2.5,2.09,3.12,3.55,1.39,3.21,3.66,3.74,6.67,2.68,2.75-2.3,4.77-5.26,6.88-8.08a129,129,0,0,1,21.63-23c10.15-8.32,16.31-19,19.54-31.6.6-2.32,1.09-4.66,1.64-7a44,44,0,0,0-10.77-6.24,1.32,1.32,0,0,1-.93-.94C492,217.77,489.36,218.16,486.83,218.34Z"/><path class="cls-4" d="M10.13,469.59c1.8,2.2,4.3,2.41,6.87,2.4.34,0,.85,0,1-.17,2.51-3.75,5.71-3.94,9.56-2.23a1.63,1.63,0,0,0,2.24-1.8c-.45-2.36.73-2.1,2.33-1.94,2.45.25,4.82.39,5.09-3.25.12-1.68,1.79-1.91,3.28-1.38,2.43.87,3.16-.31,3.11-2.5,0-.68-.27-1.64.07-2,3.23-3.36,3.43-7.23,1.69-11.79,4.29,1.49,4.87-3.18,7.79-3.71a.76.76,0,0,0,.32-1.16c-2.91-2.25-.73-6.48-3.49-8.78-1.13-.95,0-1.67.52-2.29,1.27-1.63,1.55-3-.46-4.29-.82-.53-1.42-1.27-.48-2.25.34-.35.54-1.13.24-1.1-4.2.34-1.29-2.36-1.76-3.66-.64-1.81-1.63-4.16-3.14-4.85-3.83-1.79-6.78-3.8-8.43-8-1.33-3.41-5.51-2.72-8.47-3.37-4.29-.95-8.81-1.22-12.72-3.3-2.32-1.22-3.29-.78-4.15,1.4-.59,1.49-1.31,2.65-2.81.61-1.36-1.85-2.52-.86-3.56.46,1.19,6,3.89,11.44,5.92,17.12a26.18,26.18,0,0,1,.55,16.22,75.09,75.09,0,0,0-2.59,27.62C8.91,464.29,9.72,466.89,10.13,469.59Z"/><path class="cls-14" d="M56.25,308.09A333.61,333.61,0,0,1,67.51,340.2c.32,1.09.86,2.11,1.29,3.17a232,232,0,0,1,7.31,26.37q4.27,20.31,8.38,40.64A60.63,60.63,0,0,0,101.26,442,92.55,92.55,0,0,1,123,474.69c2.86,7.48,4.6,15.3,6.6,23,3.46,13.41,10.63,24.15,22.26,31.81,2.2,1.45,4.28,3.08,6.42,4.63-.2,1.3.86,1.91,1.65,2.38,4.51,2.74,9,5.54,13.63,8,2.14.19,3.76,1.47,5.45,2.6,1.05.7,2.08,1.65,3.34.64a3,3,0,0,0,.7-4,12.61,12.61,0,0,1-1.61-5.8,34.78,34.78,0,0,0-13.71-11.24c-2.94-.71-5.24-2.69-7.89-4-1-.64-2-.8-2.69.32a2.24,2.24,0,0,0,.38,2.57,10.88,10.88,0,0,0,3.1,2.71c2.78,1.84,5.5,3.77,8,5.59-9.53-4-19.39-10.42-24.9-17.48-4.89-6.25-8.72-13.2-8.95-21.5,0-1.73-1.42-2.81-1.89-4.37-2.48-8.12-5.66-16-8.77-23.89-2.86-7.28-7.73-13.24-12.42-19.36s-9.85-11.44-14.35-17.53c-3.15-4.27-4.36-9.26-6.57-13.86,1.4,3.24,2.27,6.75,4.64,9.5,1.24,1.44,2.81,2.74,4.26.05-.93-2.77-2.85-5.14-3.3-8.1h0c-3.17-10.86-5.33-22-7.69-33-2.33-11.55-5.11-23-8.45-34.29-4.35-14.72-9-29.38-14.4-43.73-3.38-8.88-6.57-17.89-11.66-26A33.42,33.42,0,0,1,52.13,276c-6.5-14.84-14.8-28.77-21.76-43.38a53,53,0,0,0-4.06,10.91q11.46,23.18,21.36,47a102.22,102.22,0,0,0,7.44,14.31A5.17,5.17,0,0,1,56.25,308.09Z"/><path class="cls-15" d="M516.74,633.39l-1.53-.07c-1.47.23-2.21,1.26-1.37,2.39,1.23,1.66.22,3.11-.26,4.35s-1.75,2.43-3.35.43c-2.78-3.47-3.54-3.41-5.77.25-.69,1.12-1.85.2-2.64,1.3-1.94,2.71-1.19,5.26-.66,8-.34-1.88-1-3.71-1.3-5.65-.11-.68-.23-1.82-.81-1.72-2.38.39-4.77-.18-7.07.14-1.65.23-1.69,2.23-2,3.69.08-1.12.12-2.36-1.21-2.58-3.89-.64-7.66-.65-10.32,3.34,0-1.43.25-2.82-1.22-3.49a3.53,3.53,0,0,0-4.14.76c-2.71,2.54-6,1.76-8.76.82-4.37-1.47-4.81-1.43-5,3.34-.3-1.79-1.55-3.07-2-4.73s-1.62-2.75-3.31-2.22-1.12,2.25-1.21,3.56c-.06,1,.84,1.64.82,2.64-.87,0-1.81.16-1.45-1.18.09-.33.38-.64.36-1-.05-1.63,1.33-3.72-.58-4.77s-3,1.05-4.35,2c-1.68,1.09-3.7,1.59-4.71,3.68-.41.84-1.86.78-2.9.63a16.47,16.47,0,0,0-3.78-.13c-3,.28-3.58,1-2.55,3.84.2.54.69.92.88,1.72a14.77,14.77,0,0,0-8.35,4.19c-.71.73-1.76,1.31-1.34,2.56.53,1.56,1.79,1,2.91.92a1.91,1.91,0,0,1,1.59.51c-1.49,1.57-2.74,3.37-4.48,4.65-1.5,1.11-2.55,2.05-.88,3.8a2.09,2.09,0,0,1,.45,1.95c-.63,2.83,1.22,3.32,3.6,3.61-1.65,1.3-2,3-2.23,4.89-.19,1.69-.08,3.44-1.23,5-1.32,1.74-.45,3.25,1.18,3.93,2.59,1.08,3,2.82,2.51,5.26-.37,2-.31,3.86,2.55,3.69a68.27,68.27,0,0,0,14.91-12c9.89-10,22.61-14.53,35.28-19.31,16.74-6.31,31.94-15,43.59-29a13.43,13.43,0,0,0,.91-1.44c.06-1.61-1-1.39-1.72-.82-2.79,2.36-4.67,1.59-6.11-1.46C517.57,633.39,517.09,633.37,516.74,633.39Z"/><path class="cls-16" d="M455.49,624.35c-2.07,4.15-1.85,4.6,3.85,5.37,4.27.57,8.09,2.23,11.92,4,3.15,1.5,6.7,1.2,10.07,1.38,1.4.08,3.43.59,3.9.4,2.9-1.16,5.93.86,8.13,0a23.28,23.28,0,0,1,9.76-1.68c2.64.07,5.32-2.51,7-4.85.52-.7.2-1.13,1.52-1.34,2.38-.38,5-1,6.18-3.72,0-.1.09-.28.16-.29,5-1,6.7-6.81,11.42-8,2-.52,1.74-2.22,2.61-3.24a54.82,54.82,0,0,1,10.39-9.8c.46-.32,1.15-.78,1.17-1.2.17-4.36,3.87-5.92,6.43-8.41a6.93,6.93,0,0,1,5.47-2.18,213.12,213.12,0,0,1,25.27-27.93c2.53-2.36,6.08-3.77,7.26-7.46a290.19,290.19,0,0,0-35.78,18.47c-9.54,5.73-19.13,11.35-28.1,18-5.72,4.21-11.19,8.76-17,12.86-13,9.16-27,15.92-42.87,18.58A56.86,56.86,0,0,1,455.49,624.35Z"/><path class="cls-5" d="M439.28,66.81c-3.07,7-6.35,13.94-8.43,21.34a15.5,15.5,0,0,0-.56,1.62c-.8,4.31-.8,4.29,3.5,5.53a2.67,2.67,0,0,1,1.78,1c-2.24-.3-4.22-2.44-6.64-.58-1.68,1.3-2.16,2.32,0,3.56a42.72,42.72,0,0,0,3.9,1.92c-.81.21-2-.27-2.22,1-.12.85.55,1.45,1.19,2a11,11,0,0,0,3,1.65c.87.35.86.94.35,1.64-.92-.13-1.12-1.05-1.66-1.59s-1.07-1.4-1.94-1.23c-1,.2-.87,1.2-.83,2,.1,2-.5-.19-.67.12-1.51-.92-2.44.16-3.16,1.14-.94,1.27,0,2.18,1.08,2.75,1.21.66,2.53,1.09,3.36,2.31a1,1,0,0,0,1.51.34,5.9,5.9,0,0,1,4.89-.82c1.38.26,1.7-1.25,2.39-2.13.86-1.1.8-2.53,1.73-4.2-.57,3-2.56,5-2.16,7.59q-3.52,8.2-7.06,16.39a128.71,128.71,0,0,1-10.53,19.47c-1.09,1.67-.82,2.91.44,3.8,1.65,1.17,2.09-.82,2.64-1.65,6.26-9.4,13.71-17.9,20.69-26.79,1,.37.46,1.11.26,1.69a88.25,88.25,0,0,1-11.89,23.12c-3.59,5-6.92,10.15-11.05,14.74-1.46,1.61-2.16,3.39.46,4.73,10.46-6.26,19-14.28,23.56-25.9,1.76-4.51,3.72-8.71,7.14-12.35,4.65-4.95,6.21-11.47,6.94-18a95.09,95.09,0,0,1,3.41-17.87c3.29-10.57,1.38-21.11-.4-31.63-3.16,0-5.95,1.35-8.83,2.36-.45.15-.81,1.59-1.24-.1-.32-1.26-1.61-1.9-2.48-2.79-1.44-1.48-2.73-1.46-2.85.93-.08,1.56-.66,1.74-1.93,1.35-1-.31-2.05-.22-3-.55C441.76,64,440.15,64.57,439.28,66.81Z"/><path class="cls-9" d="M433.3,232.61c3.61-1.53,5.66-5.08,9.48-6.59l-10.33,13c-.38,1.28.05,2.6-1.71,3.64-2.62,1.55-2.83,6.65-.84,8.59a4.08,4.08,0,0,0,2.71-1.32,145.84,145.84,0,0,1,20.83-14.48c9.2-5.38,15.95-13.34,20.93-22.71,1.5-2.83,3.59-5.33,4.66-8.38a1.92,1.92,0,0,0-.25-1c-.22-.46-1-.75-.57-1.44,1.39-2.24.18-3.39-1.74-4.27s-2.24-1.91-.3-3.15c.29-.19.78-.38.75-.64-.21-1.49-.87-3,1.34-3.77.45-.16-.26-1.69-.82-2.41-2.5-3.24-.66-7.15-1.66-10.64-.3-1.06,1-1.67,2.14-1.8a4.58,4.58,0,0,0,2.56-.87c1.6-1.3,2.85-2.62.39-4.25-1.08-.72-1.24-2.24-2.48-2.8-5,1.09-9.42,3.58-13.76,6-11.12,6.16-21.75,13.09-31.14,21.76a11,11,0,0,0-1.06,1.29c1.69,1.22,2,2.81,1.72,4.84-.84,5.72-2.37,11.33-2.83,17.11-.27,3.36.29,6.69-1.23,10A2.86,2.86,0,0,0,433.3,232.61Z"/><path class="cls-17" d="M577.2,545c-9.69,3.07-19.64,5.5-28.64,10.4-11.13,6.06-22.41,11.77-33.13,18.68-13.11,8.46-25.55,18.14-40,24.44a19.35,19.35,0,0,1-5.22,1.65c-13.71,1.77-27.42,3.61-41.3,3.19a55.43,55.43,0,0,1-12.33.77c-7.81-.06-15.47,1.49-23.2,1.76-9,.3-18,.56-27-.48a90.06,90.06,0,0,0-25.95.76c-9.91,1.72-19.95,2.74-29.94,4-11.78,1.51-23.57,2.93-35.35,4.48-6.8.89-13.64,1.61-20.34,3-5.57,1.17-10.95,3.22-16.41,4.9-1,.3-1.8,1.13-2.92.59a313.83,313.83,0,0,0-40.12,15.15c10.4.55,20.1-.2,29.55-3.31,1.29.49,2.51,0,3.7-.36,5.45-1.41,11-2.63,16.31-4.39,11.36-3.76,23.15-5,34.95-5.81,9.16-.67,18.3-1.35,27.38-2.74,16.31-2.48,32.58-5.43,49.11-5.89,5.79-.16,11.62,1,17.44,1.31,10.58.64,21.05-.56,31.53-1.83,10.9-1.33,21.89-1.07,32.82-1.77,13.83-.37,27.53-1.68,40.81-5.83a41.63,41.63,0,0,0,11.79-6.39c12.85-9.32,26.3-17.76,39.45-26.64a75.05,75.05,0,0,1,12.28-7c3.83-1.64,7.26-4,10.92-5.89,7.16-3.76,15-5.81,22.48-8.72,2.26-.88,4.44-1.9,6.61-2.94.86-.41,2.09-.8,1.3-2.24A19.4,19.4,0,0,0,577.2,545Z"/><path class="cls-4" d="M352.56,549c.65.13,1.77.1,1.88.43,1.48,4.2,4.8,7,7.55,10.22.54.63.52,1.72.77,2.6.6,2.12,1.25,4.2,3.71,4.95a1.74,1.74,0,0,1,.9.5c1.75,2.34,4.16,3.93,6.27,5.84,3.51,3.18,6.4,6.92,11.17,8.46,1.43.46,1.6,2.15,2.1,3.41a1.22,1.22,0,0,1-.44,1.53c-.69.41-1-.18-1.33-.66-.91-1.43-2.2-1.24-3.91-1,1.48,2.06,3.95,2.73,4.57,5.2.26,1,1.68.33,2.36-.21,1.07-.84,2-1.85,3.45-1.62.2-1.48-.94-1.39-1.48-1.86-1-.81-2.16-1.45-1.59-3.06.26-.72.63-1.18,1.47-1.16,1.47,0,2.88.35,3.36,1.88.7,2.24,1.74,3.93,4.32,4.08a6.37,6.37,0,0,0,1.19-.34c-3-1-2.14-4-3.86-5.68-.89-.87.16-1.39,1.08-1.31,2.84.26,5.52-1.75,8.44-.55a1.54,1.54,0,0,0,1.15-.37c-.21-2.79,2.94-3.2,3.7-5.28.85-2.31,2.61-3.1,4.93-2.65,1.58.31,2.51-.28,3.4-1.6,2.2-3.27,4.59-6.41,6.89-9.61.13-.18.2-.54.34-.57,5.93-1.19,6.17-7,7.34-10.88,1.23-4,4.24-5.75,6.47-8.27,1.95-2.2,5.43-.59,7.87.6,1.85.9,3.05,2.91,4.4,4.58a20.45,20.45,0,0,0,7.49,6.17,9,9,0,0,1,3.29,2.29c4.24,4.65,9.94,6.58,15.59,8.75,5,1.93,9.74,1.37,14.59-.3,1.16-.4,2.67-.82,3.7-.41,3.48,1.38,6.15-.47,9-1.76a7,7,0,0,1,2.95-.69c2.35,0,4.54-.62,5.78-3,.31-.59.69-1.35,1.23-1.57,5.61-2.33,9.54-6.18,11.4-12.06.22-.68,1-1.59,1.62-1.65,4.3-.4,4-3.91,4.35-6.66.18-1.64.24-2.42,2.07-2.71,2.26-.36,1.27-1.56.33-2.56a46.17,46.17,0,0,0-12,.57c-3,2.72-1.26,7.25-4,9.91.22.62-.54.13-.08.19.19,0,.14-.06.06-.34-.65-2.21-2-1.93-2.74-.36-1.39,2.87-3.79,5.16-4.35,8.52a4.25,4.25,0,0,1-4.1,3.59c-3-.2-4.92,1.35-7,2.91-1.18.86-2.65,2.5-4,0a1.44,1.44,0,0,0-1.6-.4c-5.07,2-10.32.7-15.47,1.06-1.77.12-2.3-1.42-3.56-1.6-2.41-.34-4.33-2.06-6.81-2.18-.91,0-2.15-.33-2.31-1.24-.62-3.39-3.55-4.17-6.14-5.53.81-.61,2.1-.25,2.12-1.44s-.86-1.54-1.68-2a4.94,4.94,0,0,0-2.35-.21c-3.06-.11-4.74-2.12-4.9-5.71a129.73,129.73,0,0,0-18.27-1,8.78,8.78,0,0,1-7.92,6c-1.61.15-1.86,1.06-1.93,2.28-.19,3.63-.21,7.35-5.09,8-.9,2.74-2.28,5-5.51,5.27-.11,0-.23.44-.15.63,1.54,3.61-.67,4.42-3.5,5.55-1.86.75-3.25,2.8-5,4.6.79-1.34,2.13-2.55,0-3.41-1.57-.62-3.19-1.11-3.82,1.25a4.89,4.89,0,0,1-.35,1c-1.21,2.28-3.64-1.51-5,1.09-1.46,2.79-2.56,1.09-4-.43s-3.22-1.92-4.19.73c-.13.75-.77,1.32-.7,2.13-.11-.83.59-1.4.69-2.17-2-1.13-4.42-1.66-4.83-4.61-.15-1.12-1.59-1.05-2.62-1.2-3.66-.55-7.76-.22-9.47-4.74-.19-.51-.9-.68-1.46-.82-3.45-.85-5.62-2.55-4.66-6.57.32-1.36-.7-2-1.79-2.57-3.67-2.08-3.67-2.27-.61-5.32.33-.32.66-.64,1-1,1.6-1.64,2.12-2.92-1-3.17-.56-.05-.44-.69-.51-1.11a42.78,42.78,0,0,0-13.08,3,1.88,1.88,0,0,0-2.17,2.3c.24,2.68.09,5.43,1.34,7.93C350.33,550.28,351.2,548.57,352.56,549Z"/><path class="cls-18" d="M134.49,337.23c-1.08.58-1.6-.59-2.74-.89.32,2.7.16,3.93-2.94,1.9a4.81,4.81,0,0,0-6.47,1.5,1.69,1.69,0,0,0-.13.31c-3.67-2.22-5.33,3.22-8.68,2.26-.68-.19-1.42-.21-1.78.56a1,1,0,0,0,.67,1.34c1,.35,1.75.8,1.07,2s-1.68,2.13-3.09,1.63c-3.2-1.15-4.33.41-5.56,3.15-1.11,2.47-1,6.2-5.12,6.69-.8.09-.2,1.85-.26,2.84a3.81,3.81,0,0,1-2.92,3.45c-1.65.54-1.69-1.11-2.34-1.93.17,5.17,2,10,3.3,14.9,2.82,10.82,5.55,21.65,7.8,32.6a25.59,25.59,0,0,0,1.07,3.24,1.27,1.27,0,0,0,.75-1.69c-.38-1.14-1.36-2.52.56-3.1,1.54-.47,2.34.26,2.87,2,.91,2.93,4.24,4.11,5.59,6.83,4.14-1.81,4.83,2.6,7.2,4a38.55,38.55,0,0,0,12,4.13c3.61.72,7.8.12,11,2.72.57.45,1.58.9,2.26.29,2.33-2.09,4.84-1.77,7.64-1.17,3.81.82,7.28-.48,10.3-2.81,1.06-.82,2.15-.58,3.26-.7,2.36-.25,5,0,5.92-3,.2-.65.81-.72,1.41-.73,5.39,0,7.65-4.15,10.24-7.83-2.79-2.57-5.32-5.45-8.63-7.41-2.78-.88-5.47-1.61-6.73,2.24-.26.78-1.2,1-2,1.1s-2.05.29-1.6,1.6A1.94,1.94,0,0,0,171,410.3c1.35-.5,2.75-.82,4.09-1.31-3,.5-5.28,2.74-8.55,2.86-2.85.1-3.19,1.55-1.55,4.14-2.64-4.11-6.4-1.45-8.72-.56-3.36,1.28-6.11-.16-9.09-.16-2,0-4-.6-6,.27-1.85.77-3.57.23-4-2-.45-2.53-2.2-2.48-3.88-2.06-2.48.62-3.34,0-3.28-2.64s-3.64-5.39-6.18-5c-2.06.35-1,2.23-1.49,3.34-1.32-.33-1.48-1.22-1.5-2.37-.08-3.52-2.16-5.67-5.12-7.16a6.52,6.52,0,0,1-3-9c.62-1.24.47-2.21-.86-2.83-.52-.25-1.08-.41-1.59-.69-3.13-1.69-3.31-2.42-1.36-5.32,1.52-2.24,1.23-3.12-1.19-3.62-.69-.5-1.76.35-2.52-.87,1.19-.19,1.77,1,2.68.87a1.32,1.32,0,0,0,.72-1.73c-1-3,.6-4.46,3-5.6a28.54,28.54,0,0,0,4.8-2.66c3.49-2.53,3.51-3.8-.16-6.67,2-.4,3.93,0,5.81-.4,1-.19,1,.19,1.24.85.71,1.68,2.08,1,3.25.64,1.62-.47.63-1.35.51-2.34-.27-2.22.6-4.73-2.46-5.78.69-1.24,2-.44,2.72-1.34,1.44-1.69,2,.46,2.79,1,1.08.75.49,1.57-.37,2.18a12.48,12.48,0,0,0-1.62,1.28c-1.08,1.06-1.81,2.13-.28,3.44,1.19,1,2.2,1.4,3.53,0,2.3-2.36,5.49-3,8.52-3.82,1.55-.42,2.84.64,4.09,1.47l.48.07c-1.1-5.69-4.52-10.3-7.38-15.11A48.54,48.54,0,0,0,134.49,337.23Z"/><path class="cls-14" d="M440.3,387c-7.88,6-14.83,13.12-21.55,20.34-7.87,8.47-17.84,12.53-28.41,16.2-9.95,3.46-18.91,9.08-27.34,15.51-4.44,3.38-8.47,7.32-13.44,10-2.52.21-3.81,2.3-5.54,3.69a43.51,43.51,0,0,0-7.1,6.8c-10.62,10.06-21.74,19.54-32.93,29q-8.55,7.18-16.89,14.62c-1.73,1.54-3.51,3.18-4.31,6.34,7.12-3,13.85-5.42,19.57-10,7.54-6,15.14-11.87,22.71-17.79,8.72-6.4,16.33-14.11,24.72-20.9,8.76-7.07,17.3-14.45,26.88-20.44,6.46-4,13.24-7.75,20.5-9.76,12.41-3.44,22.05-10.47,30.22-20q2.79-3.25,5.6-6.49c7.21-8.61,16.11-15.14,25.57-21,8.82-5.51,17.38-11.44,26.19-17,5.71-3.58,11.67-6.77,17.51-10.15,1.36-.78,2.56-1.08,3.3.76.06-3.51-2.37-4.42-5.14-4.69a57.92,57.92,0,0,0-6.18,0c-4.36,1-7.84,3.74-11.48,6.11-11.14,7.28-22.41,14.35-33.64,21.5C445.88,381.66,442.31,383.44,440.3,387Z"/><path class="cls-19" d="M288.88,375.91c-10-8.47-20.09-16.82-29.9-25.49a40.89,40.89,0,0,1-9.3-11.18c-4.36-8-6.44-16.63-9.64-24.93-2-5.12-3.21-10.53-5.38-15.55-4.1-9.48-8-19.1-13.15-28-6.37-11.11-11.15-23.08-18.38-33.71-.15-.22,0-.65.07-1-9.3-9.78-18.5-19.66-28.49-28.76,5.62,9.74,12.14,18.88,18.56,28.08a49.38,49.38,0,0,1,4.71,7.59c7.2,15.92,16.11,31,23.46,46.83,6.35,13.68,10.81,28,15.52,42.28a77.49,77.49,0,0,0,14.53,25.59c3.32,4,8.63,5.55,12.56,8.91,12.74,10.9,26.36,20.78,38.31,32.57,3.85,3.81,7.5,7.71,12.19,10.48.67.39,1.21,1.07,2.52.6C311.24,395.75,300.51,385.46,288.88,375.91Z"/><path class="cls-20" d="M388.8,567.9c1.14-1.58,2.57-2.22,3.9-.45,2.66,3.54,3.71,3.51,5.62-.49,3.42,2.35,3.42,2.35,4.84-2,.28-.89.28-.89,3.47,0,.48,1-.59,1.05-.91,1.54-.62.94-1.26,1.91.12,2.56s1-.94,1.43-1.39c2-1.91,3.51-5.07,6.49-4.91,3.46.18,2.56-1.41,2.18-3.26-.29-1.42-2.26-4.23,1.86-2.41a1.56,1.56,0,0,0,2.09-1.28c-.24-2.92,1.69-3.36,3.7-4.59,3.25-2,2.73-5.85,2.58-9.26,4.38.93,9-2.6,9.06-6.81a121.46,121.46,0,0,0-23,.34c-10.47,1.14-20.84.14-31.25-.62a55.22,55.22,0,0,0-18.08,1.66,3.32,3.32,0,0,0-1.73,2.32c1.39.89,2.38-1,3.91-.16C364,539.82,363,541,362,542c-2.68,2.54-2.35,4.46,1.3,5.79,1.37.5,2.09.63,1.66,2.46-.89,3.81.75,6.05,4.69,6.68,1.09.17,1.9.06,2.21,1.47.66,2.92,3,3.1,5.52,3.65s6.58-.78,7,4.13c.23,2.82,3.36.11,4.51,1.71Z"/><path class="cls-21" d="M378.51,129.36c3.73-2.41,2.92-6.58,3.38-10A205,205,0,0,1,388.84,86c1.39-4.47,2.36-9.1,5-13.29-.26,3.15-.52,6.31-.77,9.46a1,1,0,0,0,1.48.88c3.06-1.58,7.08-2.09,8.15-6.1.68-2.54,1.53-1.64,2.67-.54a5.8,5.8,0,0,0,1.31,1.11,2.12,2.12,0,0,0,2.57-.17c.77-.69,1.06-1.55.22-2.39a2,2,0,0,1-.46-2.15c.72-3.38.65-3.38,3.92-2.23a11,11,0,0,0,2.32.66,2.9,2.9,0,0,0,2-2.56c1.4-6.26,3.85-12.15,6.24-18.07a2.38,2.38,0,0,0,.15-1.66,3.06,3.06,0,0,0-2.73-1.79c-1.66-.05-2.13-1.25-2.27-2.54-.25-2.25.49-4.51-.11-6.8-.27-1,.72-1.45,1.68-1.8,1.71-.62,1.68-2.33.44-2.83-2.68-1.08-3.52-3.79-5.59-5.31A148.3,148.3,0,0,0,391,47.08c-3.18,3.16-4.46,7.72-6.18,11.83-9.38,22.35-11.23,45.48-6.82,69.2A6.37,6.37,0,0,0,378.51,129.36Z"/><path class="cls-22" d="M336.92,459.53A162.32,162.32,0,0,0,349.56,449c2.48-2.69,3.7-6.19,5.71-9.2.33-.51,1.51-2.61-.61-3.34-.59-.21-1.12-.42-.77-1.18a1,1,0,0,1,1.12-.59,1.06,1.06,0,0,0,.34.06c3.68-.64,2.68-4.32,4-6.47.82-1.36.82-3.89-2.21-3.87-.44,0-.59-.28-.55-.63.07-.62.52-1.32,1-1.23,2.91.51,3.51-1,4.33-3.46a12.43,12.43,0,0,1,2.81-3.82c.77-.75.67-1.47-.16-2s-1.47-.16-1.67.89-.71,1.73-1.87.85-.63-1.47.32-2a2.07,2.07,0,0,0,.71-3c-2.79-3.19.26-6.11.27-9.2.12.27.24.53.37.79.41.86.45,2.58,1.71,2s1.79-3.35,1.46-3.47c-3.87-1.43-.65-4.25-1.36-6.21-.1-.25.13-.63.2-.95,1.35-.21,1.78,1.48,3.47,1.28-3-2,.3-5-1.7-7.15-12.92,8.8-23.48,20-33.25,32.07a11.36,11.36,0,0,1,1.38,1.75c-.69-.56-1.07-1.17-1.77-1.35-4.89,5.11-8.69,11.06-12.92,16.69-.51.68-.45,2.47-2.18,1.65a5.07,5.07,0,0,0-.62,5.43c1,2.51-2,8.6-4.5,9.53-2,.75-4.7.64-3.61,4.2.16.51-1.4,1.55-2.49,2.69-.49-5-4-4.23-6.9-4.41-1,1.85-2.15,3.62-2.43,5.77.64.8,1.58.73,2.47.86,3.06.43,3.36,1.29,1.32,4.37-.88-2.08-1.74-4.1-4.19-4.46a5.39,5.39,0,0,0-1.37,3.18c1.91,1.62,2.32,3.17-.44,4.2-2.11.78-1.18,3.69-3.28,4.38a4.1,4.1,0,0,0-1.29,2.74c1.75-.52,3.14-.13,4.1,1.91,1-2.33,1.94-4.48,2.92-6.59s3.48-2.18,5.15-3.35a28.47,28.47,0,0,0,4.95-4.59,59.17,59.17,0,0,1,8-7.87c2.11-1.6,1-5.46,3.26-5.58,2.75-.13,4.19-1.66,5.89-3,1.5-1.2,3-2.49,3.3-4.8.21-1.83,2.42-1.17,3.63-1.89,2.3-1.38,4.05-3.25,6.07-4.88,4.72-3.81,9.72-7.25,14.61-10.84.84,1.13.45,1.75,0,2.24-7.84,8.07-14.79,17-23.09,24.62-5.87,5.4-11.52,11-16.88,16.91-.61.68-1.41,1.53-.69,2.37s1.78.22,2.49-.3a24.9,24.9,0,0,0,2.81-2.52c7.21-7.11,16.08-12,24.12-18,.52-.38,1-.62,1.53-.23s.24,1.08,0,1.56c-1.07,2.34-3.07,3.95-4.71,5.84A2.83,2.83,0,0,0,336.92,459.53Z"/><path class="cls-3" d="M323.27,150.5c-6.71-9-14-17.55-22.71-24.74-9-7.42-16.34-16.28-23.86-25.08-4.57-5.34-8.09-11.45-12.89-16.57-1.09,2.26,0,4.25.85,6.23,5,12.16,9.15,24.67,14.58,36.7a186.24,186.24,0,0,1,7.44,19.87,28.46,28.46,0,0,0,2.05,5.1c4.42,9.35,8.2,19,11.88,28.61a14.87,14.87,0,0,0,2,4c2.36,1.86,3.53,0,3.89-1.73a6,6,0,0,1,3.24-4.46c1.42-.77,2.08-2.44,2.42-4,.25-1.13.21-2.35-1.62-2.6,2.48.65,4.29.51,3.5-2.71a1.19,1.19,0,0,1,.42-1.26c3.16-1.59,4.07-5.13,5.3-7.73,1.15-2.45,2.71-4.87,3.56-7.52C323.56,151.91,323.11,151.19,323.27,150.5Z"/><path class="cls-3" d="M440.3,387c6.21-4.88,13.07-8.77,19.72-13,7.72-4.88,15.43-9.77,23-14.92,3.67-2.52,7.91-4.11,11.26-7.11-18.07-2.32-36.1-5.85-54.25-.35a233.35,233.35,0,0,0-38,15.08c-.16,2.11.84,1.91,2.3,1.27,4-1.75,6-.76,7.14,3.5.64,2.32,2.81,3.42,4.53,1.92,2.46-2.15,5.94-.71,8.5-3,.92-.81,3.07,1.55,4.44,2.57a48.34,48.34,0,0,1,8.59,7.66c1.36,1.63,3.3.6,4.93.19.75-.19,1.61-1,2.07-.05.59,1.17-.67,1.48-1.43,1.88a4.36,4.36,0,0,1-4.59.24C439.8,384.69,440.66,385.65,440.3,387Z"/><path class="cls-23" d="M323.27,150.5c-1.26,2-.26,6.07-5.84,4.48,2.92,2.62,3.68,4.38.54,5.86-.82.38-.86,1.44-1,2.41s-.6,2.49-1.71,2.79c-3.27.87-2.28,3-1.7,5.07-1,.56-2,.1-2.93-.19-.68-.2-1.4-.38-1.79.41a1.88,1.88,0,0,0-.09,1.3c.32.86,1,.84,1.66.38,1.4-1,1.39.2,1.1.87-.73,1.65-1,3.61-3.26,4.31-1.42.45-3,1.35-2.34,3.51.6,1.91-1.41,2.41-2,3.65-1.4,3.14.66,6,.92,8.94.94,10.6,7.86,17.18,15.86,23a39.5,39.5,0,0,1,6.84,5.75c.85,1,1.95,1.65,3.34.86a24,24,0,0,1-1-2.56,1.45,1.45,0,0,1,.3-1.23c.41-.39.85-.08,1,.41s.25,1.22,1.07,1c1.13-.3.26-1.12.37-1.69.14-.76.5-1.66-.77-1.84l-4.6-.62c2.37-.71,3.07-2,3.28-3.41a4.42,4.42,0,0,1,2.53-3.36c2.29-1.29,2.64-3.13,1.05-5.07-1.2-1.47-.56-2.62.56-3.09,2.27-.95,2.3-1.88.5-3.26a1.29,1.29,0,0,1-.52-1.77,1,1,0,0,1,1.46-.43c1.17.81,2.38.22,2.51-.65.2-1.36,1.53-2.7.57-4.09-.68-1-2.24-1.59-.8-3s2.65-.61,3.86.36c-2.41-6.31-4.7-12.67-7.25-18.93A92.89,92.89,0,0,0,323.27,150.5Z"/><path class="cls-13" d="M420.89,430.36c.12,3.19,1.43,4.88,4.93,4.17,2.39-.48,4.48.55,6.38,1.87,1,.71,2.78,2.05,3.1,1.05.63-2,4.2-1.38,3.34-4.3a2.81,2.81,0,0,1,1.14-2.7c.87-.68,1.57.48,2.17,1.1s1.15,1.22,2.05.75c1.19-.62-.26-1.69.34-2.44,3.24,1.65,4,1.46,5.94-3,1.06-2.43,2.91-3.37,4.88-4.73s2.67,1.63,4.17.54-.5-3.83,1.31-4.14c4.27-.73,6-4.63,9.45-6.44l1.18,1.89c4.87-11.51,9.9-22.94,17.23-33.17,2.59-3.62,5.32-7.14,8-10.71-12.63,6.88-25.13,14-37.06,22.08-11.76,8-20.43,18.84-29.17,29.71A41.12,41.12,0,0,1,420.89,430.36Z"/><path class="cls-19" d="M330.88,223.9c-3.55-.65-5-4.07-7.56-6-5.86-4.39-12.33-8.36-15.39-15.64a41,41,0,0,1-2.44-9.6c-.39-2.49-1.7-4.74-1.57-7.3-5.52-12.93-10.25-26.2-16.53-38.81-1.26-4.55-3.81-8.57-5.36-13-2.44-7-6-13.44-8.88-20.21-4.32-10.15-7.83-20.63-12.53-30.65-1.85-4-3.74-7.28-7.86-9l-.67.16a320.7,320.7,0,0,1,11.37,30.25,158.69,158.69,0,0,0,8.66,22.81c.48,3,2.81,5.36,3.23,8.42,1.11,4.76,3.38,9.06,5.41,13.45.62,3.24,3,5.79,3.56,9,3.75,9.15,7.52,18.28,11.23,27.43,1.79,4.4,2.35,9.11,3.31,13.71,2.21,10.6,9,17.8,17.35,23.93s16.43,12.94,22.9,21.24A63.53,63.53,0,0,1,346,256.06c1.81,3.81,4.74,6.63,8.39,9.43,0-3.88-.07-7.28-1.39-10.5a81.75,81.75,0,0,0-10.5-19c-2.84-3.68-6.54-6.7-9.84-10C332,225.35,331.47,224.61,330.88,223.9Z"/><path class="cls-24" d="M329.93,682.13a30.21,30.21,0,0,1-1.47-4.9c-.46-3.51-2.4-3.71-5.14-2.71-.51.19-1.28.07-1,1,.82,2.54-1.78,2.22-2.64,2.52-1.28.45-1.39-1.42-1.8-2.4a12,12,0,0,1-.38-2.41,7.92,7.92,0,0,1-3.94,1.29c-.62.08-1.61-.21-1.77.67-1,5.39-2.13,2.35-3.41.12-.76-1.34-2.08-.63-3.13-.5s-.85.88-.69,1.81c.35,2.1-4.68,7.33-6.61,7.14a.92.92,0,0,1-.76-.5c-1.72-2.2-3.89-1.76-4.8,1.24-.37,1.19-.57,1.82-1.87,1.81-.84,0-2-.35-2.08,1.1,0,1.16.9,1.48,1.76,1.84s1.44.63,2.22,1c-3.63,3.55-5.46,3.78-6.57.86a17,17,0,0,1-.58-3.36c-.13-.84.21-2.47-.85-2.15s-2.22,1.32-3.47,1.87c-.56.25.48,1.83,1.64,2s1.57,1.1,1.3,1.63c-.55,1-1.56-.3-1.88-.18-2.59,1-3.15-.81-3.82-2.82-.69,2.9-1,6-5.87,4.25a5.58,5.58,0,0,0,3.69,2c1.25.22,1.29,1.09,1.25,2.07-.05,1.17-.68,1.71-1.8,1.47-2.49-.52-3.31.78-3.5,3.1,1.22.07,1.18-.93,1.49-1.52s.68-.94,1.34-.58c.46.25.7.87.39,1.15-1.21,1.13-.91,1.88.19,3,.89.87.39,2-.64,2.59-1.88,1.18-.75,2,.31,2.82a121.24,121.24,0,0,0,23-5.49c13-4.62,25.81-3.87,38.81-.69,1.86.45,3.78.69,5.67,1,.49-1,.94-2.07,1.46-3.08.71-1.35,3.2-3-.78-3.32-.22,0-.63-.79-.54-1.1.92-3.25-1.65-4.61-3.31-6.52-.66-.76-3.14-1.61-.43-3,.29-.15.6-1.11,0-1-2.51.43-.92-3.19-2.95-2.88-1.29.2-.72,1.48-.81,2.29-.14,1.36-.19,2.69-1.85,3.68,0-1.57-.41-3,0-4.1.63-1.56.48-2.79-.74-3.63-1.86-1.27-1.51,1.5-2.66,1.67-1.39,2.18-2.86,2.29-5.42.36C326.43,684,328.18,683,329.93,682.13Z"/><path class="cls-25" d="M166.29,394.09c-10.21-7.88-15.19-19-19-30.81a67.74,67.74,0,0,0-2.72-6.33l-.14.06a28,28,0,0,1-3.41-.51c-.69-.19-1.87-.07-1.8.46.4,2.93-2.11,1.89-3.31,2.62a3.94,3.94,0,0,0-1.63,2.56c-.3,1.23-.44,2.51-1.85,3.08-.32.12-.68.46-.65.75.5,4.32-1.61,8.12-2.47,12.08-1.33-2.73.65-5.17,1.56-7.43.72-1.81,1.42-3.32-.07-4.46-1.84-1.4-3.48.4-4.88,1.38-1.93,1.36-.26,2.5.88,3.87-2.33-1-3.6-.4-4,1.82-.42,2.07-2.39,4.38,1.5,5.84-1.56.38-2.83-.08-3.93.53s-2.08,1.54-1.69,3,1.48,1.08,2.53,1a44.25,44.25,0,0,0,5.14-.49,1.6,1.6,0,0,1,1.84.59c.35.6,0,1.11-.42,1.53-1.44,1.46-1.72,2.44.16,4.17,1.13,1-.66,2.89-2.16,2.8-3-.17-3.43,1.69-3.84,3.78-.37,1.88,0,3.07,2.35,3.19s5.35.1,5.11,3.92c2.78,1.3,4.94,3.92,8.36,3.84.76,0,1.61-.45,2.23.32a.87.87,0,0,1,0,.69c-.42,1.1-2.62,2.14-.51,3.33,1.71,1,3.38.14,4.4-1.55.87-1.44,1.09-3-.14-5.18,3,4.27,7.15,4.5,10.89,5.42,1.45.35,2.47-1.87,1.87-3.58-.32-.92-1.39-1.19-1.71-2.19.74-.32.83.74,1.21.65,3.36-.73,6.57-.91,9.22,1.91.26.28,1.19-.1,1.16-.4-.23-2.42,2.51-3.57,2.48-5.72A10.19,10.19,0,0,0,166.29,394.09Z"/><path class="cls-26" d="M166.29,394.09c.56,1.74,1.11,3.48,1.67,5.22a2.74,2.74,0,0,1-1.19,3.56c-.44.26-1.2.1-1.19.93s1.31,1.86,0,2.34-1.58-1-2.12-1.81-5.61-1.47-6-.58c-.66,1.76-1.07,1.23-1.45,0-.16-.52.61-1.47-.58-1.46-1,0-1.62.83-2.07,1.65s.12,1.33.82,1.51c1.82.46,2.07,1.62,1.43,3.12-.78,1.85-1.87.54-2.77.14-3.07-1.39-7.39-.86-8.42-5.45-.05-.22-.85-.48-1.2-.39-.75.21-.57.86-.35,1.41s.51,1,.68,1.58c1,3.18-.73,5.1-4.35,4.7.1-.32.1-.69.3-.88.85-.83,2.62-1.4,1.82-2.81-.51-.9-2-2.19-3.43-.66-1.38-1.35-4.29.57-5-2.52-.37-1.64-1.89-.27-2.89-.38,1.05-2.92-1.88-5.66-5.79-5.22-1,.12-2,.64-1.79-.74s.46-4.46,1.8-4.1c4.16,1.11,4.05-2.39,5.74-4.35-1.53-.68-5.92-.62-1.13-3.23.69-.37,1.44-2,.61-2.72s-2.77-1.33-3.44-.87c-1.93,1.36-4.09-.31-5.87.88-.55.36-.91,0-1-.46a1.75,1.75,0,0,1,.23-1.29c1.08-1.22,2.36-1.79,4-.84,1.06.63,1.82.15,2.1-.91s-.3-2.15-1.32-1.88c-2.68.71-1.71-.73-1.33-1.91.46-1.41,1-2.81,1.44-4.25,1.41-.48,1.45,3.12,3,1.27.8-1,1.53-3.17-1.28-3.43a1.7,1.7,0,0,1-.32-.1c.3-.47.69-1.37.88-1.33,1.61.35,2.34-2.3,3.95-1.2.68.47,1.42,1.85.51,2.37-2.55,1.43-.53,5.42-3.76,6.29a8.65,8.65,0,0,1,1.2,5.4,18.69,18.69,0,0,0,2-3.79c1.09-2.18,1.31-4.33,1.82-6.55.23-1,.91-1.67.12-2.72-.26-.34,0-1.08,0-1.64,3.6.29,2.07-2.81,2.83-4.37,1-2.12,1.06-2.15,4.69,0,.73-.85-.19-1.44-.36-2.13-.36-1.55-.77-3,1.78-1.94,1.09.47,2.23.66,3.1-.51a3.64,3.64,0,0,0-5.2-2.44c-1.8.78-4,.41-5.63,2.24-.72.83-2.83.28-3.08,2.48-.08.65-1.39,0-2-.47s-1.18-.86-.57-1.67c.21-.27.6-.42.75-.71.8-1.52,3.5-1.1,3.49-3.41,0-.69-2-2.39-5.16-4.42-.85.44.91,4-2.17,2.05-.2-.12-1.41.72-1.47,1.67,0,.56-.12,1.12.8,1.13,2.65.06,2.67,2.23,2.12,3.68-.45,1.21,1.59,2,.15,2.82-.62.36-1.69.69-2.15.39-1.4-.88.71-2,0-3.37-2.47,2.52-5.43,1.44-8.25,1.39-.55,0-1.13-.45-1.41.31a1.19,1.19,0,0,0,.75,1.66c.53.21,1.29.18,1.59.55,1.07,1.35,2.7,2.49-.06,4.22a68.39,68.39,0,0,1-6.15,3.45c-3,1.47-4.22,2.95-2.73,6.12.2.41-.15,1.08-.25,1.64,2.31.79,1.56,2,.49,3.31-2.89,3.49-2.81,3.88,1.19,6.27,3.8,2.27,3.8,2.31,0,4.55-.11,1,1.24.95,1.24,1.36,0,5.26,4.91,6.29,7.67,9.15a4.73,4.73,0,0,1,1.45,5c-.69,2.62,3.16.87,3,3.64a8.86,8.86,0,0,0,.89-1.28c.43-1.3-1.75-3-.15-3.67,1.35-.56,2.94,1.25,4.72,1.46,1.32.16,1,1.84,1,2.93-.16,3.88.15,4,3.74,3.27,1.11-.24,3.33-1.37,3.26,1.89-.05,2.22,3.15,3.42,5.43,2.08,1.27-.74,2.4-1,3.5-.38,2.46,1.38,5.62-.53,7.86,1.81a1.07,1.07,0,0,0,1.73-.46c.88-2.11,2.73-.94,4-1.42,2.5-.94,4.42-1.44,6.05,1.25.24.4,1.37.77,1.73-.1a2.62,2.62,0,0,0-.24-1.94c-.38-.72-2.59-.1-1.64-1.71a3.43,3.43,0,0,1,3-1c3.32.83,5-3.24,8.28-2.57.62.13.79-1.52.21-2.35-.79-1.13-1.18-.29-1.76.36a4.37,4.37,0,0,1-5.6,1.06c2.15-.61,4.64-.39,4.67-3.7,0-1,1.08-1,1.9-1,1.12,0,2.25.71,3.36,0Z"/><path class="cls-3" d="M56.25,308.09c.52-1.12-.2-2-.61-2.91Q44.32,280,33,254.77c-1.4-3.12-2.86-6.22-4.33-9.3-.46-1-.65-2.37-2.32-1.93-6.78,16.67-11.92,33.75-13.07,51.83,1.86-.64,3.71-1.25,5.53.18a1.41,1.41,0,0,0,1.27.14c5.34-3.33,10.11.61,15.08,1.3,5.33.75,9.86,4.72,15.57,4.48A3.52,3.52,0,0,1,54.36,304C54.91,305.41,55.62,306.73,56.25,308.09Z"/><path class="cls-4" d="M173.44,543.87c-4.7-3.79-10.64-5.65-15.16-9.71-.48.84-.05,1.56.31,2.27a2.81,2.81,0,0,1-.14,3.24c-.9,1.1-1.61-.18-2.41-.35-3.88-.83-5.79,2.33-7.23,4.6-1.15,1.83-1.78,1.05-2.3.42-1.37-1.66-2.7-1.24-4.27-.48a11.22,11.22,0,0,1-4.86,1.35,5.5,5.5,0,0,0-4.68,2.68c-2,3.4-4.19,3.9-7.52,1.76-.46-.3-.86-.77-1.52-.46-.74.84,0,1.27.54,1.63,2.9,2.06.9,3.33-.73,4.64-.6.49-1.29.64-1.71-.21s-.61-2.6-1.79-1.3c-.54.6-3.64,1.66-1,3.59a.64.64,0,0,1,.21.53c-.23.73-6.87,5.26-7.64,5.36-1.83.25-4.45-1.25-5.34.9a6.18,6.18,0,0,0,1.58,7.16l12.68,4.7c1.85-.36,3.61.31,5.41.52s3.14,0,2.3-2.31a3.21,3.21,0,0,1,.93-3.42c.6-.68,1.84-1.19,1-2.49l-6.36-5.35c-1-.47-.8-2.13-1.69-2.22.3.06,1,.49,1.73.67l15.32,6.82c-3.87-5.25-8.15-9.3-10.8-14.6a173.66,173.66,0,0,1,24.56,17.88c1.28,1.35,2.58,1.59,3.29-.41a14.09,14.09,0,0,1,4.28-6c1-.89,1.77-2.12.74-3.57-2.81-5.26-5.63-10.53-10.26-14.65,4.31,1.14,7.76,3.66,11.42,5.77,1.1.59,2.13.8,2.82-.59-.08-.21-.18-.42-.28-.62.73-3.1-1.15-5.48-2.24-8.08a30.42,30.42,0,0,0,4,6.62c1.46,1.8,2.73,1.66,4.37.5s2.77-3,4.25-4.45C175.61,544.71,174.51,544.3,173.44,543.87Z"/><path class="cls-27" d="M344.48,485.67c-8.79,5.66-18.08,10.52-26.86,16.26,8.64-3,17.39-5.39,25.35-9.83.2.33.4.67.61,1l-25.13,15.44.3.83,23.83-7.17c-7.1,5-14.38,7.55-20.84,11.57-.76,1.12-1.68,2.18-1.73,3.61a16.55,16.55,0,0,1-3.66,9.62A99.33,99.33,0,0,0,341,521.43c5.74-2,11.58-3.84,16.56-7.52-1-3.47,1.52-5.35,3.33-7.65,2.2-2.81,1.57-4.07-2.08-4.56.28-1.15,1.24-1.57,2.16-2s1.59-1.1,1.24-1.82c-1.32-2.76-.22-6-1.93-8.65-.12-.19-.42-.37-.37-.55.93-3.78-1.88-5.1-4.34-6.66-2.8-2.18-3.05-2.15-4.27,1.14-.4,1.09-1.21.84-1.93.86C347.59,484.07,345.79,484.11,344.48,485.67Z"/><path class="cls-28" d="M430.83,697.62c-2.35-.62-2.12-2.36-1.68-4.07.69-2.69.5-4.62-2.8-5.45-1.47-.37-3-1.81-.53-3.37,1.74-1.09.85-3.13.86-4.35,0-2.92.47-4.9,3.78-5.22-.77-1.47-1.81-.93-2.62-1-1.75-.26-3.67-.13-2.33-3,.26-.55.62-2.29-1.12-2.65-1-.22-.92-1.33-.26-1.44,3.56-.54,3.5-5.27,7.57-5.5-1.79-1.73-2.87-3.32-5-1.69a.79.79,0,0,1-1.19-.28c-.38-.62-.1-1.08.41-1.46,3.15-2.29,6-5.26,10.92-4.17-1.09-2.22-3.67-3.29-2.7-6,2.1.1,4.35.34,6.6.29s4.5-.44,4.06-4.1c1.26.72,2.79,2.89,3.18-.24.15-1.18,1.56-1.24,2.31-1.92,1.57-1.4,2-.26,2,1.1a6,6,0,0,1-.71,2.91c-.53.88-1.66,1.79-.63,2.59.72.56,2.13.22,3.23.28-.12-.93.88-1.81-.46-2.88-.8-.64-.91-3,.39-3.58,1.49-.67,2.48.57,2.48,2.29s2.35,2.54,2,4.54c-.12.6.48.68.94.65a1,1,0,0,0,1-1.12,11,11,0,0,1-.26-2.69c.29-1.32,1.11-2,2.45-.87,2.71,2.39,7.81,2.54,10.47.29.95-.81,1.77-1.8,3.29-1.22,1.15.44,2,1,.78,2.1-.63.6-1.43,1.09-.58,1.88a1.65,1.65,0,0,0,2.45-.3c.54-.58,1-1.19,1.56-1.79,1.29-1.52,7-2.63,8.25-1.48,1.42,1.31-.93,2.08-.6,3.48,1.32.21,2.26.14,2.55-1.64.51-3.11.54-2.87,3.63-2.18,1.23.28,2.74-.72,4.38-1.21.19,2.79.52,5.7,2.69,8.1.76-2.87-1.33-5.8.75-8.37.29-.35.49-.78.8-1.09s3.57-2.39,3.56-2.6c-.05-1.26.7-.58,1-.33a15.85,15.85,0,0,1,1.86,2c.62.76.64,2.56,1.74,2.2a6.62,6.62,0,0,0,3.58-2.48c.75-1.16-.77-3.26,1.6-3.85.23-.06-.25-1-.93-1-3.27-.34-.35-1.52-.31-2.3-.81-1.26-1.2-4.33-3.06-.51-.33.68-2.28.56-3.7.86-.05.87,1.67,1.14,1.12,2.28s.53,1.62,1.17,2.5c-.87-.78-1.41-1.66-2.41-1.93-2.1-1.82-3.48-1.79-4.79,1.09-1,2.22-3.61,2.21-5.85,2.32s-4.47-.33-6.32,1.7c-1.25,1.37-1.34-1.57-2.1-1.09-1.36.86-3.2.4-4.31,1.9-.51.7-2,.6-1.56-.43,1.24-3-.59-2.29-2.23-2.37-.76,0-1.49-.75-2.4-1.24a8.58,8.58,0,0,0-.46,2.12c.15,2.56-1.61,2.4-2.46,1.2-2.18-3.09-6.71-.85-8.61-4.18-.05-.1-.79,0-.82.11-.87,3.66-3,1.3-4.48.79s-2.39-1.61-3.93-.09c-.88.88-2.23-.09-3.23-.43-4.77-1.62-8.91,3.12-13.86,1.17-1.42-.56-.95,2.47-1.89,3.55-1.64-.23-.59-1.94-1.55-2.38-.49-.23-1.09-1.71-1.58-.07s-1.53,1.62-2.94,1.4-2.95-.82-1.88,2c.76,2-1.35,3.14-3.21,3.74-2.05.67-3.83,1.61-4.27,4-.06.34-.38.8-.26,1,1.18,1.61,2.08,3.57-.65,4-2.05.31-1.16-2.23-1.56-3.44-1.12-3.36-2.79-.56-4.17-.83-.14,1.17.54,1.44,1.14,1.75.91.48,1.55,1.15,1.07,2.2-.66,1.45-1.52.15-2.29,0-1.75-.23-3.54-1.08-5,.82-1,1.27-2.56-.84-4,.41a3.73,3.73,0,0,0,4.85,1,3.56,3.56,0,0,1,4.31.57,3.9,3.9,0,0,1,.68,3.88c-.5,1.84-2.89.94-3.94,2.24-.2.25-.94,0-1-.63-.21-3.89-2.74-1.12-4.11-1.65,2,1.47,2,1.47,3.57,6.21,1.59.6,2.07-2.58,3.66-1.24a4.68,4.68,0,0,1,1.42,3.43c0,.65.14,1.74-.74,1.64-2.59-.3-1.53,2-2.49,3,1,.67,2.15-1.5,2.82.29a2,2,0,0,1-.26,2.43c-1.7,2-1.14,4.41.39,6.08,3,3.3,3.09,5.13-.64,7.89,1.84,1.26,4,.6,6.31,1.07-1.32,1-2.17,2.21-3.24,2.46-3.19.76-1.79,2.39-.69,3.57,2.08,2.22,4.6,3,7.42,1.16A11.56,11.56,0,0,0,430.83,697.62Z"/><path class="cls-29" d="M453.5,536.15a2.62,2.62,0,0,0-.41,3.94c1.5,1.31,3.29,3.24,5.44,2.68,1.77-.46,2.42.4,3.54,1.09-.29.3-.41.52-.59.6-1.06.44-2.49-1.71-2.94-.16s1.75,2.53,2.8,2.82c2.51.69,4,1.76,4,4.47a1.1,1.1,0,0,0,1.1,1.12c2.93,0,5.31,2.1,8.23,2.13a2.06,2.06,0,0,1,1,.34c2.53,1.5,9.29,2.31,12.59,1.5,2.11-.52,2.11-.52,3.21,2,1.05-1.46,1.78-3.38,3.93-3,2.59.46-.15,2.63.49,3.13,4.4-1,6.21-6.26,11.48-5.06,1.58.35,4.76-3.58,5-5.3.49-3.21,3.39-5.24,4.29-8.33.18-.61,1.4-.41,1.11.61-.39,1.42.85,1.39,1.66,2.79a6.41,6.41,0,0,1,1.23-4.89c.49-.69,1.44-1.19.85-2.36-.75-1.48-.57-2.55,1.26-3.29,1.49-.61.36-1.41-.31-2a100.79,100.79,0,0,0-24.85,4.82c-10.09,3.12-20.11,4.05-30.49,2A69.87,69.87,0,0,0,453.5,536.15Z"/><path class="cls-30" d="M423.36,49c-2.54,6.07-5.36,12-6.58,18.58a18,18,0,0,1-1.44,3.45c-2.8,5.22-3.44,11.09-4.9,16.7a260.08,260.08,0,0,1-10.12,31.3,22.61,22.61,0,0,0-1.34,5.31c-3.19,10.6-3.53,21.69-5.62,32.47-1.42,7.3-3.11,14.55-4.4,22a23.46,23.46,0,0,0,4.23-10,343.46,343.46,0,0,1,16.23-54c4.15-10.71,6.78-21.91,10.16-32.86,4.16-14.77,8.89-29.31,16.17-42.9a18.59,18.59,0,0,0,2-5.07c3.52-6.66,7-13.35,10.58-20,2.27-4.21,4.71-8.33,7.08-12.49L444.73,8.43C439.06,18.28,433.09,28,427.81,38,426,41.54,423.52,44.84,423.36,49Z"/><path class="cls-20" d="M478.39,167.37c-.05,2.4,1.65,3.53,3.56,4.48-1.56,1.37-2.51,2.9-5,2.58-1.59-.2-2.82,1.54-2.27,3.46a11,11,0,0,1,.49,5.75c-.75,2.87,1.84,4.45,2.61,6.7-1.54.54-1.87-1.09-2.94-1.1-.78.82-.09,1.52.23,2.16.57,1.11,2.25,2-.57,2.79-1.66.5-.93,3.65,1,4.2,2.19.62,3.95.88,1.33,3.58-1.5,1.54.18,1.66,1.44,1.31,1.81-.33,1.81-2.43,3.16-3.23a5.15,5.15,0,0,0,.59-.82c4.36-7.28,10.51-13,16.37-19,6.67-6.8,13.49-13.47,20.62-19.81,3.26-2.9,6.8-5.48,9.78-8.68.8-.85,2.27-1.38,1.68-3q-23.39,8.16-46.76,16.35C481.92,165.71,480.18,166.59,478.39,167.37Z"/><path class="cls-31" d="M222.63,476.05a6.44,6.44,0,0,1-1.12.78,7.49,7.49,0,0,0-2.09,2.4c0,.6-.09,1.24-.74,1.4-.38.1-1.19-.09-1.21-.24-.48-3.11-3.55-1.59-5-3,.67,1.67,2.23,3.64,2.29,4.5.2,2.8,4.06,5.06,1.35,8.21-.53.61.15,1.29.18,1.95.07,1.39.15,2.74-1.38,3.59a2.18,2.18,0,0,0-1.22,2.87c.45.92,1.12,2.07,2.6,1.82.7-.12,1.54-.09,1.7.72s-.69,1.94-1.2,1.77c-1.25-.41-2.5,3.86-3.56,0-.4.16-.91.22-1.17.51-.49.56-1.26,1.16-.49,2.06.59.7,1.47,2,.17,2.1-3.2.21-3.82,2.83-5.09,4.75-.93,1.43-1.95.7-3.33.67,2.22,2.68,1.81,4.44-1.45,5.59-1.63.57-2.54,2.52-4.45,2.91-.28.06-.61.7-.65,1.11-.68,5.9-1.09,6.38-6.2,7.23,2.66,3.27,5.48,6.38,7.3,10.3.74,1.59,2.41,3.56,4.72,2.3,1.86-1,2.26-2.47,1.79-5.06-.63-3.38-.94-6.93-1.29-10.42-.07-.66-.28-1.54.41-1.88.93-.45,1.37.54,2,1a.71.71,0,0,1,.18.29c1,2.71,2.18,5.28,6.15,3.85-1.69-1.94-.22-3.79.91-4.93,2.7-2.74,3.89-5.24,1.79-9-.53-.95.39-3.18,1.28-4.33s1.54.62,2.34,1c1.13.57,2.25,1.22,3.59.84.5-.13,1.57-.21,1.24-.77-1.4-2.33,1.06-5.09-.94-7.27-1.63-1.77.68-3.22.44-5-.18-1.37-1.32-3.94.12-4.28,2.31-.55,1.27,2.37,2.13,3.56,1.45,2,2.51,4.92,5.66,2a1.65,1.65,0,0,1,1.55-.49c.95.2,2.28,1.09,2.7-.25s-1.39-1.55-2.06-2.41a3.25,3.25,0,0,0-.43-.15,2.49,2.49,0,0,0,.42.17c.86-.94,1.64-2.61,2.49.09.31,1,1.29,1.77,2,2.64C234.12,492,229.71,483.28,222.63,476.05Z"/><path class="cls-32" d="M122.33,682.72c-2.72-.62-5.26-.93-6.56,2.43-.62,1.61-2,.43-3,.53-1.39.12-1-.85-1.13-1.58-.14-1.1-.3-2.2-.45-3.34,1.37-.44,1.85,1,2.84,1,.79,0,1.72.35,2.26-.39s-.35-1.1-.86-1.48-.54-.89-.11-1.11a3.24,3.24,0,0,1,1.62-.08c.81.07,1,2.26,2,1,1.16-1.44,3.23,2.09,3.38-.7,0-1-.92-2.42-.92-3.7-2.88.9-5.45-1.19-8.2-.61C102.86,682,92,688.25,81,694.5,78,696.26,74.84,698,71.93,700a8.08,8.08,0,0,0-1.29,12.12c2.37,2.69,6,3.27,8.18.87,5-5.72,11.86-8.88,18-13.08C105.23,694.08,114.27,689.13,122.33,682.72Z"/><path class="cls-9" d="M454.63,298.14a86.36,86.36,0,0,1-7.38-5.08,18.27,18.27,0,0,1-3.89-4.86c-1.29-2.61-4-2.27-7.71.41-4.48,3.86-8.77,7.95-13.8,11.13-2.25,2.17-4.34,4.41-4.38,7.82,0,1.1-.82,1.85-1.42,2.68-2.35,3.2-2.34,6.7-1.33,10.33C430.3,317.14,444.1,310.55,454.63,298.14Z"/><path class="cls-9" d="M583.8,547.94c-1.58,2.6-4.46,3.18-6.95,4-8.15,2.65-16.38,5.1-24,9.07a394.5,394.5,0,0,0-37.64,22.36c-11.06,7.43-21.5,15.9-33.41,22-8,4.07-16.88,4.74-25.6,5.89-6,.78-12.09.91-18,2.31,10.63,2,21.23,2.87,32,.48,17.43-3.88,31.72-13.19,45-24.62,8.18-7,17.39-12.65,26.73-18.06,14.22-8.25,29.1-15.17,44-22A2.34,2.34,0,0,0,583.8,547.94Z"/><path class="cls-33" d="M439.28,66.81c3.42-3.47,6.6-.12,10.06.17a.48.48,0,0,0,.25-.28c.27-1.33-.44-2.76.43-4,1.05,1.66,3.46,2.08,3.9,4.37.14.73-.43,2.19,1,2.11,1.2-.06.63-1.14.61-1.9,0-1.43,1.36-1.13,2-1.28a27.63,27.63,0,0,0,6.74-2.46c-1.64-14.84-1-29.66.37-44.47.11-1.24,0-2.49,0-3.74-3.34.65-5.48,2.56-6,6-.37,2.73-2.22,4.74-3.22,7.16-4.73,11.35-9.63,22.64-14.43,34C440.49,63.88,439.15,65,439.28,66.81Z"/><path class="cls-34" d="M262.13,585.61c-7.56,5.21-14.51,11.17-21.53,17.06a48.38,48.38,0,0,1-8,6c1.2,1.51,2.53.54,3.7.06q4.62-1.91,9.06-4.2c17.55-9.08,35.47-17.35,53.43-25.57,3.06-1.53,6.15-3,9.29-4.32,8.46-4.12,16.58-8.84,24.71-13.53a7.47,7.47,0,0,0,2.9-2.39c.31-2.74-1.55-2.61-3.36-2.54-6.18,1.71-12.08,4.21-18.08,6.44-2.5,1.21-4.89,2.72-7.69,3.22a8.16,8.16,0,0,0-1.18.3C290.94,572.62,276,577.92,262.13,585.61Z"/><path class="cls-35" d="M355.09,482.26c.44.79.61,2.2,1.48,2.17,4.67-.13,1.68,2.94,2,4.59.05.27-.19.59-.29.88,4.58.29,1.3,2.79,1.29,4.4,0,.28.65.52.9.85,1.14,1.5,2.6,2.83-.63,3.93-1.36.47-2.24,2.33-3.34,3.56.32.25.49.49.65.49,1.4-.07,3.23-1.61,4.07-.08,1.09,2-1.26,3.71-2.39,4.38-3.21,1.93-2.76,4-1.23,6.48a53.69,53.69,0,0,0,18.52-14.64c0-.58-1.23-.78-.57-1.52s1.37-.2,2.05.06l.9-1.25c-.57-1.09-.91-2.28-2.46-2.61-1.06-.23-5,1.25-1.9-2.44.13-.15-.24-1.07-.52-1.15-2.95-.91-3.62-4.32-6.54-5.54,4.21-.35,4.56-.73,3-4.5-.43-1,1-3-1.68-3.39-.72-.1,1.38-1.38,1.49-2.84-1.64.22-3.14-.51-5-.94,3.11-2.35,4.8-5,2.15-8.62-1-1.37,0-1.52,1-1.67.61-.09,1.28-.25.86-1-.21-.38-1-.43-1.5-.63-3.23,2-5.92,4.65-8.73,7.14a123.72,123.72,0,0,1-16.39,12.34,13.69,13.69,0,0,0-1.94,1.92,54.64,54.64,0,0,0,11.25-4.06c1.28-.68,2.59-1.18,3.53.55l.25.35c.89.86.12,1.57-.21,2.32C355.13,482,355.11,482.11,355.09,482.26Z"/><path class="cls-36" d="M206.17,704.76c1.49-2,3-3.79,5.9-2.47.62.29,1.4.39,1.61-.6.11-.5-.24-1.07-.66-1-3.7.29-1-2.74-2-3.79,1.45-1.29,2.72.1,4,.35.6.11,1.1.75,1.92,1.36,0-2.2.43-4,2.09-5.49a3.47,3.47,0,0,0,.69-3.55c-.54-1.72.38-2.57,1.56-3.39-4-.1-8,.63-11.83.53-5.8-.14-11.57.37-17.35.18-3.21-.11-6.64,1.48-9.38.86-4-.91-7.08.76-10.56,1.32a11.75,11.75,0,0,1-2.69-.18A133.66,133.66,0,0,0,206.17,704.76Z"/><path class="cls-23" d="M433.3,232.61a2.74,2.74,0,0,1-2.48-4.09c2.94-4.31.19-9.13,1.74-13.33,1.66-4.52,1-9.4,2.68-13.84.93-2.42-.65-5.16-2.81-4.94-6.23,5.47-12.56,10.83-17.69,17.41,2.32-.71,4.59-1.93,6.93.17.92.83,1.92.17,2.58-.81q1.14-1.69,2.34-3.36a1.51,1.51,0,0,1,2.14-.3c.85.52.16,1.15-.18,1.71-3.76,6.3-7.45,12.63-11.32,18.86a8.23,8.23,0,0,0-1,2.81c-.45,2.14.38,5.24-3.62,4.88-.42,0-2.16.87.07,1.79.95.39,1.37,2.6,1.61,4.06.2,1.23-.79,1.35-2,1.55s-1.34,3-4.23,1.78c3.73,3.34,4.13,3.36,8.13-.5a123.08,123.08,0,0,1,16.34-12.79A4.13,4.13,0,0,0,433.3,232.61Z"/><path class="cls-37" d="M319,239.28c-2.43,3.9.43,7.85,0,11.84-.16,1.65-.74,4.14,1.05,5.81a1,1,0,0,1-.15.91c-3.47,2.8-3.11,7.27-4.87,10.76-1,1.92-1.33,3-.08,4.77.82,1.14,1.76,3-1.29,2.37-.71-.15-1.37.37-1.32.77.43,3.85-2.12,1.49-3.42,1.69a116.37,116.37,0,0,0,13.81,13.56c-.25-2,1.37-3.25,1.93-4.93.27-.81,2.35-.34,1.37-2.54-.83-1.86-2-1.21-3.38-1.17.82-2.71,2.7-3.24,4.73-3.68.74-.16,1.67-.41,1.73-1.4a1.52,1.52,0,0,0-.63-1.11c-.93-.59-1.18.17-1.79.78-1.77,1.73-2.77-.06-3.77-1.21-.39-.44,0-.88.41-1.11s.7-.68,1.13-.08c1.46,2,2.58.15,3.24-.61,1.07-1.22-.17-1.47-1.2-2-1.91-.91.19-2.93-1.24-4.26,2.26-.13,2.42,1.63,3.34,2.95.38-1.21,2.07-2.45.85-2.88-1.59-.55.1-5.47-3.85-2.27.94-1.29.86-3.61,3-1.69.51.46,1.25.92,1.74.12s.65-1.78-.16-2.18c-1.55-.75-1.24-3-3.34-3.32,1.75-.85,3.19-1.5,2.84-3.54a1.35,1.35,0,0,1,.53-1.19c4.91-2.15,1.72-2.68-.15-5.19-2.66-3.56-6.11-5.87-9.14-8.79A10.58,10.58,0,0,0,319,239.28Z"/><path class="cls-8" d="M306,566.77l.62-.27c2.84-.33,5-2.57,7.81-2.92l18.12-6.81a56.28,56.28,0,0,0,13.5-4.51c1.22-.56,2.59-1,3.07-2.49a71.41,71.41,0,0,0-.63-7.61c-.25-1.42.1-2.1,1.27-2.61-4.71.53-9,2.53-13.29,4.25-10.33,4.14-20.39,8.92-30.32,14-.38.19-.64.63-.95,1,.71.48,1.51,0,2.27.15C307.23,561.61,303.67,563.64,306,566.77Z"/><path class="cls-38" d="M423.36,49c5.86-12.92,13.21-25,20.4-37.19.55-.95,2-1.92,1-3.42-9,5.6-18.19,10.84-26.39,17.62a20.31,20.31,0,0,1-3.26,1.84c1.13,2.34,1.59,5.25,5,5.6a1.08,1.08,0,0,1,.8,1.33c-.09.54-.47.9-.95.63-2.36-1.3-2.44,1.18-2.32,1.89.43,2.58-.32,5.17.17,7.65.31,1.57.46,4.2,3.58,3C421.82,47.78,422.69,48.65,423.36,49Z"/><path class="cls-39" d="M486.83,218.34c.8.86,1.91.62,2.89.82s2.13.3,1.81,2c-.22,1.19.71,1.87,2,2.3,2.87,1,6,1.83,8,4.15a2.4,2.4,0,0,0,2.83.84c1.88-6.62,3.89-13.21,6.42-19.62-2.23-.42-2.79-2.49-3.66-4.06-1.21-2.2,1.33-2,2.8-3-3.42-.63-6-.6-7.57,2.5-.3.57-.76,1.25-1.61,1-.26-.08-.65-.46-.63-.65.1-.75.25-1.16,1.34-1.45,1.74-.47,1.55-2.15.7-3.93-2,1.92-3.32,4.66-5.09,5.87-2.77,1.91-4.27,4.54-6.34,6.82C489,213.82,487.18,215.66,486.83,218.34Z"/><path class="cls-40" d="M298.3,578c-11.27,5.23-22.58,10.38-33.79,15.72-9.52,4.53-18.94,9.29-28.42,13.91-1.09.53-2.13,1.48-3.53,1L226.19,613c1.21,4.43,1.2,4.39,5.9,2.72,12.39-4.42,24.87-8.6,37.06-13.56a1.69,1.69,0,0,0-.13-.31c-1-1.33-3.67.67-4-1.6-.23-1.67,2.12-1.72,3-3,3.18-4.73,7.88-7.38,13.05-9.51,5-2.06,9.8-4.43,14.63-6.8C296.89,580.39,298.69,580.1,298.3,578Z"/><path class="cls-41" d="M530.51,148.71c-5,5.62-11.24,10-16.64,15.21-10.69,10.33-21.66,20.38-30.85,32.13-.8,1-1.86,2.08-1.88,3.59,3.82-.67,5.39-4,7.45-6.58,3.31-4.14,7.25-7.59,11-11.25.47-.16.58.65.39.22-.05-.13-.16-.15-.31,0-3.53,2.52-5.65,6.23-8,9.69a1.1,1.1,0,0,0,.32,1.53c8.68-8.63,17.31-17.31,26.05-25.87,6.45-6.31,13.52-12,19.35-19A9.43,9.43,0,0,0,530.51,148.71Z"/><path class="cls-42" d="M414.72,320.57c1.32-2.33-.83-5.14.66-7.21,3-4.18,3.22-9.61,6.47-13.62-6.69,3.9-13.16,8.27-20.15,11.53-4,1.84-6,6.29-10.68,6.93-1.6.22-2,2.33-2.38,3.88A75.28,75.28,0,0,0,414.72,320.57Z"/><path class="cls-43" d="M301.06,348.16c-1.32.12-2.8-.77-3.7,1.31-.63,1.44-1.92.31-2.89-.25-.66-.39-1.38-.93-2.19-.28s-.1,1.33.12,2a10.9,10.9,0,0,1,.13,2.63,2,2,0,0,0,.6.31c1.11.06,2.61-1.62,3.25.08s-.77,3-2.47,3.41c-.84.23-1.79.53-1.81,1.3-.09,3-2.19,3.14-4.36,3.25,3.36,4.51,8.06,7.54,12.19,11.2a15.88,15.88,0,0,1,1.79,1.56c2.84,3.55,2.82,3.56,5.9.24-.52-1.16-1.67,0-2.33-.62-.81-.69-2.73.13-2.65-1.45.05-1.14.17-2.95,2.22-2.85,1.42.07,1-1.21,1-1.73-.1-1.54-.82-.1-1.27-.13-.65,0-1.31-.4-1.15-1,.4-1.41-.25-4,.84-4.07,2.3-.17,2.35-2.39,3.86-3C306.3,355.82,303.54,352.08,301.06,348.16Z"/><path class="cls-23" d="M306,566.77c-.47-2.6.85-4.62,2.13-6.66.46-.72,1.62-1.43.83-2.33s-1.64.26-2.47.47a12.4,12.4,0,0,0-1.29.46c-14.55,7.65-28.94,15.54-42,25.67a9.42,9.42,0,0,0-1.13,1.23c5.23-1.31,10-3.76,14.8-6.13C286.43,574.78,296.63,571.71,306,566.77Z"/><path class="cls-44" d="M255,406.12c-2,3.22-5,6-4.34,10.35a120.15,120.15,0,0,0,24.14,9.28c-.56-1.3-1.37-2.27-.13-4,1.38-1.93-.92-3.41-2.18-4.28C266.74,413.54,260.83,409.88,255,406.12Z"/><path class="cls-11" d="M130.13,568.49c-.1,1-1,1.16-1.57,1.69-1.73,1.63-2.87,3.38-.37,5.59-2.75.8-5.4-1.71-7.74.42,9.87,3.91,19.74,7.85,29.82,11.2,2.36-4.14-2-5.3-3.72-6.48-5.18-3.52-9.56-8-14.63-11.56A10.94,10.94,0,0,0,130.13,568.49Z"/><path class="cls-17" d="M252.76,73.71c.15.31.22.72.46.91,8.09,6.41,9.19,16.53,13.27,25,1.72,3.6,2.69,7.55,4.35,11.19,5.43,11.93,11,23.79,16.55,35.68.58-1.53-.56-2.62-1.05-3.85-5.18-12.84-10.84-25.52-15.39-38.58-2.33-6.69-5.53-13.07-7.14-20C260.79,79.93,258.86,74.6,252.76,73.71Z"/><path class="cls-45" d="M316.35,527c3.08-1.28,3.82-4.15,4.15-6.92.26-2.16.89-4.2,1.24-6.31-5.21.71-9.19,4.4-14.11,5.84a1.34,1.34,0,0,0-.81.61c-1.2,2.62-3.18,2.74-5.45,1.56-1,3.08,2.53,3.92,2.65,6.3A49.11,49.11,0,0,0,316.35,527Z"/><path class="cls-28" d="M516.74,633.39c.24.24.57.44.69.73,1.79,4.43,2.87,4.67,6.74,1.43.61-.51,1-.1,1.35.39a111.37,111.37,0,0,0,12-16.86c-.3-.16-.79-.53-.86-.46-1.76,1.77-4.07,1.75-6.43,1.55.43,1.94,2.1.27,2.56,1.5-4.51,1.92-7.94,5.17-11.47,9.29-.76.28-.3-3.26-2.25-1.52C517.86,630.52,515.69,631,516.74,633.39Z"/><path class="cls-2" d="M296.77,461.91c.72,1.72,3.43,2.11,2.93,4.82-.16.83,1.59,1.24,2.48.36,1.24-1.22,1.24-2.93,1-4.46s-1.49-1.74-2.93-1.49a17.49,17.49,0,0,1-3.07,0C297,461.39,296.9,461.65,296.77,461.91Z"/><path class="cls-2" d="M291.68,473.67c1.2,1.42,2,1,2.1-.64s.32-3,2.52-3.26a2.5,2.5,0,0,0,1.89-2.89,2.13,2.13,0,0,0-2.79-1.79A40.07,40.07,0,0,0,291.68,473.67Z"/><path class="cls-2" d="M332.82,419.59a3,3,0,0,0,.28.6c.68.89.46,2.63,2.22,2.49a.8.8,0,0,0,.58-1c-.31-1.45-1-2.46-2.69-2.45A.52.52,0,0,0,332.82,419.59Z"/><path class="cls-12" d="M377.6,497.81c-1.14-3-2.69.61-4-.3a3.81,3.81,0,0,0,2.55,1.76C376.64,498.81,377.55,498.75,377.6,497.81Z"/><path class="cls-8" d="M335.59,558.34l-27.9,15.32c-1.73,1.59-4,2.16-6.05,3.11-1.58.73-2.47,1.57-1.89,3.39a6.54,6.54,0,0,1-.9,5.57c-1,1.7-1.47,3.42.59,4.78,3.45-.31,6.43-2.11,9.61-3.2,5.78-2,11.73-3.53,17.31-6.14-3,3-7.11,4.41-10.44,6.92-1.86,1.89-4.76,2-6.64,3.82l-1.22.57c0,1.49-1.58,3.38,1.33,4,1.12.24.58,1.58.66,2.44s-.05,1.75,1.08,1.78a1.27,1.27,0,0,0,1.29-1.36c0-2.08.36-3.65,3-3.44,1.67.13,2.84-1.93,5.07-.53s4.49-1.22,5.67-2.49c2.86-3.08,5.66-4.58,9.69-3,.52.21.93.29,1-.26.81-4.45,6-1.89,7.78-4.87.32-.52,1.32-.07,1.87.37a2.66,2.66,0,0,0,3.21.13,25.13,25.13,0,0,0,10.79-11.55c1-2-.51-4.35-1.95-6.3-3.72-5-7.28-10.21-8.82-16.43A29.71,29.71,0,0,0,335.59,558.34Z"/><path class="cls-14" d="M99.55,425.84c-3.94,1.52-4.36-2.12-5.29-4.1-1.33-2.8-3.31-5.32-3.78-8.54-1.32,1.88.28,3.22.65,4.72a39.62,39.62,0,0,0,11.74,19.88c3.68,3.46,6.44,8,9.63,12,4.32,5.42,8.85,10.94,10.92,17.73,2,6.42,5.49,12.18,7,18.84.53,2.36.47,5.95,3.46,7.62.19.1.25.6.22.9-.49,5.22,1.88,9.54,3.93,14.11,2.91,6.51,7.49,11.34,12.88,15.74,2.79,2.28,6.31,3.3,9,5.64,3,2.61,6.81,3.49,10,5.67.51.35,1,.73,1.5.22.75-.77,0-1.22-.54-1.6-3.13-2.33-6.28-4.62-9.42-6.93-.93-.68-1.86-1.34-2.77-2-.66-.51-1.26-1.16-1.06-2,.31-1.27,1.45-.8,2.3-.91-1.63-2.3-4.17-3.52-6.29-5.24-9.17-7.42-12.93-17.81-15.85-28.63-2.31-8.53-4.67-17.06-8.47-25-5.71-11.93-14-22-23.74-30.86a32.73,32.73,0,0,1-5.11-6.8A1.33,1.33,0,0,0,99.55,425.84Z"/><path class="cls-14" d="M173.44,543.87c.59.74,1.18,1.48,1.78,2.21a2.67,2.67,0,0,0,.93,2.47c4.74,5.1,8.09,11.09,11,17.34.57,1.24,2.11,1.87,2,3.45,2.72,11.43,3.77,23.09,4.56,35.34,7.71-14.63,6.3-29,1.54-43.53-2.87-7.39-5.9-14.71-11-20.92-.9-1.1-1.65-2.62-3.55-2.06-.1,2-.22,4,1.48,5.65a2.38,2.38,0,0,1-.19,3.43c-1.18,1.13-1.68-.49-2.49-.91C177.58,545.32,176,543.38,173.44,543.87Z"/><path class="cls-46" d="M299.44,590.51c-.87-1.63-1-3.13.42-4.63a4.78,4.78,0,0,0,.92-5.67c-.92-1.88,0-2.55,1.49-3.34,1.86-1,4.19-1.18,5.42-3.21L298.3,578c-.51,1.4-1.9,1.58-3,2.1-5.92,2.8-11.74,5.88-17.84,8.2-4.61,1.76-7.45,5.21-10.51,8.61-.35.38-.42,1.38-1,1.24-4.11-1.06-2.38,2.48-2.12,3.35.66,2.26,2.51,1,4,.6a4.56,4.56,0,0,1,1.32.07Z"/><path class="cls-47" d="M433,404.09c-3.27,3.17-6.66,6.22-9.76,9.55a53.34,53.34,0,0,1-24.57,15.46,87,87,0,0,0-25.21,12.23,383.61,383.61,0,0,0-37.67,30.34c-3.64,3.27-7.4,6.4-10.71,10a142.75,142.75,0,0,0,25.2-18.19c7.41-6.6,14.14-14.05,22.71-19.2a185.92,185.92,0,0,1,34.31-16.08A37,37,0,0,0,424,416.11C427.14,412.22,430.82,408.7,433,404.09Z"/><path class="cls-48" d="M189.17,569.34c-.14-3.68-2.27-6.62-3.93-9.63a55,55,0,0,0-10-13.63c-1.56-.27-2.13.75-2.82,1.9-2.19,3.62-4,3.62-6.1.21a17.58,17.58,0,0,0-4-4.69l2.58,8.14c.74-1,1.3-1.42,2.31-.08a100,100,0,0,1,8.8,14.66c.67,1.29,1,2.54,2.5,2.84,2.23.43,2.07,3.91,4,3.67,1.11-.14,1.67-2.92,2.93-4C186.4,568,188,568.37,189.17,569.34Z"/><path class="cls-23" d="M307.26,621.73c-5.77.3-11.54.47-17.29.93-8.2.65-16.37,1.56-24.56,2.28-10.91.95-21.17,4.67-31.64,7.47-3,.79-6.12,1-8.85,2.62,0,.23-.06.45-.07.68-.09,1.24-2.63,1.71-1.43,3,.93,1,2.66-.14,3.81-.53,10.18-3.47,20.36-6.7,31.15-8s21.25-2.93,31.78-4.93C295.87,624.23,301.75,623.83,307.26,621.73Z"/><path class="cls-40" d="M161.2,561.73a4.55,4.55,0,0,1-2.3,3.75,7.28,7.28,0,0,0-3.15,4.95c-.34,2.1-1.49,1.8-2.86,1.26,1.67,3,4.7,4.6,7.12,6.81,3.35,3,7.35,5.34,10.43,8.71,1.66,1.81,2.87.66,4.36-.46,2-1.5.27-2.19-.34-3.26q-5-8.81-9.81-17.65A10.89,10.89,0,0,0,161.2,561.73Z"/><path class="cls-33" d="M180.73,538.17c3.32,2.26,5.08,5.8,7.18,9a105.67,105.67,0,0,1,7.36,14c0-.22.2-.48.13-.66-3.61-9.62-6.79-19.52-15.1-26.41-3.76-3.12-7.71-6-12.57-7.34a75.24,75.24,0,0,1,10.83,8.91C179.39,536.42,180.37,537,180.73,538.17Z"/><path class="cls-3" d="M88.72,384.41c-.62,4.2,1.28,8,2,12,1.3,7.12,2.3,14.42,5.68,21-1.38-9.51-4-18.74-6.21-28.07C89.81,387.68,89.22,386.06,88.72,384.41Z"/><path class="cls-35" d="M344.48,485.67c2.06-1.54,4.4-.51,6.6-.72,1-.09,1.67-.12,1.82-1.42.11-1-2-1-.77-2.09s1.92.71,3,.82c.28-1,1.11-2,.12-3.07l-.09,0A46.28,46.28,0,0,0,344.48,485.67Z"/><path class="cls-11" d="M123.81,561.59c-1-1.68-2.74-1.59-4.53-1.67l4.49,3.22A1.49,1.49,0,0,1,123.81,561.59Z"/><path class="cls-3" d="M99.55,425.84l.83.35-4-8.79C96.22,420.68,98.65,423,99.55,425.84Z"/><path class="cls-48" d="M165.18,552.26l-2.82.58a7.23,7.23,0,0,0,3.91,2.8C165.83,554.29,165.51,553.28,165.18,552.26Z"/><path class="cls-32" d="M124,675.51c-.78.48-.66,1.13-.41,1.79.16.4.38.93.91.71a1.25,1.25,0,0,0,.78-1.65A1.21,1.21,0,0,0,124,675.51Z"/><path class="cls-5" d="M309.28,591.91c2.18-1.33,5-1.49,6.64-3.82C313.71,589.38,311,589.69,309.28,591.91Z"/><path class="cls-4" d="M238.09,652.57c1.29.69,2.12.16,3-.77C239.69,650.83,238.77,651.07,238.09,652.57Z"/><path class="cls-19" d="M492,193.21c.72-3,3.35-4.78,4.92-7.25,1-1.6,2.32-3,3.28-4.74-2.9,1.29-5,3.53-7.21,5.61-4.27,4-7,9.35-11.81,12.81h0c-.84,1.43-1.76,2.82-2.55,4.28l-8,13.08c-5.32,8.68-12.62,15-21.6,19.91a88.74,88.74,0,0,0-15.86,11.3c-1.12,1-2.28,1.89-3.42,2.84a8.9,8.9,0,0,0-4.32,4.24,36.84,36.84,0,0,1-11.72,12.29,34.91,34.91,0,0,0-6,5.06c-10.93,6.51-21.76,13.16-31.1,22,.13.53.57.46,1,.28a193,193,0,0,0,45.82-26.35,27.3,27.3,0,0,0,7.07-8.34c2.81-4.95,7.12-8.54,11.63-12,9.14-7.05,20-11.77,27.62-20.91,3.43-4.13,5.77-8.78,8.18-13.45a18.32,18.32,0,0,1,1.35-2,20.8,20.8,0,0,1,3.38-6v0c2.62-4.61,5.13-9.29,9.32-12.75Z"/><path class="cls-42" d="M399,124.38c1.31-3,2.77-6,3.9-9.08,4.87-13.23,8.14-26.94,11.84-40.52a35,35,0,0,0,.62-3.71c-1.17-1.87-3.95-1.06-5.08-3,0-.06-.22-.06-.32,0-.91.25-1.61,1.2-1.27,1.74,1.3,2.06-2.94,3.43-.57,5.32.68.54,2,.47.93,1.73-.73.86-1.67.58-2.4-.16s-1.16-1.4-1.8-2a1.85,1.85,0,0,0-2.19-.57c-.82.38-.75,1.14-.9,2-.35,2.06-.95,4.44-3.64,4.35-2.05-.06-2.58,3.42-5,1.83-.84,7.5-1.6,15-2.54,22.47q-1.51,12-3.36,24c-.19,1.25-.1,2.49-.32,3.71s-.33,2.46,1.23,2.68c1.72.25,2.1-1.19,2.22-2.45A104.24,104.24,0,0,1,393,117.83a100,100,0,0,1,8.42-22.67c-.56,5.47-1.27,10.93-1.65,16.41C399.49,115.84,398.12,120.05,399,124.38Z"/><path class="cls-49" d="M439.71,113.79c1.08-3,3.14-5.77,3-9.26-.87,1.14-2.62,1.24-2.47,3.59.09,1.49-.55,5-4.18,3.07-1.84-1-2.39,1.36-4.06,1.79a2.36,2.36,0,0,0-2.39-2.54c-1.07-.13-2.31-.44-2.36-1.58s1.32-1.33,2.11-1.83c1.26.51.18,3,1.7,2.54,2.65-.78-.73-3,.57-4.28,3.13,3,3.13,3,6.14,1.34-1.74-2.19-5.48-1.36-6.59-4.43,1.25-1,2.79,1.3,4.12-.45l-7.21-3.94c3.26-3,5.63-2.68,7.59.81,1.87-3.42,1.8-4-1.95-4.23-2.94-.15-3.69-.76-2.67-3.52.29-.78-.1-1.81-.18-2.72-1.12.63-1.36,1.81-1.75,2.87-4.34,11.62-8.93,23.16-12.89,34.91-1.71,5.09-4.18,9.78-6.16,14.7-.73,1.81-2.57,4.32.85,5.87,1.53.69-1.32,1.77,0,2.95.23.21-.88-.06-1.36-.3-1.22-.6-1.75.15-1.92,1.14s.36,1.34,1.4,1.43a4.71,4.71,0,0,0,4.91-2.28C421,137.12,430,126.07,437.43,114,438.1,112.89,438.82,112.38,439.71,113.79Z"/><path class="cls-50" d="M269.31,379.68a2,2,0,0,1-.56,2.47,9.37,9.37,0,0,0-1.18,1.1c1.21,1.51.19,2.41-.4,3.9-1.76,4.41-2.68,5-6.95,2.67-.29-.16-.61-.26-1.29-.55.56,1.51,1.73,2,2.53,2.77,1.46,1.45,2.77,2.8.64,4.85-1.42,1.36-.46,2.95.71,5.49-3-3.48-4.56-.64-6.49,0,6.05,2.61,12.26,4.89,18.06,8,2.85,1.51,6.34,2.08,8.52,4.84.42.54,1.09,1,1.65.09.3-.47.62-1.42,0-1.48-3.21-.34-3.13-3.34-4.38-5.22-2.6-3.9-7-5.69-10.18-8.94-1.89-1.93-3.93-3.66-5.58-6.45,4.23.39,7.13,2.92,10.56,4,1.77.56,3.82.94,5.12,2.6,1.88,2.4,1.17-2.13,2.61-1,.91.74,1.5,2.25,3,1.61s1.71-3.55.35-4.72c-.4-.34-1.13-.33-1.28-1-1.44-6.51-1.4-6.57-7.48-10.56C274.8,382.5,272,381.17,269.31,379.68Z"/><path class="cls-23" d="M407.69,272.63c6.8-4.16,13.44-8.48,17.65-15.6,1.26-2.12,2.91-4,4.38-6-1-1.72-1.39-3.43.51-4.75.89-.63.9-1.07.3-1.85-.4-.53-.29-1.29.41-1.29,4.43,0,2.18-2.3,1.51-4.09-4.11,4.43-8.38,8.73-12.29,13.33-3,3.58-7.3,5.86-10,9.85-.6.89-1.44,1.4-.82,2.57a.75.75,0,0,1,.11.31C406.22,267,410.1,270.57,407.69,272.63Z"/><path class="cls-51" d="M437.79,34c-7.55,13.24-13.85,27-16.81,42-.39,2-1.91,3.71-1.39,5.92,2.31-5.6,4.7-11.16,6.92-16.79,3.57-9.05,7-18.14,10.51-27.23C437.5,36.71,438.29,35.48,437.79,34Z"/><path class="cls-49" d="M405,150.09c-.31.51-.64,1-.89,1.46-1,2-1.81,4.1-3,6-.58,1-.58,1.35.38,1.8s1.57.25,1.81-.77c.6-2.51,2.5-4.51,2.8-7.15.05-.44.37-.84-.12-1.14A3.07,3.07,0,0,0,405,150.09Z"/><path class="cls-41" d="M492,193.18c-5.37,2.59-7.09,7.86-9.32,12.75Z"/><path class="cls-42" d="M388,137.24c-.57,1-2.2,1.63-1.76,3.26a.9.9,0,0,0,1.45.24c.71-1.08,2.06-2,1.6-3.53C389.17,136.69,388.56,136.91,388,137.24Z"/><path class="cls-41" d="M482.64,205.9c-1.88,1.57-3.58,3.24-3.38,6A17.31,17.31,0,0,0,482.64,205.9Z"/><path class="cls-3" d="M284.32,157.83c-.15-3.42-2.39-6-3.56-9C281.08,152.15,283.08,154.84,284.32,157.83Z"/><path class="cls-3" d="M275.35,135.35c.06-3.25-2.2-5.6-3.23-8.42C272.32,130.07,274.29,132.53,275.35,135.35Z"/><path class="cls-23" d="M415.66,218.76a1.75,1.75,0,0,0,2,.8c.59-.17.63-.83.45-1.4s-.8-1.21-1.49-1A1.33,1.33,0,0,0,415.66,218.76Z"/><path class="cls-30" d="M386.27,185.38a4.62,4.62,0,0,0,1.42-3.49C386.71,182.73,385.44,183.44,386.27,185.38Z"/><path class="cls-28" d="M538.82,617l-2.5-2.92-2.93,3,5.4,0Z"/><path class="cls-15" d="M508.33,636.52c.73,1.23,2.35,2,1.6,4.22,1.88-1.81,1.88-1.81-.36-4.79Z"/><path class="cls-20" d="M335.59,558.34l14.14-7.3a5.53,5.53,0,0,1,2.83-2.09c-1.36-.62-2.29.52-3.42.82-5.27,2.92-11.32,4-16.57,7C333.66,557.13,335.26,556.52,335.59,558.34Z"/><path class="cls-8" d="M167.76,467.79c.22.83.19,2.1,1.33,1.39,1.9-1.18.63-3.34,1.06-5,.25-1-1.29-1-1.8-.67C166.38,464.65,167.14,466.32,167.76,467.79Z"/><path class="cls-3" d="M423.65,372.15a1.58,1.58,0,0,0-.6,2.18c.32.73.79,1.66,1.72,1.07a1.81,1.81,0,0,0,.51-2.45A1.46,1.46,0,0,0,423.65,372.15Z"/><path class="cls-14" d="M88.25,406.75c-.1-1.72.41-3.62-1.54-5.24C85.85,404,87,405.39,88.25,406.75Z"/><path class="cls-4" d="M432.66,658.33c.19.5.5.78,1,.57.79-.31.79-1,.7-1.69a.8.8,0,0,0-1.23-.66C432.39,656.91,432.7,657.71,432.66,658.33Z"/><path class="cls-41" d="M478.61,203.91a5.13,5.13,0,0,0,2.55-4.28c-1.86.51-1.89,2.45-2.85,3.65Z"/><path class="cls-52" d="M225.2,630.15c4.22.67,8.19-.54,12-1.79,14.59-4.81,29.61-6.79,44.84-7.89s30.65-2.06,45.86-4.35,30.18-3.62,45.5-2.09c11.45,1.14,22.9-.27,34.29-1.73,7.76-1,15.59-.53,23.36-1.18,15.06-1.28,30.26-1.89,44.85-6.18,8-2.34,14.63-7.46,21.41-12.19,9.18-6.39,18.48-12.61,27.75-18.86,7.89-5.32,16.56-9.27,24.78-14,6.74-3.88,13.86-6.41,21.1-8.9a28.32,28.32,0,0,0,4.59-2.26c-14.13,3.49-27.18,9.43-40,16.22-9.85,5.21-18.75,11.81-28.33,17.38a177.72,177.72,0,0,0-17.47,11.44c-7.87,5.92-17,8.82-26.68,10-16.2,1.93-32.47,2.55-48.75,2.91a93,93,0,0,0-10.3.59,164,164,0,0,1-40.15.7c-11.81-1.33-23.35.69-34.92,2.34-13.37,1.91-26.75,3.73-40.17,5.24-13.75,1.56-27.62,2.65-40.95,6.68C240.16,624.52,232.73,627.48,225.2,630.15Z"/><path class="cls-20" d="M388.82,567.91c-1.1.7-2,1.54-1.82,3,.08.6.63.56,1.06.35,1.61-.8.42-2.25.74-3.35Z"/><path class="cls-26" d="M108.18,376.25c-1.42-.74-1.69-2.52-3-1.76-.63.37-1.89,1.7-1.12,2.5C105.28,378.22,106.52,376.63,108.18,376.25Z"/><path class="cls-2" d="M303,457.65a2.12,2.12,0,0,0-2.07-.91,1,1,0,0,0-.87,1.51c.37.92,1.22.92,2,.61C302.57,458.66,303.13,458.41,303,457.65Z"/><path class="cls-2" d="M328.85,439c-.32-.64-.69-1.27-1.55-.81a.9.9,0,0,0-.35.8,1.58,1.58,0,0,0,1.55,1.12C329,440.11,329,439.51,328.85,439Z"/><path class="cls-4" d="M329.93,682.13a3.29,3.29,0,0,0-1-.11c-2.12.46-4.17.77-5.46-1.66.09,1.1.21,2.2.26,3.3,0,.62.56,1.49.76,1.26,2-2.33,3.77,2,5.45.19.49-.53,0-2,0-3Z"/><path class="cls-18" d="M115.86,374.09a43,43,0,0,0,3-3.65c1.42-2.15-1.31-1.67-1.74-3.39-1,2.51-.67,4.84-2.61,6.2-.42.3,0,1,.76,1.11.22.13.39.13.5,0S115.89,374.15,115.86,374.09Z"/><path class="cls-25" d="M115.86,374.09l-.62.28c0,2.39,1.86,1.64,3,1.46s2.77-.6,3.07-2.26a1.38,1.38,0,0,0-.45-1.17,1.21,1.21,0,0,0-1.78.44C118.4,374.5,117.36,374.79,115.86,374.09Z"/><path class="cls-25" d="M118.35,389.88a2.09,2.09,0,0,0-1.24,2.6,1.65,1.65,0,0,0,2.24.93c1-.49.91-1.8.83-2.72C120.09,389.55,118.92,390.18,118.35,389.88Z"/><path class="cls-25" d="M123.1,389.66l4.17.37c-1.71-1-1-2.91-2.55-3.23C122.52,386.36,124.83,389.44,123.1,389.66Z"/><path class="cls-25" d="M113.93,381.81c-.74.94-.69,1.37-.36,1.73.5.54,1.12.91,1.72.26.16-.18,0-.88-.26-1.18A5,5,0,0,0,113.93,381.81Z"/><path class="cls-15" d="M463.45,640.68c-2,.05-3.39-.46-4.12.83-.46.82.12,1.73,1.08,2.37Z"/><path class="cls-15" d="M421,677.23a1.42,1.42,0,0,0-.86,1.65.82.82,0,0,0,1.28.6,1.69,1.69,0,0,0,.63-1.81C421.91,677.16,421.45,677.05,421,677.23Z"/><path class="cls-2" d="M232.53,498.87c-.43-.75-.65-1.87-1.92-1.26-.54.25-1,.85-.54,1.35.78.91,1.65.2,2.47-.11Z"/><path class="cls-5" d="M442.14,62.92a3.37,3.37,0,0,0,3,.63c.14,0,.24-.77.14-.84C444.33,62.1,443.34,61.52,442.14,62.92Z"/><path class="cls-23" d="M314.45,563.58c-3-.07-5.2,2-7.81,2.92C309.65,566.62,311.85,564.56,314.45,563.58Z"/><path class="cls-27" d="M355.21,479.19c0,1-.7,2-.12,3.07,1.05-.49,2.13-1,1.75-2.47C356.62,478.91,355.92,479,355.21,479.19Z"/><path class="cls-21" d="M395.46,83.88c-.74.24-.93.64-.81,1.11.2.81.87,1,1.58.88s1.17-.56.76-1.13S395.88,84.1,395.46,83.88Z"/></g></g></g></svg>