<svg xmlns="http://www.w3.org/2000/svg" viewBox="0 0 245.08 243.02"><defs><style>.cls-1{fill:#fff;}.cls-2{fill:#afdbce;}.cls-3{fill:#70a19b;}.cls-4{fill:#89b1ac;}.cls-5{fill:#8cb4af;}.cls-6{fill:#76a59f;}.cls-7{fill:#81aca6;}.cls-8{fill:#78a6a0;}.cls-9{fill:#91b7b2;}.cls-10{fill:#79a7a1;}.cls-11{fill:#80aca6;}.cls-12{fill:#77a6a0;}.cls-13{fill:#6fa09a;}.cls-14{fill:#7eaaa5;}.cls-15{fill:#73a39d;}.cls-16{fill:#9fc0bc;}.cls-17{fill:#7aa8a2;}.cls-18{fill:#98bbb7;}.cls-19{fill:#84aea9;}.cls-20{fill:#71a29b;}.cls-21{fill:#74a49e;}.cls-22{fill:#7daaa4;}.cls-23{fill:#92b8b3;}.cls-24{fill:#8cb3ae;}.cls-25{fill:#8bb3ae;}.cls-26{fill:#679b95;}.cls-27{fill:#9dbfba;}.cls-28{fill:#8fb6b1;}.cls-29{fill:#83ada8;}.cls-30{fill:#a6d1c7;}.cls-31{fill:#87b0ab;}.cls-32{fill:#75a49e;}.cls-33{fill:#add6cc;}.cls-34{fill:#679b94;}.cls-35{fill:#aad5ca;}.cls-36{fill:#96bab5;}.cls-37{fill:#639992;}.cls-38{fill:#85afaa;}.cls-39{fill:#adc9c6;}.cls-40{fill:#76a59e;}.cls-41{fill:#649992;}.cls-42{fill:#699c96;}.cls-43{fill:#add7cc;}.cls-44{fill:#7faba5;}.cls-45{fill:#80aba6;}.cls-46{fill:#83aea8;}.cls-47{fill:#a3c2be;}.cls-48{fill:#a7d2c8;}.cls-49{fill:#72a29c;}.cls-50{fill:#659a93;}.cls-51{fill:#95b9b4;}.cls-52{fill:#92b7b2;}.cls-53{fill:#669a94;}.cls-54{fill:#7da9a4;}.cls-55{fill:#619790;}.cls-56{fill:#a5d0c6;}.cls-57{fill:#6c9f98;}.cls-58{fill:#679c95;}.cls-59{fill:#aac7c3;}.cls-60{fill:#6ea099;}.cls-61{fill:#a3c3bf;}.cls-62{fill:#6a9d96;}.cls-63{fill:#85afa9;}.cls-64{fill:#a2d0c4;}.cls-65{fill:#629891;}.cls-66{fill:#82ada7;}.cls-67{fill:#86afaa;}.cls-68{fill:#76a69f;}.cls-69{fill:#6b9e97;}.cls-70{fill:#99bcb8;}.cls-71{fill:#689c95;}.cls-72{fill:#7ca9a3;}.cls-73{fill:#8ab2ad;}.cls-74{fill:#6d9f99;}.cls-75{fill:#669b94;}.cls-76{fill:#6fa19a;}.cls-77{fill:#639891;}.cls-78{fill:#5f968f;}.cls-79{fill:#6e9f99;}.cls-80{fill:#75a59e;}.cls-81{fill:#699d96;}.cls-82{fill:#96bab6;}.cls-83{fill:#84aea8;}.cls-84{fill:#a6c4c0;}.cls-85{fill:#70a19a;}.cls-86{fill:#acc8c5;}.cls-87{fill:#569089;}.cls-88{fill:#8db4af;}.cls-89{fill:#619891;}.cls-90{fill:#7da9a3;}.cls-91{fill:#9fc0bb;}.cls-92{fill:#6a9d97;}.cls-93{fill:#8fb5b0;}.cls-94{fill:#559088;}.cls-95{fill:#93b8b3;}.cls-96{fill:#e8f2f0;}.cls-97{fill:#7ba8a2;}.cls-98{fill:#81aca7;}.cls-99{fill:#7fada6;}.cls-100{fill:#74a39d;}.cls-101{fill:#87b1ab;}.cls-102{fill:#649a93;}.cls-103{fill:#abc8c4;}.cls-104{fill:#92c7b9;}.cls-105{fill:#74a49d;}.cls-106{fill:#b5cecb;}.cls-107{fill:#6ea19a;}.cls-108{fill:#5f978f;}.cls-109{fill:#75a59f;}.cls-110{fill:#5c948c;}.cls-111{fill:#77a5a0;}.cls-112{fill:#86b2ab;}.cls-113{fill:#a3c9c1;}.cls-114{fill:#59928a;}.cls-115{fill:#59928b;}.cls-116{fill:#82afa8;}.cls-117{fill:#77a59f;}.cls-118{fill:#94b8b4;}.cls-119{fill:#94b9b4;}.cls-120{fill:#9ebfbb;}.cls-121{fill:#7eaaa4;}.cls-122{fill:#a3cdc4;}.cls-123{fill:#7ba8a3;}.cls-124{fill:#518d85;}.cls-125{fill:#c4dcd8;}.cls-126{fill:#538e86;}.cls-127{fill:#87b5ad;}.cls-128{fill:#99bcb7;}.cls-129{fill:#a3c3be;}.cls-130{fill:#9dc1bc;}.cls-131{fill:#9bbeb9;}.cls-132{fill:#a4d2c6;}.cls-133{fill:#639892;}.cls-134{fill:#9bc8be;}.cls-135{fill:#9cc9bf;}.cls-136{fill:#bbd6d1;}.cls-137{fill:#cddedc;}.cls-138{fill:#acd7cc;}.cls-139{fill:#a5c4c0;}.cls-140{fill:#aec9c6;}.cls-141{fill:#acc8c4;}.cls-142{fill:#e5edec;}.cls-143{fill:#ccdedb;}.cls-144{fill:#79a8a1;}.cls-145{fill:#6ea09a;}.cls-146{fill:#609790;}.cls-147{fill:#558f88;}.cls-148{fill:#b2ccc9;}.cls-149{fill:#7ba9a3;}.cls-150{fill:#95b9b5;}.cls-151{fill:#8bb3ad;}.cls-152{fill:#a0ccc2;}.cls-153{fill:#96c1b9;}.cls-154{fill:#92beb6;}</style></defs><g id="Layer_2" data-name="Layer 2"><g id="Layer_1-2" data-name="Layer 1"><path class="cls-1" d="M112.92,95.36v0h0Z"/><path class="cls-1" d="M211.48,55.24l-.08.07.22,0-.14-.1Z"/><path class="cls-1" d="M203.82,50.84c0,.06,0,.14,0,.21a1.16,1.16,0,0,1,0-.18l-.08,0Z"/><path class="cls-1" d="M213.21,50.73l-.14.12.21,0Z"/><path class="cls-1" d="M238.64,8.25h0v0Z"/><path class="cls-1" d="M190.86,67.26a.69.69,0,0,1,0,.13l.07-.09Z"/><path class="cls-1" d="M189.43,74.18h0l.22-.17-.25-.08a2.13,2.13,0,0,0,0,.25Z"/><path class="cls-1" d="M193,69c0-.08.12-.15.18-.23l0,0c0,.09-.1.16-.13.25Z"/><path class="cls-1" d="M155.49,48.37v0a.05.05,0,0,0,0,0Z"/><path class="cls-1" d="M153.51,45.84h0Z"/><path class="cls-1" d="M175.23,105.77l0-.06,0,.06h.06Z"/><path class="cls-1" d="M119.83,145h0Z"/><path class="cls-1" d="M152.73,166.67c0-.18.05-.35.08-.52A.72.72,0,0,0,152.73,166.67Z"/><polygon class="cls-1" points="195.1 111.49 195.1 111.49 195.1 111.49 195.1 111.49"/><path class="cls-1" d="M165.61,108.63v0l-.11,0S165.56,108.62,165.61,108.63Z"/><path class="cls-1" d="M181.35,167.88h0v0Z"/><path class="cls-1" d="M214.26,112.9a2.13,2.13,0,0,1,.17.45A.37.37,0,0,0,214.26,112.9Z"/><path class="cls-1" d="M152.17,154.64v0h0Z"/><path class="cls-1" d="M160.46,149.86h0l0,0s0,0,0,0Z"/><path class="cls-1" d="M171.9,167.89h0Z"/><polygon class="cls-1" points="145.51 151.67 145.51 151.67 145.51 151.67 145.51 151.67"/><path class="cls-1" d="M145.56,151.62l-.13-.05.08.1S145.54,151.64,145.56,151.62Z"/><path class="cls-1" d="M107.48,181.24h0v0Z"/><polygon class="cls-1" points="92.84 177.94 92.85 177.94 92.84 177.94 92.84 177.94"/><path class="cls-1" d="M92.24,184.06l.15-.06h0l-.06,0Z"/><polygon class="cls-1" points="20.52 150.1 20.52 150.1 20.52 150.1 20.52 150.11 20.52 150.1 20.52 150.1"/><path class="cls-1" d="M32.63,134.68a1.06,1.06,0,0,1-.37.18l.72.56C32.85,135.16,32.74,134.92,32.63,134.68Z"/><path class="cls-1" d="M73.29,172.71h0l.06.08a.15.15,0,0,0,0-.07h-.08Z"/><path class="cls-1" d="M61.28,127.4v0h-.05l0,0Z"/><path class="cls-1" d="M52.42,154.69l.06,0a.84.84,0,0,1,.05-.17Z"/><path class="cls-1" d="M64.13,108.85h0a.35.35,0,0,1-.08.05l.06,0s0-.06,0-.09Z"/><path class="cls-1" d="M72.7,232.76v0h0Z"/><path class="cls-1" d="M72.63,232.67l.07.09v-.12Z"/><polygon class="cls-1" points="114.32 107.93 114.32 107.93 114.32 107.93 114.32 107.93"/><path class="cls-1" d="M31,174.8a.75.75,0,0,1-.07-.12.59.59,0,0,0,0,.23Z"/><path class="cls-1" d="M42.91,188.53l-.12.11.21.26Z"/><path class="cls-1" d="M44.08,206.82H44s0,.06,0,.1A.36.36,0,0,1,44.08,206.82Z"/><path class="cls-1" d="M49.19,201.26l-.1,0s.06.08.1.1S49.19,201.29,49.19,201.26Z"/><path class="cls-1" d="M51.61,209l0,0,.13.06Z"/><path class="cls-1" d="M51.94,220.45l.11-.06h-.16Z"/><path class="cls-1" d="M33.17,187l-.13-.08A.35.35,0,0,0,33.17,187Z"/><path class="cls-1" d="M53.45,203.46l-.12,0a1.13,1.13,0,0,1,.1.13C53.46,203.56,53.44,203.52,53.45,203.46Z"/><path class="cls-1" d="M153.68,66.23l.14,0,0-.14Z"/><path class="cls-1" d="M159.2,70.85a.08.08,0,0,0,0,0l0,0A0,0,0,0,0,159.2,70.85Z"/><path class="cls-2" d="M2.75,175.05a104,104,0,0,0,19.46-2.36c2-.47,4.12-1,4.48,2l1.07-.87c-.39-.72-1.09-1.75.32-1.93,1.87-.23,3.8-1.25,5.68-.27h0a278.22,278.22,0,0,0,38-11.55c7.55-3,15-6.15,22.36-9.49,6.39-2.9,12.41-6.65,18.59-10h0c.94-1.42-3-2.16-.37-3.82v-.11c-1.21-.2-2.06.61-3,1.14-6,3.26-11.93,6.72-18,9.91s-12.29,5.48-18.5,8.07c-2.55,1.06-4.63,3.24-7.65,3.23a10.62,10.62,0,0,0-6.29,2c-1.34.93-3,1.71-4.6.48h0a14.91,14.91,0,0,1-1.66,1.62c-1,.71.45,3-1.52,2.59-1.19-.27,0-2.17-.35-3.26l-.87-.89h0A2.12,2.12,0,0,1,48,164c-6.42,1.44-12.82,3-19.21,4.54-1.39.33-3.13-.29-4.15.85-2.21,2.46-5.31.36-7.58,2.06-.16-.38-.31-.76-.46-1.14h0l-.77.46h0a1.14,1.14,0,0,1-1.36.25h0c-.86-.55-.8-1.6-1.23-2.38h0C12,172.52,8.57,171.55,6,171.84a56.74,56.74,0,0,1-6,.28"/><path class="cls-3" d="M131.92,207.39A106.79,106.79,0,0,1,94.53,191.3h0c.5-.44,2.71-.2.91-1.57-1.56-1.2-1.69-2.46-.92-4.13,2.06-.26,2.61,2.08,4.37,2.34h0c1.81,1.23,3.64,2.44,5.44,3.69.55.38.78,1.55,1.72,1s-.06-1.28-.16-1.93a14.35,14.35,0,0,1-.08-1.61h0c-.26-2.3-1.87-3.61-3.53-4.89-.41-.32-.93-.65-.56-1.28s.94-.33,1.46-.26c1.2.16,1.92,1.88,3.47.89.27,1-1.48,1.56-.59,2.82,1.27-1.08,2.53-1.33,3.73,0a1.33,1.33,0,0,0,2.26-.06c1.85-2.53,2.9-.86,4,.51-.95.4-2.65-.41-2.79,1s1.4.66,2.25.69a1.61,1.61,0,0,1,1.65,1.23c.26.9.75,1.3,1.64.6s1.23-1.62.45-2.5a31.26,31.26,0,0,0-2.52-2.35c-1.46-2-4-2.09-6-3-.24-.12-.08,1.78-1.37,1.08-.72-.39-.78-1.18-.82-2s-.59-.6-1.09-.32h0c0-.9.69-1.29,1.26-1.79,4.15,2.4,9.24,3.44,12,7.84.74,1.27,1,2.9,2.78,3.35,1.19.3.94.94.25,1.64-.85.33-2.23.12-2,1.65.18,1.13.71,2,2.15,1.85a20.67,20.67,0,0,1,2.61,0h0c1.63,0,1.4,3.68,4,1.8.47.87-.67,1.83.14,2.91,1.4-1.58,3.25.16,4.77-1,.6,2.18,2.31,4.66-2.15,5.17C132.27,204.8,131.88,206.25,131.92,207.39ZM114.6,193.77a26,26,0,0,0-7.44-4.57C107.62,192,110.71,193.88,114.6,193.77Zm10.46,3.57c-1.64.11-3-.24-3.35,1.42a1.2,1.2,0,0,0,1.22,1.53C124.83,200.33,124.2,198.6,125.06,197.34Z"/><path class="cls-2" d="M112.33,136.72c1.63,1.84,3.47,0,5.2,0h0a1.25,1.25,0,0,0,1.35.47h0c.15-1.32,1.32-1.85,2.22-2.36,5.3-3,9.85-7.07,15-10.3,5.59-3.5,9.76-8.89,15.3-12.58a22.54,22.54,0,0,0,3.47-3.17c1.68-1.71,3.61-3.78,6.38-1.93h0l-.35-.63c-1.33-1.21-.93-1.89.78-2.15,1.38-2.73,2.78-5.36,5.68-7a20,20,0,0,0,3.75-3.34c6.07-5.91,10.68-13.11,17.2-18.61-.9-.39-1.77-1.06-2.84-.28h0a1.23,1.23,0,0,1-1.91-.18h0a8.9,8.9,0,0,1-2.74,4.78c-2.44,2.27-4.55,4.89-6.89,7.28q-5.94,6.1-12,12.07c-.6.58-1.53,2.18-2.47.29l-1.69,3.06h0c-.44,1.81-2.26,2.28-3.39,3.42-.39.6-.51,1.74-1.48,1.42-1.63-.54-.07-2.09-.61-3a11.17,11.17,0,0,1,.92-6.47c.68-4.48,0-9,1.59-13.47h0c.63-1.4.24-2.81.22-4.21a2.8,2.8,0,0,0,.52-3.7L153.83,75l-.3,1.81h0c-.3.75.11,1.7-.76,2.28h0a1.93,1.93,0,0,1-.44,2.79h0a.74.74,0,0,1,0,.53c-.09,1.53-.17,3.07-.25,4.6h0l-.9,5.55h0c-.23,1.54-.47,3.08-.71,4.62a76.44,76.44,0,0,1-1.59,11.14h0c2.61,2.92-1.67,2.53-2.11,4a1.2,1.2,0,0,1-1.43.35c-.14,2.41-1.9,3.42-3.86,4a10.58,10.58,0,0,0-3.87,2c-7.86,6.77-16.89,11.87-25.24,17.94v.11Z"/><path class="cls-4" d="M217.35,24c.8-.46,2.13-1.68,2.35-.42.25,1.43,1.89,2.49,1.06,4.06-.22.41-1.15.6-1.77.66-.77.09-.86-.52-.61-1.08.61-1.32-.64-1.6-1.17-2.29-2,1.86-4.34,3.32-6,5.51.07.9-.76,1.28-1.19,1.9s-.49,1.75-.09,1.75c3.81-.09,1.58,3.63,3.32,5,3.55-2.34,3.83-6.5,5.69-9.78,1,0,2.17,1.52,3-.82.26-.75,2.58-.89,4-1.31h0c1.21-.24,1.45,1.44,2.65,1.2.4-1,1.15-1.12,2.09-1,1.52.21,1.89-.63,1.67-1.92-.15-1-.44-2-1.77-1.66-1.74.44-2.6-.51-3.4-1.68-2.07-.12-.86,1.59-1.41,2.32-1.28-.8-2.75-1.33-1.62-3.49,1.36-2.59,3.06-1.47,4.78-1,.55-.4,2.54.55,1.66-.72-1.64-2.36.76-2.39,1.49-3.34,1.63-2.12,3.42-.7,5-.24s1,1.94.59,3c-.46,1.3.52,1.42,1.21,1.83h0a24.05,24.05,0,0,0,4.07-8.14c-3.47.68-3.83-1.73-4.23-4.11h0c-.49,1-.46,2.39-2.08,2.62-.77.1-1.54,1.31-2.29.3-.6-.82.44-1.26.83-1.86,1.29-2-.53-3.25-1.08-4.81h0c-1.47,2.76-4.41,3.92-6.57,5.93.6,3.38-1.89,5.4-3.89,7.5-1.06,1.12-2.29-.57-3.55-.29h0a.85.85,0,0,0-.35.42h0C220.17,20.45,216.59,21.49,217.35,24Z"/><path class="cls-5" d="M20.68,123.83c.15-.48.18-1.26.47-1.39a.81.81,0,0,1,1.18.92c-.19,1.24.86,1.51,1.41,2.18.86-1.31,1.38-3.27,3.61-2,.94-.89,2.52-1,2.91-2.59.21-.79.24-2,1.52-1.79s2.56.46,2.65,1.91a2.4,2.4,0,0,0,2.38,2.46h0a129.2,129.2,0,0,0,4.73-21.62c-1.22,1-2.76-1.16-3.91.56v0h0c.62,1,2.44,2.24,1.32,3.21s-3.24,1.06-4.89,1-.87-1.9-1.37-2.85c-1,.08-1.52,2.71-2.92.66v0h0c-2.13,1-1.5,2.59-1.1,4.13,1.48,1.53,2.77,3.82,5.15.61.58-.78,1.6-.56,2.36.07.56.45,1.49.62,1.23,1.64-.29,1.2-1.21.6-1.89.71s-1.61,0-1.68.79c-.43,4.69-3,2.51-5.08,1.82a2.29,2.29,0,0,0-.28,1.85c.73-.08,1.95-.28,1.64.71s-.51,2.58-1.74,2.87c-.89.21-1.34-.81-1.11-1.82-1.77-2.5-5.27-3.87-4.84-7.82.14-1.32-1.45-1.37-2.06-2.18h0c-.66,2.24-1.76,4.41-1.64,6.8a2,2,0,0,0,1.89.09c1.78-1,2.72-1,1.56,1.32-.2.39-.53.72-.23,1.18.42.65,2.28.92.82,2.06a3.1,3.1,0,0,1-4,.27c-.46-.36-.79-1.11-1.58-.4h0a15.59,15.59,0,0,0-1.18,5l3.33-1A1.31,1.31,0,0,1,20.68,123.83Z"/><polygon class="cls-5" points="32.68 103.88 32.68 103.88 32.68 103.88 32.68 103.88"/><path class="cls-3" d="M92.24,184.06l.09-.1c-2.39-1.58-4.79-3.15-7.15-4.77-.66-.46-1.94-.69-1.57-1.73.31-.88,1.47-.81,2.36-.74h0a5.8,5.8,0,0,0,2.11-2.5,2.7,2.7,0,0,1,2.84-1.28,1.26,1.26,0,0,1,.94.72c.3,1.54-1.25,1.18-1.92,1.75-.9.78-1.9,1.56-1.8,2.93h0l1.26.66h0l.89.21h0c-.9-2.17,1.17-.78,1.62-1.35-.1-2.25,1.58-3,3.3-3.53.78-.22,1.64,1.12,1.12,1.3-1.39.49,0,3.48-2.55,2.5a5.68,5.68,0,0,0-.93-.19h0a10.25,10.25,0,0,0,3.6,3.11c1.46,1,2.71.58,2.78-1.55,0-1.64-2.44-4,1.55-4.44a134.29,134.29,0,0,0-21.44-8h0c-.47,2-.25,4.49-3.46,4.46l-.06.1c1.4,1.91,4.26,1.78,5.61,3.77.12-.19.19-.44.36-.55,1.36-.92,2.67-2.12,4.46-1.37.14.06.08.55.12.84-1.69,0-2.6,2.62-4.63,1.59-2.41,1.25-3.89-.44-5.41-1.6-.92-.71-1.68-1.54-2.95-1.58a.15.15,0,0,1,0,.07c.4.55.93,1.05.59,1.87,0,2.42,2,3.12,3.75,3.54s1.93,1.31,1.94,2.66h0a1.39,1.39,0,0,1,1.57,1.24c0,.15-.6.46-.92.7L91,190C89.43,187.41,90,184.68,92.24,184.06Z"/><polygon class="cls-6" points="54.74 214.08 54.74 214.08 54.74 214.08 54.74 214.08"/><path class="cls-6" d="M67.09,219.28c-.69-1.83-2.62-2.41-3.85-3.7-1.37-1.44.58-1.67,1.09-2.42,1-2.19.25-3.67-1.62-4.83-1.5,1.51,1,3.08-.71,4.77-.51-2.41-2.5-2.54-4.31-2.95l.12,2.36c-.21,1.55.9,2.31,1.88,3.1.53.42,1,.77.85,1.53a1,1,0,0,1-.92.82A1.42,1.42,0,0,1,58,216.74c-.39-1.72-1.78-2.23-3.25-2.66a2.27,2.27,0,0,1,.23,2.15c-1.07,3.38-.95,3.5,2.79,3.14.76-.07,1.52-.39,2.15.3.46.51,1.11,1,1.21-.23s.34-1.81,1.53-1.33c1.4.55,1.56,2,1.72,3.24s-1,1.2-1.88,1.24c-3.72.18-6.78-2.14-10.44-2.2l-.11.06c.6.93,1.19,1.87,1.79,2.81,1.1.05,1.05-1.8,2.5-1.37.39,1.17.5,2.69-.68,3.38-1.58.91-2.06-1-2.93-1.75-1-1-1.36-2.72-3.16-2.9a49.84,49.84,0,0,0,9,9.53h0c-.38-1.26-2.64-2.11-1.47-3.45,1-1.13,2.65.28,4,.58.56.12,1,.78,1.45,1.19,1.29.15,2.58.28,3.86.46.53.07,1.07.33,1.55-.14,2.12-2.08,2.11-2.08,4.58-.74l.53-.41h0c-.54-2.78,1.12-2.46,2.85-2h0a24.14,24.14,0,0,0-4.63-8C70.05,218.72,68.09,217.69,67.09,219.28Z"/><polygon class="cls-6" points="54.74 214.08 54.74 214.08 54.74 214.08 54.74 214.08 54.74 214.08"/><path class="cls-7" d="M103.88,78.08c3.67-1.06,4.19-.37,3,4a5.28,5.28,0,0,0,.29,2.79c1.32,2.9,1.67,3,4.3.62-.28-1.33-2.46.1-2.39-1.38.05-1,1.34-1.4,2.06-2.08,0-1.5-.69-3.6,2.29-2.59,2.6-3.4,2-7.28,2-11.24,1.49.23,2,2.34,3.74,1.44-.73,1.19-1.46,2.38-2.27,3.72,2.63-.8,2.7-.78,3.41-3.14.38-1.25.8-.6,1.3-.25h0c.31-2.14-.29-4.17-.43-6.25-2.39-2.41-4.49-2-6.79.65-1.14,1.34-1.08-.37-1.39-.94-1.52.76-1.82,2.35-2.66,3.58-.39.56-1,1.35-1.86,1s0-1.16-.15-1.72a1.18,1.18,0,0,1-1.23-.49l-1.2,3.11c.72-.38,1.49-.72,1.85.29.21.57-.25,1-.73,1.32-1,.62-.93-.46-1.29-.83h0c-1.3,2.67-1.07,5.62-2,8.35l.15,0Z"/><path class="cls-5" d="M26.86,87.84c.15-.63.3-1.26.46-1.89h0c.62.69,1.15,1.63,2.35,1.13.48-.2.5-.94.19-1.06-1.08-.44.55-3-1.83-2.27.73-1.69,1.1-3.52,2.25-5h0l.68.93c1-2,2.7-.64,4-1,2.56-.62,4.36,2.73,7,.79l.21,3.33h0c-1-.1-2-.52-3.39.36,1.16.9,2,1.9,3.49,1.94,1.49,4.23.18,8.49-.47,12.75h0c-.38-.59-.71-1.63-1.62-.61-1.33,1.52-2.87,3-2.63,5.26v0c-.39.17-.93.24-1.17.54-1.56,2-2.17,2.12-2.69-.62-.28-1.53.42-3.24-.63-4.6-1.81-.85-1.92-1.67-.09-3,2.26-1.62,2.49-3.72.82-4.93-.32-.49-.53-2.13-1.08-1.14-1.4,2.54-2.15,1-3.35.21C28.69,88.46,28,87.64,26.86,87.84ZM35.73,87c-.42.39-.78.82-.33,1.15,3.12,2.28,2.54,4.77.21,7.49-.8.94-.29,1.86.44,2.6.46.45,1.37,1,1.6.37C38,97.51,40,97.06,39.26,96c-1.35-2,.21-3.44,1-4.76A2.35,2.35,0,0,0,39.55,88C38.6,87.2,37,87.25,35.73,87Z"/><path class="cls-8" d="M104.76,84.85c-.05,3.21,3.06,3.26,4.67,4.8.84.8,1.25-.7,1.91-.61,1.1.17.31.64,0,1h0l.35.51h0a8.3,8.3,0,0,0,1,.7c.79.41,2.35-.13,2.41,1,.07,1.36-1.74.94-2.47,1.69h0c.08.48.16,1,.25,1.43h0c.53-.41,1.06-.82,1.58-1.24a2.76,2.76,0,0,1,3.75.38,28.73,28.73,0,0,0,1.24-7.38c-1.76-.37-1.66-1.78-1.5-3.06.21-1.56,1.44-.3,2.11-.69h0c1.58-4.4,1.45-8.9,1.52-13.39h0c-.5-.35-.92-1-1.3.25-.71,2.36-.78,2.34-3.41,3.14.81-1.34,1.54-2.53,2.27-3.72-1.79.9-2.25-1.21-3.74-1.44,0,4,.59,7.84-2,11.24l1.71,1.11,4.27-2c-1.78,4-2.12,4.15-4.27,2-2.1,1.07-2.1,1.07-2.77,3.4-1.21-.12-1-1.18-1.23-1.92-.72.68-2,1.06-2.06,2.08-.07,1.48,2.11.05,2.39,1.38-2.63,2.4-3,2.28-4.3-.62a5.28,5.28,0,0,1-.29-2.79c-2.48-.23-2.19-2.55-3-4l-.15,0-.87,4.56A2.33,2.33,0,0,1,104.76,84.85Z"/><path class="cls-9" d="M34.43,121.08c-.09-1.45-1.48-1.73-2.65-1.91s-1.31,1-1.52,1.79c-.39,1.54-2,1.7-2.91,2.59l-.15.92c.91,1.28,4.38.29,3.05,3.63-.73,1.83-2.36,2.75-3.85,1.49-.55-.45-.65-1.39-1.65-.69a1.3,1.3,0,0,0-.34,2c.61,1-.17,1.58-.87,2.16h0l1.88-.12c-1.16,1.58,1.35,2.9.1,4.49-.34.43-.62.9-.93,1.34h0c.85,2.38-.11,4.69-.6,7h0a1.92,1.92,0,0,0,2.24.68c-1.35-1.78-.66-2.57,1.41-2.38a11.12,11.12,0,0,1,2.72.94h0a16.9,16.9,0,0,0,2.31-6.84c-2,.65-3.1-1.44-5-1.24-.53,0-.71-1.37-.23-1.62,1.14-.6,2.29-1.57,3.71-1.23.28.07.51.3,1.12.78a1.06,1.06,0,0,0,.37-.18c-1.36-2.89-1.61-5.18.25-7.66.89,1.51-1,4,1.62,4.67h0l2.31-8.15h0A2.4,2.4,0,0,1,34.43,121.08Z"/><path class="cls-10" d="M72.14,97c-.91-1-.15-1.38.78-1.86a1.29,1.29,0,0,0,.37-2,3,3,0,0,1,.45-4.12c1.11-1.15.1-1.56-.66-2.22-1.54-1.31-3.77-.91-5.35-2l-.54.42c-1.82,1.69.91,3.43-.31,5.13l.4.51c1.63,1,5.62,1.4.7,3.89-.74.37-.44,1.21-.25,1.77,1,2.93-.38,5.79-.64,8.68,0,.06-.38.1-.58.15-.24.55-.13,1.32.34,1.3,2.9-.07,1.1,1.17.56,2.07a5.09,5.09,0,0,1,1.44,3L71.48,113c-.54-2.62.09-4.64,2.29-6h0A43.37,43.37,0,0,0,75,97.16C73.89,98.8,72.94,97.84,72.14,97Z"/><path class="cls-11" d="M190.86,67.26l.12,0c2.12-2.8,4.06-5.77,7.58-7.84-1.32,3.74-4.05,6.15-5.41,9.3l0,0c2.82-3.93,7.42-5.57,11.08-8.43,1.42-1.12.4.82.9,1h0c1.88-2.29,5-3.22,6.44-6h0l-.22,0c-1.32,1.1-2.57,2.28-4,3.25s-.56-.59-.85-.89a2,2,0,0,1-.13-2.36c-.76-1.53-.17-3.89-2.55-4.44a1.16,1.16,0,0,0,0,.18c.49,1.66-1.23,5.84-2.66,6.11-1,.2-1.45-.54-1-1.35a9.55,9.55,0,0,1,1.75-1.92c-1.87-.36-3.56-2-5.2,1.31-1.15,2.33-2,.12-2.46-1.17h0a58.08,58.08,0,0,0-7.52,12.5C188.42,65.59,190.06,64.82,190.86,67.26Z"/><path class="cls-12" d="M28.9,178.66h0c1.56.87,2.42,2,1.32,3.88h0c1.31.6,2.82,1,2.41,3a1.84,1.84,0,0,0,.41,1.33l.13.08a.24.24,0,0,0,.29,0c4-3.43,3,2.26,5,2.49a3.62,3.62,0,0,1-.93,0c-3.45-1.05-5.08.23-4.42,3.57a6.05,6.05,0,0,0,3.74,4.76h0c.17-1.11,1.41-2.25,0-3.29-.54-.81-1.4-1.46-1.51-2.89a6.33,6.33,0,0,1,3.12,1.64,4.5,4.5,0,0,0,4.85,2.5c1.48-.2,2.14.56,2.44,1.83-1.49.95-4.58-1.21-4.41,2,.12,2.37,2,3.84,5.15,2.08-.95,2-2.89,3.15-2.54,5.21h.07c1.11-1.63,2-2.64,3.44-.1.67,1.17,2.63,1.57,4.07,2.29l0,0c-3.36-2-3.91-5.38-3.6-9,.45,0,.62.78,1.08,1.2l.1,0c.2-1-.63-1.63-1.09-2.37h0l-.83-1.06h0l-3.57-4.55c-3.83-2.28-5.43-6.47-8.11-9.71-2.25-2.74-5.06-4.89-7.19-7.7-1-1.3-1.36.4-2,.65h0l.84,3.42h0C27.74,179.46,27.7,178.23,28.9,178.66Z"/><path class="cls-12" d="M152.1,161.25l2.14-1.67c.09-.61.19-1.22.28-1.84-.44-.55-.8-1.24-1.71-1.13h0c.47,2.71-3.06,1.16-3.53,3.21-.1.47-1.26-.68-1.78-1.3s-.07-1.76-1.29-1.43c-.85.24-.61,1-.69,1.67-.21,1.71-.95,2-2.43,1.11a13.29,13.29,0,0,0-3.31-1.87c-1.73-.49-1.59-2.17-.76-3.51a4.58,4.58,0,0,0,.92-3.38h0c-1.27.38-2-.28-2.65-1.2l-14.06-7.07h0c0,.32-.09.64-.14,1,.22.64.43,1.29.65,1.93.6-.43,1.15-1,2-.73.56.69.11,1.42,0,2.16-.19,1.62.92,2.52,2,3.35s1.84,0,2.67-.86a2.22,2.22,0,0,1,3,0c.82.62,1.9,1.67.65,2.62s1.3,3.06-1.47,2.87h0a102.81,102.81,0,0,0,15.66,9.08h0A4.68,4.68,0,0,1,152.1,161.25Z"/><path class="cls-6" d="M117.46,99.16c-3.24,1.06-.68-2.14-1.88-2.58-.39.47-.46,1.44-1.34,1.17-1.09-.34-1.11-1.44-1.31-2.37h0l-2.22,1.7h0l-.88.81c.13,2.25-.93,4.33-1.21,6.52-1.31,4.86-.57,9.9-2.09,14.73l.51-.4c.44-.33.87-.9,1.34-1,3.15-.4,3.09-2,2.31-4.42-.84-2.63,1.68-4,3.25-5.47.16-.16.28-.09.39,0h0c.2.23.35.7.57.91h0Q116.18,104,117.46,99.16Z"/><path class="cls-13" d="M215.33,102.6c-2.1-.24-3.29,1.58-5.18,2s0,1.53.3,2.34a5.54,5.54,0,0,1,2.14-2.48c.53-.35,1-1,1.71-.76s.69,1.25.71,2a1,1,0,0,1-1.23,1.13c-1.47-.13-1.46.57-1.38,1.8.09,1.44-1.05.92-1.84.7.68,1.13-3.86,1.45-.64,3.07.3.15-.29.71-.73.8-.8.16-1.83,1.12-2.32,0-.71-1.63-2.42-2-3.5-3.15l-.54.41c.3,3.88-.73,4.86-4.43,4.26a1.43,1.43,0,0,1-1.4,2.26c-2.17-.18-3.23,1.3-4.58,2.43h0l4.22.92c-.08-1.15.89-1.25,1.6-1.77,1.9-1.4,5.14,0,6.21-3.25.14-.4,1.61-.2,2.54.83-3.14.51-2.58,2.54-2.4,4.43h0l1.91.08c1.47-1-2.34-1.57.07-3.26,1.61-1.14,2.42-1.34,3.8-.54.35-.43.61-1,1-1.27,1.39-.79,2.82-1.55,3-2.14a2.13,2.13,0,0,0-.17-.45c-.41-.29-1.45-.49-3.5-.55,1.09-1.57,2.71-.65,3.4-1.8a1.41,1.41,0,0,0,.67-1.34c.67-1.56,1.47-3,3.35-3.42-.17-1.83.13-3.44,2.18-4.24h0a8.15,8.15,0,0,0-4.31-.81h0C216.5,101.61,216.62,102.74,215.33,102.6Z"/><polygon class="cls-13" points="202.83 110.37 202.83 110.37 202.83 110.37 202.83 110.37"/><path class="cls-14" d="M59.35,109c-.29,1.28-.47,2.29.44,3.24,1-1.06,2.41-1.33,3.61-2a1.52,1.52,0,0,0,.71-1.27l-.06,0c-.82.61-1.16.19-1.3-.64-.07-.4-.35-1-.19-1.18,3.87-3.58,2.93-8,3-12.31,0-1.54,0-3.06,1.77-3.91l-.4-.51c-.87-.39-1.65-.45-2.26.58a3.46,3.46,0,0,1-3.7,1.67c-1.09.73-1,1.94-1.2,2.94a92.39,92.39,0,0,1-2.94,11.65C59.24,105.59,59.79,107,59.35,109Z"/><path class="cls-15" d="M52.66,142.55a5.75,5.75,0,0,0,1.57,3.39q2-9,4.09-17.93c-.13-.17-.39-.36-.37-.51.53-3.1-2.55-5.39-1.55-8.59-.46-.59-.85-1.26-1.8-1.11h0c-1.24,7.88-3.32,15.67-4.13,23.6C51.9,140.56,52.49,141.24,52.66,142.55Z"/><path class="cls-16" d="M159.87,35.21c.08.47.17.95.25,1.43l.54-.42h0c2.12.57,3,2.64,4.63,3.74,1-.57,1.67-1.83,3.07-1.57l1.54-.32h0a3.41,3.41,0,0,0-.56-2.86,9.2,9.2,0,0,0-1.17-.9c-.71.69.07,2.87-2,2.14a7.58,7.58,0,0,1-4.28-3l-.17-.28c-2.57-3.49-2.51-3.27,1.87-4.66,3.17-1-.51-1.88-.16-3.15,2.21-.12,3,1.63,3.92,3,.51.73.25,2,1.64,2.05h0a15.93,15.93,0,0,0-1.31-5.32c-.32-.05-.71,0-.94-.18-4.74-3.6-4.75-3.61-9.65.09.26,1.53-.21,3.11.88,4.6S157.63,32.18,156,33c-.17-1.66.1-3.4-1.37-4.46h0c-.52,1.53-1,3.05-1.55,4.57,1.51-.09,2.79,1,4.62-.08C159.18,32.17,159.86,33.76,159.87,35.21Z"/><path class="cls-12" d="M44.15,183.7c-1.43-.13-1.11-1.86-2.32-2.13s-2.32.6-3.49.37l-.52.39,5,6.31.12-.11c-.16-.68-.31-1.35-.48-2.1,2.88,1,4.48,3.81,7.82,4.11,2.79.25.35,2.46.41,3.67.05,1-.24,3.43-2.73,2.29l-.66,1.33.83,1.06c2.66.54,3.79,2.73,5.23,4.6l.12,0c.27-1.05-.63-1.6-1-2.36-.26-.49-.35-1.36.26-1.26,3.54.57,2.32-2.6,3.39-3.94a66.54,66.54,0,0,0-13.77-15.6h0C42.81,181.41,44.11,182.06,44.15,183.7Z"/><path class="cls-17" d="M196.72,55.2c1.64-3.33,3.33-1.67,5.2-1.31,1.09-.75.4-2.53,1.9-3h0l.08,0c2.38.55,1.79,2.91,2.55,4.44.92-.12,1.28.57,1.73,1.12.76.24,1.12,0,1.07-.84.23-2.42,1-4.37,3.82-4.74l.14-.12c-.6-.67-1-1.59-1.9-1.91-1.26.33,0,2.18-1.36,2.23s-1-1.17-1.23-2.11-1.06-.88-1.78-.25c-1.73,1.52-1.72,1.53-3.88-.46,2.43,0,4.37-.62,4.95-3.1h0c-1.21-.26-2.63-1.38-3.13,2.06a10.76,10.76,0,0,0-2.58-5l-.57.4c2.34,2.89.35,3.15-2.06,3.15h0c-1.86,2.72-4,5.27-5.41,8.26h0C194.69,55.32,195.57,57.53,196.72,55.2Z"/><path class="cls-18" d="M162.21,83.47c-2.46.09-5-.86-7.4.55h0c-1.57,4.42-.91,9-1.59,13.47,1.68-1.25,4.73-.57,5-4,.06-.79,1.86-.28,2.2,1h0a25,25,0,0,0,2.87-9.59h0C163,84.33,163,83.44,162.21,83.47Z"/><path class="cls-19" d="M223,36.38c1.12-1.41,2.66-.74,3.94-1.11-1.23-1.37-1.06-2.61.57-3.7l.95-3.2c-1.2.24-1.44-1.44-2.65-1.2h0a1.5,1.5,0,0,1,.18,1.5c-.33.68-.56,1.49-1.48,1.57a.89.89,0,0,1-.74-.45c-.39-.92.44-1.32,1-1.8.33-.29.69-.55,1-.82h0c-1.38.42-3.7.56-4,1.31-.81,2.34-2,.84-3,.82,1.27,1.4.76,3.45,1.67,5a1.72,1.72,0,0,1-.9,2.22c-2.35,1.27-2.58,3.48-2.74,5.71,1.77-.2,2.81,1.64,4.6,1.41h0a19.26,19.26,0,0,0,5.38-6.59h0C225.29,38.44,224.17,37.63,223,36.38Z"/><path class="cls-20" d="M52.69,199.84c-.61-.1-.52.77-.26,1.26.39.76,1.29,1.31,1,2.36,0,.06,0,.1,0,.16h0l2.69,1.2a32.2,32.2,0,0,1,3.53,1.44,1.82,1.82,0,0,1,1.07,1.85,1.67,1.67,0,0,1-1.39,1.27c-.87.23-1.69-.06-1.84-.88-.22-1.26-1.36-1.56-2-2.34l-.68,1.35.39.5c1.21-.07,1.5,1,2.12,1.63h0l.2.25.19.25h0c1.81.41,3.8.54,4.31,2.95,1.75-1.69-.79-3.26.71-4.77,1.87,1.16,2.67,2.64,1.62,4.83l2.4-.24a1.18,1.18,0,0,1,.21-1.79h0c.12-2.39-2.15-3.3-3.22-4.9-2.37-3.55-4.32-7.47-7.64-10.33C55,197.24,56.23,200.41,52.69,199.84Z"/><path class="cls-21" d="M131.87,141.86h0c.61-.32,1.33-.69,1.46.33.16,1.24-.89,1.31-1.74,1.51v.14c3.41,2.77,7.66,4.2,11.29,6.61h0l2.24.72c-1.77-2.75,0-5.17,1.11-7.64h0a102.43,102.43,0,0,0-15.31-4C131.41,140.25,129.07,142.2,131.87,141.86Z"/><path class="cls-22" d="M108.36,66.28a4.66,4.66,0,0,1,1.74-2.18c-.43-.64-.82-1.48-.14-2s1,.74,1.75.77l.53-.41h0c1.28-2.15,3.18-2.56,5.41-2.19-1.69.9-3.53,1.49-4.62,3.2h0c.31.57.25,2.28,1.39.94,2.3-2.69,4.4-3.06,6.79-.65.52-2.94-.67-5.4-1.93-7.82-1.65-3.17-4.93-3.45-7-.44-2.16,3.21-4.44,6.43-5.19,10.31h0A1.18,1.18,0,0,0,108.36,66.28Z"/><path class="cls-10" d="M212.06,40.05c.26,1.45-1.57,1.77-1.36,3l2.51-1.16c1.38-.76,2.3,1.48,3.73.37.16-2.23.39-4.44,2.74-5.71a1.72,1.72,0,0,0,.9-2.22c-.91-1.58-.4-3.63-1.67-5-1.86,3.28-2.14,7.44-5.69,9.78-1.74-1.38.49-5.1-3.32-5-.4,0-.32-1.16.09-1.75s1.26-1,1.19-1.9l-.36-.46a9.07,9.07,0,0,0-3.57,4.27c0,1.64-1.11,2.59-2.3,3.49l-.8,1.38C207.21,37.44,209.21,41.07,212.06,40.05Z"/><path class="cls-23" d="M142.81,90.8h0V85.18c1.57.06,3.57.45,4.06-1.53.41-1.66-1.1-2.51-2.69-2.89a3.91,3.91,0,0,1-1-.69l.21-2.73h0c.77-1.38,1.69-.76,2.59-.31-.81.77-1.3,1.66-.42,2.54s1.38-.11,2-.49h0c3,.81,4-.24,3.88-3.85a4,4,0,0,0,2.1,1.6h0c-.3.75.11,1.7-.76,2.28h0c-1.09.83-.58,1.83-.44,2.79-1,.76-1.61,0-2.38-.32-.51-.2-1.5.19-1.28.41,1.86,1.84.66,3.13-.71,4.61-.28.31.56.77,1.15.72,1-.08,2-.19,2.94-.29l-.9,5.55h0c-3.52,1.42-.93-3-3.2-3-.43,2.73-1.28,4.85-3.88,1.42C143.9,90.73,143.25,90.85,142.81,90.8Zm4-2.41a.84.84,0,0,0,.07-1.18c-.55-.73-1.07-.89-1.58-.5a.92.92,0,0,0-.1,1.42C145.64,88.68,146.16,89,146.82,88.39Z"/><path class="cls-23" d="M152.33,81.9h0l0,.53A.74.74,0,0,0,152.33,81.9Z"/><path class="cls-24" d="M171.06,170.85c-.12-1.27-1.82-.41-2.25-1.38l-.79-1h0c-.73,0-1.53-.37-1.13-1,.67-1.06,1.46.05,2.2.18,1-1.54-.1-3.66,2-5-1.42-.77-3.2-.21-3.81-1.75-1,.19-1.69-1.28-2.79-.28,1.26,1.26-1.32,3.61,1.52,4.24-2.48,1.84-4.4-1.74-6.48.44h0c.34,1.58.51,3.09-1.61,3.75h0a80.37,80.37,0,0,0,11.25,4.21c-.06-.29-.26-.77-.16-.84C169.7,171.88,171.2,172.38,171.06,170.85Z"/><path class="cls-25" d="M180.16,166.37c.39.5.78,1,1.18,1.51h0c.09-1.12.44-1.88,1.8-1.38.65.24,1.28.64.92,1.38-.51,1.07-1.35,1.45-2.33.53-.92,1.13.35,2.17,0,3.28h0c-1.07.81-1.9.07-2.79-.28-1.6.84-2.4,3.05-4.63,2.8A18.75,18.75,0,0,0,184,175.8c.08-1.26-.91-2-1.51-3.08,2-1,3.55.39,5.25.07h0l1.68,1.05h0c1.9-3.19-.44-5.28-1.69-7.65-1.72-.24-4.42.32-2.41-2.95l-.78-.27C182.37,163.24,181.32,164.88,180.16,166.37Z"/><path class="cls-25" d="M148.85,108.34h0a76.44,76.44,0,0,0,1.59-11.14c-.58-.61-.3-1.72-1.19-2.14-.46-.21-.94-.62-1.48-.25-1.93,1.31-1.91,1.32-4-.47-.21-.18-.6-.16-.91-.23h0c.48,4.57.28,9.23,1.38,13.71l.82.12A2.86,2.86,0,0,1,148.85,108.34Z"/><path class="cls-26" d="M182.16,104.15c-3.25-1.08-5.43-1-7,1.56l0,.06c1.39-.09,2.63.08,3,1.7.88-1.84,2.09-2.94,4.26-2.18.49.17,1.11,0,1.62.15.81.25,1.34-1.85,2.07-.45.64,1.24-1.09,1.3-1.71,2.14,3.8,1.6,6.47-2,9.76-2.31l-.79-1h0c-1.23-.88-3-.08-4.2-1.07-.43-.34-1-.46-.78-1.14.17-.49.58-.57,1.07-.44,2.8.72,1.57-.9,1.25-2h0a30.57,30.57,0,0,0-8.64,1.17C182.44,101.62,177.75,102,182.16,104.15Z"/><path class="cls-27" d="M146,77l.53-.4c.15-.17.31-.33.44-.51.67-1-1.82-1.72-.11-2.7a2,2,0,0,1,2.39.59c1,1,.78,2.35.11,3.56-.24.45-.83.73-1.27,1.08l-.5.43h0c3,.81,4-.24,3.88-3.85,2.16-2.73,3.78-5.57,2.39-9l-.14,0c-1.16,2.3-3.23.84-4.85,1.23h0c-1.9.37-2.72,2.57-4.69,2.82a22,22,0,0,0-.77,7h0C144.14,76,145.06,76.58,146,77Z"/><path class="cls-28" d="M17.11,160.12a29.43,29.43,0,0,0,3.41-10h0c-.37.25-.74.67-1.12.7-1.24.11-2.48,2-3.51.77a4.06,4.06,0,0,1-.93-4.43c1-2.16-.16-3.16-2.21-3.47h0c-1,2.44-.74,5-1.07,7.47,1.6.06,2.42,1.28,1.67,2.35s.7,3.52-1.95,3.73h0a7.56,7.56,0,0,0,.17,3.84h0C13.4,160.58,14.87,157.18,17.11,160.12Z"/><path class="cls-27" d="M165.07,50.75l-.53.41.79,1c2,1.27.78,2.38-.39,3.44a1.12,1.12,0,0,1-.92,0,.75.75,0,0,1-.38-1.08c.32-.69,1.23-1.06,1.16-2l0,0A14.13,14.13,0,0,0,161.44,56l-.54.41h0c1,.38,1.64.94,1.32,2.18s-1.3,1-2.1,1.28c-1.33.45-1.8-.21-1.91-1.36l-1.6,1.25c.69,1.23.13,1.89-1.15,1.91a16.38,16.38,0,0,1-2.85-.44c.08.48.16,1,.25,1.44.92-.12,1.27.57,1.74,1.12a6,6,0,0,0,6.86-.8c.46-.38,1.21.21,1.64.71l.94.1h0c.79-.85,2.2-1.18,2.28-2.62-1.07.24-1.79,2.83-3.19.67-.29-.45-.84-1.27-.18-1.71.91-.61,2-1.54,3.13-.39.86-.43,1-2.71,2.66-1.1h0c.2-1.71.91-3.42.28-5.13C168.5,51.54,166.41,51.65,165.07,50.75Z"/><path class="cls-29" d="M237.6,18.68c.39-1.09,1-2.55-.59-3s-3.39-1.88-5,.24c-.73.95-3.13,1-1.49,3.34.88,1.27-1.11.32-1.66.72.36,1.45-.45,2-1.75,2.17h0c.8,1.17,1.66,2.12,3.4,1.68,1.33-.34,1.62.64,1.77,1.66,1.14-.69,2.31-2.17,3.39-.09h0a12.37,12.37,0,0,0,3.16-4.86h0C238.12,20.1,237.14,20,237.6,18.68Z"/><path class="cls-30" d="M115.77,139.68c2.09.73,4.08,1.72,6.11,2.61a1.37,1.37,0,0,1,1.33.56h0l14.06,7.07a3.52,3.52,0,0,1,2.65,1.2h0a21.76,21.76,0,0,0,2.41.45c1.08.09.88-.51.55-1.12h0c-3.63-2.41-7.88-3.84-11.29-6.61L128,142.5h0a3.94,3.94,0,0,1-2.66-1.28v0c-2.65-.87-5.11-2.16-7.89-2.73-2.28-.46-.43-1.17.07-1.77-1.73-.06-3.57,1.82-5.2,0h0c-2.58,1.66,1.31,2.4.37,3.82h0l1.28.68h0C113.08,139,114.73,139.33,115.77,139.68Z"/><path class="cls-31" d="M13.07,138.51h0c.61-4.14.65-8.37,2.69-12.27h0c2.16.14,3.86-.27,3.59-3a1.31,1.31,0,0,1,1.33.6c0,1.7-2.45,1.81-2.43,3.52-1.14,2.47-.54,4,1.7,4.39.48,1,1,2,1.45,3,.35,1.26,2.81.13,2.5,2.13a3.88,3.88,0,0,1-3,.77c-1.86,0-3.3.82-1.82,3-.4.58-.8,1.17-1.21,1.75C16.9,140.31,14.66,139.79,13.07,138.51Zm3-.78c.72,1.12,1.59.74,2.43,0,.57-.51,1.17-1.05.61-1.92-.88-.2-1.72-1-2.7-.35A1.49,1.49,0,0,0,16.09,137.73Z"/><polygon class="cls-31" points="19.09 140.58 19.08 140.58 19.09 140.58 19.09 140.58"/><path class="cls-31" d="M23.9,136.83a2.51,2.51,0,0,1,0,.27A.43.43,0,0,0,23.9,136.83Z"/><path class="cls-32" d="M67,127.9c-.47-.88,0-1.6.68-2.21-2.65.85-2.63.85-1.29,3.15a1.67,1.67,0,0,1-.72,2.26,2.59,2.59,0,0,1-3.42-.72c-.62-.76-.67-2-1-3H61.2c-1.91,2.51-2.14,5.49-2.32,8.33-.21,3.26-1.22,6.36-1.72,9.54h0L58.74,144c.19-.27.55-.54.55-.8.05-5.69,1-6.55,6.82-6.43h0c.53-3,2.57-5.64,2.8-8.74h0C68.21,128.43,67.48,128.8,67,127.9Z"/><path class="cls-33" d="M20.57,164.65l-2.14,1.66c-.53-1.11.62-1.82.59-2.74.29-1.06.57-2.13.86-3.19Q21.46,154.67,23,149h0c.32-1.06.63-2.12.95-3.19h0c.49-2.32,1.45-4.63.6-7h0l-1-.09-.49.43h0c.12,2.72-1.19,5.2-1.69,7.82-.3,1.06-.61,2.12-.91,3.18h0a29.43,29.43,0,0,1-3.41,10c.29,2.52-1.27,4.79-1.4,7.26-.06,1.16-.57,2.34.12,3.43l.77-.46h0l5.07-6.49-1.1.79Z"/><path class="cls-10" d="M69.28,115.12c-1.41-.86-1.88-2-.43-3.44h0a5.09,5.09,0,0,0-1.44-3c-1.32.86-.38,3.21-2.49,3.54q-1.56,5-3.13,10h0c-.33,1.54-.67,3.08-1,4.62h0c.15.16.3.32.44.49h.05c2.59-1.2,4-3.78,6.36-5.33a1.5,1.5,0,0,0-.55-2.76c-1-.3-1.84-.72-1.58-2,.16-.8.88-1,1.54-1,1.14-.07,2.31,0,2.46,1.42.12,1.1.07,2.11,1.64,1.19h0a1.9,1.9,0,0,0,.36-1.71C71.23,116,70.2,115.67,69.28,115.12Z"/><path class="cls-34" d="M61.25,142c-.68.8-.83,2.41-2.51,2l-1.58,1.23h0c-1.56,5-1.79,10.23-3.73,15.14.59.29,1.08-.1,1.6-.3h0a153,153,0,0,0,9.38-18.78C63.12,140.17,62.24,140.84,61.25,142Z"/><path class="cls-32" d="M225.7,118.81h0a39.49,39.49,0,0,1-14.1,2h0l2.52-3.41a2.15,2.15,0,0,0-3.11,1.31h0l-.64-1.93c.35-.43.61-1,1-1.27,1.39-.79,2.82-1.55,3-2.14a.37.37,0,0,0-.17-.45c-.41-.29-1.45-.49-3.5-.55,1.09-1.57,2.71-.65,3.4-1.8.21.89.21,2.08,1.71,1.11h0l3.18.79c-.7.7-.9,1.29.24,1.64.69.22,1.78.34.9,1.42s-1.49,2.4-.15,2.93a2.61,2.61,0,0,0,3.11-1.83ZM218,116.26c.34-.43.51-1.05-.07-1.4s-1,.09-1.39.49a.67.67,0,0,0,0,1.09A1.06,1.06,0,0,0,218,116.26Z"/><path class="cls-35" d="M103.74,134.41c.15-.95.29-1.9.44-2.85h0c.34-1.36.69-2.72,1-4.08l.15-.91a10.84,10.84,0,0,1,.71-4.63h0a4.27,4.27,0,0,1,.45-2.79h0c1.52-4.83.78-9.87,2.09-14.73l-1,.81h0l-.92.86h0a10.92,10.92,0,0,1-.84,4.53h0v0h0c-.14,1.1,0,2.24-.75,3.24.67,1-.23,1.83-.46,2.74h0a71.36,71.36,0,0,1-1.77,11.11c0,.3-.08.61-.11.91a8,8,0,0,1-1.3,5h0c-.11,1.71.18,3.49-1.2,4.95.11.59,0,1.61.74,1.5a2.88,2.88,0,0,0,2.51-2.89h0C101.65,136.22,103.59,135.35,103.74,134.41Z"/><path class="cls-26" d="M197,116.89a1.43,1.43,0,0,0,1.4-2.26,4.15,4.15,0,0,1-2.12-1.61c-1.36,2.52-4.37,2.21-6.33,3.78-1.17.94-2.57,0-2.15-1.14,1.77-4.92-2.13-2.45-3.77-2.92l-.53.41c-2.31.95-1.9-2.05-3.45-2.21.17,1.54,1.68,3.19-.6,4.54h0a41.44,41.44,0,0,0,13,3.84h0C193.77,118.19,194.83,116.71,197,116.89Z"/><path class="cls-36" d="M167,68.83c-.85,3.65-1,7.43-2.46,11h0c-1.95-1.89-3.91-2.46-6.35-.26a2.84,2.84,0,0,1-3.15.26,2.8,2.8,0,0,0,.52-3.7c.32-1.39-.4-4.42,2.5-1.42,1.25,1.28,2.8.91,3.67-.92,1.32-2.77-2.09-1.58-2.52-2.92a.08.08,0,0,0,0,0l.5-.39c.84.4,1.09.19,1.65-.74.82-1.38,2.78-1.63,3.3-.86C165.54,70.13,165.54,70.13,167,68.83Zm-9.62,7.72a1.55,1.55,0,0,0-.07,1.6.84.84,0,0,0,1.33.32c.69-.5,1-1.22.4-1.92C158.68,76.13,158.12,76.12,157.37,76.55Z"/><path class="cls-31" d="M27,101a7.36,7.36,0,0,0,1.38-6c.22-1.85,2-.06,2.54-1.16l-.79-1c-.33-.29-1.15-.43-.55-1.08s1.16-.23,1.62.25c1-.49,2.65-.28,2.68-2.08-.32-.49-.53-2.13-1.08-1.14-1.4,2.54-2.15,1-3.35.21-.74-.52-1.44-1.34-2.57-1.14-1.75,4.44-3.52,8.88-3.93,13.63h0C24.41,102.91,25.54,99.93,27,101Z"/><path class="cls-37" d="M206.49,101.81c.14.17.27.34.4.52,3,1.27-.56,3.87.88,5.45-1,.72-1.81.09-2.75-.12-2.18-.48-.71,1.77-1.65,2.3,1.08,1.13,2.79,1.52,3.5,3.15.49,1.14,1.52.18,2.32,0,.44-.09,1-.65.73-.8-3.22-1.62,1.32-1.94.64-3.07-.71-.73,0-1.58-.11-2.36-.27-.81-2.11-2-.3-2.34s3.08-2.2,5.18-2c1.29.14,1.17-1,.72-1.86h0a15.47,15.47,0,0,0-7.44-.58C207.53,100.23,207.19,101.25,206.49,101.81Z"/><path class="cls-38" d="M208,45.13h0c-.58,2.48-2.52,3-4.95,3.1,2.16,2,2.15,2,3.88.46.72-.63,1.61-.71,1.78.25s-.21,2.15,1.23,2.11.1-1.9,1.36-2.23c.95.32,1.3,1.24,1.9,1.91l.07.08c.92-2.18,1.34-4.26-1-5.71h0c-1.48,0-1.34-1.14-1.56-2.05h0c-.21-1.23,1.62-1.55,1.36-3-2.85,1-4.85-2.61-7.91-.95a2.69,2.69,0,0,0-1.24,1.74A22.27,22.27,0,0,1,206.63,42C207.83,42.54,209.37,43.24,208,45.13Z"/><path class="cls-39" d="M167.36,28.43c-1-1.39-1.71-3.14-3.92-3-.35,1.27,3.33,2.14.16,3.15-4.38,1.39-4.44,1.17-1.87,4.66l.17.28a7.58,7.58,0,0,0,4.28,3c2.06.73,1.28-1.45,2-2.14a9.2,9.2,0,0,1,1.17.9c0-1.59.32-3.22-.34-4.73h0C167.61,30.46,167.87,29.16,167.36,28.43Z"/><path class="cls-40" d="M216.94,42.26c-1.43,1.11-2.35-1.13-3.73-.37,1,1.39.22,2.35-1,3.21h0c2.36,1.45,1.94,3.53,1,5.71l-.21,0c-2.78.37-3.59,2.32-3.82,4.74.76.06,1.25-2.41,2.23-.35l.14.1h0c1-1.06,2.08-2.05,3-3.19,2.26-2.88,5.62-4.88,6.95-8.48h0C219.75,43.9,218.71,42.06,216.94,42.26Z"/><path class="cls-41" d="M99.22,179.5c-.07,2.13-1.32,2.51-2.78,1.55a10.25,10.25,0,0,1-3.6-3.11h0l-.53.4h0c.43,1.27,2.7,1.83,1.37,3.8h0l.37.54c1.32-.48,2,.89,3.14.92h0c2.41-.58,6,1.7,6.9,4.34h0l1.72,1.13h0c-.26-2.3-1.87-3.61-3.53-4.89-.41-.32-.93-.65-.56-1.28s.94-.33,1.46-.26c1.2.16,1.92,1.88,3.47.89l.81-2.26v0c0-.9.69-1.29,1.26-1.79-1.88-2.4-5-2.73-7.49-4.08q1.36,2.5,2.75,5A42,42,0,0,0,99.22,179.5Z"/><path class="cls-42" d="M114.32,107.93h0c-.11-.13-.23-.2-.39,0-1.57,1.52-4.09,2.84-3.25,5.47.78,2.42.84,4-2.31,4.42-.47.06-.9.63-1.34,1a4.34,4.34,0,0,1-.42,2.78h0c3.36,2.42.12,5-.21,7.49h0c-.23.45-.45.9-.67,1.35l1.33.6c3.61-7.07,5.87-14.55,7.83-22.12h0C114.67,108.63,114.52,108.16,114.32,107.93Z"/><path class="cls-43" d="M28.4,175.87c2.13,2.81,4.94,5,7.19,7.7,2.68,3.24,4.28,7.43,8.11,9.71l1.51-.34h0c.12-1.84-1.55-2.65-2.21-4h0l-.21-.26-5-6.31h0l-.8-1a1,1,0,0,1-.63-.37c-1.53-.92-2.34-2.66-4-3.42-.48-.92-.95-1.85-1.42-2.78l-.12.11c-.16.62.32,1.36-.66,2l-2.44-3.14h0l-1.07.87c-.63.56-.89,1.15-.32,1.85h0C27,176.27,27.41,174.57,28.4,175.87Z"/><path class="cls-44" d="M69.5,117.73c-.15-1.39-1.32-1.49-2.46-1.42-.66,0-1.38.2-1.54,1-.26,1.26.53,1.68,1.58,2a1.5,1.5,0,0,1,.55,2.76c-2.35,1.55-3.77,4.13-6.36,5.33v0c.3,1,.35,2.22,1,3a2.59,2.59,0,0,0,3.42.72,1.67,1.67,0,0,0,.72-2.26c-1.34-2.3-1.36-2.3,1.29-3.15a1.63,1.63,0,0,0,1.59-.42h0c1.36-1.94,1.08-4.27,1.87-6.35h0C69.57,119.84,69.62,118.83,69.5,117.73Z"/><path class="cls-45" d="M67,232.33c2.19-1.94,4.08-2.05,5.68.34l.07,0c0-.74-.07-1.49-.11-2.23l-.12-2.36c-2.47-1.34-2.46-1.34-4.58.74-.48.47-1,.21-1.55.14-1.28-.18-2.57-.31-3.86-.46a7.64,7.64,0,0,1-3.68,2h0a17.61,17.61,0,0,0,5,5.29l-2-3.09C63.67,235.18,65.35,233.75,67,232.33Z"/><path class="cls-46" d="M240.41,2.37c-1.3,1,2.06,1.41,0,2.5S237,5.58,236,3.75h0c-.52,2.34,2.76,2.38,2.63,4.48v0c.4,2.38.76,4.79,4.23,4.11,1.56-3.09,2.9-6.2,1.79-9.64C243.23,2.4,241.66,3.27,240.41,2.37Z"/><path class="cls-47" d="M152.61,61.25a16.38,16.38,0,0,0,2.85.44c1.28,0,1.84-.68,1.15-1.91-3-.13-2.05-3.29-3.53-4.6h0c-.68,1.5-2,1.29-3,.86-.51-.22.23-1.09.7-1.56-2.72-1.51,1-2.39.56-3.69-.27-.34-.53-.68-.8-1-1.33.83-1.72,2.28-2.43,3.51h0c-.29,1.75,1,3.31.09,5.23-.64,1.34-1.23,1.92-2.62,1.54h0a2.13,2.13,0,0,0-.17,1.88h0c1.42-.09,2.79.77,4.24,0C150.4,60.32,151.52,60.89,152.61,61.25Z"/><path class="cls-22" d="M145.12,151.17l.31.4.13.05a9.2,9.2,0,0,0,.9-.86c.62-.74-.38-2.19,1-2.47.95-.19,1.33.91,1.76,1.58.83,1.29.06,2.2-1,3,.35.51,1.05,1,1,1.54-.27,3.07,1.63,2.68,3.61,2.23h0c-.43-.57-1-1.08-.67-2-.88-.49-2.07-.72-1.85-2.56,1,.79,3,.31,1.88,2.52v0h0l0,0c.85.48,2,.28,2.66,1.21h0l.53-.41c-.47-2.52-2.49-3.87-4.26-5.3s-2.24-2.45-.21-4c.16-.12-.09-.76-.16-1.15h0a12.57,12.57,0,0,0-4.49-1.43h0C145.08,146,143.35,148.42,145.12,151.17Z"/><path class="cls-48" d="M165.61,108.63c-.05,0-.08,0-.12,0l.11,0a3.43,3.43,0,0,1-.17-.57c4-.34,7.62,1.74,11.56,1.23h0c2.11.58,4.44.38,6.38,1.52,1.26-.2,2.6.1,4.05-.94-3-1.54-6.25-1.49-9.21-2.36h0l-8.8-1.3a7.18,7.18,0,0,1-3.71-.36h0a5.56,5.56,0,0,0-4,1.32l5.51,4A9.08,9.08,0,0,1,165.61,108.63Z"/><path class="cls-31" d="M20.35,107.9h0l.74-.9h0c1.58.16,3.06.35,2.79-2.11-.1-.9,0-2.54,1.76-1.24l.63,1.95h0c-.78,1.66.3,2.91.78,4.3h0c.76,1.39.19,3.33,1.69,4.4a2.29,2.29,0,0,0-.28,1.85l-1.21,1.76c-1.77-2.5-5.27-3.87-4.84-7.82C22.55,108.76,21,108.71,20.35,107.9Zm4.32,2.37c-.22.22-.52.48-.54.74a.38.38,0,0,0,.64.33c.22-.16.3-.52.45-.78C25,110.43,24.71,110.23,24.67,110.27Z"/><path class="cls-49" d="M99.23,127.37h0c1.27-.33,2.57-.9,3.6.36a71.36,71.36,0,0,0,1.77-11.11h0c-1.29-.17-2.83-1.51-3.47,1.12-.23,1-1.39.88-2.27.64h0q0,4.49.08,9h.29Z"/><path class="cls-50" d="M134.12,152.3c1.25-1,.17-2-.65-2.62a2.22,2.22,0,0,0-3,0c-.83.85-1.46,1.75-2.67.86s-2.23-1.73-2-3.35c.08-.74.53-1.47,0-2.16-1.11.51-1.85,2.42-3.47,1.06a3.23,3.23,0,0,0-2.42-1.07h0l1.37,2a35.5,35.5,0,0,0,11.45,8.16h0C135.42,155.36,133,153.15,134.12,152.3Z"/><path class="cls-15" d="M73.92,83.76c-2.42-2.3-4.37-1.23-6.19,1,1.58,1.13,3.81.73,5.35,2,.76.66,1.77,1.07.66,2.22a3,3,0,0,0-.45,4.12,1.29,1.29,0,0,1-.37,2c-.93.48-1.69.91-.78,1.86s1.75,1.78,2.87.14c.64-4.39,1.42-8.79.09-13.09h0C74.7,84,74.17,84,73.92,83.76Z"/><path class="cls-51" d="M150.33,45.07a3.08,3.08,0,0,1,3.18.77h0c.18-1,.17-2.1,1.34-2.65h0c-.59-.46-1.92-.65-.75-1.81s1.75-.28,2.36.54c.35-1.11-.6-2.93,2-2.74,1.35.1,1-1.69,1.63-2.54h0c-.08-.48-.17-1-.25-1.43-1.41,1.25-2.77,1.95-4.26.23-.65-.75-1.59-.52-2.42.05h0c1.5,1.74,2,3.44-.37,5-1.7-.46.93-2.81-1.35-2.88h0c-.93,2.52-2.18,5-2.43,7.65A1.19,1.19,0,0,1,150.33,45.07Z"/><path class="cls-52" d="M176.85,163.22c1.28-.16,2.41-.15,2.13,1.62h0c-.06,1.3-1.27,1.65-2,2.39-1.77,1.72-.6,1.83.92,1.73l1.06-.83c-.08-.9.64-1.29,1.22-1.76,1.16-1.49,2.21-3.13,4.34-3.4-2.88-2.19-5.24-5.1-9-6.12h0A8.28,8.28,0,0,0,176.85,163.22Z"/><path class="cls-53" d="M36.89,197.76A6.05,6.05,0,0,1,33.15,193c-.66-3.34,1-4.62,4.42-3.57a3.62,3.62,0,0,0,.93,0c-2-.23-1-5.92-5-2.49a.24.24,0,0,1-.29,0,.35.35,0,0,1-.13-.08,1.84,1.84,0,0,1-.41-1.33c.41-2-1.1-2.42-2.41-3-.47,1.91.27,3.67.81,6.16l-1.54-1.53h0c.89,3.73,1.91,7.41,4.55,10.33C35.12,196.65,35.61,200,36.89,197.76Z"/><path class="cls-54" d="M159.53,165.27h0c-.09-1.57,3.15-3.48-.25-4.72l-.52.42c-.23,1.36-.88,1.64-1.93.79-.88-.72-1.73-1.45-2.59-2.18l-2.14,1.67c3-.29,1.09,2.66,2.41,3.79,1,.82-1.22.29-1.7,1.11,0,.17,0,.34-.08.52h0l5.19,2.35h0C160,168.36,159.87,166.85,159.53,165.27Z"/><path class="cls-15" d="M76.2,228.42c-.85-1-2.67,1.27-3.2-.78h0l-.53.41.12,2.36c.52.88,1.81,1.59.51,2.87.22.64.43,1.29.65,1.94,1.41,0,1.66,1,1.29,2-.72,1.84.24,2.71,1.38,3.25.66,2.13-2.92.1-1.92,2.41,2.38.49,4.28.11,4.84-2.73.59-1.92-3.26-3.1-.67-5.36l0,0C75.35,232.91,74.54,230.83,76.2,228.42Z"/><polygon class="cls-15" points="78.68 234.74 78.68 234.74 78.68 234.75 78.68 234.74"/><path class="cls-53" d="M221.38,106.57c.38.85-.64,2.37,1,2.57,1.45.17,1.13-1.32,1.7-2a18.91,18.91,0,0,1,1.67-1.55c.36-.55.64-1.26,1.51-.9a1.18,1.18,0,0,1,.76,1.25c0,3.31.87,3.79,3.81,2.28.69-.35,1.44-.59,2.16-.87h0l.48-.39c-3-3.06-7-3.79-11-4.61A3.61,3.61,0,0,1,221.38,106.57Z"/><path class="cls-55" d="M165.71,105.81h0a7.18,7.18,0,0,0,3.71.36c1.89-1.32,3.84.15,5.75-.4l0-.06c1.53-2.51,3.71-2.64,7-1.56-4.41-2.15.28-2.53,0-3.81-3.36,1.55-7.12.25-10.48,1.94-1.84.92-3.48,2.39-5.7,2.32Z"/><path class="cls-17" d="M103.31,101c.77,1.13.48,2.46-1.27,3.11-1.28.48-1,1-.14,1.86a60.05,60.05,0,0,1,3.92,4.64,10.92,10.92,0,0,0,.84-4.53h0c-1.19-2.29.45-5.57-2.28-7.32-2.4.48-2.72-1.83-4-2.83h0c-.23,1.88-.45,3.77-.68,5.66C100.84,100.82,102.1,99.25,103.31,101Z"/><path class="cls-56" d="M65.28,170h0c-.38-.49-.76-1-1.28-1.65,4,.13,6,3.44,9.29,4.37h.08c1.27,0,2,.87,2.95,1.58,1.52,1.16,3,2.85,5.41,1.6a4.33,4.33,0,0,1-.31-.51h0c-1.35-2-4.21-1.86-5.61-3.77-2.34-.75-4.59-1.53-6.23-3.54-1.46-1.76-4.21-1.15-6-2.42-1.83,4,1.65,5.06,3.61,7h0l-1.5-2.11Z"/><path class="cls-3" d="M102.66,113.16h0c-.17-.39-.52-.78-.48-1.16.11-1.29-2.69-1.23-1.41-2.62,1-1.09,2,.86,3.16.87a9.68,9.68,0,0,1,1.88.39h0v0h0A60.05,60.05,0,0,0,101.9,106c-.83-.83-1.14-1.38.14-1.86,1.75-.65,2-2,1.27-3.11-1.21-1.75-2.47-.18-3.63.59a42.74,42.74,0,0,0-.78,11.21C100.49,110.64,101.34,113.53,102.66,113.16Z"/><path class="cls-57" d="M177,109.26c-3.94.51-7.52-1.57-11.56-1.23a3.43,3.43,0,0,0,.17.57v0a9.08,9.08,0,0,0,1.65,2.45c3.48,1.18,6.65,3.11,10.41,3.59C176.79,113,175.64,111.33,177,109.26Z"/><path class="cls-58" d="M52.42,154.69l.11-.13c1-2.82,2-5.61,1.7-8.62h0a5.75,5.75,0,0,1-1.57-3.39c-.17-1.31-.76-2-2.19-1.15-.93,2.91-.46,5.89-.91,8.82C52,150.74,50.56,153.8,52.42,154.69Z"/><path class="cls-59" d="M168.68,40.67c-.35.89-.77.34-1.13,0l-1.07.83c-1,.95-1.59,2.46-.73,3.21,2.69,2.35.23,4.1-.68,6h0c1.34.9,3.43.79,4,2.79a86,86,0,0,0,1-13.09C169.48,39.87,169.07,39.68,168.68,40.67Z"/><path class="cls-60" d="M234.21,107.61l.2.25c2.06,3.18,1.55,4.33-2.07,5.72-1.71.65-2.91,2.33-4.78,2.89-.63.19-1.26.75-1.71,0-.57-.93.4-1.32.93-1.84,0-.31.09-.62.13-.93-1.61-.1-2,2.09-3.61,2-.05.3-.09.61-.14.92l2.54,2.2h0c3.31-.67,6-2.69,8.94-4.17,1.91-1,3.39-1.75,3.29-3.93s-1.57-3.13-3.43-3.74l-.48.39Z"/><path class="cls-9" d="M25.4,153.13c.31-1.94,2-3.55,1.61-5.66-.89,1.77-2.54,1.31-4,1.48h0q-1.58,5.72-3.16,11.43c2.16-.76,2.59.42,2.52,2.16h0a5.38,5.38,0,0,0,2-3.16c-1.84,1-1.46-1-2.06-1.57-.33-.34-.05-.87.34-1.12,1.07-.69,1.86-.13,2.6.55h0a3.81,3.81,0,0,0,.78-2.37C24.39,154.89,25.28,153.88,25.4,153.13Z"/><path class="cls-61" d="M158.18,79.55a2.84,2.84,0,0,1-3.15.26c0,1.4.41,2.81-.22,4.21h0c2.43-1.41,4.94-.46,7.4-.55.76,0,.83.86,1.08,1.43h0c1.13-1.56,1.17-3.33,1.24-5.09h0C162.58,77.92,160.62,77.35,158.18,79.55Z"/><path class="cls-62" d="M190.08,74.14l.31-.24-.39.22Z"/><path class="cls-62" d="M204.28,60.35c-3.66,2.86-8.26,4.5-11.08,8.43-.06.08-.13.15-.18.23-.08,1.46-1.46,1.8-2.32,2.59-.79.62-1.51,1.27-1.3,2.33l.25.08,11.06-8.43h0c1.48-1.42,3.52-2.25,4.47-4.22h0C204.68,61.17,205.7,59.23,204.28,60.35Z"/><path class="cls-44" d="M104.43,92.19h0a2.7,2.7,0,0,1,0-.28A.45.45,0,0,0,104.43,92.19Z"/><path class="cls-44" d="M104.3,89.85h0l.41.48c.6-.07,1.19.14,1.17.73,0,.79-1,.64-1.45,1.13a2.76,2.76,0,0,0,3.72.37c.21-1.62,1.19-1,2-.74l1.21-1.77h0c.28-.37,1.07-.84,0-1-.66-.09-1.07,1.41-1.91.61-1.61-1.54-4.72-1.59-4.67-4.8a2.33,2.33,0,0,0-1.9-2.26h0a8.58,8.58,0,0,0-.84,5.63h0C103.44,87.9,103.21,89.75,104.3,89.85Z"/><path class="cls-63" d="M150.87,146.11c-2,1.6-1.46,2.7.21,4s3.79,2.78,4.26,5.3c1.65-1.52,3.94-2.8.35-4.72-1.29-.7,1.49-2.15.9-3.58a2.77,2.77,0,0,0-2.27-.92c.11.52.8,1.37-.27,1.41s-1.3-.89-1-1.87h0l-2.32-.82h0C150.78,145.35,151,146,150.87,146.11Z"/><path class="cls-12" d="M155.69,150.74c3.59,1.92,1.3,3.2-.35,4.72l-.53.41h0c1,.38,1.27,1,.64,2,1.83,1.24,3.83.15,5.74.11.87,0,1.28-.85,1.2-1.71a1,1,0,0,0-1-1c-.76-.08-1.72,1.47-2.21.09s1-1.81,1.78-2.53c-1.79-.6-.44-1.87-.49-2.85l0,0c-3.36,2.15-2.45-1.46-3.48-2.45h0a.46.46,0,0,0-.37-.26C157.18,148.59,154.4,150,155.69,150.74Z"/><path class="cls-5" d="M158.22,93.48c-.27,3.44-3.32,2.76-5,4a11.17,11.17,0,0,0-.92,6.47c3.23-.27,4.49-2.4,5.32-5.18.31-1-.39-3.51,2.36-2.57h0c.15-.57.3-1.14.44-1.72h0C160.08,93.2,158.28,92.69,158.22,93.48Z"/><path class="cls-64" d="M189.34,74.49l-.5.29A.47.47,0,0,0,189.34,74.49Z"/><path class="cls-64" d="M189.43,74.18a2.13,2.13,0,0,1,0-.25c-.21-1.06.51-1.71,1.3-2.33.19-1.37,1.48-1.79,2.32-2.59h0c0-.09.09-.16.13-.25,1.36-3.15,4.09-5.56,5.41-9.3-3.52,2.07-5.46,5-7.58,7.84l-.07.09h0c-.51,1.65-2.16,2.49-3,3.94-.27,1.53-2.29,1.92-2.47,3.52,1.07-.78,1.94-.11,2.84.28a3.64,3.64,0,0,0,.52-.35l.59-.6Z"/><path class="cls-63" d="M174.29,174.21h0l-5.12-1c-.06-.29-.26-.77-.16-.84.69-.51,2.19,0,2.05-1.54-.12-1.27-1.82-.41-2.25-1.38a4.83,4.83,0,0,0,2.56-1.15c1.55,3,2.09.37,2.91-.65,2.12,0,2.91-2.26,4.7-2.83h0c-.06,1.3-1.27,1.65-2,2.39-1.77,1.72-.6,1.83.92,1.73a4.08,4.08,0,0,0,1,2.45C177.32,172.25,176.52,174.46,174.29,174.21ZM175,172c.46-.36.8-.77.42-1.35a1.65,1.65,0,0,0-2.09.31c-.45.4-.75.91-.14,1.31A1.5,1.5,0,0,0,175,172Z"/><path class="cls-65" d="M135.41,199.52c.6,2.18,2.31,4.66-2.15,5.17-1,.11-1.38,1.56-1.34,2.7a18.5,18.5,0,0,0,3.5.68c3.22,0,4.42-1.58,3.8-4.84l-4.05-5.18A1.42,1.42,0,0,0,135.41,199.52Z"/><polygon class="cls-65" points="135.18 198.02 135.18 198.02 135.18 198.02 135.18 198.02 135.18 198.02"/><path class="cls-29" d="M15,147.14a4.06,4.06,0,0,0,.93,4.43c1,1.25,2.27-.66,3.51-.77.38,0,.75-.45,1.12-.7h0c.3-1.06.61-2.12.91-3.18-1.33-.56-2.31-.28-2.78,1.25-.15.49-.22,1.19-.95,1.1s-1-.82-.83-1.46c.34-1.38-.4-2.78.32-4.13-1.21-2-2.7-2.36-4.56-.52a.88.88,0,0,0,.12.51h0C14.8,144,15.92,145,15,147.14Z"/><path class="cls-15" d="M189.52,101.16c-.49-.13-.9,0-1.07.44-.22.68.35.8.78,1.14,1.24,1,3,.19,4.2,1.07,2-2.85,5.22-2.35,8-3l.12-1h0c-3.52-.92-7.15-.79-10.79-.63h0C191.09,100.26,192.32,101.88,189.52,101.16Z"/><path class="cls-12" d="M69.73,239.92c-1.82-1.78-1.79-4.25-2.27-7,1.89,1.5,3.54.34,5.24-.14v0l-.07-.09c-1.6-2.39-3.49-2.28-5.68-.34-1.6,1.42-3.28,2.85-5.18.38l2,3.09a22.21,22.21,0,0,0,6.35,4.81l-.4-.69Z"/><path class="cls-66" d="M164,63.82h0l-.94-.1c-.75,2.4-5.21,3.13-3.38,6.7h0c.84.4,1.09.19,1.65-.74.82-1.38,2.78-1.63,3.3-.86.87,1.31.87,1.31,2.32,0h0c.2-1.25.41-2.5.61-3.75C166,65.71,165.19,64.33,164,63.82Z"/><path class="cls-19" d="M32.88,127c-1.86,2.48-1.61,4.77-.25,7.66.11.24.22.48.35.74l-.72-.56c-.61-.48-.84-.71-1.12-.78-1.42-.34-2.57.63-3.71,1.23-.48.25-.3,1.67.23,1.62,1.91-.2,3.05,1.89,5,1.24l1.83-6.48h0C31.93,131.07,33.77,128.53,32.88,127Z"/><path class="cls-67" d="M56.4,118.91c.41.42.94.74,1.26,0,1-2.26,2.14-1.75,3.45-.56h0c.83-2.55,1.67-5.09,2.5-7.63h0l-.21-.51c-1.2.66-2.62.93-3.61,2-.54,2.55-1.41,4.56-4.57,2.92a4.56,4.56,0,0,0-.62,2.68h0C55.55,117.65,55.94,118.32,56.4,118.91Z"/><path class="cls-68" d="M69.58,168.07c1.64,2,3.89,2.79,6.23,3.54l.06-.1c-1.87-1-2.12-2.92-2.81-4.63-.41-1,.56-1,1-1.36h0c-3.45-.87-6.91-1.69-10.46.13C65.37,166.92,68.12,166.31,69.58,168.07Z"/><path class="cls-69" d="M66.73,212.92l-2.4.24c-.51.75-2.46,1-1.09,2.42,1.23,1.29,3.16,1.87,3.85,3.7,1-1.59,3-.56,4.13-1.68a5.3,5.3,0,0,0-3-4C67.79,213.21,67.39,212.8,66.73,212.92Z"/><path class="cls-11" d="M14.47,171.06h0a1.14,1.14,0,0,0,1.36-.25h0c-.69-1.09-.18-2.27-.12-3.43.13-2.47,1.69-4.74,1.4-7.26-2.24-2.94-3.71.46-5.54.94h0a3.06,3.06,0,0,0,.76,2.77C16.12,165.22,14.3,168.47,14.47,171.06Z"/><path class="cls-49" d="M104.37,98.76c0-.39-.07-.91.14-1.15.4-.44.66.07.93.31,1-1.16-2.15-1.69-.35-2.88,1.44-1,1.79.58,2.51,1.22a6,6,0,0,1,.55-3.7,2.76,2.76,0,0,1-3.72-.37h0c-.52.82.88,1.88-.44,2.57-.59.3-1-.11-1.36-.49a2,2,0,0,1,0-2.87,12.4,12.4,0,0,1,1.68-1.55c-1.09-.1-.86-1.95-2.28-1.63h0c-1.47,2.42-1.49,5.08-1.66,7.71h0C101.65,96.93,102,99.24,104.37,98.76Z"/><path class="cls-69" d="M160.46,149.86s0,0,0,0c0,1-1.3,2.25.49,2.85,2.27,1.56,5.81.37,7.55,3.08h0c.38,1.68,1.17.71,1.89.19l.6-1.32h0l-.33-.64h0c-3.1-1.78-6.14-3.68-9.71-4.56l-.49.38Z"/><path class="cls-70" d="M143.76,94.34c2.1,1.79,2.08,1.78,4,.47.54-.37,1,0,1.48.25.89.42.61,1.53,1.19,2.14.24-1.54.48-3.08.71-4.62h0c-3.52,1.42-.93-3-3.2-3-.43,2.73-1.28,4.85-3.88,1.42-.17-.23-.82-.11-1.26-.16h0c0,1.1,0,2.21,0,3.31h0C143.16,94.18,143.55,94.16,143.76,94.34Z"/><path class="cls-37" d="M79.88,182.34a1.39,1.39,0,0,0-.24-1.49h0c0-1.35-.24-2.26-1.94-2.66S74,177.07,74,174.65c-.6-.94-1.8-.73-2.65-1.2-1.16-1.13-3-1.38-3.71-3.18a1.56,1.56,0,0,0-2.31-.28h0l.39.52c2.11.74,2.7,2.87,4,4.3h0a41.58,41.58,0,0,0,7.43,5.6C78.9,179.93,79.07,181.56,79.88,182.34Z"/><path class="cls-71" d="M123.76,192.27a7.2,7.2,0,0,0,3.93.9l-1.16,2.65c1.63,0,1.4,3.68,4,1.8-.33-1,2-1.25.79-2.46h0c-3.24-3-6.3-6.19-10.56-7.88.74,1.27,1,2.9,2.78,3.35C124.7,190.93,124.45,191.57,123.76,192.27Z"/><path class="cls-72" d="M223.55,17.92c2-2.1,4.49-4.12,3.89-7.5L227,9.75h0c-2.67,2.34-6,4.14-7,7.88h0C221.26,17.35,222.49,19,223.55,17.92Z"/><path class="cls-73" d="M171,154.68h0c.8,1.08.75,2.68,2.26,3.35,1,.44.74,1.51.38,2.3-1.1,2.44-1,5.06-1.74,7.56h0c.69-.58,1-1.59,2.13-1.65l2.82-3a8.28,8.28,0,0,1-1.33-6.36h0L170.67,154h0Z"/><path class="cls-10" d="M59.79,112.2c-.91-1-.73-2-.44-3.24.44-2-.11-3.37-2.57-1.77a39.46,39.46,0,0,0-1.56,7.93h0C58.38,116.76,59.25,114.75,59.79,112.2Z"/><path class="cls-58" d="M51.83,160.73h0c.22-2,.43-4,.65-6h0l-.06,0c-1.86-.89-.44-3.95-2.86-4.47-1.39,3.88-.24,7.55.34,11.27h0l.87.89Z"/><path class="cls-60" d="M52.62,223.52c.87.8,1.35,2.66,2.93,1.75,1.18-.69,1.07-2.21.68-3.38-1.45-.43-1.4,1.42-2.5,1.37-.6-.94-1.19-1.88-1.79-2.81l0-.07c-2.86-1.48-4-4.51-6.06-6.71h0l-1.6-2a1.21,1.21,0,0,1-1.86-.19h0l7.09,9.17C51.26,220.8,51.57,222.55,52.62,223.52Z"/><path class="cls-69" d="M36.69,76.41c1.57,1.64,3.12.85,4.62-.39h0c-.55-2.57-2.58-3.22-4.84-3.49s-3.42,1.26-4.24,3.11C33.39,77.34,35.42,75.07,36.69,76.41Z"/><path class="cls-72" d="M31,79.63c1-2,2.7-.64,4-1,2.56-.62,4.36,2.73,7,.79h0c-.24-1.14-.49-2.29-.73-3.43h0c-1.5,1.24-3.05,2-4.62.39-1.27-1.34-3.3.93-4.46-.77a6.79,6.79,0,0,0-1.95,3.06h0Z"/><polygon class="cls-41" points="36.13 202.41 36.13 202.41 36.13 202.41 36.13 202.41"/><path class="cls-41" d="M42.37,211.45a1.21,1.21,0,0,0,1.86.19c-1.08-1.4-2.18-2.79-3.24-4.2-.6-.8-1.63-1.56-.43-2.74,1.3-1.41.17-1.6-.87-1.72-1.32-.15-2.33-.65-2.44-2-.12-1.57,1.56-1.26,2.29-2-.08-.78.59-1.63-.11-2.36l-2.55,1.16h0c-1.28,2.2-1.77-1.11-2.85-.26.24.63,1,1.08.68,1.91.53,1,1.82,1.55,1.41,3,1.27,2,3.6,3.35,3.86,6l.4.5A2.06,2.06,0,0,1,42.37,211.45Z"/><path class="cls-74" d="M119.82,145h0a3.23,3.23,0,0,1,2.42,1.07l1.47-.33h0c-.22-.64-.43-1.29-.65-1.93-1.23.14-2.48.29-1.19-1.53-2-.89-4-1.88-6.11-2.61-1-.35-2.69-.67-1.79,1.54h0l3,2.44c1.4.11,1.86,1.24,2.47,2.21h0c.5.51.83,1.27,1.77,1.14l-1.37-2Z"/><path class="cls-72" d="M236,3.75c1,1.83,2.45,2.14,4.4,1.12s-1.31-1.48,0-2.5c1.25.9,2.82,0,4.26.36-1.08-3-2.84-3.45-7.28-1.7h0C236.25,1.63,236.18,2.71,236,3.75Z"/><path class="cls-75" d="M101.13,117.74c.64-2.63,2.18-1.29,3.47-1.12h0c.23-.91,1.13-1.74.46-2.74-.59-.82-1.59-.5-2.4-.72h0c-1.32.37-2.17-2.52-3.76-.36a14.76,14.76,0,0,0,0,5.58h0C99.74,118.62,100.9,118.7,101.13,117.74Z"/><path class="cls-76" d="M59.29,143.24c0,.26-.36.53-.55.8,1.68.36,1.83-1.25,2.51-2,1-1.15,1.87-1.82,3.16-.66-.1-1.72,2.13-2.69,1.7-4.52h0C60.24,136.69,59.34,137.55,59.29,143.24Z"/><path class="cls-77" d="M95.44,189.73c-1.56-1.2-1.69-2.46-.92-4.13h0c-.55-.64-1.09-1.29-1.64-1.94h0l-.49.34h0l-.15.06c-2.23.62-2.81,3.35-1.22,5.93l3.51,1.31h0C95,190.86,97.24,191.1,95.44,189.73Z"/><path class="cls-78" d="M73.06,166.88c.69,1.71.94,3.66,2.81,4.63,3.21,0,3-2.47,3.46-4.46h0A8.82,8.82,0,0,0,74,165.52h0C73.62,165.92,72.65,165.84,73.06,166.88Z"/><path class="cls-45" d="M27.64,144.07c-2.07-.19-2.76.6-1.41,2.38l.78,1h0c.43,2.11-1.3,3.72-1.61,5.66-.12.75-1,1.76.67,1.74A37.36,37.36,0,0,0,30.36,145h0A11.12,11.12,0,0,0,27.64,144.07Z"/><path class="cls-6" d="M76.42,240.43c-1.14-.54-2.1-1.41-1.38-3.25.37-1,.12-2-1.29-2-1.34,1.57-2.68,3.13-4,4.7l.4.69a7.33,7.33,0,0,0,4.36,2.23C73.5,240.53,77.08,242.56,76.42,240.43Z"/><path class="cls-15" d="M64.62,90.93c.61-1,1.39-1,2.26-.58,1.22-1.7-1.51-3.44.31-5.13l-2.46.2h0c-3,1.58-2.88,4.62-3.81,7.18h0A3.46,3.46,0,0,0,64.62,90.93Z"/><path class="cls-79" d="M67.19,85.22l.54-.42c1.82-2.27,3.77-3.34,6.19-1,.25.24.78.21,1.18.31h0c-1.43-4.75-4.15-5.76-7.36-2.62a31.85,31.85,0,0,0-3,4h0Z"/><path class="cls-80" d="M185.48,74.85h0c.18-1.6,2.2-2,2.47-3.52-.78-2.57-.18-4.15,3-3.94h0a.69.69,0,0,0,0-.13c-.8-2.44-2.44-1.67-4.12-.73h0c-1.81,2.46-2,5.45-3.17,8.14h0A1.23,1.23,0,0,0,185.48,74.85Z"/><path class="cls-65" d="M207,116.05c-.93-1-2.4-1.23-2.54-.83-1.07,3.21-4.31,1.85-6.21,3.25-.71.52-1.68.62-1.6,1.77,2.58.94,5.32-.13,8,.24h0C204.41,118.59,203.85,116.56,207,116.05Z"/><path class="cls-81" d="M33.14,173.17c-1.17-.61-2.23-.86-2.61,1h0c.13.18.25.36.37.55h0a.75.75,0,0,0,.07.12c.47.93.94,1.86,1.42,2.78,2.46-1.78,3.54-.77,4,1.71a14,14,0,0,0,.66,2.08,4.34,4.34,0,0,1-.63-.37,1,1,0,0,0,.63.37l.8,1h0l.52-.39c1.13-2-1.73-3.38-.63-5.38h0l-2.54-2.1C34.15,174.53,33.85,173.55,33.14,173.17Z"/><path class="cls-82" d="M18.78,119.62a3.1,3.1,0,0,0,4-.27c1.46-1.14-.4-1.41-.82-2.06-.3-.46,0-.79.23-1.18,1.16-2.33.22-2.27-1.56-1.32a2,2,0,0,1-1.89-.09c-1.19,1.31-1.11,3-1.51,4.52h0C18,118.51,18.32,119.26,18.78,119.62Z"/><path class="cls-12" d="M232.26,25.46c.22,1.29-.15,2.13-1.67,1.92-.94-.13-1.69,0-2.09,1l-.95,3.2c2.55.54,3.6-2.25,5.69-2.75h0a8.39,8.39,0,0,0,2.41-3.45h0C234.57,23.29,233.4,24.77,232.26,25.46Z"/><path class="cls-45" d="M211.18,30.42c1.69-2.19,4-3.65,6-5.51,0-.31.1-.62.14-.93-.76-2.49,2.82-3.53,2.3-5.93h0c-1.74,1.81-3.24,3.81-5,5.66s-3.95,3.4-3.88,6.25Z"/><path class="cls-31" d="M157.1,25.07c4.9-3.7,4.91-3.69,9.65-.09.23.17.62.13.94.18-.72-5.68-3.15-6.76-8.12-3.61-.19,1.63-1.82,2-2.73,3h0a1.46,1.46,0,0,0,.22.53l0,0S157.09,25.06,157.1,25.07Z"/><path class="cls-44" d="M71.48,113l-2.63-1.35h0c-1.45,1.42-1,2.58.43,3.44.92.55,2,.9,2.22,2.09.74-3.4,2-6.71,2.27-10.19h0C71.57,108.39,70.94,110.41,71.48,113Z"/><path class="cls-31" d="M152.73,166.67a.72.72,0,0,1,.08-.52c.48-.82,2.66-.29,1.7-1.11-1.32-1.13.56-4.08-2.41-3.79a4.68,4.68,0,0,0-3.79,3h0a14,14,0,0,0,4.42,2.42Z"/><path class="cls-83" d="M157.62,98.78c-.83,2.78-2.09,4.91-5.32,5.18.54.94-1,2.49.61,3,1,.32,1.09-.82,1.48-1.42.39-1.85,2.27-2.27,3.39-3.42h0l1.69-3.06h0l.51-2.88h0C157.23,95.27,157.93,97.73,157.62,98.78Z"/><path class="cls-25" d="M148.13,53.3h0c.71-1.23,1.1-2.68,2.43-3.51.34-2.5,2-1.3,3.2-1.13.76-1.18-.81-1.82-.24-2.81h0a3.08,3.08,0,0,0-3.18-.77c-.11,3.79-.11,3.79-2.05,4h0a5.79,5.79,0,0,0-.78,4.68Z"/><path class="cls-84" d="M148.83,67.46h0L150,65.7a1.44,1.44,0,0,1,.68-1.34l-.8-1c-1.41,1.3-3.92,1.31-4.38,3.71-.27-.14-.53-.29-.79-.44h0a6,6,0,0,0-.61,3.66C146.11,70,146.93,67.83,148.83,67.46Z"/><path class="cls-85" d="M204.88,47.19c.5-3.44,1.92-2.32,3.13-2.06h0c1.36-1.89-.18-2.59-1.38-3.18a22.27,22.27,0,0,0-3.72-1.11l-.61,1.38A10.76,10.76,0,0,1,204.88,47.19Z"/><path class="cls-3" d="M38.34,181.94c1.17.23,2.23-.64,3.49-.37s.89,2,2.32,2.13c0-1.64-1.34-2.29-1.83-3.4h0c-1.3-1.52-2.54-3.12-4.6-3.74h0C36.61,178.56,39.47,179.92,38.34,181.94Z"/><path class="cls-86" d="M153.19,35.49c.83-.57,1.77-.8,2.42-.05,1.49,1.72,2.85,1,4.26-.23,0-1.45-.69-3-2.13-2.16-1.83,1.13-3.11,0-4.62.08h0c-.31.74-.62,1.49-.92,2.23Z"/><path class="cls-87" d="M99.22,179.5a42,42,0,0,1,4.76.86q-1.38-2.49-2.75-5l-.18-.22-.28-.08h0C96.78,175.51,99.21,177.86,99.22,179.5Z"/><path class="cls-88" d="M227.55,31.57c-1.63,1.09-1.8,2.33-.57,3.7.1.49.19,1,.29,1.46h0a41.64,41.64,0,0,0,6-7.91h0C231.15,29.32,230.1,32.11,227.55,31.57Z"/><path class="cls-89" d="M180.05,110.94c-1.09-.43-2.43-.46-3.05-1.69h0c-1.35,2.07-.2,3.71.68,5.41l1.78.81h0C181.73,114.13,180.22,112.48,180.05,110.94Z"/><path class="cls-90" d="M211,118.69h0l-.64-1.93c-1.38-.8-2.19-.6-3.8.54-2.41,1.69,1.4,2.25-.07,3.26a3.91,3.91,0,0,0,3.31.08C209.68,119.69,210.38,119.21,211,118.69Z"/><path class="cls-72" d="M40.26,97.22c-1.33,1.52-2.87,3-2.63,5.26,1.15-1.72,2.69.49,3.91-.56a6.41,6.41,0,0,0,.34-4.09h0C41.5,97.24,41.17,96.2,40.26,97.22Z"/><path class="cls-10" d="M130.5,197.62c.47.87-.67,1.83.14,2.91,1.4-1.58,3.25.16,4.77-1a1.42,1.42,0,0,1-.24-1.47h0s0,0,0,0h0a8.38,8.38,0,0,0-3.89-2.86h0C132.49,196.37,130.17,196.65,130.5,197.62Z"/><path class="cls-91" d="M146.87,83.65c.41-1.66-1.1-2.51-2.69-2.89a3.91,3.91,0,0,1-1-.69c-.81,1.69-.27,3.41-.35,5.11C144.38,85.24,146.38,85.63,146.87,83.65Z"/><path class="cls-92" d="M125.35,141.24v0A2.2,2.2,0,0,1,128,142.5h0l3.58,1.34v-.14a1.2,1.2,0,0,1,.28-1.84h0c-2.8.34-.46-1.61-1-2.3h0c-2.28.21-4.49-1.07-6.81,0C124.52,140.12,124.93,140.68,125.35,141.24Z"/><path class="cls-93" d="M156,33c1.59-.84,3.07-1.79,1.94-3.35s-.62-3.07-.88-4.6c0,0,0,0,0,0l0,0c-1.08,1-2.67,1.64-2.39,3.5h0C156.14,29.62,155.87,31.36,156,33Z"/><path class="cls-12" d="M101.42,133.68h0a8,8,0,0,0,1.3-5c-1.83,1.16-2.71.08-3.49-1.27h-.29c-.77,2,.11,3.78.14,5.67C100.2,132.24,100.85,132.85,101.42,133.68Z"/><path class="cls-15" d="M62.48,228.47c-.48-.41-.89-1.07-1.45-1.19-1.34-.3-3-1.71-4-.58-1.17,1.34,1.09,2.19,1.47,3.45h0a.55.55,0,0,0,.29.36h0A7.64,7.64,0,0,0,62.48,228.47Z"/><path class="cls-28" d="M166.08,59.77l.24,1.43c-.08,1.44-1.49,1.77-2.28,2.62h0c1.15.51,2,1.89,3.56,1.26a1.94,1.94,0,0,0,.34-1.82,1.78,1.78,0,0,1,.57-2.84h0c.08-.58.15-1.16.23-1.75h0C167.1,57.06,166.94,59.34,166.08,59.77Z"/><path class="cls-49" d="M114.52,94.13a4.17,4.17,0,0,1,1.06,2.45c1.2.44-1.36,3.64,1.88,2.58l.81-4.65A2.76,2.76,0,0,0,114.52,94.13Z"/><path class="cls-94" d="M29.49,187.17,31,188.7c-.54-2.49-1.28-4.25-.81-6.16h0c-.43-1.3-1.41-2.39-1.31-3.88h0c-1.2-.43-1.16.8-1.69,1.28h0a3.84,3.84,0,0,0,.61,2.84A6,6,0,0,1,29.49,187.17Z"/><polygon class="cls-94" points="29.49 187.18 29.49 187.18 29.49 187.18 29.49 187.18"/><path class="cls-27" d="M149.92,63.35c-.08-.48-.17-1-.25-1.44-1.45.81-2.82,0-4.24,0h0c-1,1.48,0,3.15-.68,4.67h0c.26.15.52.3.79.44C146,64.66,148.51,64.65,149.92,63.35Z"/><path class="cls-95" d="M23.88,104.89c-.1-.9,0-2.54,1.76-1.24.51-.87.36-2,1.34-2.69h0c-1.44-1-2.57,2-4.05.51h0c-.12,2-1.84,3.51-1.84,5.53h0C22.67,107.16,24.15,107.35,23.88,104.89Z"/><path class="cls-96" d="M27.76,173.8h0c1-.18,1.67,1.35,2.78.32h0c.38-1.82,1.44-1.57,2.61-1,.71.38,1,1.36,2,1.29-.52-.93-1.78-1.48-1.41-2.86h0c-1.88-1-3.81,0-5.68.27C26.67,172.05,27.37,173.08,27.76,173.8Z"/><path class="cls-6" d="M76.2,228.42c-1.66,2.41-.85,4.49,2.45,6.35a14.85,14.85,0,0,0-1.44-6.28Z"/><path class="cls-97" d="M187.7,172.79c-1.7.32-3.29-1.11-5.25-.07.6,1.05,1.59,1.82,1.51,3.08a5.15,5.15,0,0,0,3.88-.57C187.32,174.47,186.6,173.72,187.7,172.79Z"/><path class="cls-98" d="M231.74,4.25c.1-.12.2-.26.31-.37C232,4,231.84,4.12,231.74,4.25Z"/><path class="cls-98" d="M227.44,10.42c2.16-2,5.1-3.17,6.57-5.93-1.29-1.26-2.09.22-3.07.7h0c-1.68,1.22-2.59,3.06-3.93,4.56h0Z"/><path class="cls-82" d="M148.22,58.53c.92-1.92-.38-3.48-.09-5.23h0l-.63.46c-1.34,1.93-1.59,4.13-1.9,6.31h0C147,60.45,147.58,59.87,148.22,58.53Z"/><path class="cls-99" d="M117.53,136.74h0c-.5.6-2.35,1.31-.07,1.77,2.78.57,5.24,1.86,7.89,2.73-.42-.56-.83-1.12-1.24-1.69l-5.23-2.34h0A1.25,1.25,0,0,1,117.53,136.74Z"/><path class="cls-8" d="M221.38,106.57a3.61,3.61,0,0,0,2.08-4.21l-2.32-.6c-.5,1.23-1,2.47-1.49,3.7C220.1,106,220.46,106.7,221.38,106.57Z"/><path class="cls-81" d="M73,227.64h0c.53,2.05,2.35-.22,3.2.78l1,.07c.34-1.36-.42-2.17-1.36-2.9h0C74.12,225.18,72.46,224.86,73,227.64Z"/><path class="cls-6" d="M201.44,100.84a5,5,0,0,1,2.5,2.13h0c.79-.51,1.4-1.47,2.54-1.16.7-.56,1-1.58,2.12-1.65-2.22-1.35-4.74.15-7.05-.36h0Z"/><path class="cls-28" d="M17.19,143.68c.23-.45.46-.89.68-1.34h0c-1-2-3.21-2.54-4.8-3.82h0c-.15,1.55-.29,3.1-.44,4.66h0C14.49,141.32,16,141.66,17.19,143.68Z"/><path class="cls-100" d="M14.47,171.06h0c-.17-2.59,1.65-5.84-2.14-7.23.45,1.59-.35,3.45.91,4.85h0C13.67,169.46,13.61,170.51,14.47,171.06Z"/><path class="cls-45" d="M13.35,153.49c.75-1.07-.07-2.29-1.67-2.35-1.17,2,.06,4.05-.28,6.08h0C14.05,157,12.5,154.7,13.35,153.49Z"/><path class="cls-101" d="M19.88,160.38c-.29,1.06-.57,2.13-.86,3.19,1-.36,1.49.09,1.55,1.08l1.1-.79h0c.24-.44.48-.88.73-1.32h0C22.47,160.8,22,159.62,19.88,160.38Z"/><path class="cls-102" d="M101.42,133.68h0c-.57-.83-1.22-1.44-2.34-.65-.41,2.06.75,3.74,1.14,5.6h0C101.6,137.17,101.31,135.39,101.42,133.68Z"/><path class="cls-103" d="M152.82,40.54c2.41-1.61,1.87-3.31.37-5h0l-1-.13c-.24.77-.49,1.53-.73,2.3h0C153.75,37.73,151.12,40.08,152.82,40.54Z"/><path class="cls-104" d="M53.43,160.41a1.57,1.57,0,0,1-1.6.32h0l-1.06,1.65c.38,1.09-.84,3,.35,3.26,2,.45.56-1.88,1.52-2.59a14.91,14.91,0,0,0,1.66-1.62h0l.73-1.32h0C54.51,160.31,54,160.7,53.43,160.41Z"/><path class="cls-41" d="M218.18,105.79c.09.47.17.95.26,1.43,1.75.29.68-1.25,1.21-1.76.5-1.23,1-2.47,1.49-3.7l-.78-.21h0C218.31,102.35,218,104,218.18,105.79Z"/><path class="cls-2" d="M189.65,74l-.22.17h0l-.59.6.5-.29.66-.37.39-.22a39.76,39.76,0,0,0,10.32-8.32h0Z"/><path class="cls-53" d="M214.12,117.38a2.15,2.15,0,0,0-3.11,1.31h0c-.63.52-1.33,1-1.2,2a1.43,1.43,0,0,0,1.79.15h0Z"/><path class="cls-72" d="M19.35,123.23l-3.33,1h0c-.09.67-.18,1.35-.26,2h0C17.92,126.38,19.62,126,19.35,123.23Z"/><path class="cls-66" d="M22.69,156.69c-.39.25-.67.78-.34,1.12.6.61.22,2.52,2.06,1.57a2.57,2.57,0,0,0,.88-2.14h0C24.55,156.56,23.76,156,22.69,156.69Z"/><path class="cls-8" d="M227,35.27c-1.28.37-2.82-.3-3.94,1.11,1.13,1.25,2.25,2.06,3.87.7h0a.84.84,0,0,0,.35-.35h0C227.17,36.24,227.08,35.76,227,35.27Z"/><path class="cls-31" d="M29.67,87.08c.48-.2.5-.94.19-1.06-1.08-.44.55-3-1.83-2.27a2,2,0,0,0-.71,2.2h0C27.94,86.64,28.47,87.58,29.67,87.08Z"/><path class="cls-25" d="M118,84.07c-.16,1.28-.26,2.69,1.5,3.06a5.43,5.43,0,0,0,.61-3.75h0C119.45,83.77,118.22,82.51,118,84.07Z"/><path class="cls-54" d="M146.74,112.32c.7-2-.72-3.08-1.69-4.38l-.82-.12,1.08,4.85h0A1.2,1.2,0,0,0,146.74,112.32Z"/><path class="cls-46" d="M234,4.49h0c.6-.45,1.14-1,2-.74h0c.16-1,.23-2.12,1.37-2.72h0a12.57,12.57,0,0,0-5.34,2.85c-.11.11-.21.25-.31.37a7.34,7.34,0,0,0-.8.94h0C231.92,4.71,232.72,3.23,234,4.49Z"/><path class="cls-29" d="M38.86,83.14c1.16.9,2,1.9,3.49,1.94.72-.84.4-1.58-.1-2.3h0C41.25,82.68,40.24,82.26,38.86,83.14Z"/><path class="cls-12" d="M150.33,45.07a1.19,1.19,0,0,0-1.29.24h0c-.25,1.26-.5,2.52-.76,3.77h0C150.22,48.86,150.22,48.86,150.33,45.07Z"/><path class="cls-63" d="M160.44,149.87h0l.49-.38a5.6,5.6,0,0,0-4-2.06h0C158,148.41,157.08,152,160.44,149.87Z"/><path class="cls-105" d="M104.18,131.56c-.15.95-.29,1.9-.44,2.85a1.54,1.54,0,0,0,1.48-.37h0c1.09-.76,1.39-2,1.84-3.08l-1.33-.6Z"/><path class="cls-88" d="M201.73,42.62a5.5,5.5,0,0,0-2.06,3.15h0C202.08,45.77,204.07,45.51,201.73,42.62Z"/><path class="cls-106" d="M168.36,38.39c-.78.6-1.57,1.2-.81,2.27.36.35.78.9,1.13,0s.8-.8,1.31-.22l-.09-2.38h0Z"/><path class="cls-107" d="M162.84,105.22c-.26,1-1.24.73-1.93,1l.35.63h0l.49.27h0a5.56,5.56,0,0,1,4-1.32h0l.24-1.21c-1.27-.23-2.5-.77-3.86-.26C162.35,104.64,162.9,105,162.84,105.22Z"/><path class="cls-6" d="M79.34,240.11c.85-2,.12-3.67-.66-5.37h0C76.08,237,79.93,238.19,79.34,240.11Z"/><path class="cls-78" d="M67.68,125.69c-.72.61-1.15,1.33-.68,2.21s1.21.53,1.91.17h0l.36-2.8h0A1.63,1.63,0,0,1,67.68,125.69Z"/><path class="cls-49" d="M187.69,166.19a8.39,8.39,0,0,0-2.41-2.95h0C183.27,166.51,186,166,187.69,166.19Z"/><path class="cls-108" d="M160.91,106.23c.69-.28,1.67,0,1.93-1,.06-.23-.49-.58-.75-.88a1.53,1.53,0,0,0-.4-.26h0C160,104.34,159.58,105,160.91,106.23Z"/><path class="cls-60" d="M36.13,202.38h0c.7,2.39,2.44,4.1,3.86,6C39.73,205.73,37.4,204.41,36.13,202.38Z"/><path class="cls-85" d="M107.05,70.51c.48-.3.94-.75.73-1.32-.36-1-1.13-.67-1.85-.29-.06.26-.12.52-.17.78h0C106.12,70.05,106,71.13,107.05,70.51Z"/><path class="cls-3" d="M135.17,198.05h0l4.05,5.18c-.42-2.45-2-4-4.05-5.18Z"/><path class="cls-57" d="M65.67,170.51l1.5,2.11h0c.78.81,1.17,2,2.55,2.19h0C68.37,173.38,67.78,171.25,65.67,170.51Z"/><path class="cls-109" d="M103.74,134.41c-.15.94-2.09,1.81-.27,2.83h0l1.73-3.19h0A1.54,1.54,0,0,1,103.74,134.41Z"/><path class="cls-110" d="M187.7,172.79c-1.1.93-.38,1.68.14,2.44.82-.13,1.12-.83,1.54-1.39h0l-1.68-1.05Z"/><path class="cls-111" d="M154.05,147.65c1.07,0,.38-.89.27-1.41l-1.28-.46h0C152.75,146.76,153.11,147.69,154.05,147.65Z"/><path class="cls-53" d="M29.49,187.18h0a6,6,0,0,0-1.67-4.39,7.09,7.09,0,0,0,1.67,4.39h0Z"/><path class="cls-38" d="M207.25,34.23c-1,1-2.09,2-2.3,3.49h0C206.14,36.82,207.26,35.87,207.25,34.23Z"/><path class="cls-16" d="M159.57,21.55c-1,.91-2.58,1.32-2.73,3h0C157.75,23.53,159.38,23.18,159.57,21.55Z"/><path class="cls-6" d="M66.73,212.92c.66-.12,1.06.29,1.47.67.11-1.1-.69-1.72-1.26-2.46h0A1.18,1.18,0,0,0,66.73,212.92Z"/><path class="cls-60" d="M40.39,208.91l2,2.54h0A2.06,2.06,0,0,0,40.39,208.91Z"/><path class="cls-69" d="M79.64,180.85h0a1.39,1.39,0,0,1,.24,1.49h0s0,0,0,0a.56.56,0,0,0,.42.42c.32-.24.95-.55.92-.7A1.39,1.39,0,0,0,79.64,180.85Z"/><path class="cls-60" d="M36.13,202.38c.41-1.42-.88-2-1.41-3-.32,1.39.87,2,1.41,3h0s0,0,0,0Z"/><path class="cls-30" d="M117,143.66c.7.87,1.22,1.94,2.47,2.21h0C118.82,144.9,118.36,143.77,117,143.66Z"/><path class="cls-69" d="M79.89,182.35h0c-.81-.78-1-2.41-2.73-1.92,1,.48,1.47,1.75,2.73,1.93Z"/><path class="cls-27" d="M167.94,63.26l.57-2.83h0A1.78,1.78,0,0,0,167.94,63.26Z"/><path class="cls-10" d="M106.65,183.52c.27,1-1.48,1.56-.59,2.82,1.27-1.08,2.53-1.33,3.73,0a1.33,1.33,0,0,0,2.26-.06c1.85-2.53,2.9-.86,4,.51.23-.44.46-.89.68-1.34-1.46-2-4-2.09-6-3-.24-.12-.08,1.78-1.37,1.08-.72-.39-.78-1.18-.82-2s-.59-.6-1.09-.32l0,0Z"/><path class="cls-112" d="M104.09,187.93h0l-4.49-2.26c-.2.76.2,1.68-.71,2.26h0c1.81,1.23,3.64,2.44,5.44,3.69.55.38.78,1.55,1.72,1s-.06-1.28-.16-1.93a14.35,14.35,0,0,1-.08-1.61h0Z"/><path class="cls-113" d="M99.6,185.68c-.43-1.12-1.7-1.29-2.41-2.09h0c-1.15,0-1.82-1.4-3.14-.92l-1.17,1h0c.55.65,1.09,1.3,1.64,1.94h0c2.06-.26,2.61,2.08,4.37,2.34h0C99.8,187.36,99.4,186.44,99.6,185.68Z"/><path class="cls-10" d="M116.07,186.8c-.95.4-2.65-.41-2.79,1s1.4.66,2.25.69a1.61,1.61,0,0,1,1.65,1.23c.26.9.75,1.3,1.64.6s1.23-1.62.45-2.5a31.26,31.26,0,0,0-2.52-2.35C116.53,185.91,116.3,186.36,116.07,186.8Z"/><path class="cls-114" d="M127.69,193.17a7.2,7.2,0,0,1-3.93-.9c-.85.33-2.23.12-2,1.65.18,1.13.71,2,2.15,1.85a20.67,20.67,0,0,1,2.61,0h0Z"/><path class="cls-115" d="M114.6,193.77a26,26,0,0,0-7.44-4.57C107.62,192,110.71,193.88,114.6,193.77Z"/><path class="cls-37" d="M125.06,197.34c-1.64.11-3-.24-3.35,1.42a1.2,1.2,0,0,0,1.22,1.53C124.83,200.33,124.2,198.6,125.06,197.34Z"/><path class="cls-28" d="M155.52,71.7c1.12-.85,2.2-1.82,3.67-.87l0,0,.5-.39h0c-1.83-3.57,2.63-4.3,3.38-6.7-.43-.5-1.18-1.09-1.64-.71a6,6,0,0,1-6.86.8c-.28.75-.55,1.5-.83,2.26l0,.14c1.39,3.45-.23,6.29-2.39,9a4,4,0,0,0,2.1,1.6h0l.3-1.81C155.13,74.25,154.4,72.56,155.52,71.7Z"/><path class="cls-27" d="M158.05,74.69c1.25,1.28,2.8.91,3.67-.92,1.32-2.77-2.09-1.58-2.52-2.92a0,0,0,0,1,0,0c-1.47-1-2.55,0-3.67.87s-.39,2.55-1.69,3.32l1.72,1.09C155.87,74.72,155.15,71.69,158.05,74.69Z"/><path class="cls-27" d="M152.33,81.9c-1,.76-1.61,0-2.38-.32-.51-.2-1.5.19-1.28.41,1.86,1.84.66,3.13-.71,4.61-.28.31.56.77,1.15.72,1-.08,2-.19,2.94-.29h0c.08-1.53.16-3.07.25-4.6l0-.53Z"/><path class="cls-116" d="M145.05,107.94c1,1.3,2.39,2.4,1.69,4.38.44-1.45,4.72-1.06,2.11-4h0A2.86,2.86,0,0,0,145.05,107.94Z"/><path class="cls-5" d="M154.39,105.57c1.13-1.14,3-1.61,3.39-3.42h0C156.66,103.3,154.78,103.72,154.39,105.57Z"/><path class="cls-27" d="M152.33,81.9h0a1.93,1.93,0,0,0,.44-2.79h0C151.68,79.94,152.19,80.94,152.33,81.9Z"/><path class="cls-95" d="M236,3.76h0c-.85-.31-1.39.29-2,.74.55,1.56,2.37,2.8,1.08,4.81-.39.6-1.43,1-.83,1.86.75,1,1.52-.2,2.29-.3,1.62-.23,1.59-1.59,2.08-2.62h0C238.77,6.14,235.49,6.1,236,3.76Z"/><path class="cls-117" d="M228.84,20c-1.72-.47-3.42-1.59-4.78,1-1.13,2.16.34,2.69,1.62,3.49.55-.73-.66-2.44,1.41-2.32h0C228.39,22,229.2,21.4,228.84,20Z"/><path class="cls-118" d="M218.38,27.2c-.25.56-.16,1.17.61,1.08.62-.06,1.55-.25,1.77-.66.83-1.57-.81-2.63-1.06-4.06-.22-1.26-1.55,0-2.35.42,0,.31-.09.62-.14.93C217.74,25.6,219,25.88,218.38,27.2Z"/><path class="cls-36" d="M36.45,103c-1.56,2-2.17,2.12-2.69-.62-.28-1.53.42-3.24-.63-4.6-1.37,2.44-3,4.29-6.15,3.14-1,.66-.83,1.82-1.34,2.69l.63,1.95h0c1.12-.51,1.86-2.43,3.48-1.08h0v0c.73-1.55,1.55-2.59,2.92-.66h0c.5,1-.29,2.81,1.37,2.85s3.77-.07,4.89-1-.7-2.16-1.32-3.21h0C37.23,102.67,36.69,102.74,36.45,103Z"/><path class="cls-119" d="M27.05,109.89c.76,1.39.19,3.33,1.69,4.4,2.1.69,4.65,2.87,5.08-1.82.07-.77,1-.69,1.68-.79s1.6.49,1.89-.71c.26-1-.67-1.19-1.23-1.64-.76-.63-1.78-.85-2.36-.07-2.38,3.21-3.67.92-5.15-.61A1.85,1.85,0,0,1,27.05,109.89Z"/><path class="cls-118" d="M20.12,127.53c1.68.53,2.84-.51,4-1.49l-.39-.5c-.55-.67-1.6-.94-1.41-2.18a.81.81,0,0,0-1.18-.92c-.29.13-.32.91-.47,1.39,0,1.7-2.45,1.81-2.43,3.52Z"/><path class="cls-120" d="M26.27,105.6h0c-.78,1.66.3,2.91.78,4.3h0a1.85,1.85,0,0,0,1.6-1.24c-.4-1.54-1-3.12,1.1-4.13h0C28.13,103.17,27.39,105.09,26.27,105.6Z"/><path class="cls-119" d="M27.25,117.9c-.23,1,.22,2,1.11,1.82,1.23-.29,1.43-1.87,1.74-2.87s-.91-.79-1.64-.71Z"/><path class="cls-121" d="M24.13,126a5.78,5.78,0,0,0,3.07-1.57l.15-.92c-2.23-1.28-2.75.68-3.61,2Z"/><path class="cls-22" d="M32.68,103.88h0c-1.37-1.93-2.19-.89-2.92.66,1.4,2,1.92-.58,2.92-.66Z"/><path class="cls-122" d="M94.05,182.67l-.37-.54h0l-3.39-2.92h0L89.4,179h0c-1.78.57-3.12.45-3.08-1.83a3,3,0,0,1-.35-.45h0c-.89-.07-2-.14-2.36.74-.37,1,.91,1.27,1.57,1.73,2.36,1.62,4.76,3.19,7.15,4.77l.06,0h0l.49-.34h0Z"/><path class="cls-8" d="M92.31,178.33h0l.53-.4h0a5.68,5.68,0,0,1,.93.19c2.51,1,1.16-2,2.55-2.5.52-.18-.34-1.52-1.12-1.3-1.72.5-3.4,1.28-3.3,3.53C92,178,92.17,178.18,92.31,178.33Z"/><path class="cls-123" d="M86.32,177.17c.9,0,1.3.66,1.82,1.17h0c-.1-1.37.9-2.15,1.8-2.93.67-.57,2.22-.21,1.92-1.75a1.26,1.26,0,0,0-.94-.72,2.7,2.7,0,0,0-2.84,1.28,5.8,5.8,0,0,1-2.11,2.5h0A3,3,0,0,0,86.32,177.17Z"/><path class="cls-124" d="M93.68,182.13h0c1.33-2-.94-2.53-1.37-3.8h0c-.14-.15-.27-.31-.4-.47-.45.57-2.52-.82-1.62,1.35h0Z"/><path class="cls-55" d="M81.73,175.89c2,1,2.94-1.54,4.63-1.59,0-.29,0-.78-.12-.84-1.79-.75-3.1.45-4.46,1.37-.17.11-.24.36-.36.55h0A4.33,4.33,0,0,0,81.73,175.89Z"/><path class="cls-125" d="M86.32,177.17c0,2.28,1.3,2.4,3.08,1.83h0l-1.26-.66h0C87.62,177.83,87.22,177.13,86.32,177.17Z"/><path class="cls-69" d="M73.3,172.71l-2,.74c.85.47,2,.26,2.65,1.2.34-.82-.19-1.32-.59-1.87l-.06-.08Z"/><path class="cls-72" d="M54.74,214.08h0c-2-.86-1.18-2.9-1.71-4.37h0l-.81-1h0l-.5.4h0l-.13-.06c-1.44-.72-3.4-1.12-4.07-2.29-1.48-2.54-2.33-1.53-3.44.1a.36.36,0,0,0-.07.1c.7,1.31,2.08,1.28,3.33,1.59a4.18,4.18,0,0,1,3.44,4.39c0,.72-.31,1.29-1.18,1.25-.68,0-.94-.42-.8-1.07.76-3.61-1.93-1.87-3.1-2.23-2.07,1.46,4.55,1,.13,2.82h0c2.06,2.2,3.2,5.23,6.06,6.71h.16c3.66.06,6.72,2.38,10.44,2.2.91,0,2,0,1.88-1.24s-.32-2.69-1.72-3.24c-1.19-.48-1.45.23-1.53,1.33s-.75.74-1.21.23c-.63-.69-1.39-.37-2.15-.3-3.74.36-3.86.24-2.79-3.14a2.27,2.27,0,0,0-.23-2.15Z"/><path class="cls-126" d="M57,211.52c-2.17-.35-2.38,1-2.28,2.56h0c1.47.43,2.86.94,3.25,2.66A1.42,1.42,0,0,0,59.62,218a1,1,0,0,0,.92-.82c.19-.76-.32-1.11-.85-1.53-1-.79-2.09-1.55-1.88-3.1l-.79-1Z"/><path class="cls-127" d="M57,211.52h0l.79,1-.12-2.36h0l-.19-.25-.2-.25h0C55.46,210.1,56.64,210.85,57,211.52Z"/><path class="cls-3" d="M103.88,78.08h0c.83,1.47.54,3.79,3,4C108.07,77.71,107.55,77,103.88,78.08Z"/><path class="cls-73" d="M113,63.45l-.78-1h0l-.53.41L110.1,64.1a4.66,4.66,0,0,0-1.74,2.18c.19.56-.6,1.37.15,1.72s1.47-.41,1.86-1c.84-1.23,1.14-2.82,2.66-3.58Z"/><path class="cls-57" d="M111.16,82.05c.26.74,0,1.8,1.23,1.92.67-2.33.67-2.33,2.77-3.4h0l-1.71-1.11C110.47,78.45,111.17,80.55,111.16,82.05Z"/><path class="cls-95" d="M33.13,97.82c-1.81-.85-1.92-1.67-.09-3,2.26-1.62,2.49-3.72.82-4.93,0,1.8-1.63,1.59-2.68,2.08l-1.07.83.79,1c.17,1.63.17,1.63-2.54,1.16A7.36,7.36,0,0,1,27,101h0C30.1,102.11,31.76,100.26,33.13,97.82Z"/><path class="cls-128" d="M35.4,88.12c3.12,2.28,2.54,4.77.21,7.49-.8.94-.29,1.86.44,2.6.46.45,1.37,1,1.6.37C38,97.51,40,97.06,39.26,96c-1.35-2,.21-3.44,1-4.76A2.35,2.35,0,0,0,39.55,88c-.95-.75-2.55-.7-3.82-1C35.31,87.36,35,87.79,35.4,88.12Z"/><path class="cls-63" d="M111.13,94.23l1.54-.3h0c.73-.75,2.54-.33,2.47-1.69-.06-1.11-1.62-.57-2.41-1a8.3,8.3,0,0,1-1-.7C111.52,91.78,111.33,93,111.13,94.23Z"/><path class="cls-7" d="M119.43,78.56l-4.27,2h0C117.31,82.71,117.65,82.57,119.43,78.56Z"/><path class="cls-98" d="M114.52,94.13c-.52.42-1,.83-1.58,1.24h0c.2.93.22,2,1.31,2.37.88.27,1-.7,1.34-1.17A4.17,4.17,0,0,0,114.52,94.13Z"/><path class="cls-34" d="M112.67,93.93h0l-1.54.3-1,.88-.05,0v0h.05c.19.66.37,1.32.55,2l2.22-1.7v0C112.83,94.89,112.75,94.41,112.67,93.93Z"/><path class="cls-129" d="M110.1,95.07l.05,0,1-.88c.2-1.22.39-2.45.59-3.67h0l-.35-.51h0l-1.21,1.77Z"/><path class="cls-5" d="M23.54,133c.7-.58,1.48-1.14.87-2.16a1.3,1.3,0,0,1,.34-2c1-.7,1.1.24,1.65.69,1.49,1.26,3.12.34,3.85-1.49,1.33-3.34-2.14-2.35-3.05-3.63A5.78,5.78,0,0,1,24.13,126c-1.17,1-2.33,2-4,1.49,1.55,1.39-.35,2.81-.17,4.21.48,1,1,2,1.45,3A2.28,2.28,0,0,1,23.54,133Z"/><path class="cls-130" d="M23.86,137.1c-.08.52-.17,1-.25,1.57h0l1,.09h0c.31-.44.59-.91.93-1.34,1.25-1.59-1.26-2.91-.1-4.49l-1.88.12h0a2.28,2.28,0,0,0-2.14,1.66c.35,1.26,2.81.13,2.5,2.13A.43.43,0,0,1,23.86,137.1Z"/><path class="cls-131" d="M23,149h0c1.43-.17,3.08.29,4-1.48h0l-.78-1a1.92,1.92,0,0,1-2.24-.68h0C23.67,146.83,23.36,147.89,23,149Z"/><path class="cls-15" d="M64.37,107h0c.71-.51.45-1.39.81-2,.77-1.26,1.08-.44,1.33.33.2,0,.57-.09.58-.15.26-2.89,1.63-5.75.64-8.68-.19-.56-.49-1.4.25-1.77,4.92-2.49.93-2.91-.7-3.89-1.74.85-1.77,2.37-1.77,3.91,0,4.28.92,8.73-3,12.31-.16.15.12.78.19,1.18C63.17,107.7,63.2,106.62,64.37,107Z"/><path class="cls-44" d="M65.18,105c-.36.6-.1,1.48-.81,2h0l.32.46c1.55-.07,1.57,0,.54,2.91h0c-.11.63-.21,1.26-.31,1.88h0c2.11-.33,1.17-2.68,2.49-3.54.54-.9,2.34-2.14-.56-2.07-.47,0-.58-.75-.34-1.3C66.26,104.58,66,103.76,65.18,105Z"/><path class="cls-132" d="M203.82,50.84c-1.5.52-.81,2.3-1.9,3a9.55,9.55,0,0,0-1.75,1.92c-.42.81,0,1.55,1,1.35,1.43-.27,3.15-4.45,2.66-6.11,0-.07,0-.15,0-.21Z"/><path class="cls-133" d="M211.48,55.24c-1-2.06-1.47.41-2.23.35.05.8-.31,1.08-1.07.84l-1.6,1.24c.29.3-.69,1.95.85.89s2.65-2.15,4-3.25l.08-.07Z"/><path class="cls-40" d="M208.18,56.43c-.45-.55-.81-1.24-1.73-1.12a2,2,0,0,0,.13,2.36Z"/><path class="cls-60" d="M44,206.92s0-.06,0-.1c-.35-2.06,1.59-3.23,2.54-5.21-3.16,1.76-5,.29-5.15-2.08-.17-3.19,2.92-1,4.41-2-.3-1.27-1-2-2.44-1.83a4.5,4.5,0,0,1-4.85-2.5,1.87,1.87,0,0,1-1.61,1.25c1.38,1,.14,2.18,0,3.29l2.55-1.16c.75-.11,1.93-.41,2,.34.14,1-1.27,1.32-1.93,2s-2.41.4-2.29,2c.11,1.4,1.12,1.9,2.44,2,1,.12,2.17.31.87,1.72C41.28,206.07,41.55,208.08,44,206.92Z"/><path class="cls-58" d="M53.46,206.88h0c-1-2.19-2.91-3.65-4.27-5.56h0s-.06-.06-.1-.1c-.46-.42-.63-1.16-1.08-1.2-.31,3.59.24,6.95,3.6,9l.11.08h0l.5-.4h0c.87-1.54,1.34-.5,1.87.19.28.23.55.76.95.32.22-.24.1-.76.14-1.16l-.39-.5A1.29,1.29,0,0,1,53.46,206.88Z"/><path class="cls-134" d="M49.19,201.26s0,0,0,.06h0c1.36,1.91,3.28,3.37,4.27,5.56h0c1.55-1.17-.6-2.14,0-3.25h0a1.13,1.13,0,0,0-.1-.13c-1.44-1.87-2.57-4.06-5.23-4.6h0C48.56,199.63,49.39,200.21,49.19,201.26Z"/><path class="cls-135" d="M45.21,192.94l-1.51.34,3.57,4.55h0l.66-1.33C47,195.31,46.12,194.12,45.21,192.94Z"/><path class="cls-53" d="M38.52,193.22a6.33,6.33,0,0,0-3.12-1.64c.11,1.43,1,2.08,1.51,2.89A1.87,1.87,0,0,0,38.52,193.22Z"/><path class="cls-53" d="M28.9,178.66h0c-.1,1.49.88,2.58,1.31,3.88C31.32,180.67,30.46,179.53,28.9,178.66Z"/><path class="cls-67" d="M167.28,160.87c-1,.19-1.69-1.28-2.79-.28,1.26,1.26-1.32,3.61,1.52,4.24-2.48,1.84-4.4-1.74-6.48.44h0c-.09-1.57,3.15-3.48-.25-4.72h0c-.49-.52-.82-1.38-1.81-.86a.77.77,0,0,0-.38,1.1c.43.78,1,.53,1.67.18-.23,1.36-.88,1.64-1.93.79-.88-.72-1.73-1.45-2.59-2.18.09-.61.19-1.22.28-1.84l.93.09c1.83,1.24,3.83.15,5.74.11.87,0,1.28-.85,1.2-1.71a1,1,0,0,0-1-1c-.76-.08-1.72,1.47-2.21.09s1-1.81,1.78-2.53c2.27,1.56,5.81.37,7.55,3.08h0c-1.12,1.14-3.36,1.78-2,4Zm-4.93.42c-.17.58,0,1.29.56,1.36,1.58.19.92-1.45,1.58-2.06h0C163.43,159.64,162.73,160,162.35,161.29Z"/><path class="cls-31" d="M149.18,154.39c0-.5-.66-1-1-1.54-1-.6-1.14,1.08-2,.77-.43.33-.85.69-1.31,1-.62.42-1.34,1-1.89.06-.4-.71.24-1.16.74-1.58s1.21-.95,1.81-1.43h0l-.08-.1-.31-.4-2.24-.72h0c.33.61.53,1.21-.55,1.12a21.76,21.76,0,0,1-2.41-.45,4.58,4.58,0,0,1-.92,3.38c-.83,1.34-1,3,.76,3.51a13.29,13.29,0,0,1,3.31,1.87c1.48.91,2.22.6,2.43-1.11.08-.64-.16-1.43.69-1.67,1.22-.33.88.93,1.29,1.43s1.68,1.77,1.78,1.3c.47-2.05,4-.5,3.53-3.21C150.81,157.07,148.91,157.46,149.18,154.39Z"/><path class="cls-62" d="M155.45,157.83c.63-1,.32-1.58-.64-2h0c-.62-.93-1.81-.73-2.66-1.21h0c-.35.87.24,1.38.67,2h0c.91-.11,1.27.58,1.71,1.13Z"/><path class="cls-57" d="M121.88,142.29c-1.29,1.82,0,1.67,1.19,1.53.05-.33.09-.65.14-1h0A1.37,1.37,0,0,0,121.88,142.29Z"/><path class="cls-57" d="M122.25,146.08c1.62,1.36,2.36-.55,3.47-1.06-.85-.3-1.4.3-2,.73h0Z"/><path class="cls-31" d="M137.27,149.92c.63.92,1.38,1.58,2.65,1.2A3.52,3.52,0,0,0,137.27,149.92Z"/><path class="cls-136" d="M109.24,97.29h0c-1.14,1-.67,2.53-1.36,3.68.31,1.42-1,2.82-.3,4.25l1-.81c.28-2.19,1.34-4.27,1.21-6.52Z"/><path class="cls-109" d="M106.07,121.93l.54-.41h0a4.34,4.34,0,0,0,.42-2.78l-.51.4h0A4.27,4.27,0,0,0,106.07,121.93Z"/><path class="cls-61" d="M110.15,95.1h-.05a2.39,2.39,0,0,0-.86,2.2l.58.6.88-.81h0C110.52,96.42,110.34,95.76,110.15,95.1Z"/><path class="cls-6" d="M202.83,110.37h0l.54-.41c.94-.53-.53-2.78,1.65-2.3.94.21,1.75.84,2.75.12-1.44-1.58,2.08-4.18-.88-5.45-.92.55-1.7,1.88-2.94.64h0C202.76,105.36,202,107.79,202.83,110.37Z"/><path class="cls-6" d="M200.44,110.62h0c-1.12,0-2.24,1.36-3.35.15l-2,.72h0l1.18,1.53a4.15,4.15,0,0,0,2.12,1.61c3.7.6,4.73-.38,4.43-4.26h0Z"/><path class="cls-8" d="M212.4,108.56c-.08-1.23-.09-1.93,1.38-1.8a1,1,0,0,0,1.23-1.13c0-.72.09-1.63-.71-2s-1.18.41-1.71.76a5.54,5.54,0,0,0-2.14,2.48c.08.78-.6,1.63.11,2.36C211.35,109.48,212.49,110,212.4,108.56Z"/><path class="cls-32" d="M217.25,108.33c1.37,1.54-1.72,1.89-1.38,3.33h0c1.51-1.13,3.31-2.11,2.56-4.44-.09-.48-.17-1-.26-1.43-1.88.42-2.68,1.86-3.35,3.42C215.62,108.79,216.44,107.41,217.25,108.33Z"/><path class="cls-46" d="M215.87,111.66h0c-.34-1.44,2.75-1.79,1.38-3.33-.81-.92-1.63.46-2.42.88a1.41,1.41,0,0,1-.67,1.34C214.37,111.44,214.37,112.63,215.87,111.66Z"/><path class="cls-137" d="M65.23,110.38c1-2.87,1-3-.54-2.91l-.56,1.38h0s0,.05,0,.09a1.52,1.52,0,0,1-.71,1.27l.21.51h0C64.13,110.46,64.63,110.12,65.23,110.38Z"/><path class="cls-92" d="M64.13,108.85l.56-1.38-.32-.46h0c-1.17-.39-1.2.69-1.62,1.25.14.83.48,1.25,1.3.64a.35.35,0,0,0,.08-.05Z"/><path class="cls-138" d="M53.43,160.41c1.94-4.91,2.17-10.15,3.73-15.14h0c.5-3.18,1.51-6.28,1.72-9.54.18-2.84.41-5.82,2.32-8.33l0,0h0c-.14-.17-.29-.33-.44-.49h0l-.9-.11h0L58.32,128h0q-2,9-4.09,17.93h0c.32,3-.73,5.8-1.7,8.62a.84.84,0,0,0-.05.17h0c-.22,2-.43,4-.65,6h0A1.57,1.57,0,0,0,53.43,160.41Z"/><path class="cls-72" d="M59.88,126.77h0c-.71-1.64.9-3,.69-4.64l.54-3.78h0c-1.31-1.19-2.5-1.7-3.45.56-.32.75-.85.43-1.26,0-1,3.2,2.08,5.49,1.55,8.59,0,.15.24.34.37.51h0Z"/><path class="cls-139" d="M155.49,48.37h0c1.74-.83,2.39-2.72,3.85-3.82h0c.82-1.65,1.51-3.76,3.47-1.06,1.62.19,1.24-.9,1.22-1.76-3.2-.53-3.16-3.11-3.42-5.51l-.54.42h0c-.58.85-.28,2.64-1.63,2.54-2.61-.19-1.66,1.63-2,2.74,0,1.07-.56,1.49-1.61,1.27h0c-1.17.55-1.16,1.65-1.34,2.65h0Z"/><polygon class="cls-139" points="160.66 36.22 160.66 36.22 160.66 36.22 160.66 36.22"/><path class="cls-86" d="M164.08,41.73,165.29,40h0c-1.67-1.1-2.51-3.17-4.63-3.74h0C160.92,38.62,160.88,41.2,164.08,41.73Z"/><path class="cls-86" d="M166.48,41.49l1.07-.83c-.76-1.07,0-1.67.81-2.27-1.4-.26-2.07,1-3.07,1.57h0A1.65,1.65,0,0,1,166.48,41.49Z"/><path class="cls-60" d="M43,188.91c.66,1.38,2.33,2.19,2.21,4h0c.91,1.18,1.81,2.37,2.72,3.56,2.49,1.14,2.78-1.33,2.73-2.29-.06-1.21,2.38-3.42-.41-3.67-3.34-.3-4.94-3.15-7.82-4.11.17.75.32,1.42.48,2.1l.09.37Z"/><path class="cls-117" d="M224.81,28c-.56.48-1.39.88-1,1.8a.89.89,0,0,0,.74.45c.92-.08,1.15-.89,1.48-1.57a1.5,1.5,0,0,0-.18-1.5C225.5,27.44,225.14,27.7,224.81,28Z"/><polygon class="cls-117" points="225.85 27.17 225.85 27.17 225.85 27.17 225.85 27.17"/><path class="cls-77" d="M55.47,206.17c.68.78,1.82,1.08,2,2.34.15.82,1,1.11,1.84.88a1.67,1.67,0,0,0,1.39-1.27,1.82,1.82,0,0,0-1.07-1.85,32.2,32.2,0,0,0-3.53-1.44Z"/><path class="cls-6" d="M55,209.18c-.4.44-.67-.09-.95-.32-.57,0,.64,2.24-1.06.85h0c.53,1.47-.27,3.51,1.71,4.37h0c-.1-1.59.11-2.91,2.28-2.56h0c-.38-.67-1.56-1.42.28-1.87h0c-.62-.65-.91-1.7-2.12-1.63C55.14,208.42,55.26,208.94,55,209.18Z"/><path class="cls-6" d="M53.46,206.88h0a1.29,1.29,0,0,0,1.33.64l.68-1.35.67-1.34-2.69-1.2h0C52.86,204.74,55,205.71,53.46,206.88Z"/><path class="cls-65" d="M133.33,142.19c-.13-1-.85-.65-1.46-.33h0a1.2,1.2,0,0,0-.28,1.84C132.44,143.5,133.49,143.43,133.33,142.19Z"/><path class="cls-7" d="M113,63.45c1.09-1.71,2.93-2.3,4.62-3.2-2.23-.37-4.13,0-5.41,2.19h0Z"/><path class="cls-7" d="M111.71,62.85c-.72,0-1-1.37-1.75-.77s-.29,1.38.14,2Z"/><path class="cls-81" d="M213.21,41.89l-2.51,1.16h0c.22.91.08,2.09,1.56,2.05h0C213.43,44.24,214.18,43.28,213.21,41.89Z"/><path class="cls-121" d="M148.05,78.65c.52-1.47,0-2.13-1.56-2L146,77c-.81.77-1.3,1.66-.42,2.54s1.38-.11,2-.49h0Z"/><path class="cls-66" d="M146.89,87.21c-.55-.73-1.07-.89-1.58-.5a.92.92,0,0,0-.1,1.42c.43.55.95.91,1.61.26A.84.84,0,0,0,146.89,87.21Z"/><path class="cls-54" d="M171.89,167.9h0c.7-2.5.64-5.12,1.74-7.56.36-.79.63-1.86-.38-2.3-1.51-.67-1.46-2.27-2.26-3.35h0l-.6,1.32c.26.34.53.67.78,1,2.05,2.83,1.65,3.59-2.22,4.09-.38-1.18,2.46-2.18.66-3.16-1.49-.82-2.22,1-3.12,1.89l.79,1c.61,1.54,2.39,1,3.81,1.75-2.1,1.34-1,3.46-2,5l-1.07.84h0l.79,1a4.83,4.83,0,0,0,2.56-1.15Z"/><path class="cls-63" d="M166.89,167.44c-.4.65.4,1,1.13,1h0l1.07-.84C168.35,167.49,167.56,166.38,166.89,167.44Z"/><path class="cls-8" d="M180.46,169c.08-1.12-.74-1-1.52-.85l-1.06.83a4.08,4.08,0,0,0,1,2.45c.89.35,1.72,1.09,2.79.28h0C181.11,170.88,180.37,170.17,180.46,169Z"/><path class="cls-52" d="M181.74,168.41c1,.92,1.82.54,2.33-.53.36-.74-.27-1.14-.92-1.38-1.36-.5-1.71.26-1.8,1.38v0Z"/><path class="cls-63" d="M178.94,168.13c.78-.16,1.6-.27,1.52.85s.65,1.9,1.25,2.71h0c.38-1.11-.89-2.15,0-3.28l-.39-.51v0c-.4-.5-.79-1-1.18-1.51C179.58,166.84,178.86,167.23,178.94,168.13Z"/><path class="cls-15" d="M178.22,107.47c3,.87,6.24.82,9.21,2.36-1.45,1-2.79.74-4.05.94l.12,2.38.53-.41c1.54-1.61,3.54-1.62,5.5-1.83-.72-1.24-.28-1.8,1.13-1.72,1,0,1.9.16,2.86.25l4.21.07h0c2.58-1.41,3.36-3.91,4.2-6.5-1-.63-1.79,2.08-2.87.36-.37-.6-1-.42-1.08.32-.42,3.69-2.3,1.58-3.76,1.13-3.29.31-6,3.91-9.76,2.31.62-.84,2.35-.9,1.71-2.14-.73-1.4-1.26.7-2.07.45-.51-.15-1.13,0-1.62-.15-2.17-.76-3.38.34-4.26,2.18Z"/><path class="cls-72" d="M198,103.69c.08-.74.71-.92,1.08-.32,1.08,1.72,1.87-1,2.87-.36-.84,2.59-1.62,5.09-4.2,6.5a4.47,4.47,0,0,1,.44.43h0c.72.31,2.26-1.68,2.27.68h0l2.39-.25h0c-.81-2.58-.07-5,1.11-7.4h0a5,5,0,0,0-2.5-2.13c-2.79.62-6,.12-8,3h0l.79,1C195.68,105.27,197.56,107.38,198,103.69Z"/><path class="cls-15" d="M178.22,107.47h0c-.36-1.62-1.6-1.79-3-1.7h-.06c-1.91.55-3.86-.92-5.75.4Z"/><path class="cls-47" d="M154.6,63.81c-.47-.55-.82-1.24-1.74-1.12l-1.07.84c-.23,1-.09,2.26-1.75,2.17l-1.21,1.76h0c1.62-.39,3.69,1.07,4.85-1.23l.09-.16C154.05,65.31,154.32,64.56,154.6,63.81Z"/><path class="cls-23" d="M148.05,78.65c.44-.35,1-.63,1.27-1.08.67-1.21.88-2.55-.11-3.56a2,2,0,0,0-2.39-.59c-1.71,1,.78,1.73.11,2.7-.13.18-.29.34-.44.51C148,76.52,148.57,77.18,148.05,78.65Z"/><path class="cls-106" d="M165.29,40l-1.21,1.76c0,.86.4,2-1.22,1.76-.47.52-1,1.27,0,1.49,3,.67,2,2.52,1.28,4.47-.62-2.61-3.63-2.82-4.71-4.9h0c-1.46,1.1-2.11,3-3.85,3.82a.05.05,0,0,1,0,0h0a11.24,11.24,0,0,0,8.09,2.67h0l.94.1.53-.41h0c.91-2,3.37-3.7.68-6-.86-.75-.31-2.26.73-3.21A1.65,1.65,0,0,0,165.29,40Z"/><path class="cls-51" d="M160.9,56.43h0l.54-.41c-.82-2.48.48-3.81,3.34-3.43h0l0,0,.53-.43-.79-1-.94-.1h0c-3.47,4.21-5.75.55-8.38-.82h0c.54,1,1.7,1.57,1.19,3.32-.65,2.25-1.56,2.51-3.33,1.61,1.48,1.31.53,4.47,3.53,4.6l1.6-1.25C159.16,57.89,158.41,55.08,160.9,56.43Z"/><path class="cls-140" d="M158.21,58.53c.11,1.15.58,1.81,1.91,1.36.8-.27,1.79-.11,2.1-1.28s-.31-1.8-1.32-2.18h0C158.41,55.08,159.16,57.89,158.21,58.53Z"/><path class="cls-103" d="M166.08,59.77c-1.13-1.15-2.22-.22-3.13.39-.66.44-.11,1.26.18,1.71,1.4,2.16,2.12-.43,3.19-.67Z"/><path class="cls-95" d="M151.79,63.53l1.07-.84c-.09-.48-.17-1-.25-1.44-1.09-.36-2.21-.93-2.94.66.08.48.17,1,.25,1.44l.8,1Z"/><path class="cls-141" d="M164.8,52.61c.07.91-.84,1.28-1.16,2a.75.75,0,0,0,.38,1.08,1.12,1.12,0,0,0,.92,0c1.17-1.06,2.43-2.17.39-3.44Z"/><path class="cls-63" d="M161.44,56a14.13,14.13,0,0,1,3.34-3.43h0C161.92,52.21,160.62,53.54,161.44,56Z"/><path class="cls-21" d="M125.35,141.22A3.94,3.94,0,0,0,128,142.5h0A2.2,2.2,0,0,0,125.35,141.22Z"/><path class="cls-12" d="M20.12,127.53l-1.87-.18c-1.14,2.47-.54,4,1.7,4.39C19.77,130.34,21.67,128.92,20.12,127.53Z"/><path class="cls-79" d="M18.52,137.74c.57-.51,1.17-1.05.61-1.92-.88-.2-1.72-1-2.7-.35a1.49,1.49,0,0,0-.34,2.26C16.81,138.85,17.68,138.47,18.52,137.74Z"/><path class="cls-28" d="M23.12,139.1h0l.49-.43h0c.08-.53.17-1,.25-1.57a2.51,2.51,0,0,0,0-.27,3.88,3.88,0,0,1-3,.77c-1.86,0-3.3.82-1.82,3h0C19.22,136.44,21.85,139.83,23.12,139.1Z"/><path class="cls-28" d="M19.64,142.23c.48-.69-.26-1.13-.55-1.65h0c-.4.58-.8,1.17-1.21,1.75h0C18.47,142.56,19.15,142.92,19.64,142.23Z"/><path class="cls-82" d="M23.12,139.1c-1.27.73-3.9-2.66-4,1.48h0c.29.52,1,1,.55,1.65s-1.17.33-1.77.11c-.22.45-.45.89-.68,1.34-.72,1.35,0,2.75-.32,4.13-.16.64,0,1.37.83,1.46s.8-.61.95-1.1c.47-1.53,1.45-1.81,2.78-1.25.5-2.62,1.81-5.1,1.69-7.82Z"/><path class="cls-57" d="M18.43,166.31l2.14-1.66h0c-.06-1-.51-1.44-1.55-1.08C19.05,164.49,17.9,165.2,18.43,166.31Z"/><path class="cls-142" d="M60.57,122.13l1.22.12h0q1.58-5,3.13-10h0c.1-.62.2-1.25.31-1.88h0c-.6-.26-1.1.08-1.62.34h0c-.83,2.54-1.67,5.08-2.5,7.63h0Z"/><path class="cls-143" d="M60.57,122.13c.21,1.59-1.4,3-.69,4.64h0l.9.11h0c.34-1.54.68-3.08,1-4.62h0Z"/><path class="cls-13" d="M215.88,111.66l3.18.79a1.43,1.43,0,0,0,1.47-.32h0a10.33,10.33,0,0,0,5.25-6.53,18.91,18.91,0,0,0-1.67,1.55c-.57.67-.25,2.16-1.7,2-1.67-.2-.65-1.72-1-2.57-.92.13-1.28-.56-1.73-1.11-.53.51.54,2.05-1.21,1.76C219.19,109.55,217.39,110.53,215.88,111.66Z"/><path class="cls-29" d="M220.53,112.13h0a1.43,1.43,0,0,1-1.47.32c-.7.7-.9,1.29.24,1.64.69.22,1.78.34.9,1.42s-1.49,2.4-.15,2.93a2.61,2.61,0,0,0,3.11-1.83c.05-.31.09-.62.14-.92C223.59,113.55,222.69,112.35,220.53,112.13Z"/><path class="cls-26" d="M217.92,114.86c-.56-.33-1,.09-1.39.49a.67.67,0,0,0,0,1.09,1.06,1.06,0,0,0,1.45-.18C218.33,115.83,218.5,115.21,217.92,114.86Z"/><path class="cls-144" d="M103.93,110.25c-1.2,0-2.15-2-3.16-.87-1.28,1.39,1.52,1.33,1.41,2.62,0,.38.31.77.48,1.16h0c.81.22,1.81-.1,2.4.72.75-1,.61-2.14.75-3.24h0A9.68,9.68,0,0,0,103.93,110.25Z"/><path class="cls-145" d="M107.88,101c-2.83-.33-.27-1.93-.55-2.86h0a2.29,2.29,0,0,1-1.88-.19c-.27-.24-.53-.75-.93-.31-.21.24-.1.76-.14,1.15,2.73,1.75,1.09,5,2.28,7.32h0l.92-.86h0C106.87,103.79,108.19,102.39,107.88,101Z"/><path class="cls-105" d="M106.07,121.93h0a3.94,3.94,0,0,1-.71,4.63l-.15.91L106.4,129h0c.33-2.5,3.57-5.07.21-7.49h0Z"/><path class="cls-77" d="M99.23,127.37h0c.78,1.35,1.66,2.43,3.49,1.27,0-.3.07-.61.11-.91C101.8,126.47,100.5,127,99.23,127.37Z"/><path class="cls-109" d="M105.21,127.48c-.34,1.36-.69,2.72-1,4.08h0l1.55-1.2c.22-.45.44-.9.67-1.35h0Z"/><path class="cls-109" d="M106.07,121.94a10.84,10.84,0,0,0-.71,4.63A3.94,3.94,0,0,0,106.07,121.94Z"/><path class="cls-13" d="M195.1,111.49h0l-2.29-.61h0l-3.28,0h0c-2,.21-4,.22-5.5,1.83,1.64.47,5.54-2,3.77,2.92-.42,1.18,1,2.08,2.15,1.14,2-1.57,5-1.26,6.33-3.78Z"/><path class="cls-13" d="M183.38,110.77c-1.94-1.14-4.27-.94-6.38-1.52.62,1.23,2,1.26,3.05,1.69,1.55.16,1.14,3.16,3.45,2.21Z"/><path class="cls-66" d="M157.3,78.15a.84.84,0,0,0,1.33.32c.69-.5,1-1.22.4-1.92-.35-.42-.91-.43-1.66,0A1.55,1.55,0,0,0,157.3,78.15Z"/><path class="cls-5" d="M30.9,93.84c-.54,1.1-2.32-.69-2.54,1.16C31.07,95.47,31.07,95.47,30.9,93.84Z"/><path class="cls-5" d="M29.56,91.74c-.6.65.22.79.55,1.08L31.18,92C30.72,91.51,30.14,91.1,29.56,91.74Z"/><path class="cls-146" d="M206.89,102.33c-.13-.18-.26-.35-.4-.52-1.14-.31-1.75.65-2.54,1.16C205.19,104.21,206,102.88,206.89,102.33Z"/><path class="cls-147" d="M99.6,185.68l4.49,2.26h0c-.87-2.64-4.49-4.92-6.9-4.34h0C97.9,184.39,99.17,184.56,99.6,185.68Z"/><path class="cls-3" d="M37,181.37a14,14,0,0,1-.66-2.08c-.43-2.48-1.51-3.49-4-1.71,1.66.76,2.47,2.5,4,3.42A4.34,4.34,0,0,0,37,181.37Z"/><path class="cls-2" d="M30.19,177c1-.68.5-1.42.66-2a.59.59,0,0,1,0-.23h0c-.12-.19-.24-.37-.37-.55h0c-1.11,1-1.8-.5-2.78-.32Z"/><path class="cls-6" d="M72.7,232.76v0c.14.16.27.33.4.5,1.3-1.28,0-2-.51-2.87,0,.74.07,1.49.11,2.23Z"/><path class="cls-25" d="M156.41,53.57c.51-1.75-.65-2.28-1.19-3.32-1.27.38-2.7-.91-3.86.55.49,1.3-3.28,2.18-.56,3.69a2,2,0,0,1,2.26.7h0C154.85,56.08,155.76,55.82,156.41,53.57Z"/><path class="cls-51" d="M155.22,50.25h0a1.2,1.2,0,0,1,.29-1.85h0v0l-2-2.52c-.57,1,1,1.63.24,2.81-1.18-.17-2.86-1.37-3.2,1.13.27.33.53.67.8,1C152.52,49.34,154,50.63,155.22,50.25Z"/><path class="cls-148" d="M150.8,54.49c-.47.47-1.21,1.34-.7,1.56,1,.43,2.28.64,3-.86A2,2,0,0,0,150.8,54.49Z"/><path class="cls-145" d="M145.51,151.67c0,.72-.53,1.66.65,2,.87.31,1-1.37,2-.77,1.09-.78,1.86-1.69,1-3-.43-.67-.81-1.77-1.76-1.58-1.36.28-.36,1.73-1,2.47a9.2,9.2,0,0,1-.9.86s0,0-.05,0Z"/><path class="cls-63" d="M152.15,154.66l0,0h0c1.12-2.21-.89-1.73-1.88-2.52-.22,1.84,1,2.07,1.85,2.56Z"/><path class="cls-119" d="M24.77,111.34c.22-.16.3-.52.45-.78-.24-.13-.51-.33-.55-.29-.22.22-.52.48-.54.74A.38.38,0,0,0,24.77,111.34Z"/><path class="cls-149" d="M156.48,41.92c-.61-.82-1.3-1.59-2.36-.54s.16,1.35.75,1.81h0C155.92,43.41,156.46,43,156.48,41.92Z"/><path class="cls-54" d="M176.85,163.22l-2.82,3c.08.47.17.95.25,1.43,2.12,0,2.91-2.26,4.7-2.83h0C179.26,163.07,178.13,163.06,176.85,163.22Z"/><path class="cls-150" d="M157.47,159.69a.77.77,0,0,0-.38,1.1c.43.78,1,.53,1.67.18l.52-.42h0C158.79,160,158.46,159.17,157.47,159.69Z"/><path class="cls-81" d="M72.7,232.78h0c-1.7.48-3.35,1.64-5.24.14.48,2.75.45,5.22,2.27,7h0c1.33-1.57,2.67-3.13,4-4.7-.22-.65-.43-1.3-.65-1.94C73,233.11,72.84,232.94,72.7,232.78Z"/><path class="cls-32" d="M220.53,112.13h0c2.16.22,3.06,1.42,2.77,3.56,1.61.09,2-2.1,3.61-2a4.63,4.63,0,0,1,2.54-1.15c.83-2.41,4.13-2.26,5-4.68l-.2-.25-.19-.25h0c-.72.28-1.47.52-2.16.87-2.94,1.51-3.8,1-3.81-2.28a1.18,1.18,0,0,0-.76-1.25c-.87-.36-1.15.35-1.51.9A10.33,10.33,0,0,1,220.53,112.13Z"/><path class="cls-57" d="M73.3,172.71h0C70,171.78,68,168.47,64,168.34c.52.66.9,1.16,1.28,1.65h0a1.56,1.56,0,0,1,2.31.28c.68,1.8,2.55,2,3.71,3.18Z"/><path class="cls-97" d="M229.45,112.54c.52,2.51-1,2.44-2.67,2.08h0c-.53.52-1.5.91-.93,1.84.45.76,1.08.2,1.71,0,1.87-.56,3.07-2.24,4.78-2.89,3.62-1.39,4.13-2.54,2.07-5.72C233.58,110.28,230.28,110.13,229.45,112.54Z"/><path class="cls-151" d="M229.45,112.54a4.63,4.63,0,0,0-2.54,1.15c0,.31-.09.62-.13.93h0C228.49,115,230,115.05,229.45,112.54Z"/><path class="cls-11" d="M193,69c-.84.8-2.13,1.22-2.32,2.59.86-.79,2.24-1.13,2.32-2.59Z"/><path class="cls-41" d="M107.33,98.11h0c.28.93-2.28,2.53.55,2.86.69-1.15.22-2.67,1.36-3.68h0a2.39,2.39,0,0,1,.86-2.2h0v0l.06-3.25c-.82-.22-1.8-.88-2,.74a6,6,0,0,0-.55,3.7Z"/><path class="cls-65" d="M104.47,91.91l.24-1.58-.41-.48h0a12.4,12.4,0,0,0-1.68,1.55,2,2,0,0,0,0,2.87c.38.38.77.79,1.36.49,1.32-.69-.08-1.75.44-2.57h0A.45.45,0,0,1,104.47,91.91Z"/><path class="cls-49" d="M105.88,91.06c0-.59-.57-.8-1.17-.73l-.24,1.58a2.7,2.7,0,0,0,0,.28h0C104.84,91.7,105.85,91.85,105.88,91.06Z"/><path class="cls-11" d="M188,71.33c.8-1.45,2.45-2.29,3-3.94C187.77,67.18,187.17,68.76,188,71.33Z"/><path class="cls-95" d="M174,166.24c-1.09.06-1.44,1.07-2.13,1.65h0l-.52.42c1.55,3,2.09.37,2.91-.65C174.2,167.19,174.11,166.71,174,166.24Z"/><path class="cls-95" d="M175.39,170.63a1.65,1.65,0,0,0-2.09.31c-.45.4-.75.91-.14,1.31A1.5,1.5,0,0,0,175,172C175.43,171.62,175.77,171.21,175.39,170.63Z"/><path class="cls-17" d="M107.32,98.11h0l.27-1.85c-.72-.64-1.07-2.17-2.51-1.22-1.8,1.19,1.37,1.72.35,2.88A2.29,2.29,0,0,0,107.32,98.11Z"/><path class="cls-49" d="M166.49,159.85c.9-.91,1.63-2.71,3.12-1.89,1.8,1-1,2-.66,3.16,3.87-.5,4.27-1.26,2.22-4.09-.25-.35-.52-.68-.78-1-.72.52-1.51,1.49-1.89-.19h0C167.38,157,165.14,157.6,166.49,159.85Z"/><path class="cls-12" d="M45.7,210.85c1.17.36,3.86-1.38,3.1,2.23-.14.65.12,1,.8,1.07.87,0,1.18-.53,1.18-1.25a4.18,4.18,0,0,0-3.44-4.39c-1.25-.31-2.63-.28-3.33-1.59-2.46,1.16-2.73-.85-3.45-2.22-1.2,1.18-.17,1.94.43,2.74,1.06,1.41,2.16,2.8,3.24,4.2l1.6,2h0C50.25,211.86,43.63,212.31,45.7,210.85Z"/><path class="cls-53" d="M41.47,196.94c-.11-.75-1.29-.45-2-.34.7.73,0,1.58.11,2.36C40.2,198.26,41.61,198,41.47,196.94Z"/><path class="cls-27" d="M151.79,63.53l-1.07.83A1.44,1.44,0,0,0,150,65.7C151.7,65.79,151.56,64.52,151.79,63.53Z"/><path class="cls-25" d="M53,209.71c1.7,1.39.49-.83,1.06-.85-.53-.69-1-1.73-1.87-.19h0l.81,1Z"/><path class="cls-32" d="M162.35,161.29c-.17.58,0,1.29.56,1.36,1.58.19.92-1.45,1.58-2.06h0C163.43,159.64,162.73,160,162.35,161.29Z"/><path class="cls-22" d="M145.51,151.67h0c-.6.48-1.22.93-1.81,1.43s-1.14.87-.74,1.58c.55,1,1.27.36,1.89-.06.46-.31.88-.67,1.31-1C145,153.33,145.55,152.39,145.51,151.67Z"/><path class="cls-152" d="M192.81,110.88h0l2.29.61h0l2-.72c.37-.27,1.15,0,1.08-.83a4.47,4.47,0,0,0-.44-.43h0l-4.21-.07A1.52,1.52,0,0,0,192.81,110.88Z"/><path class="cls-153" d="M197.09,110.77c1.11,1.21,2.23-.19,3.35-.15h0c0-2.36-1.55-.37-2.27-.68h0C198.24,110.77,197.46,110.5,197.09,110.77Z"/><path class="cls-86" d="M164.1,49.45c.76-2,1.74-3.8-1.28-4.47-1-.22-.43-1,0-1.49-2-2.7-2.65-.59-3.47,1.06h0C160.47,46.63,163.48,46.84,164.1,49.45Z"/><path class="cls-154" d="M192.81,110.88h0a1.52,1.52,0,0,1,.71-1.44c-1-.09-1.91-.2-2.86-.25-1.41-.08-1.85.48-1.13,1.72h0Z"/><path class="cls-139" d="M155.51,48.39a1.2,1.2,0,0,0-.29,1.85c2.63,1.37,4.91,5,8.38.82h0A11.24,11.24,0,0,1,155.51,48.39Z"/></g></g></svg>