<svg xmlns="http://www.w3.org/2000/svg" viewBox="0 0 344.97 73.73"><defs><style>.cls-1{fill:#ff9696;}</style></defs><g id="Layer_2" data-name="Layer 2"><g id="Layer_1-2" data-name="Layer 1"><path class="cls-1" d="M126.22,35.6A11.93,11.93,0,0,1,132.16,37a10.37,10.37,0,0,1,4,4.06,12.4,12.4,0,0,1,1.45,6.08,12.37,12.37,0,0,1-1.45,6.08,10.29,10.29,0,0,1-4,4.06,12.87,12.87,0,0,1-11.87,0,10.29,10.29,0,0,1-4-4.06,12.37,12.37,0,0,1-1.45-6.08,12.4,12.4,0,0,1,1.45-6.08,10.35,10.35,0,0,1,4-4.06A12,12,0,0,1,126.22,35.6Zm0,22.22A8.38,8.38,0,0,0,131,56.48a8.84,8.84,0,0,0,3.15-3.73,12.91,12.91,0,0,0,1.13-5.57,12.94,12.94,0,0,0-1.13-5.57A8.87,8.87,0,0,0,131,37.89a9,9,0,0,0-9.47,0,8.84,8.84,0,0,0-3.17,3.72,12.94,12.94,0,0,0-1.13,5.57,12.62,12.62,0,0,0,1.15,5.57,8.9,8.9,0,0,0,3.18,3.73A8.41,8.41,0,0,0,126.22,57.82Zm-.35,1,.32-.83a6.84,6.84,0,0,1,1.51.23c.63.14,1.35.35,2.18.62s1.75.58,2.76,1,2.08.8,3.23,1.27,2.35,1,3.63,1.53a17.52,17.52,0,0,0,3.86,1.13,18.6,18.6,0,0,0,4.22.24,14.05,14.05,0,0,0,4.06-.85A10,10,0,0,0,155,61l.13.16a4.94,4.94,0,0,1-1.07,1.48,10.28,10.28,0,0,1-2.24,1.68,12.34,12.34,0,0,1-3.3,1.28,13.13,13.13,0,0,1-4.23.27,16.6,16.6,0,0,1-5.08-1.37q-1.47-.63-3.12-1.5c-1.1-.57-2.24-1.14-3.4-1.72s-2.33-1.08-3.49-1.54A17.21,17.21,0,0,0,125.87,58.77Z"/><path class="cls-1" d="M142.23,39.22v1.69h-.06a1.41,1.41,0,0,0-.46-1,1.54,1.54,0,0,0-1.07-.4h-.48v-.32Zm2,0v12a7.09,7.09,0,0,0,1.57,4.87,5.46,5.46,0,0,0,4.32,1.78,6.49,6.49,0,0,0,4.75-1.69,6.11,6.11,0,0,0,1.74-4.61V39.22h1.46V51.61a6.7,6.7,0,0,1-2.11,5.23,8.29,8.29,0,0,1-5.81,1.93,8.44,8.44,0,0,1-5.81-1.91,6.63,6.63,0,0,1-2.15-5.22V39.22Zm2,0v.32h-.48a1.61,1.61,0,0,0-1.06.4,1.23,1.23,0,0,0-.46,1h-.07V39.22Zm10.44,0v1.69h-.06a1.26,1.26,0,0,0-.45-1,1.57,1.57,0,0,0-1.08-.4h-.48v-.32Zm3.41,0v.32h-.48a1.56,1.56,0,0,0-1.05.4,1.36,1.36,0,0,0-.48,1H158V39.22Z"/><path class="cls-1" d="M165,41.26h-.09a1.6,1.6,0,0,0-.65-1.22,2.38,2.38,0,0,0-1.52-.5h-.44v-.32H165Zm0,15v2h-2.7V58h.44a2.33,2.33,0,0,0,1.52-.51,1.64,1.64,0,0,0,.65-1.21Zm1.91-17.07v19.1h-2V39.22Zm-.09,2v-2h2.7l0,.32h-.41a2.33,2.33,0,0,0-1.51.5,1.58,1.58,0,0,0-.66,1.22Zm0,15h.09a1.62,1.62,0,0,0,.66,1.21,2.28,2.28,0,0,0,1.51.51h.41l0,.31h-2.7Z"/><path class="cls-1" d="M174.1,56.35v2h-2.39V58h.54a1.74,1.74,0,0,0,1.24-.48,1.55,1.55,0,0,0,.51-1.18ZM174,38.75l1.37,1.78,0,17.79H174V42.73a33.79,33.79,0,0,0-.28-4Zm0,0,17.64,16.61.32,3.41L174.35,42.06Zm1.4,17.6a1.54,1.54,0,0,0,.53,1.18,1.76,1.76,0,0,0,1.23.48h.54v.31h-2.39v-2ZM190.59,41.2a1.69,1.69,0,0,0-.54-1.18,1.76,1.76,0,0,0-1.25-.48h-.54v-.32h2.39v2Zm1.4-2V54.7c0,.67,0,1.33.06,1.95s.12,1.34.22,2.12H192l-1.4-1.69V39.22Zm-.1,2v-2h2.39v.32h-.54a1.76,1.76,0,0,0-1.23.48A1.53,1.53,0,0,0,192,41.2Z"/><path class="cls-1" d="M215.8,50.3l-.35,4.36a8,8,0,0,1-2.17,2.2,10.37,10.37,0,0,1-3,1.42,12.62,12.62,0,0,1-3.57.49,12.47,12.47,0,0,1-5.58-1.24,8.61,8.61,0,0,1-3.65-3.44,10.53,10.53,0,0,1-1.27-5.32,10.58,10.58,0,0,1,1.27-5.34A8.61,8.61,0,0,1,201.11,40a12.08,12.08,0,0,1,5.58-1.21,16,16,0,0,1,4,.51,12.07,12.07,0,0,1,3.47,1.43l.7,4.49h-.28a6.36,6.36,0,0,0-2.82-4.2,9.65,9.65,0,0,0-5.08-1.28,8.31,8.31,0,0,0-4.34,1.1A7.35,7.35,0,0,0,199.48,44a10.88,10.88,0,0,0-1,4.82,10.67,10.67,0,0,0,1,4.76,7.31,7.31,0,0,0,2.85,3.12,8.51,8.51,0,0,0,4.36,1.13A11.42,11.42,0,0,0,211,57a7.1,7.1,0,0,0,3.13-2.43,7.82,7.82,0,0,0,1.37-4.27Z"/><path class="cls-1" d="M220.51,41.23h-.06A1.74,1.74,0,0,0,219.9,40a1.82,1.82,0,0,0-1.3-.48h-.45v-.32h2.77Zm0,15.06.41,2h-2.77V58h.45a1.76,1.76,0,0,0,1.3-.51,1.84,1.84,0,0,0,.55-1.21Zm2-17.07v19.1h-2V39.22Zm8.53,0v1h-8.59v-1Zm-1.46,9.08v1h-7.13v-1Zm1.5,9-.07,1h-8.56v-1Zm1.78-3.57-1.75,4.55h-4.84l1.08-1a6.11,6.11,0,0,0,2.56-.46,4.16,4.16,0,0,0,1.58-1.28,9.51,9.51,0,0,0,1-1.83ZM231,38.72v.82l-3.63-.32a13.3,13.3,0,0,0,2.11-.17A9.57,9.57,0,0,0,231,38.72Zm-1.46,7.83v1.81h-1.66V48.3a1.2,1.2,0,0,0,1-.4,1.49,1.49,0,0,0,.32-.94v-.41Zm0,2.64V51h-.35v-.41a1.49,1.49,0,0,0-.32-.94,1.17,1.17,0,0,0-1-.4v-.06ZM231,40.12v2.19h-.35v-.47a1.64,1.64,0,0,0-.43-1.15,1.47,1.47,0,0,0-1.16-.48v-.09Z"/><path class="cls-1" d="M253.81,35.6A11.92,11.92,0,0,1,259.74,37a10.3,10.3,0,0,1,4,4.06,12.29,12.29,0,0,1,1.45,6.08,12.26,12.26,0,0,1-1.45,6.08,10.2,10.2,0,0,1-4,4.06,12.89,12.89,0,0,1-11.88,0,10.2,10.2,0,0,1-4-4.06,12.26,12.26,0,0,1-1.45-6.08,12.29,12.29,0,0,1,1.45-6.08,10.26,10.26,0,0,1,4-4.06A12,12,0,0,1,253.81,35.6Zm0,22.22a8.37,8.37,0,0,0,4.72-1.34,8.84,8.84,0,0,0,3.15-3.73,12.76,12.76,0,0,0,1.13-5.57,12.79,12.79,0,0,0-1.13-5.57,8.87,8.87,0,0,0-3.15-3.72,8.37,8.37,0,0,0-4.72-1.34,8.47,8.47,0,0,0-4.75,1.34,8.82,8.82,0,0,0-3.16,3.72,12.79,12.79,0,0,0-1.14,5.57,12.76,12.76,0,0,0,1.15,5.57,9,9,0,0,0,3.18,3.73A8.42,8.42,0,0,0,253.81,57.82Zm-.35,1,.31-.83a6.92,6.92,0,0,1,1.52.23c.62.14,1.35.35,2.18.62s1.74.58,2.75,1,2.08.8,3.23,1.27,2.36,1,3.63,1.53A17.78,17.78,0,0,0,271,63.69a18.57,18.57,0,0,0,4.22.24,14,14,0,0,0,4.05-.85A9.82,9.82,0,0,0,282.61,61l.13.16a4.77,4.77,0,0,1-1.07,1.48,10.28,10.28,0,0,1-2.24,1.68,12.14,12.14,0,0,1-3.29,1.28,13.21,13.21,0,0,1-4.24.27,16.6,16.6,0,0,1-5.08-1.37c-1-.42-2-.92-3.11-1.5s-2.24-1.14-3.41-1.72-2.33-1.08-3.49-1.54A16.93,16.93,0,0,0,253.46,58.77Z"/><path class="cls-1" d="M269.82,39.22v1.69h-.07a1.37,1.37,0,0,0-.46-1,1.52,1.52,0,0,0-1.06-.4h-.48v-.32Zm2,0v12a7.1,7.1,0,0,0,1.58,4.87,5.44,5.44,0,0,0,4.31,1.78,6.52,6.52,0,0,0,4.76-1.69,6.15,6.15,0,0,0,1.73-4.61V39.22h1.47V51.61a6.71,6.71,0,0,1-2.12,5.23,8.29,8.29,0,0,1-5.81,1.93,8.44,8.44,0,0,1-5.81-1.91,6.63,6.63,0,0,1-2.15-5.22V39.22Zm2,0v.32h-.48a1.63,1.63,0,0,0-1.07.4,1.23,1.23,0,0,0-.46,1h-.06V39.22Zm10.44,0v1.69h-.07a1.28,1.28,0,0,0-.44-1,1.6,1.6,0,0,0-1.08-.4h-.48v-.32Zm3.4,0v.32h-.47a1.53,1.53,0,0,0-1.05.4,1.36,1.36,0,0,0-.48,1h-.07V39.22Z"/><path class="cls-1" d="M292.23,41.23h-.07a1.69,1.69,0,0,0-.54-1.21,1.82,1.82,0,0,0-1.3-.48h-.45v-.32h2.77Zm0,15.06.41,2h-2.77V58h.45a1.76,1.76,0,0,0,1.3-.51,1.78,1.78,0,0,0,.54-1.21Zm2-17.07v19.1h-2V39.22Zm8.53,0v1h-8.59v-1Zm-1.46,9.08v1h-7.13v-1Zm1.49,9-.06,1h-8.56v-1Zm1.79-3.57-1.75,4.55H298l1.08-1a6.14,6.14,0,0,0,2.56-.46,4.24,4.24,0,0,0,1.58-1.28,9.51,9.51,0,0,0,1.05-1.83Zm-1.82-15.05v.82l-3.63-.32a13.08,13.08,0,0,0,2.1-.17A9.5,9.5,0,0,0,302.73,38.72Zm-1.46,7.83v1.81h-1.66V48.3a1.2,1.2,0,0,0,1-.4,1.49,1.49,0,0,0,.32-.94v-.41Zm0,2.64V51h-.35v-.41a1.49,1.49,0,0,0-.32-.94,1.17,1.17,0,0,0-1-.4v-.06Zm1.46-9.07v2.19h-.35v-.47a1.64,1.64,0,0,0-.43-1.15,1.47,1.47,0,0,0-1.16-.48v-.09Z"/><path class="cls-1" d="M308.65,41.23h-.06a1.69,1.69,0,0,0-.54-1.21,1.84,1.84,0,0,0-1.31-.48h-.44v-.32h2.77Zm0,15.06.42,2H306.3V58h.44a1.8,1.8,0,0,0,1.85-1.72Zm2-17.07v19.1h-2V39.22Zm8.53,0v1h-8.6v-1Zm-1.47,9.08v1h-7.13v-1Zm1.5,9-.06,1h-8.57v-1ZM321,53.77l-1.75,4.55h-4.84l1.08-1a6.16,6.16,0,0,0,2.57-.46,4.21,4.21,0,0,0,1.57-1.28,8.57,8.57,0,0,0,1-1.83Zm-1.81-15.05v.82l-3.63-.32a13.08,13.08,0,0,0,2.1-.17A10.06,10.06,0,0,0,319.16,38.72Zm-1.47,7.83v1.81H316V48.3a1.19,1.19,0,0,0,1-.4,1.43,1.43,0,0,0,.32-.94v-.41Zm0,2.64V51h-.35v-.41a1.43,1.43,0,0,0-.32-.94,1.17,1.17,0,0,0-1-.4v-.06Zm1.47-9.07v2.19h-.35v-.47a1.69,1.69,0,0,0-.43-1.15,1.49,1.49,0,0,0-1.16-.48v-.09Z"/><path class="cls-1" d="M324.79,56.35v2H322.4V58H323a1.75,1.75,0,0,0,1.24-.48,1.55,1.55,0,0,0,.51-1.18Zm-.06-17.6,1.37,1.78,0,17.79H324.7V42.73a34.07,34.07,0,0,0-.29-4Zm0,0,17.63,16.61.32,3.41L325.05,42.06Zm1.4,17.6a1.53,1.53,0,0,0,.52,1.18,1.76,1.76,0,0,0,1.23.48h.54v.31H326v-2ZM341.28,41.2a1.65,1.65,0,0,0-.54-1.18,1.74,1.74,0,0,0-1.24-.48H339v-.32h2.38v2Zm1.4-2V54.7c0,.67,0,1.33.06,1.95s.12,1.34.23,2.12h-.29l-1.4-1.69V39.22Zm-.09,2v-2H345v.32h-.54a1.74,1.74,0,0,0-1.22.48,1.54,1.54,0,0,0-.53,1.18Z"/><path class="cls-1" d="M30.58,11.78a12.59,12.59,0,0,0-3-4.42,15.54,15.54,0,0,0-4.49-2.93,16.74,16.74,0,0,0-2.56-.86c-.43-.12-.88-.19-1.32-.28l-1.25-.22-5-.87L3,.5,0,0,2,2.23A20.32,20.32,0,0,1,3.87,5C4.47,6,5,7.07,5.61,8.12c1.13,2.1,2.22,4.24,3.31,6.37l1.65,3.2a31.77,31.77,0,0,0,1.86,3.18,22,22,0,0,0,2.29,2.92,13.07,13.07,0,0,0,2.94,2.37,7.42,7.42,0,0,0,3.71,1.07,5.36,5.36,0,0,0,1.95-.37A4.64,4.64,0,0,0,25,25.78,3.54,3.54,0,0,0,26,23.94a9.25,9.25,0,0,0,.13-1.89,9.08,9.08,0,0,0-.94-3.63,13.68,13.68,0,0,0-5-5.27,23.29,23.29,0,0,0-6.66-2.78l-.06.21a23.24,23.24,0,0,1,6.45,3,13,13,0,0,1,4.6,5.19,8.15,8.15,0,0,1,.74,3.32A8.64,8.64,0,0,1,25,23.75a2.54,2.54,0,0,1-.72,1.3,3.49,3.49,0,0,1-1.34.77,4.5,4.5,0,0,1-1.57.26,6.38,6.38,0,0,1-3.09-1,15.4,15.4,0,0,1-4.65-5A31.65,31.65,0,0,1,12,17l-1.56-3.24c-1-2.16-2.07-4.33-3.14-6.49C6.71,6.19,6.16,5.12,5.58,4c-.19-.32-.37-.65-.56-1,.84.17,1.68.35,2.52.51,1.67.32,3.34.62,5,.89s3.36.53,5,.75l1.26.17c.39.06.79.11,1.18.2a15.25,15.25,0,0,1,2.28.67,12.69,12.69,0,0,1,7.06,6.05A9.07,9.07,0,0,1,30.28,17a10.24,10.24,0,0,1-1.63,4.62l.18.13a10.07,10.07,0,0,0,2.27-4.64A9.65,9.65,0,0,0,30.58,11.78Z"/><path class="cls-1" d="M61.5,73.6a42.16,42.16,0,0,1-15.79-1.67A34.58,34.58,0,0,1,37.39,68,31.52,31.52,0,0,1,25.6,53.76a24.62,24.62,0,0,1-1.81-9.28A28.35,28.35,0,0,1,29,28.4c.28-.39.66.41.43,1.12a47.42,47.42,0,0,0-1.69,6.36,34.31,34.31,0,0,0-.53,8.5,33.54,33.54,0,0,0,1.57,8.24,25.64,25.64,0,0,0,3.85,7.52,31,31,0,0,0,13.69,10.2,38,38,0,0,0,8.5,2.24,48.53,48.53,0,0,0,6,.48C61.75,73.08,62.23,73.54,61.5,73.6Z"/><path class="cls-1" d="M127.46,58.16c-3.35,1.46-17.68,10.33-33.57-3.48-.86-.75-1.71-1.51-2.52-2.28S89.74,50.8,88.93,50l-2-2c.37-.44.73-.89,1.08-1.36A27.72,27.72,0,0,0,93.49,33.4a27.84,27.84,0,0,0-2.1-14.07A29.45,29.45,0,0,0,83,8,25.07,25.07,0,0,0,70.11,2.39a18.37,18.37,0,0,0-7,.48,11.77,11.77,0,0,0-6,3.63l.26.22A11.37,11.37,0,0,1,63.2,3.37,18,18,0,0,1,70,3.09,24.24,24.24,0,0,1,82.28,8.81a27.94,27.94,0,0,1,9.43,24.36,25.9,25.9,0,0,1-5.29,12.22c-.29.38-.6.75-.91,1.11L84,45a77.23,77.23,0,0,0-10.87-9.21,36.41,36.41,0,0,0-6.4-3.53,21.71,21.71,0,0,0-7.3-1.71,16.33,16.33,0,0,0-3.82.24A12.85,12.85,0,0,0,51.9,32a11.78,11.78,0,0,0-5.44,5.62,12.08,12.08,0,0,0-.77,7.74A14,14,0,0,0,49.47,52a19.39,19.39,0,0,0,6.24,4.07,29.19,29.19,0,0,0,7,1.9,24.53,24.53,0,0,0,3.66.3A23.69,23.69,0,0,0,70.07,58a25.55,25.55,0,0,0,7-2.2,29.34,29.34,0,0,0,7.59-5.3l1.9,1.88c.84.82,1.68,1.65,2.56,2.45s1.81,1.58,2.73,2.33c3.68,3,7.61,5.9,12.18,7.55C116.39,69.2,127.58,58.1,127.46,58.16ZM76.05,53.73a23.27,23.27,0,0,1-6.34,1.89,22.57,22.57,0,0,1-3.28.2,25.09,25.09,0,0,1-3.3-.33,27.53,27.53,0,0,1-6.39-1.8,16.68,16.68,0,0,1-5.34-3.57,11.17,11.17,0,0,1-3-5.36,9.33,9.33,0,0,1,.66-5.9,8.86,8.86,0,0,1,4.15-4.16,9.81,9.81,0,0,1,2.89-.89,13.75,13.75,0,0,1,3.14-.12,19,19,0,0,1,6.19,1.62,34.45,34.45,0,0,1,5.76,3.29,60.64,60.64,0,0,1,5.32,4.21c1.71,1.5,3.38,3.07,5,4.68L83.1,49A27.32,27.32,0,0,1,76.05,53.73Z"/><path class="cls-1" d="M57.34,2.89a20,20,0,0,0-4.63.5,24.06,24.06,0,0,0-4.4,1.43A25.11,25.11,0,0,0,33.28,26a25.53,25.53,0,0,0,.07,4.46,26.59,26.59,0,0,0,.87,4.35,31,31,0,0,0,3.61,8.06,30.54,30.54,0,0,0,5.83,6.78,32.49,32.49,0,0,0,7.79,4.93l-.09.33a23,23,0,0,1-9.07-3.4,26.62,26.62,0,0,1-3.91-3,25.47,25.47,0,0,1-3.29-3.74,25,25,0,0,1-4.16-9.08,28.24,28.24,0,0,1-.41-9.95,29.68,29.68,0,0,1,2.94-9.4,25.75,25.75,0,0,1,6.08-7.66,26.32,26.32,0,0,1,8.37-4.83,22.12,22.12,0,0,1,9.45-1.27Z"/><path class="cls-1" d="M95.43,53.9a29.23,29.23,0,0,0,1.76-6.25,37,37,0,0,0,0-11.12,36.5,36.5,0,0,0-2-8c-.33-.86-.73-.58-.46.35a39,39,0,0,1,1.37,7.81,36,36,0,0,1-.64,10.68,27.6,27.6,0,0,1-1.65,5.2l1.07.95Z"/><path class="cls-1" d="M90.51,58.16a25.31,25.31,0,0,1-6.7,5.89,28.4,28.4,0,0,1-4.68,2.26,31.55,31.55,0,0,1-5,1.35,41.45,41.45,0,0,1-10.38.57,38.08,38.08,0,0,1-5.19-.71,38.38,38.38,0,0,1-5.09-1.39A43.11,43.11,0,0,1,44.89,62c-.36-.22-.65.27-.32.6a30,30,0,0,0,8,5.68A34.15,34.15,0,0,0,63.4,71.57a31.76,31.76,0,0,0,11.41-.64,32.8,32.8,0,0,0,10.47-4.59,28,28,0,0,0,7-6.76c-.5-.38-1-.77-1.49-1.18Z"/></g></g></svg>