<svg xmlns="http://www.w3.org/2000/svg" viewBox="0 0 638.85 758.23"><defs><style>.cls-1{opacity:0.25;}.cls-2{fill:#de9877;}.cls-3{fill:#e9cbbe;}.cls-4{fill:#e5c2af;}.cls-5{fill:#e6c4b2;}.cls-6{fill:#e5c1ae;}.cls-7{fill:#e4beaa;}.cls-8{fill:#e8cabd;}.cls-9{fill:#e8cbbe;}.cls-10{fill:#e5c0ad;}.cls-11{fill:#e5c1ad;}.cls-12{fill:#e0a688;}.cls-13{fill:#e6c3b1;}.cls-14{fill:#efc7b4;}.cls-15{fill:#e2b198;}.cls-16{fill:#e9cbbd;}.cls-17{fill:#efc7b5;}.cls-18{fill:#e5bfac;}.cls-19{fill:#efc6b3;}.cls-20{fill:#e2b297;}.cls-21{fill:#e8cabb;}.cls-22{fill:#e0a587;}.cls-23{fill:#e3b79f;}.cls-24{fill:#e3b59d;}.cls-25{fill:#e2b299;}.cls-26{fill:#e4bda8;}.cls-27{fill:#e6c5b3;}.cls-28{fill:#e5bfaa;}.cls-29{fill:#e1ab8e;}.cls-30{fill:#efc6b4;}.cls-31{fill:#e1ae92;}.cls-32{fill:#e3b9a2;}.cls-33{fill:#de997a;}.cls-34{fill:#e3b8a0;}.cls-35{fill:#e2b196;}.cls-36{fill:#e2b59c;}.cls-37{fill:#e4bea9;}.cls-38{fill:#e3b69e;}.cls-39{fill:#e1ad92;}.cls-40{fill:#eec5b2;}.cls-41{fill:#e5bfa9;}.cls-42{fill:#e1ac8f;}.cls-43{fill:#e4bda6;}.cls-44{fill:#e3b8a1;}.cls-45{fill:#e4bfac;}.cls-46{fill:#e3b79d;}.cls-47{fill:#e2b69e;}.cls-48{fill:#e4bca5;}.cls-49{fill:#e3b9a3;}.cls-50{fill:#e5bda8;}.cls-51{fill:#f0c7b3;}</style></defs><g id="Layer_2" data-name="Layer 2"><g id="Layer_1-2" data-name="Layer 1"><g class="cls-1"><path class="cls-2" d="M632.45,349.44c-2.22.46-3.49,2.19-4.94,3.69-9.13,9.44-17.34,19.75-27.34,28.37A215.81,215.81,0,0,0,572.47,410c-13.16,16.43-25.22,33.7-36.79,51.3-.76,1.43-1.45,2.88-2.3,4.27-6.52,10.67-13.74,20.91-19.73,31.91-1.71,3.15-3.51,6.26-5.52,9.24-4.31,8.87-11.15,14.84-20.16,18.87-6.61,3-12.14,7.8-17.15,13-7.57,7.88-13.06,17.27-17.8,27-5.61,11.55-14.65,17.52-27.16,19.16-7.83,1-15.75,1.67-23.43,3.7-3.95,1.56-8.15,2.53-11.73,5-3.48,2.3-7.15,4.31-10,7.46-1,1.08-2.55,2-4.08.85s-.86-2.55-.27-4.06c1.3-3.37,3.07-6.53,4.43-9.87.39-1,.85-2.09-.21-2.87s-2-.16-2.91.39a31.12,31.12,0,0,0-2.34,2.09c-1.41,1.05-2.66,1.36-2.62-1.13a8.79,8.79,0,0,0-.78-4.09,6.63,6.63,0,0,1,.72-7.51c1.46-1.89,1.09-4.13.24-6-.76-1.63-2.5-.35-3.8-.21-2,.21-2.7-.14-2-2.47,1-3.36,3.78-6.08,3.57-9.89-.09-1.58,2.47-3.38.36-4.63s-3,1.43-4.21,2.64c-1.54,1.51-3.06,2.67-4.81.25-.5-.69-1.46-.76-2-1.29s.23-.94.44-1.4a2.12,2.12,0,0,0,.24-1c-.59-1.74-1.34-2.73-2.92-.75-.75.95-2.09,1.35-2.51,2.63-12.12,17-16.35,36.2-15,56.88a69.78,69.78,0,0,1-3-6.37c-9.11-22.19-17.79-44.52-22.12-68.26-1.39-7.65-2.43-15.37-3.64-23.07-1.15-1.89-2.48-1.77-3.9-.7-.38-2.49.42-5.86-1.71-8-5.44-5.42-8.09-12.46-11.07-19.15a59.28,59.28,0,0,0-5.61-10.31c-3.15-4.48-5.63-9.51-8.74-14.17-3.43-5.12-7.11-10-10.63-15.07-.64-.93-1.45-2.22-2.76-1.57-1.47.74-1,2.24-.46,3.4,3.93,8.18,7.31,16.61,11.38,24.73,3.7,7.37,8.18,14.33,11.56,21.86a16.34,16.34,0,0,1,1.85,5.39c-3.78-4.85-6.38-10.43-10.2-15.28-3.23-4.11-6.77-8-9.77-12.27a1.87,1.87,0,0,0-2.43-.82c-.87.4-.9,1.28-.93,2.1a8.68,8.68,0,0,0,.92,3.34c.77,2.06,2.07,3.94,2.14,6.23a212.26,212.26,0,0,0,12.4,21.78c7,11,13.61,22.22,20.62,33.21a20.54,20.54,0,0,1,3.1,6.93c-7.55-5.59-12.91-12.35-17.82-19.62-4.16-6.16-7.74-12.73-12.51-18.47a16,16,0,0,1-2.27-2.16c-6.81-9.13-13.83-18.12-19.16-28.27-4.6-8.76-9.52-17.41-16.6-24.42-7.92-7.85-15.91-15.63-24.83-22.41-10.06-7.64-13.4-19.17-16.86-30.55a81.71,81.71,0,0,0-6.06-12.13c-4-7.06-9.39-13-14.53-19.11-7.47-8.89-14.25-18.34-22.11-26.9-3-3.24-5.95-6.51-9-9.65-1.27-1.29-3-2.76-4.41,0a5.5,5.5,0,0,0-.1,4,83.69,83.69,0,0,0,4.7,11.73c4,7.06,10.16,12.4,15.56,18.27,12.67,13.79,23.1,28.82,29.13,46.71,2.09,6.19,4.73,12.15,8.93,17.28,3.64,5.18,8.63,9,13.24,13.24,7.46,6.79,14.91,13.58,21.32,21.39a55.69,55.69,0,0,1,7.53,11.23c2.64,4.51,5.32,9,8.13,13.38,3.18,5,6.33,10,10.83,14,.19.18.3.21.34.08.11-.46.21.41-.16.12-2.59-2.41-5.37-4.61-8.09-6.86-1.3-1.09-3.16-2.67-4.29.41,2,3.72,5.46,6.34,7.84,9.79a178.91,178.91,0,0,0,18.6,20.68c-3.44-2.31-6.6-5.59-10.17-8.36a36.84,36.84,0,0,1-6.05-5.23c-.77-.92-1.88-1.88-3-1-1.37,1-.25,2.28.37,3.35a2.9,2.9,0,0,0,.43.55c5.29,5.7,9.88,12,15.49,17.43-6.15-3.67-11.47-8.57-18.25-11.31,3.31,7.53,10.41,11.68,15.2,17.8,6.65,3.77,10.94,10.12,16.41,15.47-.44,1.15-3.16,1.21-2.63,3.53a166.08,166.08,0,0,0,27.36,9.13c2.23.54,3.13,1.54,3.73,3.72,11,40.51,25.87,79.51,45.88,116.48.55,1,1.74,1.93,1.22,3.51-9.56-9.34-20.13-17.39-29.41-26.86-2.47,2.74-4.36,1.34-6.66-.55-4.48-3.69-9.26-7-13.83-10.61-5.76-4.52-11.72-8.76-17.18-13.65-8.25-7-16.85-13.56-25.38-20.2a16.83,16.83,0,0,1-1.73-1.16c-6.27-5.16-13-9.72-19.33-14.78-.89-.71-2.09-1.93-3-1.16-1.26,1.09.16,2.34.84,3.27,2,2.71,4.46,5,6.59,7.63,1.91,1.81,4.15,3.29,5.51,5.64a7.78,7.78,0,0,0,1.2,1.42c8.25,7.55,16.15,15.47,24.93,22.45,5.82,4.63,11.68,9.27,17.11,14.39,1.1,1,2,2.24,3.21,3.2,4.88,3.88,10.23,7.16,14.7,11.56,11,8,22,15.87,31,24.48a109.49,109.49,0,0,1-16.49-7c-2.23-1.22-4.2-3-6.75-3.57-1.62.05-.36,2.21-1.74,2.46a21.3,21.3,0,0,1-2.32-1.64c-5-3.57-9.81-7.69-15.12-10.6-9.49-5.18-19.35-9.74-29.1-14.45-9.13-4.4-18-9.25-26.7-14.44-5.14-3.26-10.76-5.55-16.24-8.12-9.49-4.46-18.74-9.5-28.72-12.8-5.85-1.94-12-2.69-18-4.29-11.78-3.15-22.68-8.48-33.82-13.22a248.18,248.18,0,0,0-27.9-10.09c-2.52-.42-5-1-7.54-1.47a69.52,69.52,0,0,1-27.6-11.24,97,97,0,0,1-27.5-29.79,166.31,166.31,0,0,0-14.42-20.15A380.32,380.32,0,0,0,7.75,493c-1.13-1-2.13-2.2-3.82-2.24C.66,491-.19,493,0,495.9a11.26,11.26,0,0,0,2.62,3.67C12.29,508,20.88,517.52,29.47,527c9,10,17.75,20.14,25,31.38A138.71,138.71,0,0,0,83.16,591a75.67,75.67,0,0,0,22.58,13,47.66,47.66,0,0,1,5.8,1.3c5.49,1.56,11,3.26,16.67,3.84a57,57,0,0,1,16.53,4.23,75.31,75.31,0,0,0,17.78,5.05c7.52,1.17,14.25,4.24,20.83,7.73,14.52,7.69,29.11,15.23,43.87,22.44,12.26,6,24.1,12.76,35.72,19.87,8.94,5.46,17.17,12,26,17.65a146,146,0,0,1,12.1,8.34c-3.88-1.91-7.86-3.51-11.68-5.48-10-5.19-20.17-10.19-29.76-16.21-1.07-.68-2.63-2-3.64-.31-.84,1.38.81,2.17,1.78,2.94,2.47,2,5,3.78,7.59,5.61,5.52,4,11,8,16.59,11.46-5.05-2.71-10.81-4.43-15.88-7.58-1-.65-2.66-1.31-3.52,0-1,1.52.75,2.19,1.66,2.9a226.74,226.74,0,0,0,21.11,14.31A212.48,212.48,0,0,0,308,714.69c-2.23-.41-4.17-1.53-6.24-2.33-11.4-4.37-23.24-7.65-34.16-13.27-1.13-.58-2.73-1.9-3.64-.17-.78,1.51.93,2.4,2,3.2.95.68,1.91,1.33,2.92,1.93q12.92,7.66,26.19,14.73c6.62,3.52,13.59,6.19,19.7,9.14a9.06,9.06,0,0,1-1.29-.44c-15.93-7-32.9-11-48.9-17.8-1-.43-2.41-1.24-3.14.08-.81,1.49.79,2.18,1.72,3a17,17,0,0,0,1.8,1.06c4,2.58,8.48,4.4,12.67,6.67a258.17,258.17,0,0,0,35.07,15.65c8.12,2.71,16,6.16,24.25,8.39,5.9,1.59,10.83,5.82,17.18,6a1.9,1.9,0,0,1,1.38,1c1.66,2.47,4.13,2.71,6.78,2.48,9-2.16,17.77-4.85,25.69-9.64a22.69,22.69,0,0,1,5.36-5.57c-3.16,2.33,1.38-1.27,1.93-1.84.27-.27.52-.56.77-.84.66-1.61,1.17-2.94.56-.61h0c.16-.46.29-.93.41-1.41,0-.23,0-.49,0-.84a18,18,0,0,1,2.11-8C391,712.48,384,699,376,686a6.58,6.58,0,0,1-.53-6.28c2.38-5.78,4.72-11.55,12.3-12a6.94,6.94,0,0,0,1.94-.75c7.21-2.93,14.79-4.19,22.5-4.83a7.61,7.61,0,0,1,4.59-3.81c7.16-2.07,13.81-5.54,21-7.6a28,28,0,0,0,8.06-3.57,1.49,1.49,0,0,0,.11-2,32.67,32.67,0,0,0-15,1.66c3.87-2.39,7.76-4.75,11.47-7.38,1.12-.79,2.56-1.73,1.7-3.34-.67-1.26-2.11-.7-3.17-.34-9,3.07-18.26,5.54-26.84,9.81-6.78,3.93-14.42,5.81-21.49,9.06a1.88,1.88,0,0,1-2.66-.95c-.52-1.07.21-1.75,1-2.34a46.61,46.61,0,0,0,3.59-3.3c5-4.83,9.68-10.06,15.7-13.72,4.33-3.22,7.93-7.43,13.05-9.58a1.71,1.71,0,0,0,1.21-1.9c-.28-1.14-1.33-1.26-2.26-1.09a55.7,55.7,0,0,0-10.79,2.55c-.92.28-1.72.95-2.84,1a7.65,7.65,0,0,0,.85-1.65,2.69,2.69,0,0,0,.1-1c-.72-2.41-2.18-1.59-3.49-.7a67.4,67.4,0,0,0-7.55,6.18c-3.63,3.29-6.75,7.39-12.11,8.13-2.18-4.94-2.69-5.26-6.6-4.06-3.29,3.87-5.1,8.57-7.12,13.12-2.56,5.78-6,11.22-7.29,16.81a44.72,44.72,0,0,1,3.93-24.32,107.67,107.67,0,0,1,8.21-14.54c5-5.94,9.1-12.69,15.91-17.16a42,42,0,0,1,20.4-7.06A26,26,0,0,0,424,597.27c1.73-.7,3.52-1.24,5.25-1.92,5-2,9.7-4.33,13.73-8.09a80.65,80.65,0,0,0,13.5-16.78,122.55,122.55,0,0,1,14.69-19.91,99.55,99.55,0,0,1,31.25-21.93,26.69,26.69,0,0,0,8.54-5.94c2-2.28,4.15-4.37,6-6.74a5.93,5.93,0,0,0,.59-1c5.75-9.87,11.41-19.8,17.72-29.32,4.3-6.64,8.15-13.56,12.43-20.22q13.86-21.61,29.54-41.94c6.31-8.2,12.37-16.68,20-23.75,6.5-6,12.19-12.81,18.44-19.06,5.26-5.25,10.51-10.53,16-15.6,2.42-2.25,5.34-4.24,6-7.88C637.15,353.73,636.14,350.69,632.45,349.44ZM430.51,647.15h0a.13.13,0,0,0,.07.11C431,647.49,430.19,647.52,430.51,647.15Z"/><path class="cls-2" d="M286,13.26c.83-3.84,1.92-7.54,4.77-10.49,3.57-3.7,5-3.72,8.43.09,2.13,3.85,2.71,8.19,3.49,12.37,1.51,8.1,3.41,16.15,4,24.41a19.74,19.74,0,0,0-.2,2.77c1.16,16.32,1.75,32.67,3.15,49-.74,20.48-.14,40.93.62,61.4.37,9.88-1.26,19.72-1.9,29.59-.21,3.14.19,6.27,0,9.42.11-18.08,5.2-35.52,6.74-53.42,1.56-3.56,2-7.43,2.62-11.17.92-5.16,2.43-10.19,3.21-15.37.16-1,.36-2.35,1.61-2.38,1.6,0,1.57,1.58,1.61,2.61.29,7.68.71,15.36,0,23a86.76,86.76,0,0,1-1.52,12.11c-.27,1.17-.77,2.48.31,3.79,1.27-.57,1.35-1.84,1.5-2.87q3.74-24.33,9.19-48.32c.13-2.59,1.05-5,1.52-7.53.19-1,.43-2.38,1.75-2.19s1.16,1.6,1.2,2.6c.31,7,0,13.95-.34,20.93-.42,9.78-2.23,19.38-3.86,29a23.47,23.47,0,0,0-.11,7.29c-2.65,4.84-5.23,9.73-8,14.5-3.71,6.43-7.57,12.77-11.38,19.14a8,8,0,0,0-1.5,4.14c-.24,25.59-1.69,51.12-3.66,76.62a13.52,13.52,0,0,0,.28,4.68c1.51-6.5,3-13,4.55-19.51.57-2.37,1.32-4.7,2.12-7,2.4-6.9,7-11.4,14.37-12.66a33.87,33.87,0,0,0,19.5-10.64c1.21-1,2.42-1.94,3.83-.27,1.17,1.39,1.06,2.58-.17,4-1.62,1.86-2.54,3.74.87,5,1.37.49,1.19,1.8.38,2.91-.46.62-1.87,1.1-1.37,1.77,1.9,2.58.8,4.46-.92,6.44a1.61,1.61,0,0,0,0,2c2.05,2.22,1.67,5.2,2.61,7.75.71,1.94.22,2.65-1.8,2.37-1.12-.15-2.32-.59-3.14.82.82,0,1.73-.79,2.35.19a2.3,2.3,0,0,1-.32,2.6,11.35,11.35,0,0,1-1.81,2.11c-3.85,2.66-8.31,4.26-12.21,6.78-8.57,5.53-16.37,11.92-21,21.37a2.06,2.06,0,0,0-.27,1.6,17.44,17.44,0,0,0,8-5c9.62-11.27,22.64-16.88,36-21.91,3.38-1.27,6.79-2.47,10.15-3.82a32.93,32.93,0,0,0,17-15,124.12,124.12,0,0,1,17.92-24.46c3.15-3.38,5.8-7.28,9-10.63,2.13-2.44,4.73-4.49,6.24-7.45,2.88-3.88,6.5-7.16,9.1-11.27,2.11-2.32,4.59-4.33,6-7.21,10.69-12.75,19.88-26.66,30.47-39.48,1.6-1.94,3-4.2,5.77-4.81,2.89,1.65,2.9,4.16,2,6.9q-2.28,7.25-4.58,14.47c-1.49,5-5.16,8.56-8.82,11.93Q441.72,187,423.59,206.92a135.59,135.59,0,0,0-19.88,29c-5.14,9.9-11.26,19.05-19.32,26.8-5.26,5.06-11.84,7.78-18.67,9.93-2.44.77-4.89,1.5-7.33,2.28-4.7,1.48-9.79,2.06-13.45,5.94-1,1.07-2.58.92-4.08,1.56a54.46,54.46,0,0,0,1.91,5.31c1.72,3.61-.38,4.79-3,6.29.8.79,1.86.4,2.45,1.05,1.26,1.37.93,2.79-.92,3.25a2,2,0,0,0-1.36.91c-.26.41-.77.49-1.18.87,1.19.1,2.58-1.47,3.31-.12.82,1.54-.37,3.08-1.15,4.46-.4.72-2.1.33-1.67,1.76.36,1.22,1.37.25,2.05.44a1.92,1.92,0,0,1,1.41,1.41,1.61,1.61,0,0,1-.8,1.78,3.49,3.49,0,0,1-4.77-.2c.74.88,2,1.19,2.7,2.18,1.43,2,1.2,3.16-1.21,3.86-1.62.47-1,1.2-.94,2.3.18,1.89,2,4-.31,5.72-8.88,4.67-18.36,7.84-27.89,10.86-1.54.48-2.52.91-2.54,3-.29,28.72-.57,57.44-.22,86.16,0,.46.09.92.22,2.19,5.39-12.94,13-23.44,23.42-31.74,3.42,2.68,5,5.76,3,7.77s-1.32,3.18-.81,5.08c.41,1.58-.36,2.69-2.25,2.68-.79,0-1.6-.39-2.4.05,1.55.9,1.59,1,10.81-3.16,3.7-1.66,7.68-2.79,10.92-5.4,1.71-1,3.42-2,5.14-3,1.25-.71,2.8-2.2,4-.82s-.43,2.74-1.37,3.82c-2.21,2.54-4.45,5.07-6.87,7.42a75.19,75.19,0,0,0-6.13,7.1,12,12,0,0,1-3.7,1.92,105.3,105.3,0,0,0-28.89,17.4,15.48,15.48,0,0,0-2.15,2.28c-.28.36-.68.66-.66,1.27a29,29,0,0,0,9.49-3.23,167.74,167.74,0,0,1,28.32-12.75c8.49-2.94,16.37-7.37,25-10a16.87,16.87,0,0,1,1.65-.56c17.05-3.05,27.38-15,36.62-28.09,10.7-15.17,22.17-29.69,35.43-42.68,8.65-8.47,17.25-17,25.61-25.72,6.85-7.19,15.51-12.28,23.08-18.65a92.56,92.56,0,0,1,12.07-8.85c3.56-2,7-4.17,10.94-5.37,4.91-1.5,8,.51,9.07,5.61-1.09,3.41-4.21,4.8-6.75,6.79-6.09,4.76-13.35,7.48-19.89,11.47-10.7,6.53-20.56,13.95-28.8,23.52-3.78,4.39-8.38,8.06-12.95,11.67a142.53,142.53,0,0,0-34.53,38.92c-6.2,10.36-14.15,19.6-21.51,29.18-5.74,7.46-13.46,11.65-22.69,13.21-5.5.93-11,2.16-16.52,2.72a72.81,72.81,0,0,0-12.93,2.91c-3.16,1.07-5.66,2.81-7,6a3.75,3.75,0,0,0,1.15,4.34c1.12,1,2,.74,3.15.6,3.81-.47,7.66-.54,11.47-1.13,1.31-.21,3.14-.57,3.67,1.07s-1.31,2.29-2.42,3a60.82,60.82,0,0,1-11.46,5.09c-2.8,1-5.49,1.88-7.19,4.54-.65,1-1.9,1.25-2.52,1.58a209.22,209.22,0,0,1,28.66-3.47,28.65,28.65,0,0,1,6.91-.57c1,0,2.29,0,2.47,1.36s-1,1.71-2,2.07c-2.26.88-4.66,1.37-6.88,2.36-6.28,1.71-12.49,3.65-18.78,5.29-2.26.59-4.57,1.24-4.34,4.47.1,1.43-.91,2.31-2.4,2.49l-15.23.29A118,118,0,0,0,311,469.44c-2.25.36-3.08,1.22-2.86,3.62.47,5.18.64,10.4.93,15.6a3.53,3.53,0,0,1-3,.14,2.77,2.77,0,0,0-3.15.77c-.63.63-1.3,1.6-2.34,1a3,3,0,0,1-1.7-3.19c.64-2.3-.58-3.31-2.05-4.61-2.44-2.16-3.52-8.22-1.84-11.06a30.77,30.77,0,0,0,2-5.48c-1.64-15.05-2.09-30.17-2.71-45.27-1.07-26-.54-51.89.17-77.83.07-2.62-.13-3.52-3.25-4.11-9-1.7-17.86-4.23-26.77-6.44-5.17-7.61-10.39-15.18-17.21-21.49-3.16-2.91-5.61-6.49-8.51-9.67-3.87-4.83-7.64-9.71-9.69-15.66.21-1.79,1.24-1.71,2.47-1a12.83,12.83,0,0,1,2.95,2.44c5.85,6.05,13,10.61,18.91,16.59-7.71-8.3-14.92-17-20.41-26.92-1-1.76-3.13-4-1.25-5.56,1.71-1.37,3.34,1.3,4.75,2.52a178.16,178.16,0,0,1,13.33,12.91c-2.87-2.53-6.89-7.46-10.75-12.56-3.08-4.06-5.47-8.32-6.31-13.44s-3.92-9.19-7-13.14c-5.29-6.8-11-13.26-15.93-20.36a35.19,35.19,0,0,1-6.21-14.69c-.5-3.24-1.78-6.27-2.39-9.47a32.12,32.12,0,0,0-5.54-15.48c-1.33-1.9-.77-4.61-2.63-6.3-.28.13-.36.33-.23.58.68,1.25,2.36,2.73.38,3.8s-2.44-1-3-2.38a6.55,6.55,0,0,0-2.78-3c.58,3.62-2.11,6.2-5.65,5.4-2.63-18.18-6.8-36-10.92-53.92a39.32,39.32,0,0,1-1.1-6.87c-.18-3.46,1.41-5.09,5.06-5.76a5.39,5.39,0,0,1,2,2.36c9.27,18,19.77,35.3,28.19,53.71a9.66,9.66,0,0,1,.37.94c1.7,4.85,3.62,9.64,4.85,14.65.1.31.17.63.24.95.53,2.38.65,4.88,1.95,7.05a11.56,11.56,0,0,1,.85,3.39c1.18,13.07,8,23.25,16.24,32.9,6.89,8,13.15,16.47,15.56,27.31,1.64,7.41,7,13,11.81,18.75,7.76,9.31,15.86,18.29,24.55,25.44-4.87-9.54-13.3-17.56-20.19-26.74a7,7,0,0,1-.16-5.34c1.22-3.91.15-7.73-2-11.07-5-7.56-7.86-16.1-11.7-24.19-2-4.44-3.78-9-5.38-13.55-.36-1.05-1-2.51.32-3.09s1.92.89,2.56,1.81c1.64,2.39,2.74,5.1,4.54,7.39,5.76,7.32,10.54,15.35,16.42,22.85-3-3.75-3.37-7.07.93-10.24-1.37-.78-3.17-1.31-2.59-3.37,1.47-5.26-.4-10.14-1.81-15-1.16-4-1.49-8.23-2.67-12.25-.3-1-.48-2.24.9-2.62a2.26,2.26,0,0,1,3,1.69c.29.89.52,1.79.89,2.65.52,1.22,1.43,2,2.72,1.6,3.1-1.06,4.43.89,5.7,3.07,11.4,19.9,17.36,41.76,23.36,63.74l1.05-25.25c.88-21.51,1.73-43,2.7-64.53.12-2.7-.1-4.18-3.37-5-5.9-1.44-10.58-5.34-14.38-10-1.35-1.64-3.8-2.29-4.18-4.72,1.48-1.94,1.21-3.76.35-6-4.8-12.76-9.17-25.66-9.7-39.49a16.35,16.35,0,0,1,0-2.1c.08-1,.05-2.35,1.38-2.47s1.51,1.21,1.87,2.17c3.7,9.92,7.79,19.7,10.7,29.91a2.08,2.08,0,0,0,1.34,1.71c1.33-1.08.71-2.48.37-3.72a124.77,124.77,0,0,1-4.06-23c-.42-5.2-1.7-10.37-.88-15.64,1.75-2,2.79-.63,3.18,1,2.36,9.73,6.14,19,8.48,28.78,1,4.29,2.33,8.53,3.56,12.77.38,1.34,1,2.7,3.65,2.48-1.64-.44-2.81-.71-2.43-2.1.28-1.07-.11-2.47,1.32-3,2-.72,2.2-2.43,2-4-2.31-18.38-1.94-36.91-3.08-55.35a14.25,14.25,0,0,0-.39-2c-.28-7.84-1.13-15.65-1.6-23.48-1.37-8.84-1.55-17.8-2.57-26.67-.95-8.26-1.9-16.53-2.34-24.83C288.94,16.57,286.62,15.45,286,13.26Z"/><path class="cls-3" d="M583.82,591.9c-4.12,8.38-10.39,15.17-17.15,21.31a193.34,193.34,0,0,1-41.94,29.14A158,158,0,0,1,461.62,660c-1.15.07-2.31,0-3.47,0,0-1.69,1.86-2.25,2.29-3.77.5-1.82.63-3.48-1.63-3.72-5.16-.54-5.66-5.27-7.91-8.42-.41-.56-.07-1.07.2-1.61.78-1.53.53-2.25-1.38-1.68s-2.63-1-3.41-2.25c-1-1.6-.38-2.8,1.06-3.75-3.32.09-5.89-.91-6.8-4.51a5.88,5.88,0,0,0-3.28-3.88,17.55,17.55,0,0,1-4.32-2.89c-.52-.47-1.19-1.14-1.81-.93-4.08,1.32-5-1.48-6.17-4.36a4.51,4.51,0,0,0-3.78-3.17c-3.11-.42-3.75-2-2.07-4.79a10.71,10.71,0,0,1,2.16-2.73c4.54-2.14,9.46-3.22,14.07-5.2a48.74,48.74,0,0,0,19.81-15.5c5.26-6.86,9.31-14.48,14.43-21.42,7.91-10.71,17.16-19.89,29.08-26.13,8.82-4.61,17.27-9.8,23.68-17.57,5.57-6.76,9.76-14.46,13.92-22.14,8.32-15.36,16.73-30.66,26.81-45a6.66,6.66,0,0,1,2.38-2.48c1.67-.39,1.43.87,1.23,1.67-1.72,7,2.15,13.11,3,19.7.3,2.28,1.21,5.13,4.95,4.5,1.3-.22,1.54,1.25,1.39,2.32-.26,1.83.74,2.79,2.11,3.63a44.44,44.44,0,0,1,8.23,6.42,4.83,4.83,0,0,0,2.32,1.49c8.13,1.59,15.73,5.74,24.32,5.08.12,0,.27-.06.35,0,3.29,2,7.19,1.66,10.69,2.84A72.35,72.35,0,0,1,610.35,527c-1-.2-1.88-1-3-.58-2.26.86-3.27-.29-3.68-2.33-.27-1.36-1-2.06-2.44-1.82-6,1-11.9-.8-17.84-1.24-2.22-.16-3.85.27-5.24,1.93a11.28,11.28,0,0,1-6.86,3.82c-3.59.64-6.42,1.81-7.4,6.05-.36,1.56-2.82,2.66-4.21,4.11-.56.58-1.54,1-1.37,1.88.91,4.7-3.13,7-5,10.36-.73,1.31-1.29,2.17,0,3.25s1.55,3.34,3.54,4.15c1.33.54.73,1.89.17,2.71a9.39,9.39,0,0,0-1,9,2.49,2.49,0,0,1,.06,1.72c-.86,2.29-.07,3.44,2.31,3.9a2.66,2.66,0,0,1,2.19,2.81c-.08,2.3,1.11,3.42,3.18,3.88,1.74.38,3.08,1.08,2.77,3.26-.17,1.24.65,1.64,1.72,1.65a9.13,9.13,0,0,1,8.3,5.06c.62,1.07,1.7,1.09,2.72,1.27C580.81,592.11,582.32,591.49,583.82,591.9Z"/><path class="cls-4" d="M106.52,603.38c4.8.31,9.19,2.3,13.81,3.35,8.24,1.86,16.82,2.08,24.7,5.67a77,77,0,0,0,20.05,5.54c6.38,1,12.16,3.83,17.73,6.79,15.15,8,30.51,15.64,45.76,23.46s30.21,15.75,44.1,25.79a315.66,315.66,0,0,0,27.21,18c1.37.79,2.84,1.78,2.37,4.19-15.62-7.23-30.86-14.94-45.73-23.48,9.93,8.09,20.24,15.61,30.86,22.82-8.15-3.4-16.39-6.53-24.31-10.5,3.71,4,8.2,6.91,12.64,9.81,7.17,4.68,14.43,9.24,21.8,13.61,3.86,2.29,8,4.08,12.05,6.1.6.3,1.52.51,1.13,1.38s-1.17.45-1.83.21c-9.22-3.37-18.45-6.68-27.64-10.12-5.62-2.11-11.27-4.19-16.71-7.46,1.07,2.83,13.77,10.75,25.89,16.84,9.23,4.64,18.55,9.09,27.8,13.79-18.75-6.35-37.73-12-56.31-19.44,2.51,3.93,38.85,22,51.3,25.69a2.06,2.06,0,0,1,1.63,2.62c-1.43,3.15,0,6.08.26,9.1,1.74.51,4.33-1,5.11,1.54a3.87,3.87,0,0,1-1.72,4.53c2.58.27,4,1.83,3.58,4.86-13.72.29-27-2.21-40.08-6.15a124.58,124.58,0,0,1-27.42-11.75,17.1,17.1,0,0,1,1.79-8.15c.94-1.71,1.64-1.86,3.18-.5-1.25-1.68-5-.42-4-3.89a2.29,2.29,0,0,1,3.15-1.84c0-.08-.22-.16-.38-.38-1.39-2-1.37-2-5.07-3.06-1-.29-2.25-.29-2.36-1.63-.09-1.08.8-1.57,1.73-1.91.36-.13,1-.08.79-.78a1.06,1.06,0,0,0-.74-.7c-.58-.14-.8.33-1,.75a21,21,0,0,1-1.28,2.07,3.68,3.68,0,0,1-4.11,1.94c-2-.33-2.6-2.19-3.42-3.68-.49-.88.22-1.47,1-1.85s1.89-.13,2.53-1c-.09-.86-1.29-.9-1.33-1.47-.31-4.2-3.24-4.77-6.54-4.87a1.76,1.76,0,0,1-1.85-1.3c-.57-2.38-2.07-4.59-2-7s-.88-2.42-2.32-1.36c-2.26,1.66-3.36,1.31-4.16-1.46-.84-2.92-2.85-3.3-5-1.25-2,1.88-4.31,1.22-5.17-1.76-.41-1.43-.93-2.43-2.29-2.65s-1.79,1.26-2.54,2.07c-1,1.09-1.42,2.69-2.84,3.46a1.62,1.62,0,0,1-1,.08c-1.31-1.11-2.42-1.56-2.68.82a3.86,3.86,0,0,1-.41,1.68c-.55.87-.23,2.69-1.92,2.36-1.35-.27-1.47-1.64-1.46-2.84a12.84,12.84,0,0,0,.13-2.08c-.7.22-1.47.67-1.47,1,0,2.85-2.18,3.63-4.16,4.32-3.15,1.09-3.2,4.88-6,6.41-.75.42.61,3-.36,4.59-22.77-.71-45-3.74-65.22-15.27a45.4,45.4,0,0,1-14.75-13c2,.13,3.82,1.82,6,.83,1.48-.66,2.64-1.29,1.07-3a4.53,4.53,0,0,1-.64-.82c-.51-.89-1.56-1.76-1-2.81s1.85-.53,2.85-.35a4.69,4.69,0,0,0,1.69.16c-1.56-3.48.4-5.5,3-7.43,1.65-1.25,2.89-2.83,2.28-5.34-.56-2.31.93-3.32,3.26-3.25-2.2-2.94-2-5.08.58-6.89.48-.34,1.23-.91,1.54-.61,3.23,3.11,4-1.22,5.87-1.85-3.46,1.56-4.93,1.37-6.6-1-1.47-2-.6-3.93.92-5.29,2.67-2.39,4.92-.66,7,1.24.37.23.35-.67.2-.23,0,.1-.15.08-.32-.08-1.62-1.51-3.26-2.91-5.75-2.56a1.64,1.64,0,0,1-1.9-1.2c-.46-1.71.86-2.48,2.17-3.36-1.87-.92-2.12.55-2.69,1.36-.67,1-1.24,2.18-2.7,1.46s-2.2-2.29-1.34-3.5c2.39-3.35.73-5.33-1.84-7.29-1-.8-2-2.12-1.82-3.25.39-2.36-.69-3.35-2.5-4.38-.75-.44-.79-1.85-2.08-.45s-2.42.57-2.52-1c-.16-2.48-1.51-3.12-3.69-3.08a4.86,4.86,0,0,1-4.43-2.34c-.44-.71-1-1.5-1.82-1.5-4,0-7.37-2.71-11.41-2.23a2.51,2.51,0,0,1-1.71-.18c-3.62-2.73-7.52-1.87-11.46-1.08a2.26,2.26,0,0,1-2.91-1.76c-.71-2.4-1.9-2.82-3.51-1-1.22,1.35-2,1.06-3.2.22A80.8,80.8,0,0,0,60.29,606c-2.35-1.1-4.78-2.05-5.32-5-.37-2-2.11-1.36-3.33-1.74a2.26,2.26,0,0,1-1-1c0-2.78-2-4.8-4.3-4.35a2.12,2.12,0,0,1-1.86-.43c-.84-1.54.51-5.11-3.51-3.74-.56.19-1-.49-1.23-1-1.79-3.84-3.55-7.85-7.06-10.33-1.37-1,1.54-2.27-.8-2.5-1.43-.13-1.45-2.3-2.81-2.89-.19-.8-.38-1.6-.58-2.41,1.17.27,2.33-.13,3.5.09-1.18-1.32-2.34.57-3.51-.12q-4-15.19-8-30.4c2.25-1,3.54.58,4.49,2.08,2.21,3.48,5.18,6.67,4.86,11.31a4.29,4.29,0,0,0,1.47,3.46c2.8,2.29,3.62,5.63,4.85,8.72,2.39,6,6.4,10.88,10,16.11a28.07,28.07,0,0,0,6.84,7.59c1.35,1,1.63,4.08,3.23,5.83a5.43,5.43,0,0,0,3.09,2.12A11,11,0,0,1,66.19,601c.31.35.68.77,1.12.81,6.41.68,12.1,4.23,18.51,4.73,3.2.25,6.43-.46,9.68-.43,1.73,0,3.47-.38,5.18.14C103.52,607.1,105.72,606.68,106.52,603.38Z"/><path class="cls-3" d="M367.35,455c2.59-1.93,6.16-1.67,9.22-4-3.49-.77-6.44-.14-9.37,0-2-.14-3.08-2.44-5.31-2.15-.66.09-.89-.79-.49-1.3,1.31-1.65.69-3.48.78-5.29.15-2.89,2.42-3.6,4.06-3.76a3.81,3.81,0,0,1-5-1.65c-1.14-2.2-2.25-4.88-.82-7.29.87-1.49-1.22-3.68,1.31-4.51,5.16-.85,10.3-1.78,15.47-2.52A37.94,37.94,0,0,0,403.09,407c6.45-8.65,13.23-17.1,19-26.16,6.23-9.73,12.64-19.21,20.94-27.3,5.24-5.1,10.79-9.85,16.41-14.53a101.26,101.26,0,0,0,12.44-11.54c8.8-10.22,19.8-17.65,31.47-24.12,8-4.44,16.3-8.42,22.88-15,.43,5.7-1.46,11-2.86,16.39-2.88,11-4.76,22.33-10,32.65a154.46,154.46,0,0,1-16.67,26.07c-15.6,19.77-31.26,39.47-45.72,60.14a86.13,86.13,0,0,1-34.64,29.1c-15.33,7.11-31.1,12.42-48.06,13.64-.34-3.43,0-7-1.55-10.21A.84.84,0,0,1,367.35,455Z"/><path class="cls-3" d="M357.2,274.29c7.54-2.61,15.51-4.21,22.17-8.92,6.94-4.9,12.19-11.39,16.75-18.47,5.95-9.26,10.47-19.38,16.77-28.43,1.92-2.76,3.94-5.47,6.12-8,9.78-11.41,20.42-22,31.14-32.52,5.05-4.95,10.36-9.64,15.27-14.75,1.87-1.95,3.22-4.26,4.93-6.31-5.33,23-10.81,46-20.51,67.65-4.95,11-12,20.93-20.06,30a292.39,292.39,0,0,1-72.41,59.33,21.6,21.6,0,0,1-2.52,1.06c-1.79.2-4.18,1.58-4-2.08,0-.63-.7-.86-1.16-1.19a1.89,1.89,0,0,1-.23-3.25c1.87-1.64,1.53-3.52,1.47-5.67-.08-3.41.79-6.86-1-10.12a1.94,1.94,0,0,1,.2-2c2.6-3.5,3.06-8,5.5-11.56C356.64,277.53,355.66,275.51,357.2,274.29Z"/><path class="cls-5" d="M258.53,618.25c6.06,5.6,12,11.36,18.21,16.75,8,7,16.73,13.21,24.41,20.54,5.64,5.38,12.48,9.16,17.86,14.76-1.27,1.25-2.18.06-3-.58-14.36-11.49-31.31-18.21-47.74-25.83-16-7.44-32.07-14.88-47.87-22.82a90.94,90.94,0,0,0-22.09-7.48A151.2,151.2,0,0,1,165,602.66c-6-2.84-12.35-4.83-18.57-7.12-2.72-1-5.56-1.74-8-3.41a16.59,16.59,0,0,0-3.58-2.74,2.59,2.59,0,0,1-1-4.12c1-1.44,2.26-2.88,4.27-1.34.25.18.24,1,.71.36,2.32-3.24,6.72-3.41,9.24-6.43,1.54-1.86,2.8-3.46.83-5.74a2.41,2.41,0,0,1-.47-2.33c1.75-4.52.45-9.06-.44-13.37A104.33,104.33,0,0,0,144.91,544a41.82,41.82,0,0,1-1.47-4.65c-.94-4.45-1-4.45-5.58-3.66-5.29.92-10.13,3.3-15.14,5-7.25,2.51-14.5,2.91-22,2.49-5.07-.28-9.58-2.67-14.51-3.43a6.72,6.72,0,0,1-3.61-2A4.44,4.44,0,0,0,80,536.1c-3.72-.27-6.09-2.29-8.08-5.31a16.5,16.5,0,0,0-5.57-4.68c-.91-.53-2.11-1-2.41-1.93-2-6.28-6.94-11-8.19-17.89-1-5.3-1.57-10.71-3-16-.32-1.19-.84-2.5.54-3.47l6.18,1.48a12.82,12.82,0,0,1,1.2,9.27,2.17,2.17,0,0,0,.69,2.25c2.55,1.89,2.78,4.57,3.06,7.43a14.83,14.83,0,0,0,3.87,8.11c3.22,3.58,5.39,7.8,9.73,10.87,6.08,4.3,13.06,6.34,19.36,9.9,4.58,2.6,10.75,1.45,16.1.21,6.9-1.59,13.41-4.45,20-6.95a7.68,7.68,0,0,0,2.17-1.71c4.51-3.86,11.72-2.24,14.82,2.73,2.74,4.38,2.44,9,2.69,13.75.06,1.16-.32,2.52.57,3.37,3.87,3.7,4.18,9,6,13.54.77,1.9,1.42,3.6,3.72,4.18,3.63.93,3.66,4.62,4.82,7.22,1,2.32,2.17,3.94,4.65,4.52a4.51,4.51,0,0,1,.93.47c5.84,3.06,6.85,2.2,1.07,8.41,1.82-.54,2.49-2,3.64-2.77,1.73-1.18,3.69-1.46,5.08.16s.58,3.27-1.2,4.32c-.78.45-1.47.88-.63,1.84.67.76,1.25,1.91,2.53,1.1a16,16,0,0,1,3.54-1.74c-1.4-.08-2.94,1.91-4-.33-.71-1.55,1.32-4.58,3.61-4.78a18.56,18.56,0,0,0,7.66-2.18c3.9-2.23,8.14-3.69,12.17-5.57,7.15-3.33,11.95-9.58,18.48-13.6a3.39,3.39,0,0,1,3.83-.27,3.79,3.79,0,0,1,1.86,3.13,7.11,7.11,0,0,1-2.39,4.54c-3.48,2.9-6.37,6.44-10.18,9-4.71,3.14-5.54,8.4-1.94,12.85a12.84,12.84,0,0,1,2.25,3.84,4,4,0,0,0,3,2.74,13.46,13.46,0,0,1,10.13,7.27c.43.77,1.23.47,1.86.66a11.39,11.39,0,0,1,7.19,5.62c1.27,2.33,2.74,4.36,5.88,4.79a7.49,7.49,0,0,1,6.15,6.71C255,621.27,257.24,620.26,258.53,618.25Z"/><path class="cls-6" d="M624.06,499.72a8.48,8.48,0,0,0-4.82.23c-1.76.72-2.85.59-3.33-1.42a1.33,1.33,0,0,0-1.57-1c-3.88.16-7.8.45-11.58-.62-4.89-1.38-9.52-3.63-14.68-4.15-.87-.09-1.72-1.14-2.44-1.87a40.67,40.67,0,0,0-9.16-6.87c-1.39-.78-2.18-1.62-1.44-3.34,1-2.23.16-2.43-1.83-1.59-1.25.53-2,.14-2.88-1.41-2.08-3.84-1.7-8.29-3.4-12.07-1.51-3.35-1.4-6.55-1.34-10,0-1.34,1-2.27.69-3.52a4,4,0,0,1,1-2.86Q577,435,588,421.85a24.63,24.63,0,0,0,2.43-2.47c2.14-2.83,4.75-3.64,8.24-2.61,4.66,1.37,9.42-.18,14.15-.08,4.55.1,9.3.23,13.32,1.69,2.8,1,6.95.91,8.6,4.57-3,11.79-6,23.57-8.86,35.4-1.37,5.68,0,11.35.81,17A50.59,50.59,0,0,1,624.06,499.72Z"/><path class="cls-7" d="M344,415.36a22.84,22.84,0,0,1,4.2-5.89c3.74-3.52,7.05-7.49,10.55-11.27l-.52-.68-8.81,4.74c-2.3.2-4-.5-4-3.11,0-1.59-1.14-2.46-2-3.54a3.35,3.35,0,0,1-.7-3.58c.62-1.46,1.77-1.18,3-.89,1.71.4,1.68-1.07,2.8-2.51-4.39,1.25-5.66-1.82-7.6-3.8a86.15,86.15,0,0,0,8-10.55,38.63,38.63,0,0,1,20.36-15.16c6.14-1.93,10.1-6.22,13.61-10.95,8.82-11.85,19.8-20.3,34.62-22.83,18.54-3.17,35.85-9.78,52.48-18.36,1.07,1.46-.31,2.08-1.06,2.79-13.54,12.91-27,25.88-39.83,39.54a204.54,204.54,0,0,0-17.35,21.38c-4.7,6.63-9.36,13.32-14.77,19.39a40.73,40.73,0,0,1-15.19,10.75c-10.65,4.36-21.28,8.78-31.84,13.38C348.07,415,346.23,416.45,344,415.36Z"/><path class="cls-8" d="M508.61,507.32a32.59,32.59,0,0,1-16.44,17.2,68.24,68.24,0,0,0-30.43,27.69q-4.82,8.07-9.22,16.38c-5.46,10.31-14.47,15.59-26,17-8.07,1-16.08,2.4-24.13,3.62a2.69,2.69,0,0,1-3.66-2.64c-.08-4.54-2.59-8.4-3.08-12.82-.56-5,1.54-8.54,6.46-9.46,2.46-.45,4-1.09,4.27-4,.25-2.46,2.17-2.81,3.85-.67,1.42,1.81,2.44,1.78,3.89.26,1-1.09,2.42-1.82,3.35-3a1.84,1.84,0,0,1,2.72-.58c.9.55,1.48,2.22,2.88,1.23,1.61-1.13,3.48-2.44,3.62-4.48.18-2.53.56-4.29,3.55-4.47,1.19-.07,1.44-1.29,1.67-2.38.7-3.19.56-7,5.46-7.09.86,0,.58-1.1.55-1.76-.07-1.77-1-3.39-1.06-5.11-.05-1.46-1.13-4.46,2.53-2.8.21.09.25.12.46-.1,2.27-2.51,2-7.54-.79-9.49-1.8-1.25-2.81-3.45-5.15-4.05-.71-.18-1.14-1.16-.31-1.6,2.91-1.54,1.48-3.92,1-5.83-.95-4.07-1.12-4,3.79-4.95-2.2-.26-3.82.65-5.2-.29s-1.65-2.73-1.87-4.35c-.19-1.46-1-1.67-2.23-1.16-2.54,1.08-4.07.35-5.14-2.3-.81-2-2.87-2.53-5-2.63-1.47-.06-3.1.21-4.08-1.36a50.65,50.65,0,0,1,15.86-10.2,10,10,0,0,1,2.26,3.89c1.06,2.53,2.39,4.82,5.12,5.9.43.17,1,.37,1.15.75,2.44,5.66,9.06,6.49,12.55,10.94a4.1,4.1,0,0,0,2.75,1.39c3.38.47,6.68,1.07,9.18,3.72a2.39,2.39,0,0,0,2,.5c4.68-.38,9.2.79,13.79,1.36s9.29.3,13.31-2.66c.57-.41,1.23-1,1.9-.72,4.59,1.59,7.33-1.66,10.37-4,1.13-.87,2.17-1.38,3.49-.8,1.86.83,1.83,2.22.87,3.73C509.09,505.83,508.43,506.39,508.61,507.32Z"/><path class="cls-9" d="M53.28,486.87a5.62,5.62,0,0,0,.55,4.06,9,9,0,0,1,.78,6.1,2.54,2.54,0,0,0,0,1.72c2.39,4.38,1.67,9.76,4,13.92,2,3.58,4,7.13,5.89,10.78,1.13,2.18,4.16,3.43,6.45,4.92a4.84,4.84,0,0,1,1.86,2c1.51,3,3.75,4.88,7.35,4.8A2.83,2.83,0,0,1,83,536.8,4.22,4.22,0,0,0,86.73,539c4.59,0,8.38,2.82,13,3.11,7.71.49,15.08.26,22.54-2.27,5.84-2,11.46-4.75,17.71-5.62,2.63-.37,3.58.51,4.17,2.81,1.49,5.88,3.35,11.73,4.58,17.58.89,4.2,2.75,8.91.88,13.53-.7,1.73-.88,3.36.91,4.66a1.84,1.84,0,0,1,.38,2.8c-2.19,2.3-3.22,5.92-7.43,6-1.95,0-2.13,3.3-4.49,3.47-.37,0-.83,1.21-1,0-.24-1.42-1-1.52-1.93-.94a3.93,3.93,0,0,0-2.09,2.67c-.17,1.13.59,1.66,1.55,2a5.62,5.62,0,0,1,3.18,2.54c-1.57,1.36-3.14.35-4.57-.16a317.21,317.21,0,0,1-33.78-14.31c-6.05-3-10.74-7.85-14.91-13-10.84-13.4-21.42-27.07-33-39.77-10.09-11-20.51-22-33.43-30-2-1.24-4.38-2.28-5.22-4.86,9.48-1.39,18.71-4.53,28.43-4.2C45.9,485.16,49.72,485.28,53.28,486.87Z"/><path class="cls-10" d="M414.93,491.32c2.84,1.19,6.36-.56,8.9,2.12.45.47,1.23.67,1.27,1.47.17,3.83,2.23,2.63,4.21,1.59s2.84-.87,2.95,1.7c.21,4.71.61,4.91,5.17,4.19.84-.13,2.06-1,2.42.19s-1.05,1.52-2,2c-1.14.64-2.29-.14-3.65.21a37,37,0,0,0,1.89,6.22c1.39,3.35-.53,3.11-3.05,3.78,4.91,1.21,6.93,5,9.65,7.92.22.24.52.8.46.85-2.52,2.24-1.82,6-3.75,8.55-1.83-.83.11-2.34-1.15-3.21a3.06,3.06,0,0,0-.58,3.79,16.29,16.29,0,0,1,1.07,4.69c.22,1.92,1.65,4.8-2.44,2.51-.74-.41-1.21.08-1.68.74a8.53,8.53,0,0,0-1.89,5.5c.21,2.68-1,3.76-3.39,3.56-1.82-.15-1.93.86-1.87,2.09.11,2.25-2.7,6.79-4.79,7.47-1.4.45-1.68-.78-2.25-1.64-.73-1.09-1.32-1.73-2.51-.08A24.46,24.46,0,0,1,413.2,562c-1.85,1.47-2.64.08-3.27-1.48-.36-.89-.89-1.85-2-1.59s-1.1,1.46-.94,2.35c.51,2.79-1.21,3.35-3.38,3.67-6,.87-8,3.52-7,9.38.42,2.39.71,4.83,2.22,6.88a3.74,3.74,0,0,1,.44,3c-.43,2.56.44,4.32,3.08,5-3.65,1.8-7.79,2.48-11.17,4.91-3.41-.44-6.46-3.56-5.62-6.94.74-3-1-4.52-2.2-6.43s-4-3.47-1-6.06c.24-.21.36-.32,0-.45-3.53-1.34-2.07-6-5.2-7.75-1.43-.82.1-2.28.52-3.53-2.8.33-3.73-1.75-4.58-3.54s.36-2.56,2.07-2.54c2.59,0,2.5-1.08,2.17-3.33-.51-3.37-.79-6.77,1.82-10,1.74-2.13,3.21-4.39,6-5.85a7.2,7.2,0,0,0-4.11.86c-1,.57-2.81.16-2.49-.7.9-2.49-1.38-3.63-1.71-5.5.89-1.79,2.71-2.56,4.27-3.4,7.73-4.15,13-10.66,17.52-17.88A96.83,96.83,0,0,1,414.93,491.32Z"/><path class="cls-9" d="M632.45,349.44c-7.83,8.46-15.35,17.23-23.56,25.3-10.52,10.33-21.66,20-31.45,31.11-7.71,8.72-14.4,18.19-21.14,27.63S542.78,452.59,536,462.15c-.58,1.12-1,2.57-2.72,2a3.85,3.85,0,0,1-2.64-3.77c.12-4.74-3.08-8.75-2.72-13.54.12-1.66-1.49-2.06-2.89-2.5-3.66-1.15-4.27-3-2.09-6.08-1.32-.68-2.32-2.05-3.41-2.65-3.64-2-5.7-7-11.11-5.94-2.8.57-1.8-3.1-3.62-3.82,5.4-5.7,12-9.93,18.35-14.33,19.17-13.19,39.71-24.14,59.71-36,12.79-7.58,25.48-15.36,38.25-23C624.59,350.46,628,348,632.45,349.44Z"/><path class="cls-11" d="M237.81,371.53c5.78,5.37,12,10.35,17.2,16.25a90.43,90.43,0,0,1,10.72,14.39c.08,1.09-.73,2.06-.59,3.05s-2.05,2.32.73,2.84c1.05.2,0,5.94-1.37,6.83-.79.52-1.75.76-1.3,2,3.22-1.18,3.1-1.18,3,2.35,0,2.45.16,4.78-2.29,6.43-.88.59-.67,1.91-.28,2.94s.45,2.07-.77,2.68c-1.47.72-2.37.08-3.05-1.54-.11,2.62,2,4.45,1.5,6.91-.17.94,1.11,1,1.74,1.47,2.09,1.56,2,2.81-.5,3.72a2.48,2.48,0,0,0-1.88,2.92c.46,2.25-.58,5,2.16,6.6a1.28,1.28,0,0,1,.42,1.86c-3.74,3.51-1.08,7.21-.42,10.84a8,8,0,0,1,.48,2.37c-.11.85-.7.76-1.31.62-3-2-4.5-5.29-6.39-8.17a138.49,138.49,0,0,0-21.27-25.3A130.62,130.62,0,0,0,224,425.39c-5.25-4-9.78-8.41-12.92-14.38-5.46-10.4-10.85-20.84-16.8-31,.13-2.12.79-4.33-1.86-5.68a1.76,1.76,0,0,1-.35-2.76,1.83,1.83,0,0,1,2.56.16c2.42,2,4.71,1.21,7.11-.07a50.68,50.68,0,0,1,10.76-4.09c1.27-.34,2.68-.79,3.6.34,1.83,2.25,4.91,2.65,6.75,4.88.94,1.14,2.17,1.07,3.38,0,4.8-4.1,4.81-4.08,10.24-1.26A1.89,1.89,0,0,0,237.81,371.53Z"/><path class="cls-12" d="M199.88,427c7.68,9.13,17.24,16.31,25.64,24.68a132.86,132.86,0,0,1,16.11,19.66,2.31,2.31,0,0,1,.27,2c.45,1.89.69,3.53-1.15,5.13-1.54,1.34-1,3.44-.25,5.2.87,1.92.5,3-1.76,2.64-1.5-.22-1.65.27-1.87,1.69s-2.17,1.8-2.89,3.22-1.84,2.48.38,3.58c1.63.82,1.17,1.9-.26,2.42-1.86.69-3.26,2.25-5.28,2.59-.34.06-.93.19-.93.36-.12,4.48-3.69,2.76-6,3.37a4.31,4.31,0,0,1-1.66.4,43.49,43.49,0,0,1-4-10.74c-3-12.93-10.52-22.41-21.21-30a169.55,169.55,0,0,1-21.84-17.88C163,435.14,157.9,422.78,157,408.54c-.27-4.3-.44-8.6-.66-12.9,1.81-2.79,1.81-2.72,3.62-.28s3,5.55,5.64,7.44a2,2,0,0,1,.6,1.93c-.25,1.63.38,1.93,2,2.32,2.92.71,4.3,3.31,5.1,6.05.33,1.1.41,2.28.7,3.41s.58,2.31,2.23,2c.9-.16,1.67.06,1.73,1.16.07,1.32.83,1.11,1.68.84,2.88-.91,3.25.93,3.05,3a5.61,5.61,0,0,0,.85,3.53c.93,1.73,1.93,2,3.62,1.43s3.82-1,5.48-.18C195.54,429.72,197.75,429,199.88,427Z"/><path class="cls-13" d="M201.86,202.19c2.87,7.54,2.83,16.05,7.65,22.95,4.32,6.18,9,12.08,13.83,17.85,5.19,6.16,9.77,12.52,11.25,20.81,1.18,6.65,6.5,11.09,10.36,16.24,2.56,3.43,5.53,6.55,7.87,10.2l-20.71-19.13c-.73,1.93.47,3.07,1.13,4.25A128.71,128.71,0,0,0,255,303.69c.58.59,1.94,1.16,1.09,2.16-.73.85-1.7,0-2.41-.59-7.24-6.34-14.45-12.7-21.74-19-.51-.44-1.14-2.78-2.41-.51-3.41-3.1-6.57-3.07-9.89.34-1,1.06-3,1.25-4.11,2.46-2.32,2.66-4.68,2.47-7.25.52-2-3.06-3-6.54-4.14-9.92a130.27,130.27,0,0,0-13.75-28.83c-7.21-11.17-9.84-23.41-9.07-36.52.14-2.42.39-4.84.59-7.25a43.68,43.68,0,0,1,12.31-2.69,1.35,1.35,0,0,0,1.18-.62C197.07,200,199.48,201.23,201.86,202.19Z"/><path class="cls-4" d="M583.82,591.9c-2.42,1.56-4.9,1-7.37.19-.32-.11-.83-.25-.89-.47-1.26-4.39-4.29-5.56-8.53-5.11a1.64,1.64,0,0,1-1.61-2.42c1.17-2.14,0-2.26-1.64-2.59-2.44-.52-4.77-1.12-3.9-4.72.4-1.65-1.14-2.38-2.74-2.33-2.61.08-2.95-1.28-2.23-3.38.22-.65.77-1.5.55-2-2.07-4.24-1.07-8,2-11.89-4.6.11-3.72-4.58-6.37-6a.78.78,0,0,1,0-1.22c3.5-1.27,2.7-6,6.08-7.38,1.39-.57.48-1.62.21-2.37-.72-2-.56-3.39,1.76-4,1-.25,1.77-.79,1.17-2-.22-.44-.18-1.25.11-1.13,3.94,1.62,2-1.88,2.82-3,1.18-1.54,2.87-3.5,4.53-3.71,4.25-.53,7.71-1.56,10.62-5.14,2.34-2.88,6.15-.93,9.21-.64,4.43.41,8.87,1.55,13.29.76,2.61-.47,3.41.26,3.56,2.62.11,1.62.45,3,2.53,1.46,1.88-1.36,2.69,0,3.29,1.55-3,5.39-7.3,9.83-11,14.68a26.57,26.57,0,0,0-5.55,15.47,76.06,76.06,0,0,1-6,27.43C586.63,587.17,585,589.42,583.82,591.9Z"/><path class="cls-14" d="M589.3,421.9a336.36,336.36,0,0,0-20.79,27.49,32.91,32.91,0,0,1-2.23,2.65,235.27,235.27,0,0,0-15.21,23.18q-10.38,18.25-20.64,36.59a61.38,61.38,0,0,1-26,25.34,93.8,93.8,0,0,0-31,24.76c-5.08,6.32-9.18,13.33-13.49,20.17-7.49,11.86-17.72,20-31.31,23.78-2.57.72-5.08,1.65-7.62,2.48-.21,1.32-1.42,1.57-2.33,1.79-5.18,1.24-10.36,2.56-15.62,3.5-2.12-.47-4.08.26-6.05.82-1.23.35-2.52.95-3.42-.42a3,3,0,0,1,.57-4.07,12.83,12.83,0,0,0,3.34-5.1,35.13,35.13,0,0,1,16.69-6.59c3.06.21,5.89-1,8.84-1.42,1.16-.31,2.16-.15,2.5,1.14a2.28,2.28,0,0,1-1.16,2.37,10.93,10.93,0,0,1-3.82,1.65c-3.25.91-6.47,1.94-9.47,2.91,10.41-.89,21.91-4,29.41-9.15,6.64-4.52,12.48-10,15.27-18,.59-1.65,2.24-2.27,3.18-3.63,4.91-7.06,10.4-13.67,15.84-20.32,5-6.14,11.56-10.38,18-14.83s13-8,19.25-12.46c4.36-3.15,7.07-7.58,10.63-11.34-2.35,2.69-4.28,5.81-7.41,7.73-1.64,1-3.56,1.77-4.12-1.27,1.75-2.39,4.33-4.07,5.68-6.79h0c6.41-9.49,11.92-19.52,17.62-29.44,5.82-10.42,12-20.59,18.75-30.46,8.75-12.84,17.72-25.55,27.42-37.7,6-7.52,11.86-15.22,19.29-21.5a34.18,34.18,0,0,0,3.35-3.55c10.85-12.3,23.17-23.17,34.4-35.1a53.39,53.39,0,0,1,.54,11.78Q619.92,387.73,603,407.68a103.35,103.35,0,0,1-11.6,11.51A5.18,5.18,0,0,0,589.3,421.9Z"/><path class="cls-15" d="M44.66,593.15l1.5.41c1.35.68,1.74,1.9.58,2.73-1.71,1.22-1.18,2.93-1.1,4.27s.93,2.89,3.1,1.46c3.76-2.49,4.46-2.2,5.49,2,.31,1.29,1.72.76,2.14,2.07,1,3.21-.48,5.44-1.84,7.91.91-1.71,2.11-3.27,3-5,.31-.63.78-1.69,1.31-1.42,2.17,1.12,4.65,1.31,6.77,2.33,1.52.73.94,2.67.83,4.19.26-1.11.62-2.32,2-2.12,3.94.59,7.58,1.74,8.91,6.41.46-1.37.63-2.79,2.26-3a3.56,3.56,0,0,1,3.75,2c1.83,3.29,5.21,3.54,8.19,3.5,4.67-.07,5.09.1,3.77,4.76.85-1.64,2.45-2.48,3.38-3.95s2.41-2.15,3.88-1.12.38,2.52.06,3.81c-.24,1-1.31,1.32-1.6,2.29.84.26,1.69.72,1.76-.69,0-.34-.17-.73-.06-1,.56-1.55-.12-4,2-4.41s2.53,1.93,3.59,3.23c1.28,1.56,3.07,2.67,3.4,5,.13.94,1.55,1.32,2.6,1.51a16.26,16.26,0,0,1,3.68,1c2.85,1.21,3.14,2.1,1.27,4.49-.35.46-1,.67-1.38,1.38a15,15,0,0,1,6.76,6.63c.46.92,1.29,1.8.5,2.88-1,1.34-2,.46-3.09,0a1.91,1.91,0,0,0-1.69,0c1,2,1.59,4.09,2.88,5.87,1.11,1.53,1.82,2.76-.33,3.94a2.08,2.08,0,0,0-1,1.73c-.27,2.92-2.21,2.83-4.59,2.37,1.19,1.77,1,3.56.64,5.41-.35,1.68-1,3.34-.35,5.15.73,2.08-.57,3.28-2.35,3.43-2.83.23-3.74,1.8-4,4.29-.25,2-.89,3.81-3.6,2.77A69,69,0,0,1,97,665.52c-6.43-12.73-17.31-21-28-29.53-14.18-11.26-26.16-24.33-33.07-41.43a12.76,12.76,0,0,1-.43-1.67c.44-1.56,1.44-1,1.92-.25,2,3.14,4,3,6.34.48C43.86,592.9,44.32,593,44.66,593.15Z"/><path class="cls-16" d="M106.52,603.38c.7,4.64.35,5-5.38,4-4.3-.77-8.49-.35-12.74.22-3.51.47-6.84-.92-10.15-1.78-1.37-.36-3.48-.5-3.87-.82-2.44-2-6-1-7.84-2.53a23.51,23.51,0,0,0-8.9-4.64c-2.56-.75-4.35-4.06-5.29-6.85-.28-.84.17-1.15-1-1.77-2.18-1.1-4.54-2.51-4.82-5.49,0-.12,0-.3-.06-.33-4.48-2.56-4.35-8.65-8.52-11.29-1.74-1.1-1-2.68-1.52-3.92a55.06,55.06,0,0,0-7-12.67c-.35-.45-.87-1.11-.76-1.52,1.19-4.26-1.9-6.91-3.6-10.1a7,7,0,0,0-4.6-3.79A215.87,215.87,0,0,0,4.72,505.34C3,502.28,0,499.82,0,495.9a295,295,0,0,1,28.79,28.87c7.43,8.48,14.93,16.87,21.54,26,4.21,5.83,8.08,11.92,12.41,17.66,9.68,12.85,21.13,23.71,35.58,31.17A56.47,56.47,0,0,0,106.52,603.38Z"/><path class="cls-5" d="M294.59,70.79c.78,7.71,1.81,15.4,1.53,23.18a14.4,14.4,0,0,1,0,1.74c-.56,4.4-.55,4.39-5.09,4.25a2.64,2.64,0,0,0-2,.46c2.24.41,4.82-1,6.57,1.49,1.23,1.77,1.37,2.91-1.1,3.43a42.65,42.65,0,0,1-4.35.65c.71.46,2,.36,1.81,1.67-.14.87-1,1.23-1.75,1.54a11,11,0,0,1-3.41.66c-1,.06-1.12.64-.85,1.47.93.16,1.4-.67,2.1-1s1.46-1,2.25-.58.46,1.42.18,2.16c-.72,1.94.54,0,.62.32,1.74-.42,2.3.91,2.69,2.07.51,1.52-.7,2.1-1.89,2.33-1.37.26-2.78.26-4,1.18a1.06,1.06,0,0,1-1.56-.14,6,6,0,0,0-4.46-2.3c-1.41-.18-1.26-1.74-1.65-2.8-.49-1.32,0-2.68-.37-4.58-.36,3,.94,5.57-.26,8q.87,9,1.74,18a130.8,130.8,0,0,0,4.13,22c.53,1.94-.11,3.05-1.6,3.52-2,.62-1.76-1.44-2-2.4-3.14-11-7.69-21.5-11.67-32.24-1,.07-.79.94-.77,1.55a89.2,89.2,0,0,0,4.31,26c1.93,5.91,3.54,11.93,6.1,17.63.9,2,1,3.94-1.9,4.42-8.16-9.27-13.94-19.66-14.72-32.25-.3-4.9-.89-9.55-3.06-14.13-3-6.21-2.44-13-1.12-19.52a95.36,95.36,0,0,0,2.23-18.28c.1-11.21,5.21-20.78,10.18-30.38,3.05,1,5.32,3.14,7.78,5,.39.28.29,1.79,1.23.29.69-1.12,2.14-1.33,3.25-1.92,1.85-1,3.09-.57,2.47,1.77-.41,1.53.1,1.88,1.43,1.89,1.05,0,2.05.43,3.1.41C293.07,67.29,294.44,68.36,294.59,70.79Z"/><path class="cls-9" d="M249.07,232.51c-3-2.59-3.89-6.65-7.1-9.29q3,7.89,5.92,15.77c0,1.35-.85,2.49.53,4,2,2.3.67,7.29-1.85,8.55a4.11,4.11,0,0,1-2.2-2.12,148.11,148.11,0,0,0-15.61-20.4c-7.21-8-11.25-17.8-13.16-28.38-.57-3.19-1.81-6.24-1.9-9.52a2,2,0,0,1,.54-.87c.37-.38,1.2-.42,1-1.21-.65-2.59.87-3.33,3-3.58s2.75-1.15,1.27-2.95c-.22-.27-.64-.61-.53-.85.66-1.37,1.76-2.6-.13-4-.38-.29.78-1.54,1.54-2.07,3.41-2.34,2.84-6.69,4.89-9.75.62-.92-.46-1.92-1.5-2.39a4.59,4.59,0,0,1-2.21-1.63c-1.13-1.75-1.94-3.41.94-4.22,1.27-.36,1.89-1.77,3.26-1.93,4.46,2.59,8,6.36,11.42,10,8.81,9.38,16.92,19.35,23.29,30.61a10.8,10.8,0,0,1,.62,1.58c-2,.65-2.81,2.08-3.15,4.13-1,5.78-1.22,11.66-2.56,17.38-.78,3.31-2.35,6.35-1.93,10.06A2.89,2.89,0,0,1,249.07,232.51Z"/><path class="cls-17" d="M13.69,489.23c8.4,5.95,17.25,11.38,24.41,18.88,8.86,9.28,18,18.28,26.16,28.25,10,12.22,19,25.41,31,35.95a19.28,19.28,0,0,0,4.51,3.21c12.68,6,25.33,12,38.84,15.84a56.72,56.72,0,0,0,11.65,4.57c7.55,2.35,14.46,6.22,21.84,8.86,8.55,3.07,17.14,6.11,26.14,7.88a91.16,91.16,0,0,1,24.79,8.76c9,4.73,18.39,8.82,27.63,13.14,10.89,5.11,21.82,10.13,32.7,15.26,6.28,3,12.65,5.77,18.67,9.2,5,2.85,9.57,6.5,14.31,9.81.84.58,1.39,1.64,2.64,1.46a318.57,318.57,0,0,1,34,27c-10.21-2.69-19.32-6.41-27.47-12.34-1.4.08-2.4-.82-3.46-1.49-4.82-3-9.76-5.93-14.36-9.28-9.8-7.13-20.8-11.94-31.91-16.41-8.63-3.47-17.23-7-25.55-11.1-15-7.44-29.74-15.32-45.53-20.87-5.55-2-11.51-2.67-17.23-4.13-10.4-2.66-20.13-7.06-29.84-11.53-10.09-4.65-20.77-7.79-31.1-11.85-13.22-4.63-26-10.13-37.54-18.25a42.26,42.26,0,0,1-9.4-9.8c-9.51-13-19.87-25.26-29.8-37.89a74.72,74.72,0,0,0-9.68-10.51c-3.19-2.76-5.77-6.08-8.71-9.06-5.75-5.84-12.66-10.24-19-15.36-1.91-1.55-3.69-3.21-5.47-4.88-.7-.66-1.76-1.41-.55-2.56A19.41,19.41,0,0,1,13.69,489.23Z"/><path class="cls-4" d="M229.09,562.51c-.67-.07-1.74-.45-2-.17-2.72,3.6-6.79,5.26-10.45,7.53-.71.43-1,1.49-1.54,2.26-1.24,1.86-2.51,3.67-5.11,3.62a1.91,1.91,0,0,0-1,.21c-2.41,1.71-5.23,2.51-7.85,3.7-4.37,2-8.32,4.69-13.39,4.7-1.52,0-2.21,1.57-3.08,2.64a1.24,1.24,0,0,0,0,1.61c.54.61,1,.14,1.49-.22,1.32-1.1,2.51-.52,4.09.21-2.06,1.53-4.65,1.41-6,3.6-.57.92-1.72-.2-2.21-.93-.77-1.14-1.36-2.4-2.83-2.63.28-1.49,1.35-1,2-1.33,1.18-.5,2.53-.74,2.48-2.47a1.44,1.44,0,0,0-1.06-1.57c-1.43-.42-2.89-.55-3.82.78-1.36,1.94-2.9,3.25-5.43,2.59a5.84,5.84,0,0,1-1-.7c3.23,0,3.3-3.21,5.48-4.28,1.13-.56.28-1.38-.63-1.59-2.82-.63-4.79-3.4-8-3.14a1.65,1.65,0,0,1-1-.72c1.06-2.63-1.85-4-1.94-6.24-.1-2.49-1.56-3.79-3.93-4.07-1.62-.19-2.34-1-2.79-2.6-1.11-3.83-2.43-7.6-3.67-11.39-.07-.22,0-.59-.15-.66-5.35-3-3.77-8.69-3.71-12.76.06-4.26-2.31-6.86-3.68-10-1.2-2.73-5-2.26-7.77-1.86-2.06.29-3.85,1.86-5.66,3.06a21,21,0,0,1-9.13,3.63,9.1,9.1,0,0,0-3.89,1.19c-5.52,3.16-11.61,3.27-17.73,3.62-5.43.3-9.82-1.7-14-4.81-1-.75-2.32-1.61-3.44-1.54-3.79.26-5.79-2.35-8.14-4.48a7.19,7.19,0,0,0-2.64-1.58c-2.26-.74-4.18-2-4.65-4.66a3.38,3.38,0,0,0-.7-1.9c-4.69-4-7.28-8.9-7.26-15.15a2.67,2.67,0,0,0-1-2.09c-4-1.72-2.68-5-2.13-7.77.33-1.64.51-2.41-1.17-3.25-2.06-1.05-.74-1.9.48-2.58a47,47,0,0,1,11.36,4.25c2,3.55-1,7.39.77,10.8-.41.52.48.28,0,.2-.2,0-.12-.11,0-.35,1.32-1.93,2.5-1.24,2.75.51.46,3.19,2.07,6.14,1.56,9.55a4.32,4.32,0,0,0,2.85,4.74c3,.74,4.33,2.81,5.9,5,.87,1.2,1.78,3.23,3.88,1.26a1.45,1.45,0,0,1,1.67.11c4.27,3.46,9.73,3.86,14.59,5.8,1.67.67,2.65-.65,3.92-.44,2.43.41,4.82-.65,7.24,0,.9.24,2.18.35,2.62-.47,1.65-3.08,4.71-2.93,7.63-3.44-.59-.84-2-.89-1.6-2.05s1.3-1.21,2.23-1.38a5.06,5.06,0,0,1,2.33.52c3,.84,5.22-.58,6.49-4a131.5,131.5,0,0,1,17.93,4.65,9,9,0,0,0,5.79,8.24c1.51.63,1.47,1.59,1.16,2.78-.94,3.56-2.07,7.16,2.44,9.28,0,2.92.66,5.49,3.68,6.79.1,0,.08.49-.05.65-2.6,3-.72,4.47,1.66,6.43,1.56,1.3,2.27,3.71,3.36,6-.35-1.54-1.26-3.13,1.09-3.29,1.7-.11,3.41-.08,3.29,2.39a4,4,0,0,0,0,1c.46,2.58,4-.33,4.48,2.6.54,3.15,2.14,1.84,4,.81s3.7-.85,3.82,2c-.11.75.33,1.5,0,2.26.36-.76-.13-1.53,0-2.3,2.27-.47,4.78-.24,6.08-2.95.5-1,1.86-.52,2.9-.35,3.7.6,7.55,2.19,10.6-1.64.34-.44,1.08-.38,1.66-.34,3.59.25,6.2-.72,6.53-4.89.1-1.41,1.28-1.68,2.51-1.93,4.19-.87,4.24-1,2.23-4.94-.21-.41-.43-.82-.63-1.24-1-2.07-1.15-3.47,1.91-2.76.55.13.64-.52.83-.91a43.24,43.24,0,0,1,11.67,7,1.9,1.9,0,0,1,1.38,2.89c-1.06,2.51-1.77,5.2-3.75,7.23C230.82,564.49,230.51,562.57,229.09,562.51Z"/><path class="cls-18" d="M504.83,425.81c.87.89,1.74-.08,2.93,0-1.15,2.5-1.37,3.74,2.25,2.74a4.86,4.86,0,0,1,5.77,3.44,2,2,0,0,1,0,.35c4.22-1,4.14,4.75,7.67,4.86.72,0,1.43.23,1.54,1.09s-.43,1.06-1.06,1.08c-1.07,0-1.93.23-1.64,1.57s1,2.56,2.48,2.52c3.44-.12,4.05,1.74,4.39,4.75.31,2.74-1,6.29,2.87,8,.74.34-.38,1.85-.63,2.83a3.85,3.85,0,0,0,1.74,4.22c1.43,1,2-.55,2.86-1.14-1.76,4.93-5,9-7.8,13.35-6.06,9.56-12,19.16-17.59,29a28.87,28.87,0,0,1-2,2.8,1.29,1.29,0,0,1-.21-1.86c.72-1,2.09-2,.42-3.17-1.34-.93-2.33-.47-3.37,1-1.79,2.55-5.36,2.66-7.51,4.86-3.43-3-5.45,1-8.17,1.61a38.87,38.87,0,0,1-12.88.26c-3.7-.42-7.55-2.3-11.49-.79-.68.26-1.79.39-2.26-.41-1.6-2.74-4.12-3.22-7-3.5-3.93-.38-6.87-2.71-9.06-5.9-.77-1.12-1.9-1.22-2.93-1.67-2.19-1-4.83-1.52-4.77-4.77,0-.69-.56-1-1.13-1.14-5.18-1.7-6.09-6.36-7.45-10.72,3.49-1.61,6.81-3.6,10.61-4.48,3,0,5.77.14,5.8,4.24,0,.84.85,1.33,1.62,1.7s1.89.91,1.05,2A2,2,0,0,1,447,485c-1.15-.9-2.4-1.64-3.54-2.52,2.72,1.4,4.24,4.27,7.35,5.39,2.73,1,2.61,2.49.23,4.48,3.81-3.15,6.61.57,8.57,2.15,2.85,2.28,5.94,1.74,8.82,2.66,2,.62,4,.65,5.74,2.13,1.54,1.31,3.37,1.32,4.43-.67,1.22-2.3,2.89-1.71,4.38-.78,2.2,1.36,3.24,1,4-1.53s5.18-4.07,7.49-2.87c1.88,1,.25,2.45.41,3.68,1.37.08,1.8-.72,2.18-1.82,1.16-3.37,3.83-4.8,7.15-5.32a6.6,6.6,0,0,0,5.61-7.73c-.21-1.39.23-2.27,1.71-2.46.58-.08,1.17-.07,1.74-.18,3.55-.66,4-1.31,3-4.71-.77-2.62-.22-3.38,2.27-3.12.82-.27,1.59.88,2.7-.06-1.09-.55-2,.4-2.86,0a1.34,1.34,0,0,1-.15-1.89c1.86-2.58.8-4.48-1.22-6.35a29.12,29.12,0,0,1-3.8-4c-2.59-3.53-2.21-4.75,2.22-6.38-1.76-1-3.77-1.26-5.48-2.19-.92-.5-1-.11-1.46.44-1.21,1.4-2.31.29-3.33-.39-1.42-.95-.19-1.49.23-2.41.95-2.06.88-4.74,4.16-4.82-.28-1.41-1.76-1-2.21-2.12-.86-2.09-2.06-.18-3,.11-1.27.38-1,1.36-.32,2.21a12.51,12.51,0,0,1,1.17,1.73c.71,1.36,1.08,2.62-.8,3.4-1.46.62-2.55.68-3.41-1-1.5-3-4.37-4.61-7-6.33-1.36-.87-2.94-.25-4.39.16l-.49-.08c2.82-5.15,7.55-8.54,11.79-12.29A51,51,0,0,1,504.83,425.81Z"/><path class="cls-14" d="M194.57,379.22c5.73,8.26,10.24,17.24,14.49,26.29,5,10.59,13.32,17.59,22.37,24.4,8.54,6.41,15.43,14.61,21.58,23.41,3.23,4.63,5.9,9.68,9.87,13.78,2.37,1,3,3.4,4.2,5.27a44.9,44.9,0,0,1,4.75,8.75c7.12,13,14.91,25.58,22.79,38.11q6,9.59,11.76,19.33c1.19,2,2.41,4.15,2.2,7.45-5.94-5.12-11.68-9.51-15.8-15.66-5.41-8.09-10.92-16.13-16.39-24.19C270,497.3,265,487.51,259,478.37c-6.26-9.53-12.21-19.28-19.6-28-5-5.89-10.37-11.57-16.75-15.76-10.9-7.14-18-16.9-22.94-28.64-1.12-2.67-2.26-5.33-3.39-8-4.29-10.53-10.85-19.58-18.15-28.2-6.8-8-13.22-16.41-20-24.47-4.4-5.22-9.16-10.13-13.75-15.19-1.06-1.18-2.13-1.84-3.41-.3,1-3.4,3.66-3.52,6.41-2.93a59.07,59.07,0,0,1,6,1.93c3.88,2.34,6.4,6,9.17,9.44,8.5,10.46,17.18,20.77,25.79,31.13C190.84,372.34,193.73,375.16,194.57,379.22Z"/><path class="cls-19" d="M344,415.36c12.26-5.09,24.58-10,36.72-15.34a41.25,41.25,0,0,0,12.43-7.9c6.67-6.35,11.35-14.05,17-21.06,3.49-4.32,6.35-9.16,10-13.33,6.89-7.86,13.66-15.93,21.35-23C451.08,326,459.39,316,469.65,308c.21-.16.16-.64.24-1,12-6.56,23.91-13.24,36.36-18.92-8.43,7.65-17.54,14.44-26.58,21.34a48.88,48.88,0,0,0-6.88,5.85c-11.87,13.13-25.12,24.89-37.11,37.9-10.36,11.23-19.09,23.68-28,36a78.57,78.57,0,0,1-21.93,20.18c-4.43,2.79-10,2.69-14.87,4.71-15.65,6.57-31.84,11.88-47,19.56-4.89,2.47-9.61,5.11-15,6.33-.77.17-1.49.66-2.61-.2C316.31,427.57,329.83,421,344,415.36Z"/><path class="cls-20" d="M188.27,569.58c-.61-1.88-1.79-2.94-3.62-1.64-3.65,2.59-4.66,2.23-5.26-2.22-4,1.21-4,1.21-4-3.45,0-.95,0-.95-3.35-1.07-.76.76.24,1.2.4,1.77.31,1.09.62,2.23-.91,2.42-1.68.22-.64-1.2-.95-1.78-1.31-2.45-1.82-6-4.74-6.74-3.39-.89-2-2.15-1.09-3.81.72-1.29,3.49-3.39-1.05-2.9-1,.1-2-1.08-1.62-1.89,1.14-2.73-.59-3.76-2.15-5.57-2.52-2.92-.83-6.49.38-9.72-4.52-.46-7.86-5.29-6.64-9.38a123.17,123.17,0,0,1,22.11,7.46c9.75,4.34,20.06,6.58,30.33,9.07A56,56,0,0,1,223,547.32a3.38,3.38,0,0,1,1,2.77c-1.63.43-2-1.66-3.73-1.36.66,1.45,1.22,2.87,1.94,4.2,1.8,3.28.89,5-3,5.17-1.48.06-2.21,0-2.37,1.86-.31,4-2.59,5.61-6.58,5-1.1-.17-1.85-.52-2.59.74-1.54,2.61-3.82,2.07-6.45,1.81s-6.1-2.79-8,1.83c-1.09,2.65-3.27-.94-4.87.25Z"/><path class="cls-21" d="M333.83,149.9c-2.85-3.48-.77-7.25-.17-10.65a207.66,207.66,0,0,0,3.62-34.35c0-4.74.55-9.5-.73-14.37l-2.19,9.37a1,1,0,0,1-1.7.38c-2.46-2.46-6.18-4.2-6-8.4.13-2.66-1-2-2.4-1.34a6,6,0,0,1-1.62.66,2.16,2.16,0,0,1-2.43-1c-.52-.91-.54-1.83.54-2.37a2,2,0,0,0,1.11-1.93c.34-3.48.41-3.46-3.1-3.37a10.5,10.5,0,0,1-2.44-.08c-1.18-.73-1.23-2-1.13-3.08.59-6.47,0-12.91-.42-19.35a2.35,2.35,0,0,1,.37-1.65,3.07,3.07,0,0,1,3.18-.88c1.62.46,2.45-.54,3-1.75.93-2.09.92-4.5,2.21-6.53.57-.89-.25-1.61-1.07-2.25-1.45-1.13-.9-2.76.45-2.86,2.92-.21,4.57-2.57,7-3.4a150.88,150.88,0,0,1,17.29,26c2.08,4,1.91,8.82,2.3,13.32,2.13,24.45-3.24,47.32-14.83,68.83A6.27,6.27,0,0,1,333.83,149.9Z"/><path class="cls-22" d="M271.83,481.12a161.5,161.5,0,0,1-8.95-14c-1.56-3.36-1.66-7.11-2.66-10.63-.17-.6-.65-3,1.62-3,.64,0,1.21-.05,1.1-.9a1,1,0,0,0-.89-.91,1.29,1.29,0,0,1-.35-.05c-3.35-1.75-1.24-5-1.83-7.47-.37-1.56.42-4,3.34-3a.51.51,0,0,0,.72-.44c.12-.62-.09-1.43-.6-1.5-3-.41-3.06-2.06-3.1-4.68a12.61,12.61,0,0,0-1.52-4.54c-.52-1-.2-1.63.76-1.87s1.47.3,1.33,1.38.15,1.89,1.55,1.4,1.06-1.23.32-2.06a2.09,2.09,0,0,1,.24-3.13c3.68-2.21,1.64-6,2.59-8.95l-.6.65c-.66.69-1.24,2.33-2.27,1.4s-.69-3.78-.34-3.8c4.18-.18,1.94-3.89,3.23-5.56.18-.22.08-.65.1-1-1.23-.63-2.17.87-3.74.15,3.47-1,1.27-4.93,3.85-6.36,9.74,12.48,16.45,26.57,22.15,41.21a11.2,11.2,0,0,0-1.88,1.26c.84-.33,1.39-.8,2.13-.76,3.14,6.44,5,13.36,7.29,20.09.29.82-.32,2.52,1.6,2.27a5.11,5.11,0,0,1-1.09,5.42c-1.76,2.11-.71,8.92,1.39,10.59,1.67,1.32,4.34,2.07,2.19,5.16-.31.45.87,1.93,1.57,3.37,2-4.69,5.12-2.85,8-2.12.39,2.09.95,4.16.56,6.31-.88.57-1.75.22-2.65.07-3.09-.54-3.65.2-2.63,3.8,1.49-1.73,2.94-3.41,5.42-3a5.44,5.44,0,0,1,.33,3.49c-2.33,1-3.21,2.34-.86,4.18,1.79,1.41,0,3.93,1.8,5.24a4.14,4.14,0,0,1,.39,3c-1.52-1-3-1.09-4.53.58-.28-2.57-.49-4.92-.79-7.26s-2.68-3.18-3.93-4.83a28.62,28.62,0,0,1-3.35-5.94,59.18,59.18,0,0,0-5.32-10.09c-1.53-2.19.73-5.57-1.42-6.38-2.6-1-3.52-2.9-4.74-4.73-1.08-1.62-2.15-3.34-1.7-5.64.36-1.84-2-1.88-2.91-2.95-1.8-2.05-2.91-4.39-4.35-6.59-3.37-5.12-7.13-10-10.73-15-1.16.82-1,1.54-.68,2.16,5.07,10.21,9,21,14.65,30.88,4,7,7.71,14.18,11,21.53.38.85.88,1.91-.07,2.5s-1.78-.34-2.31-1.07a25.19,25.19,0,0,1-1.93-3.3c-4.75-9.08-11.8-16.52-17.7-24.78-.38-.53-.76-.91-1.4-.69s-.57,1-.51,1.5c.32,2.58,1.75,4.75,2.74,7.08A2.83,2.83,0,0,1,271.83,481.12Z"/><path class="cls-3" d="M380.56,187.36c9.27-6.63,18.95-12.57,29.55-16.82,10.94-4.39,20.8-10.65,30.77-16.8,6.05-3.74,11.34-8.54,17.56-12,.34,2.52-1.34,4.09-2.75,5.75-8.62,10.16-16.46,21-25.42,30.88A188.53,188.53,0,0,0,417,195.22a28,28,0,0,1-3.55,4.29c-7.15,7.64-13.77,15.74-20.3,23.91a15.36,15.36,0,0,1-3.2,3.19c-2.85,1.06-3.4-1.08-3.21-2.88a6,6,0,0,0-1.75-5.29c-1.12-1.19-1.24-3-1.09-4.64.11-1.17.53-2.34,2.38-2-2.6-.14-4.3-.83-2.54-3.69a1.2,1.2,0,0,0,0-1.35c-2.55-2.5-2.34-6.2-2.71-9.09-.36-2.72-1.12-5.54-1.11-8.36C379.85,188.64,380.51,188.08,380.56,187.36Z"/><path class="cls-3" d="M194.57,379.22c-4.49-6.62-9.89-12.5-15-18.61-5.93-7.09-11.86-14.19-17.53-21.49-2.76-3.56-6.35-6.41-8.65-10.33,18.13,3.35,36.61,5.52,52.41,16.44a234.78,234.78,0,0,1,32,26.3c-.5,2.08-1.4,1.58-2.61.51-3.32-2.93-5.51-2.58-8,1.17-1.34,2-3.78,2.42-5,.44-1.71-2.83-5.51-2.52-7.28-5.48-.64-1.07-3.44.54-5.08,1.1A49.11,49.11,0,0,0,199.26,374c-1.81,1.15-3.37-.44-4.81-1.34-.67-.42-1.25-1.43-2-.69-.93.94.19,1.63.8,2.26a4.42,4.42,0,0,0,4.35,1.65C195.76,377.14,194.64,377.8,194.57,379.22Z"/><path class="cls-23" d="M380.56,187.36c.6,2.32-1.62,5.94,4.25,6.14-3.63,1.61-4.9,3.08-2.33,5.47.67.63.37,1.66.17,2.62s-.2,2.59.78,3.22c2.89,1.86,1.28,3.58.07,5.41.81.86,1.87.71,2.88.73.72,0,1.47.07,1.6,1a1.85,1.85,0,0,1-.31,1.28c-.57.73-1.23.51-1.72-.14-1-1.39-1.4-.25-1.32.49.18,1.82-.17,3.79,1.8,5.17,1.23.87,2.49,2.24,1.17,4.1-1.17,1.66.62,2.76.85,4.16.37,3.46-2.48,5.53-3.66,8.33-4.18,9.94-12.9,14.14-22.4,17.28A40.09,40.09,0,0,0,354,256c-1.12.67-2.39,1-3.49-.2a25.3,25.3,0,0,0,1.73-2.17,1.46,1.46,0,0,0,.09-1.27c-.27-.51-.79-.35-1.12.07s-.62,1.1-1.34.64c-1-.64.09-1.16.16-1.74.1-.78,0-1.76,1.32-1.54l4.62.82c-2.06-1.41-2.35-2.84-2.1-4.3a4.43,4.43,0,0,0-1.41-4c-1.81-2-1.57-3.85.56-5.22,1.61-1,1.35-2.36.42-3.15-1.9-1.62-1.64-2.53.52-3.3.76-.27,1.19-.73,1-1.55a1,1,0,0,0-1.27-.87c-1.38.42-2.37-.51-2.22-1.4.23-1.37-.65-3.07.71-4.11,1-.74,2.65-.85,1.72-2.69s-2.37-1.41-3.84-.84c4.28-5.35,8.45-10.77,12.85-16A94.31,94.31,0,0,1,380.56,187.36Z"/><path class="cls-13" d="M199.88,427c-1.11,3-2.89,4.27-6,2.5-2.16-1.21-4.49-.86-6.73-.18-1.2.37-3.31,1.13-3.31.06,0-2.13-3.62-2.63-1.89-5.18a2.81,2.81,0,0,0-.27-3c-.62-.93-1.66,0-2.43.39s-1.48.82-2.21.08c-1-1,.78-1.55.43-2.46-3.63.6-4.3.18-4.8-4.74-.27-2.66-1.76-4.15-3.25-6.07s-3.07.75-4.17-.76,1.66-3.55,0-4.4c-3.89-2-4.37-6.33-7.12-9.13l-1.73,1.45c-1.13-12.6-2.45-25.18-6.35-37.31-1.38-4.29-2.92-8.53-4.39-12.8,10.06,10.55,19.91,21.26,28.92,32.75,8.87,11.33,13.87,24.49,18.94,37.67A41.18,41.18,0,0,0,199.88,427Z"/><path class="cls-19" d="M350.52,255.79c3.63.47,6.06-2.38,9.15-3.45,7-2.43,14.48-4.26,19.68-10.33a41,41,0,0,0,5.32-8.5c1.14-2.28,3.11-4,3.78-6.55,9.31-10.77,18-22.1,27.94-32.31,2.62-4,6.31-7.09,9.19-10.89,4.5-5.95,9.94-11.1,14.81-16.74,7.31-8.45,13.93-17.47,21.56-25.68,3-3.24,5.86-5.86,10.36-6.21l.59.36a323.94,323.94,0,0,0-20.32,25.65,160.57,160.57,0,0,1-15.41,19.32c-1.4,2.78-4.37,4.3-5.72,7.11-2.53,4.26-6.05,7.7-9.38,11.31-1.59,2.93-4.64,4.66-6.21,7.61q-9.67,11.47-19.32,23c-3.08,3.69-5.08,8.06-7.43,12.2-5.41,9.53-14.2,14.37-24.14,17.7s-19.84,7.39-28.65,13.4A64.39,64.39,0,0,0,326,282.13c-2.92,3.11-6.61,4.93-11,6.5,1.17-3.75,2.32-7,4.59-9.69a83.05,83.05,0,0,1,16-15c3.88-2.68,8.38-4.44,12.59-6.64C349,256.84,349.74,256.29,350.52,255.79Z"/><path class="cls-24" d="M209.72,697.93a31.72,31.72,0,0,0,2.93-4.27c1.53-3.24,3.46-2.84,5.79-1,.44.34,1.22.46.67,1.22-1.57,2.2,1,2.69,1.77,3.25,1.1.83,1.78-.94,2.48-1.76a12.24,12.24,0,0,0,1.11-2.2,7.83,7.83,0,0,0,3.4,2.45c.57.28,1.61.3,1.5,1.2-.71,5.5,1.33,2.92,3.25,1.17,1.14-1.05,2.2,0,3.17.49s.54,1.11.11,1.95c-1,1.93,2.25,8.53,4.17,8.93a.93.93,0,0,0,.88-.24c2.33-1.59,4.29-.5,4.25,2.67,0,1.27,0,1.94,1.24,2.33.81.26,2.05.29,1.66,1.71-.31,1.13-1.32,1.15-2.26,1.22s-1.59.17-2.44.26c2.4,4.54,4.1,5.33,6.06,2.85a16.47,16.47,0,0,0,1.61-3.06c.38-.76.56-2.44,1.48-1.8s1.73,2,2.77,2.87c.46.41-1,1.62-2.2,1.41s-1.86.58-1.75,1.17c.2,1.17,1.58.2,1.86.41,2.19,1.73,3.29.2,4.56-1.54-.24,3-.92,6.06,4.34,5.92a5.63,5.63,0,0,1-4.17.75c-1.27-.17-1.58.65-1.84,1.61-.31,1.15.13,1.86,1.28,2,2.56.27,3,1.78,2.42,4.07-1.2-.31-.86-1.26-1-1.93s-.37-1.11-1.11-1c-.52.1-.95.62-.74,1,.82,1.46.3,2.09-1.09,2.79-1.13.55-1,1.75-.19,2.69,1.45,1.72.12,2.15-1.17,2.63a122.75,122.75,0,0,1-20.45-12.41C223,719.26,210.42,716,196.9,715.05c-1.94-.13-3.86-.5-5.79-.76-.15-1.14-.26-2.29-.46-3.43-.27-1.51-2.13-3.93,1.78-3,.22.06.85-.57.87-.89.11-3.41,3-3.93,5.21-5.26.87-.53,3.52-.58,1.34-2.78-.23-.23-.24-1.25.31-1,2.28,1.19,1.87-2.79,3.73-1.86,1.19.59.24,1.65.07,2.46-.28,1.35-.64,2.65.66,4.11.5-1.5,1.32-2.76,1.23-4-.13-1.7.39-2.84,1.83-3.27,2.19-.65,1,1.92,2,2.44.66,2.53,2,3.09,5.11,2C212.5,700.85,211.14,699.32,209.72,697.93Z"/><path class="cls-25" d="M456.59,470.8c12.29-4.44,20.51-13.6,27.86-23.83a69,69,0,0,1,4.58-5.26l.12.1a26.8,26.8,0,0,0,3.44.56c.73,0,1.83.51,1.6,1-1.29,2.71,1.45,2.48,2.37,3.56a3.93,3.93,0,0,1,.79,3c-.09,1.28-.35,2.56.83,3.54.27.22.51.66.39.93-1.81,4-1,8.33-1.35,12.41,2.12-2.22,1-5.18.8-7.64-.14-2-.35-3.64,1.44-4.28,2.2-.78,3.23,1.46,4.28,2.84,1.44,1.9-.53,2.49-2.05,3.46,2.55-.21,3.59.73,3.34,3s.94,5-3.26,5.17c1.39.85,2.76.8,3.63,1.73s1.53,2.13.69,3.44-1.76.58-2.75.18a44.15,44.15,0,0,1-4.8-2.06,1.62,1.62,0,0,0-2,0c-.52.47-.34,1.07-.07,1.6.94,1.86.9,2.89-1.44,4-1.41.65-.26,3,1.22,3.36,2.89.75,2.78,2.7,2.53,4.84-.22,1.92-1,2.94-3.26,2.35s-5.18-1.57-6.13,2.2c-3.08.39-6,2.24-9.25,1.11-.73-.25-1.41-.92-2.25-.37a.85.85,0,0,0-.22.66c.06,1.18,1.85,2.87-.54,3.36-1.95.4-3.3-.91-3.77-2.85-.39-1.66-.12-3.22,1.74-5-4.2,3.19-8.28,2.14-12.17,1.86-1.51-.1-1.8-2.57-.7-4,.59-.78,1.71-.71,2.32-1.58-.61-.54-1,.45-1.36.26-3-1.75-6.06-2.92-9.48-1-.34.19-1.12-.46-1-.74,1-2.26-1.32-4.22-.62-6.29A10.29,10.29,0,0,1,456.59,470.8Z"/><path class="cls-26" d="M456.59,470.8l-3.22,4.52a2.76,2.76,0,0,0,0,3.79c.35.4,1.12.48.87,1.28s-1.85,1.39-.7,2.26,1.82-.44,2.6-1.09,5.87.32,5.92,1.27c.09,1.92.65,1.53,1.39.47.32-.46-.13-1.61,1-1.23A2.6,2.6,0,0,1,466,484.3c.2,1-.53,1.25-1.26,1.2-1.9-.12-2.5.93-2.35,2.57.19,2,1.65,1.1,2.64,1,3.39-.39,7.39,1.46,9.81-2.65.11-.2,1-.2,1.27,0,.66.43.28,1-.1,1.46s-.81.84-1.15,1.31c-2,2.77-.87,5.15,2.75,5.88,0-.33.11-.7,0-.94-.56-1.06-2.1-2.16-.89-3.27.78-.71,2.56-1.51,3.51.42,1.75-.87,4,1.89,5.6-.89.86-1.46,1.9.33,2.9.54-.11-3.14,3.56-4.88,7.2-3.24,1,.43,1.74,1.23,2-.17s.94-4.44-.46-4.51c-4.36-.22-3.17-3.56-4.19-6,1.68-.18,5.89,1.24,2.08-2.76-.55-.58-.76-2.41.26-2.82s3.08-.42,3.58.23c1.45,1.91,4,1,5.39,2.66.42.53.88.29,1.09-.14a1.81,1.81,0,0,0,.18-1.31c-.67-1.51-1.73-2.45-3.56-2-1.22.28-1.8-.43-1.75-1.53s1-2,1.86-1.4c2.36,1.51,1.88-.18,1.87-1.44,0-1.5,0-3-.07-4.54-1.22-.9-2.36,2.56-3.28.3-.47-1.17-.49-3.53,2.29-2.91a1.37,1.37,0,0,0,.35,0c-.15-.54-.25-1.53-.44-1.55-1.66-.16-1.55-2.94-3.44-2.38-.8.24-1.94,1.34-1.23,2.12,2,2.17-1.16,5.4,1.69,7.23a8.72,8.72,0,0,0-2.83,4.84,19.28,19.28,0,0,1-.75-4.27c-.38-2.44.08-4.58.27-6.88.09-1-.36-1.89.73-2.66.36-.25.34-1,.49-1.59-3.57-.83-1.13-3.35-1.38-5.08-.34-2.36-.35-2.41-4.51-1.49-.45-1.05.63-1.33,1-1.95.83-1.38,1.68-2.68-1.11-2.42-1.19.12-2.36-.06-2.83-1.45a3.68,3.68,0,0,1,5.77-.74c1.49,1.31,3.75,1.63,4.73,3.9.45,1,2.65,1.14,2.21,3.34-.13.66,1.33.48,2.09.17s1.4-.47,1.06-1.43c-.11-.33-.44-.59-.5-.92-.29-1.71-3-2.14-2.31-4.36.22-.67,2.71-1.67,6.35-2.67.67.69-2.12,3.57,1.45,2.65.23-.06,1.14,1.12.91,2.06-.14.56-.24,1.11-1.13.85-2.57-.77-3.27,1.32-3.18,2.89.06,1.3-2.15,1.42-1,2.67.48.53,1.41,1.18,2,1,1.62-.42-.08-2.1,1-3.25,1.6,3.2,4.8,3.08,7.53,3.89.53.16,1.23-.08,1.27.74a1.21,1.21,0,0,1-1.24,1.37c-.57,0-1.31-.23-1.71,0-1.45,1-3.37,1.56-1.24,4.09,1.54,1.82,3.2,3.63,4.86,5.23,2.42,2.34,3.16,4.14.74,6.74-.32.34-.19,1.09-.27,1.65-2.46.05-2.12,1.48-1.49,3.05,1.7,4.26,1.51,4.61-3.09,5.67-4.37,1-4.38,1.06-1.43,4.39-.19,1-1.48.53-1.61.93-1.61,5.08-6.68,4.54-10.23,6.45a4.78,4.78,0,0,0-2.95,4.4c-.15,2.74-3.32-.14-4.05,2.57a9.68,9.68,0,0,1-.46-1.51c0-1.39,2.62-2.36,1.28-3.49-1.13-1-3.22.29-5-.05-1.33-.26-1.55,1.45-1.84,2.52-1,3.79-1.4,3.85-4.62,2-1-.58-2.79-2.35-3.73.81-.64,2.16-4.1,2.32-5.88.33-1-1.1-2-1.7-3.26-1.45-2.8.57-5.25-2.25-8.13-.68a1.09,1.09,0,0,1-1.53-1c-.2-2.3-2.35-1.74-3.44-2.61-2.12-1.68-3.81-2.75-6.22-.66-.35.3-1.56.32-1.64-.63A2.6,2.6,0,0,1,450,491c.59-.58,2.52.7,2.1-1.14a3.44,3.44,0,0,0-2.61-1.89c-3.46-.22-3.81-4.66-7.19-5-.64-.07-.29-1.72.53-2.34,1.11-.83,1.22.09,1.58.9a4.43,4.43,0,0,0,5.07,2.75c-1.89-1.25-4.36-1.81-3.36-5,.31-1-.74-1.26-1.53-1.53-1.08-.36-2.39,0-3.23-1.08Z"/><path class="cls-3" d="M589.3,421.9c-.16-1.23.81-1.85,1.48-2.6q18.72-20.82,37.46-41.61c2.32-2.57,4.68-5.1,7.06-7.62.74-.79,1.36-2.08,2.83-1.14,1.38,18.17,1.06,36.22-3.43,54-1.6-1.2-3.19-2.35-5.39-1.54a1.43,1.43,0,0,1-1.26-.26c-4.12-4.86-9.94-2.54-14.95-3.4-5.37-.93-11,1.49-16.4-.51a3.58,3.58,0,0,0-4.33,1.33C591.42,419.73,590.33,420.8,589.3,421.9Z"/><path class="cls-4" d="M403.38,613c5.7-2.2,12-2.15,17.61-4.67.21,1-.43,1.52-1,2.09a2.84,2.84,0,0,0-.86,3.17c.52,1.34,1.6.33,2.43.41,4,.4,4.85,4,5.54,6.67.55,2.12,1.39,1.57,2.09,1.12,1.84-1.18,3-.36,4.27.85a11.33,11.33,0,0,0,4.27,2.81,5.57,5.57,0,0,1,3.68,4c.84,3.89,2.84,5,6.7,4,.55-.15,1.08-.48,1.62,0,.45,1-.42,1.21-1,1.4-3.43,1.09-1.9,2.93-.73,4.71.43.65,1,1,1.71.33s1.39-2.32,2.13-.7c.34.73,3,2.72-.13,3.76a.64.64,0,0,0-.37.45c0,.78,5,7.19,5.71,7.53,1.69.81,4.68.18,4.87,2.52a6.23,6.23,0,0,1-3.74,6.41l-13.68.62c-1.68-.92-3.58-.82-5.38-1.18s-3-.93-1.5-2.94a3.26,3.26,0,0,0,.16-3.58c-.37-.84-1.41-1.72-.23-2.72l7.79-3.2c1.14-.13,1.43-1.8,2.31-1.61-.31,0-1.09.17-1.87.11l-16.89,1.84c5.36-3.86,10.74-6.45,14.93-10.74a174.34,174.34,0,0,0-29.2,9.65c-1.66.9-3,.73-3-1.42a14.27,14.27,0,0,0-2.28-7.09c-.7-1.17-1.05-2.59.39-3.67,4.34-4.21,8.68-8.41,14.43-10.95-4.51-.23-8.62,1.12-12.8,2-1.24.22-2.3.11-2.54-1.44.15-.18.3-.35.46-.51.26-3.22,2.81-4.93,4.66-7.1a30.41,30.41,0,0,1-5.94,5.13c-2,1.29-3.15.76-4.37-.87s-1.74-3.77-2.72-5.6C401,613.15,402.21,613.1,403.38,613Z"/><path class="cls-27" d="M256.45,504c6.72,8.18,14.18,15.74,20.86,24-7.4-5.52-15.09-10.57-21.4-17.31l-.89.78q9.72,11.32,19.45,22.66l-.54.7-20.76-14.28c5.3,7,11.52,11.73,16.51,17.6.39,1.31.95,2.62.56,4a16.78,16.78,0,0,0,.55,10.41,100.68,100.68,0,0,1-22.09-13c-4.92-3.66-10-7.28-13.64-12.37,2-3,.19-5.63-.84-8.41-1.26-3.4-.26-4.4,3.41-3.75a3.18,3.18,0,0,0-1.46-2.58c-.68-.61-1.2-1.55-.64-2.14,2.12-2.25,2.07-5.73,4.54-7.74.17-.15.51-.23.52-.42.28-3.93,3.39-4.34,6.25-5.07,3.37-1.25,3.6-1.14,3.76,2.41.05,1.18.91,1.19,1.6,1.42C254,501.49,255.67,502.08,256.45,504Z"/><path class="cls-28" d="M107.63,681.66c2.45.13,2.78-1.62,2.88-3.41.17-2.81.95-4.61,4.39-4.38,1.52.1,3.44-.83,1.55-3.09-1.34-1.59.14-3.28.52-4.46.88-2.82,1-4.87-2-6.2,1.19-1.19,2-.34,2.85-.2,1.76.29,3.57,1,3.16-2.15-.08-.61.11-2.4,1.9-2.21,1.05.11,1.3-1,.7-1.3-3.26-1.63-1.75-6.16-5.6-7.65,2.26-1.11,3.79-2.31,5.34-.08a.8.8,0,0,0,1.23.09c.57-.47.44-1,.06-1.53-2.33-3.18-4.17-6.93-9.23-7.4,1.73-1.8,4.55-2,4.46-5-2.06-.55-4.31-1-6.46-1.76s-4.2-1.81-2.64-5.21c-1.44.31-3.59,1.92-3-1.21.22-1.19-1.11-1.68-1.63-2.57-1.08-1.83-1.86-.87-2.26.45a6.22,6.22,0,0,0-.22,3c.25,1,1.05,2.24-.19,2.69-.87.32-2.12-.45-3.2-.73.41-.85-.29-2,1.33-2.63,1-.37,1.81-2.62.74-3.57-1.23-1.11-2.57-.22-3.1,1.43s-3.06,1.73-3.3,3.78c-.07.62-.67.51-1.1.33a1,1,0,0,1-.66-1.39,10.94,10.94,0,0,0,1.08-2.52c.13-1.36-.43-2.32-2.09-1.6-3.35,1.48-8.31,0-10.18-3-.67-1.07-1.16-2.28-2.8-2.19-1.25.07-2.2.33-1.4,1.78.42.78,1,1.49,0,2a1.68,1.68,0,0,1-2.28-1c-.34-.72-.63-1.47-.94-2.21-.78-1.86-5.94-4.7-7.5-4-1.78.82.25,2.29-.5,3.54-1.33-.2-2.23-.56-1.95-2.37.47-3.15.37-2.93-2.83-3.22-1.27-.12-2.42-1.54-3.84-2.52-1,2.63-2.27,5.33-5.11,7,.16-3,3.09-5.17,1.87-8.29a13.42,13.42,0,0,0-.44-1.31c-.12-.23-2.7-3.41-2.63-3.6.44-1.2-.49-.78-.84-.63a16.14,16.14,0,0,0-2.4,1.34c-.83.54-1.41,2.27-2.36,1.58a6.68,6.68,0,0,1-2.68-3.49c-.37-1.35,1.75-2.91-.36-4.21-.2-.13.55-.87,1.22-.73,3.27.69.81-1.35,1-2.12,1.17-1,2.49-3.8,3.1.45.11.76,2,1.25,3.31,2-.22.86-2,.59-1.79,1.85s-1,1.4-1.9,2c1.08-.48,1.87-1.16,2.92-1.11,2.59-1.11,3.9-.66,4.28,2.53.29,2.46,2.8,3.24,4.92,4.05s4.42,1.06,5.57,3.59c.78,1.7,1.78-1.1,2.36-.4,1,1.25,3,1.37,3.57,3.16.28.84,1.73,1.19,1.64.06-.27-3.26,1.28-2,2.88-1.59.75.2,1.67-.25,2.7-.45a8.74,8.74,0,0,1-.21,2.19c-.94,2.42.81,2.81,2,1.91,3-2.31,6.74,1.26,9.59-1.36.08-.08.76.25.76.36-.29,3.8,2.51,2.18,4.08,2.14s2.8-.81,3.81,1.13c.58,1.12,2.18.61,3.25.59,5.11-.09,7.63,5.76,13,5.41,1.53-.1.15,2.68.72,4,1.66.28,1.17-1.69,2.23-1.82.55-.07,1.58-1.31,1.54.42s1,2,2.41,2.27,3.09.11,1.19,2.49c-1.34,1.69.34,3.45,1.94,4.61,1.77,1.27,3.2,2.73,2.88,5.17,0,.34.13.89,0,1-1.64,1.19-3.12,2.8-.61,4,1.88.93,1.81-1.8,2.57-2.84,2.12-2.89,2.87.33,4.28.49-.23,1.18-1,1.22-1.65,1.34-1,.18-1.85.63-1.71,1.79.2,1.6,1.42.61,2.2.75,1.76.33,3.74,0,4.6,2.35.57,1.54,2.73,0,3.69,1.62a3.77,3.77,0,0,1-5-.54,3.59,3.59,0,0,0-4.33-.79,4,4,0,0,0-1.86,3.54c-.09,1.93,2.5,1.79,3.11,3.38.12.29.92.23,1.13-.32,1.4-3.68,3-.23,4.47-.31-2.38.79-2.38.79-5.36,4.87-1.72.09-1.2-3.11-3.15-2.31a4.68,4.68,0,0,0-2.42,2.86c-.21.62-.68,1.64.2,1.81,2.59.51.87,2.37,1.47,3.66-1.17.34-1.61-2.11-2.81-.59a2,2,0,0,0-.49,2.42c1,2.46-.28,4.61-2.27,5.74-3.95,2.25-4.56,4-1.82,7.81-2.16.65-4-.65-6.41-.92,1,1.42,1.41,2.81,2.36,3.38,2.84,1.72,1,2.85-.44,3.65-2.69,1.5-5.35,1.44-7.51-1.17A11.79,11.79,0,0,1,107.63,681.66Z"/><path class="cls-29" d="M135.71,519a2.65,2.65,0,0,1-.82,3.93c-1.85.79-4.18,2.1-6.07.9-1.57-1-2.46-.36-3.75,0,.18.38.23.63.38.76.88.76,2.93-.88,2.88.76s-2.47,1.9-3.57,1.85c-2.64-.11-4.4.47-5.25,3.07a1.12,1.12,0,0,1-1.41.75c-2.83-.91-5.77.37-8.59-.5a2.16,2.16,0,0,0-1,0c-2.91.66-9.68-.64-12.6-2.44-1.88-1.16-1.88-1.16-3.71.9-.56-1.73-.67-3.81-2.86-4.1-2.64-.36-.68,2.58-1.44,2.87-3.94-2.31-4.06-8-9.5-8.43-1.64-.15-3.49-4.92-3.21-6.67.52-3.24-1.65-6.1-1.57-9.35,0-.65-1.21-.83-1.25.24-.06,1.49-1.25,1.08-2.46,2.18a6.48,6.48,0,0,0,.32-5.1c-.25-.81-1-1.59-.08-2.54,1.18-1.2,1.33-2.28-.21-3.56-1.25-1.05.1-1.47.92-1.85A102.35,102.35,0,0,1,93.3,504.94c8.76,6.13,18.13,10.12,28.79,11.32A70.77,70.77,0,0,1,135.71,519Z"/><path class="cls-30" d="M315.43,58.58c.58,6.63,1.45,13.26.6,20a18,18,0,0,0,.32,3.77c1.09,5.9-.11,11.76-.44,17.62a266.34,266.34,0,0,0,.08,33.31,22.37,22.37,0,0,1-.36,5.54c-.2,11.2-3.29,22-4.61,33-.9,7.47-1.5,15-2.55,22.52a23.66,23.66,0,0,1-1-10.9,349,349,0,0,0,1-57.1c-.69-11.6.24-23.22.36-34.83.57-15.52.5-31-2.32-46.36a19,19,0,0,1-.4-5.52c-1.33-7.51-2.61-15-4-22.53-.89-4.76-2-9.49-3-14.24l8.2,10c2.43,11.25,5.19,22.44,7.16,33.79C315.23,50.53,316.58,54.48,315.43,58.58Z"/><path class="cls-20" d="M225.77,155.66c-.69,2.32-2.68,2.89-4.82,3.22,1.08,1.8,1.52,3.57,4,4,1.6.3,2.24,2.35,1.12,4a11,11,0,0,0-2.25,5.39c-.17,3-3.15,3.72-4.59,5.65,1.31,1,2.13-.47,3.17-.15.5,1-.38,1.5-.89,2-.89.89-2.77,1.18-.32,2.86,1.46,1-.23,3.8-2.26,3.74-2.3-.08-4.08-.38-2.38,3,1,1.95-.69,1.54-1.8.82-1.64-.88-1-2.91-2.05-4.09a5.58,5.58,0,0,1-.31-1c-2-8.37-6.1-15.83-9.9-23.4-4.33-8.62-8.84-17.16-13.76-25.48-2.24-3.8-4.86-7.39-6.75-11.4-.5-1.06-1.75-2-.69-3.42q20,15.11,40,30.23C222.88,153,224.29,154.36,225.77,155.66Z"/><path class="cls-31" d="M376.91,532.4a6.3,6.3,0,0,0,.85,1.1,7.71,7.71,0,0,1,1.27,3c-.19.57-.3,1.22.28,1.58.33.2,1.17.27,1.24.13,1.42-2.85,3.92-.43,5.74-1.3-1.15,1.4-3.27,2.82-3.59,3.63-1.06,2.64-5.48,3.62-3.85,7.5.32.75-.54,1.2-.78,1.83-.49,1.32-1,2.6.23,3.88a2.22,2.22,0,0,1,.29,3.15c-.72.75-1.72,1.64-3.07,1-.64-.33-1.46-.57-1.86.16s.06,2.09.6,2.08c1.34,0,1.22,4.5,3.44,1.1.33.28.81.49,1,.85.3.69.85,1.51-.16,2.14-.79.49-2,1.48-.82,2,3,1.2,2.81,3.92,3.44,6.17.46,1.66,1.67,1.27,3,1.67-3,1.9-3.11,3.73-.32,5.84,1.39,1.06,1.66,3.22,3.38,4.18.26.15.37.87.29,1.27-1.17,5.9-.93,6.49,3.74,8.9-3.57,2.33-7.25,4.44-10.22,7.67-1.2,1.3-3.43,2.69-5.26.75-1.48-1.56-1.42-3.08-.16-5.43,1.64-3.06,3-6.4,4.46-9.65.27-.61.75-1.4.18-1.94-.75-.72-1.49.1-2.2.38a.64.64,0,0,0-.27.22c-1.85,2.29-3.74,4.42-7.12,1.81,2.23-1.35,1.38-3.59.65-5-1.76-3.47-2.13-6.25,1-9.2.81-.76.61-3.2.11-4.58s-1.68.13-2.57.27c-1.26.2-2.55.47-3.73-.3-.43-.29-1.45-.69-.95-1.13,2.07-1.82.55-5.24,3.15-6.72,2.12-1.2.35-3.32,1.13-5,.6-1.26,2.5-3.39,1.22-4.16-2.07-1.25-2,1.89-3.16,2.77-2,1.5-3.94,4-6.08.17a1.63,1.63,0,0,0-1.34-.95c-1-.1-2.54.35-2.53-1.08s1.83-1.06,2.74-1.68a1.82,1.82,0,0,1,.46,0l-.46,0c-.54-1.17-.77-3-2.43-.67-.61.85-1.79,1.3-2.7,1.94C360.9,544.24,367.85,537.19,376.91,532.4Z"/><path class="cls-9" d="M208.24,289.1a87.23,87.23,0,0,0,8.68-2.61,18.47,18.47,0,0,0,5.26-3.49c2-2.12,4.53-1,7.31,2.78,3.12,5.11,6,10.38,9.86,15,1.49,2.78,2.82,5.59,1.8,8.9-.33,1.07.22,2,.55,3,1.27,3.81.18,7.19-1.92,10.37C225.82,315,214.55,304.33,208.24,289.1Z"/><path class="cls-9" d="M6.43,490c.71,3,3.31,4.45,5.46,6,7,5.08,14.22,10,20.35,16.18a397.87,397.87,0,0,1,29.39,33.2C70,556,77.43,567.38,87,576.93c6.42,6.39,14.81,9.79,22.87,13.59,5.54,2.62,11.37,4.63,16.65,7.81-10.87-1.36-21.36-3.8-31-9.43-15.6-9.13-26.51-22.53-35.8-37.67-5.71-9.3-12.85-17.57-20.18-25.67C28.43,513.2,16.23,501.93,3.93,490.75A2.37,2.37,0,0,1,6.43,490Z"/><path class="cls-32" d="M294.59,70.79c-2.23-4.4-6.33-2.15-9.75-3a.44.44,0,0,1-.17-.35c.16-1.36,1.29-2.52.84-4-1.53,1.28-4,.94-5.11,3-.37.67-.27,2.25-1.64,1.73-1.14-.44-.26-1.31,0-2,.48-1.36-1-1.51-1.56-1.86a27.71,27.71,0,0,1-5.74-4.46c6.17-13.8,10.15-28.28,13.4-43,.27-1.23.74-2.41,1.12-3.62,3,1.66,4.5,4.16,3.89,7.62-.48,2.74.68,5.25.9,7.9,1.05,12.41,2.29,24.81,3.41,37.22C294.32,67.59,295.26,69.12,294.59,70.79Z"/><path class="cls-33" d="M304.94,625.84c5.68,7.36,10.54,15.25,15.48,23.1a48.87,48.87,0,0,0,5.91,8.23c-1.62,1.09-2.6-.25-3.58-1.08-2.57-2.18-5.06-4.47-7.44-6.86-14.11-14.17-28.84-27.7-43.61-41.18-2.48-2.41-5-4.77-7.62-7-6.88-6.58-13.25-13.65-19.65-20.69a7.54,7.54,0,0,1-2.05-3.19c.55-2.75,2.3-2,4-1.42,5.43,3.56,10.34,7.8,15.44,11.81,2,1.94,3.87,4.13,6.42,5.48a7,7,0,0,1,1,.66C281.18,604.4,294,614.13,304.94,625.84Z"/><path class="cls-34" d="M247.27,497.43c-.66.62-1.27,1.92-2.1,1.63-4.46-1.57-2.53,2.31-3.34,3.81-.13.24,0,.62,0,.94-4.5-1.15-2.11,2.28-2.6,3.83-.09.28-.79.31-1.14.55-1.56,1.09-3.37,1.93-.61,4,1.17.87,1.45,2.93,2.13,4.46-.38.14-.63.32-.78.27-1.33-.5-2.62-2.55-3.9-1.33-1.67,1.59.07,4,.95,5,2.5,2.85,1.44,4.67-.82,6.63a54.39,54.39,0,0,1-13.33-19.84c.19-.56,1.43-.38,1-1.3s-1.26-.61-2-.58l-.48-1.48c.9-.87,1.59-1.91,3.19-1.76,1.09.11,4.43,2.75,2.58-1.76-.08-.18.56-.95.86-.95,3.13,0,4.83-3.05,8-3.32-3.95-1.63-4.17-2.11-1.49-5.26.73-.87,0-3.24,2.67-2.75.72.13-.91-1.76-.56-3.19,1.51.71,3.18.47,5.09.63-2.27-3.23-3.08-6.33.59-9,1.4-1,.47-1.47-.43-1.92-.56-.27-1.16-.63-.54-1.2.33-.3,1.09-.11,1.65-.14,2.5,2.91,4.26,6.31,6.21,9.59a123.66,123.66,0,0,0,12,17,14.2,14.2,0,0,1,1.27,2.45,55,55,0,0,1-9.59-7.39c-1-1.05-2.14-1.94-3.57-.57l-.36.27c-1.11.55-.6,1.47-.51,2.3C247.32,497.13,247.3,497.28,247.27,497.43Z"/><path class="cls-35" d="M322.05,758c-.83-2.35-1.72-4.59-4.92-4.2-.69.08-1.47-.07-1.37-1.08.05-.52.56-1,1-.8,3.48,1.43,1.77-2.35,3.09-3.05-1-1.69-2.66-.74-4-.91-.61-.07-1.29.39-2.27.72.68-2.12.83-4-.32-5.93a3.54,3.54,0,0,1,.44-3.64c1.05-1.49.42-2.6-.46-3.76,3.86,1.13,7.51,3.09,11.25,4.18,5.64,1.65,11,3.93,16.67,5.53,3.12.89,5.94,3.49,8.78,3.73,4.13.36,6.59,2.93,9.77,4.55a12,12,0,0,0,2.65.65A135.17,135.17,0,0,1,322.05,758Z"/><path class="cls-23" d="M249.07,232.51a2.77,2.77,0,0,0,3.66-3.18c-1.51-5.06,2.63-8.85,2.44-13.39-.2-4.87,2-9.36,1.7-14.17-.15-2.62,2.22-4.78,4.23-3.89,4.32,7.19,8.76,14.32,11.67,22.26-2-1.41-3.81-3.29-6.73-2-1.14.51-1.9-.44-2.23-1.58-.39-1.33-.79-2.65-1.22-4a1.53,1.53,0,0,0-2-1c-1,.24-.51,1.07-.36,1.71,1.68,7.24,3.28,14.49,5.08,21.69a8.19,8.19,0,0,1,.12,3c-.23,2.2-2,4.93,2,5.82.42.09,1.82,1.51-.62,1.71-1,.08-2.13,2.08-2.81,3.41-.57,1.12.35,1.55,1.45,2.11s.35,3.35,3.53,3c-4.63,2.07-5,2-7.68-3a125.1,125.1,0,0,0-11.8-17.39A4.24,4.24,0,0,1,249.07,232.51Z"/><path class="cls-36" d="M357.2,274.29c1.14,4.51-2.84,7.44-3.7,11.4-.36,1.64-.57,4.23-2.8,5.28a1,1,0,0,0-.14.93c2.47,3.77.74,8,1.36,11.87.34,2.16.36,3.32-1.4,4.63-1.14.85-2.63,2.38.52,2.69.73.07,1.2.78,1,1.14-1.62,3.58,1.57,2.1,2.77,2.69a117.15,117.15,0,0,1-17.52,8.8c.86-1.82-.3-3.55-.33-5.35,0-.86-2.17-1.05-.54-2.87,1.38-1.54,2.3-.55,3.63-.08,0-2.87-1.61-4-3.43-5-.66-.39-1.48-.91-1.23-1.89a1.5,1.5,0,0,1,.95-.87c1.07-.28,1.08.53,1.49,1.3,1.16,2.21,2.68.8,4,0,.5-.3.27-.85-.06-1.2s-.46-.87-1.07-.42c-2,1.5-2.53-.66-2.93-1.59-.65-1.51.62-1.36,1.76-1.52,2.13-.29.73-2.88,2.51-3.72-2.13-.83-2.83.81-4.13,1.8,0-1.28-1.23-3,.08-3,1.7,0,1.59-5.31,4.41-1-.5-1.52.28-3.74-2.41-2.56-.64.28-1.49.5-1.71-.43-.19-.76-.08-1.91.83-2,1.72-.25,2.11-2.48,4.25-2.18-1.43-1.36-2.62-2.43-1.65-4.29a1.4,1.4,0,0,0-.14-1.31c-4.08-3.59-.83-3.11,1.75-4.95,3.66-2.62,7.7-3.77,11.52-5.66A10.38,10.38,0,0,1,357.2,274.29Z"/><path class="cls-8" d="M268.45,594.09l-.51-.46c-2.65-1.19-4-4-6.63-5.23l-15.37-12.16a57.28,57.28,0,0,1-11.62-8.53c-1-.91-2.19-1.76-2.2-3.35a77.18,77.18,0,0,1,3-7.14c.68-1.29.56-2.06-.42-2.91,4.38,2,7.9,5.23,11.5,8.21,8.68,7.18,16.91,14.9,24.92,22.84a4.19,4.19,0,0,1,.62,1.21c-.83.24-1.47-.43-2.23-.56C268.88,588.74,271.68,591.8,268.45,594.09Z"/><path class="cls-37" d="M315.43,58.58c-1.65-14.27-5-28.2-8.16-42.17-.25-1.09-1.34-2.47.11-3.6,6.93,8.17,14.2,16.08,20,25.16A21,21,0,0,0,330,40.74c-1.82,1.92-3.16,4.58-6.57,3.86a1.1,1.1,0,0,0-1.18,1c-.08.55.17,1,.72.9,2.68-.52,2,1.9,1.66,2.54-1.22,2.36-1.3,5.09-2.54,7.33-.78,1.41-1.74,3.91-4.37,1.75C317.31,57.84,316.2,58.41,315.43,58.58Z"/><path class="cls-38" d="M201.86,202.19c-1,.58-2,0-3-.09-1.16-.12-2.15-.38-2.38,1.4-.15,1.21-1.26,1.58-2.64,1.59-3.06,0-6.32-.08-9,1.55a2.42,2.42,0,0,1-3-.06c.23-7,.33-14-.13-20.91,2.28.28,3.47-1.54,4.78-2.78,1.86-1.75-.66-2.31-1.77-3.73,3.49.44,5.94,1.27,6.53,4.74.11.65.33,1.44,1.23,1.47.28,0,.77-.24.81-.43.14-.76.12-1.2-.84-1.82-1.53-1-.83-2.55.54-4,1.31,2.47,1.76,5.52,3.09,7.24,2.08,2.69,2.72,5.7,4,8.53C201.16,197.16,202.36,199.5,201.86,202.19Z"/><path class="cls-39" d="M272.42,607.32c9.25,8.53,18.55,17,27.72,25.6,7.78,7.32,15.38,14.82,23.1,22.21.89.84,1.59,2.08,3.09,2l4.79,6.21c-2.54,3.89-2.52,3.86-6.53.79-10.58-8.09-21.32-16-31.55-24.53a1.47,1.47,0,0,1,.23-.26c1.42-1,3.33,1.78,4.32-.31.74-1.54-1.51-2.32-1.93-3.79-1.6-5.55-5.32-9.56-9.64-13.21-4.15-3.52-8.08-7.31-12-11.09C273,610,271.39,609.21,272.42,607.32Z"/><path class="cls-40" d="M181.28,121.54c3.12,7,7.75,13.11,11.35,19.82,7.11,13.26,14.58,26.35,19.8,40.52.46,1.25,1.15,2.58.71,4-3.48-1.82-4-5.52-5.15-8.65-1.91-5-4.65-9.55-7.14-14.24-.41-.31-.76.43-.45.09.1-.11.21-.1.32,0,2.62,3.52,3.52,7.75,4.75,11.83a1.11,1.11,0,0,1-.78,1.38c-5.69-11-11.33-22-17.11-33-4.27-8.09-9.33-15.76-12.8-24.26A9.54,9.54,0,0,1,181.28,121.54Z"/><path class="cls-41" d="M239.78,323.07c-.55-2.65,2.39-4.7,1.6-7.15-1.61-5-.13-10.27-2-15.14,5.24,5.83,10.13,12.05,15.86,17.35,3.26,3,3.82,7.91,8.15,10,1.48.71,1.18,2.85,1.1,4.47A76,76,0,0,1,239.78,323.07Z"/><path class="cls-42" d="M340.84,384.83c1.25.52,2.94.12,3.17,2.41.16,1.58,1.75.89,2.86.65.76-.17,1.62-.47,2.2.41s-.32,1.31-.74,1.93a11,11,0,0,0-.95,2.49,1.7,1.7,0,0,1-.67.11c-1.09-.28-2-2.37-3.16-.92s-.17,3.1,1.33,4c.73.48,1.56,1.06,1.35,1.81-.86,3,1.13,3.71,3.19,4.49-4.63,3.3-10.1,4.78-15.21,7a15.16,15.16,0,0,0-2.21.95c-3.84,2.54-3.83,2.56-5.77-1.6.86-1,1.62.47,2.44.13,1-.41,2.59,1,3-.58.3-1.12.74-2.9-1.27-3.44-1.39-.37-.63-1.49-.44-2,.58-1.46.83.16,1.26.27.65.17,1.39,0,1.41-.57.05-1.48,1.48-3.76.45-4.18-2.16-.88-1.52-3-2.77-4.13C333.42,390.6,337.24,387.84,340.84,384.83Z"/><path class="cls-23" d="M268.45,594.09c1.25-2.36.61-4.72,0-7.08-.22-.84-1.12-1.88-.07-2.51s1.49.76,2.23,1.22a11.13,11.13,0,0,1,1.1.85c11.66,11.87,23.1,23.93,32.53,37.73a9.78,9.78,0,0,1,.7,1.54c-4.64-2.89-8.49-6.73-12.37-10.49C284.86,607.87,276,601.76,268.45,594.09Z"/><path class="cls-43" d="M367.35,455c.93,3.72,2.92,7.35,1,11.32a121.23,121.23,0,0,1-26.16,1.48c.95-1.08,2-1.76,1.37-3.8-.74-2.29,1.94-3,3.43-3.45C353.71,458.49,360.55,456.78,367.35,455Z"/><path class="cls-11" d="M437.52,650.15c-.2,1,.61,1.43,1,2.12,1.16,2.1,1.72,4.14-1.37,5.5,2.4,1.62,5.73,0,7.33,2.8-10.73.72-21.46,1.46-32.22,1.58-1-4.72,3.56-4.5,5.59-5.1,6.08-1.79,11.69-4.72,17.68-6.62A12.19,12.19,0,0,1,437.52,650.15Z"/><path class="cls-17" d="M472.31,135.13c-.25.25-.44.63-.74.74-9.78,3.67-14,13.09-20.53,20-2.77,2.94-4.94,6.44-7.66,9.44-8.93,9.82-18,19.53-27,29.29-.09-1.66,1.34-2.35,2.2-3.39,9-10.79,18.34-21.26,26.77-32.45,4.32-5.72,9.37-10.89,13.08-17.07C462.63,138.64,466.14,134.1,472.31,135.13Z"/><path class="cls-44" d="M270.79,552.55c-2.57-2.19-2.4-5.19-1.87-8,.42-2.16.44-4.32.76-6.47,4.81,2.3,7.51,7.09,11.8,10a1.41,1.41,0,0,1,.6.83c.34,2.91,2.21,3.63,4.76,3.2,0,3.28-3.65,3-4.5,5.25A49.44,49.44,0,0,1,270.79,552.55Z"/><path class="cls-28" d="M44.66,593.15a3.11,3.11,0,0,0-.9.49c-3.09,3.73-4.2,3.62-6.93-.7-.44-.68-.94-.41-1.43,0a112.88,112.88,0,0,1-6.36-20c.34-.06.94-.26,1-.18,1.15,2.26,3.38,3,5.72,3.48-1,1.74-2.11-.38-2.94.66,3.76,3.24,6.06,7.44,8.19,12.51.65.5,1.3-3.06,2.64-.77C44.46,590,46.41,591.16,44.66,593.15Z"/><path class="cls-2" d="M309.8,495.84c-1.23,1.43-4,1-4.31,3.74-.11.85-1.92.71-2.51-.42-.82-1.56-.29-3.21.43-4.61s2-1.21,3.28-.53a16.33,16.33,0,0,0,3,1C309.7,495.26,309.75,495.55,309.8,495.84Z"/><path class="cls-2" d="M311.07,508.75c-1.6,1-2.25.35-1.83-1.27s.62-3-1.42-3.91a2.54,2.54,0,0,1-.92-3.37,2.14,2.14,0,0,1,3.23-.87A39.8,39.8,0,0,1,311.07,508.75Z"/><path class="cls-2" d="M288.13,443.88a3.14,3.14,0,0,1-.46.5c-.93.64-1.25,2.39-2.91,1.71a.81.81,0,0,1-.24-1.18c.75-1.3,1.77-2.06,3.36-1.53A.53.53,0,0,1,288.13,443.88Z"/><path class="cls-12" d="M220.75,505.45c2-2.49,2.41,1.43,4,1a4,4,0,0,1-3,.92C221.37,506.72,220.51,506.37,220.75,505.45Z"/><path class="cls-8" d="M242.55,576.82l22.16,23.4c1.18,2.06,3.18,3.32,4.87,4.87,1.29,1.19,1.89,2.27.77,3.85a6.6,6.6,0,0,0-.85,5.65c.47,2,.36,3.76-2.05,4.43-3.23-1.37-5.55-4-8.28-6.06-5-3.71-10.22-7-14.79-11.27,2,3.86,5.5,6.44,7.93,9.9,1.21,2.39,4,3.37,5.23,5.73l1,.93c-.43,1.44.48,3.74-2.53,3.47-1.15-.11-1.05,1.34-1.39,2.15s-.49,1.7-1.59,1.39a1.29,1.29,0,0,1-.82-1.71c.67-2,.77-3.63-1.8-4.24-1.66-.39-2.14-2.74-4.73-2.08s-3.95-2.57-4.7-4.16c-1.8-3.85-4-6.17-8.42-5.85-.57,0-1,0-.92-.57.6-4.54-5.19-3.67-6-7.1-.14-.6-1.25-.47-1.92-.22a2.67,2.67,0,0,1-3.13-.87A25.45,25.45,0,0,1,213.75,584c-.29-2.24,1.84-4,3.82-5.46,5.16-3.71,10.19-7.59,13.6-13.12A30.15,30.15,0,0,1,242.55,576.82Z"/><path class="cls-14" d="M511.12,522.06c3.34,2.68,4.87-.7,6.38-2.32,2.14-2.29,4.83-4.1,6.28-7.07.69,2.22-1.27,3-2.09,4.35a40.08,40.08,0,0,1-17.46,15.54c-4.62,2.2-8.68,5.69-13,8.57-5.84,3.9-11.92,7.81-16,13.73-3.86,5.58-9.06,10-12.56,16-1.24,2.11-2.3,5.59-5.7,6.27-.22,0-.43.51-.5.81-1.13,5.18-4.75,8.61-8.14,12.39-4.82,5.38-10.74,8.61-17.29,11.19-3.4,1.34-7.11,1.23-10.39,2.66-3.67,1.6-7.65,1.27-11.37,2.39-.6.18-1.18.4-1.5-.25-.5-1,.4-1.17,1-1.38,3.74-1.27,7.48-2.51,11.23-3.76,1.1-.37,2.21-.72,3.3-1.12.79-.28,1.57-.72,1.64-1.62.1-1.32-1.15-1.22-1.94-1.59,2.29-1.71,5.12-2.1,7.69-3.1,11.14-4.32,18-13.18,24.14-22.71,4.86-7.51,9.78-15,15.91-21.51,9.19-9.74,20.31-16.86,32.43-22.42a32.6,32.6,0,0,0,7-5A1.31,1.31,0,0,1,511.12,522.06Z"/><path class="cls-14" d="M403.38,613,401,614.6a2.71,2.71,0,0,1-1.66,2.09c-6.15,3.45-11.23,8.19-16,13.32-.94,1-2.61,1.14-3,2.7-6.17,10.18-10.78,21.1-15.33,32.66-2.91-16.48,2.9-29.92,12-42.45,5-6.24,10.23-12.35,17.07-16.77,1.2-.78,2.4-2,4.05-.88-.53,2-1,3.9-3.17,5a2.42,2.42,0,0,0-.88,3.36c.79,1.45,1.78,0,2.69-.11C398.93,613.13,401.06,611.75,403.38,613Z"/><path class="cls-45" d="M267.45,619c1.34-1.31,2-2.7,1-4.6a4.82,4.82,0,0,1,.87-5.75c1.46-1.53.83-2.45-.4-3.68-1.5-1.5-3.68-2.44-4.24-4.77l7.71,7.1c.06,1.5,1.35,2.11,2.24,2.95,4.84,4.53,9.5,9.29,14.67,13.42,3.9,3.12,5.57,7.34,7.47,11.55.22.48,0,1.47.56,1.5,4.29.26,1.52,3.13,1,3.89-1.34,2-2.73.18-4-.65a4.44,4.44,0,0,0-1.3-.34Z"/><path class="cls-46" d="M196.34,398c2.16,4.07,4.49,8.06,6.45,12.23a54,54,0,0,0,18.91,22.51,88.6,88.6,0,0,1,20.53,19.59,387.76,387.76,0,0,1,26.93,40.9,148.36,148.36,0,0,1,7.23,13,144.76,144.76,0,0,1-18.67-25.34c-5.11-8.65-9.29-17.92-16-25.53a188.52,188.52,0,0,0-28.11-26.12,37.4,37.4,0,0,1-12.4-16.86C199.46,407.6,197,403.07,196.34,398Z"/><path class="cls-47" d="M380.33,632.71c1.27-3.51,4.23-5.69,6.76-8.07a55.61,55.61,0,0,1,13.88-10c1.59.21,1.82,1.37,2.13,2.7,1,4.17,2.74,4.73,5.82,2.08a17.62,17.62,0,0,1,5.29-3.28l-5,7c-.41-1.17-.81-1.78-2.2-.8a101.88,101.88,0,0,0-13,11.42c-1,1-1.73,2.15-3.28,2-2.29-.27-3.22,3.14-5,2.31-1-.47-.71-3.32-1.6-4.71C383.43,632.23,381.74,632.13,380.33,632.71Z"/><path class="cls-23" d="M250.26,646.71c5.46,2.07,11,4,16.38,6.24,7.7,3.16,15.3,6.56,23,9.79,10.23,4.29,19,11,28.21,17,2.61,1.68,5.59,2.87,7.72,5.26-.05.23-.09.46-.14.68-.3,1.23,2,2.46.44,3.36-1.21.68-2.52-1-3.51-1.7-8.74-6.49-17.56-12.76-27.58-17.3s-19.59-9.39-29.12-14.58C260.47,652.64,254.92,650.43,250.26,646.71Z"/><path class="cls-39" d="M409.65,634a4.61,4.61,0,0,0,1.06,4.32,7.36,7.36,0,0,1,1.5,5.75c-.32,2.14.88,2.21,2.38,2.11-2.55,2.36-6,3-9,4.36-4.17,1.91-8.73,2.87-12.76,5.17-2.15,1.24-3-.25-4.05-1.79-1.47-2.07.42-2.2,1.33-3q7.5-7,14.92-14A11,11,0,0,1,409.65,634Z"/><path class="cls-32" d="M398.1,605.27c-3.9,1.14-6.69,4-9.71,6.46A106.67,106.67,0,0,0,377,622.92c0-.23-.05-.52.07-.67,6.46-8.16,12.59-16.73,22.74-20.8,4.59-1.84,9.3-3.44,14.38-3.18A75.71,75.71,0,0,0,401,603.5C399.94,604,398.8,604.26,398.1,605.27Z"/><path class="cls-3" d="M534.38,485.46c-.7,4.24-3.71,7.35-5.64,10.94-3.47,6.46-6.68,13.19-12,18.5,4.27-8.74,9.67-16.83,14.67-25.14C532.32,488.27,533.39,486.89,534.38,485.46Z"/><path class="cls-34" d="M256.45,504c-1.51-2.11-4.09-1.85-6.15-2.73-1-.41-1.57-.63-1.31-1.93.19-1,2.24-.35,1.39-1.78s-2.07.09-3.11-.12c0-1.07-.45-2.28.83-3l.11,0A47.71,47.71,0,0,1,256.45,504Z"/><path class="cls-11" d="M445.75,645.45c1.45-1.32,3.13-.68,4.88-.21L445.31,647A1.51,1.51,0,0,0,445.75,645.45Z"/><path class="cls-3" d="M511.12,522.06l-.91.08,6.55-7.25C515.94,518.11,512.88,519.57,511.12,522.06Z"/><path class="cls-47" d="M408.74,623.66l2.54,1.44a7.39,7.39,0,0,1-4.63,1.48C407.48,625.41,408.11,624.54,408.74,623.66Z"/><path class="cls-5" d="M257.54,617.32c-1.7-2-4.4-3-5.23-5.73C254,613.51,256.61,614.67,257.54,617.32Z"/><path class="cls-4" d="M307.42,697.83c-1.46.27-2.1-.5-2.69-1.68C306.41,695.66,307.22,696.17,307.42,697.83Z"/><path class="cls-19" d="M204.69,176.38c.25-3.15-1.74-5.65-2.5-8.51-.49-1.87-1.3-3.65-1.69-5.59,2.4,2.14,3.71,4.94,5.22,7.64,2.88,5.15,3.86,11.18,7.42,16l0,0c.37,1.65.83,3.27,1.13,4.93l3.69,15.08c2.44,10,7.51,18.41,14.67,25.89a90.47,90.47,0,0,1,11.8,15.79c.77,1.28,1.6,2.53,2.41,3.8a9,9,0,0,1,2.86,5.42,37.26,37.26,0,0,0,7.5,15.48,35,35,0,0,1,4.21,6.73c8.52,9.66,16.91,19.42,23.18,30.82-.28.47-.68.27-1.05,0a195.52,195.52,0,0,1-36-39.57A27.87,27.87,0,0,1,243.25,260c-1.17-5.65-4.22-10.44-7.49-15.19-6.63-9.63-15.65-17.54-20.16-28.71-2-5-2.85-10.25-3.74-15.5a17.23,17.23,0,0,0-.7-2.29,20.7,20.7,0,0,0-1.41-6.82v0c-1.1-5.25-2.07-10.55-5-15.18Z"/><path class="cls-41" d="M315.63,138.77c-.32-3.32-.81-6.64-.95-10-.6-14.26.49-28.49,1.12-42.73a35,35,0,0,1,.55-3.77c1.71-1.45,4.14.2,5.83-1.34.05,0,.24,0,.33.06.79.52,1.18,1.65.68,2.07-1.88,1.58,1.78,4.22-1.09,5.31-.83.31-2.1-.17-1.44,1.38.44,1.06,1.44,1.07,2.37.59s1.55-1,2.37-1.42a1.89,1.89,0,0,1,2.28.13c.68.63.37,1.33.26,2.18-.3,2.1-.46,4.58,2.16,5.33,2,.56,1.44,4.08,4.26,3.31-1.51,7.48-3.1,14.95-4.5,22.45q-2.26,12.08-4.19,24.2c-.2,1.27-.68,2.44-.84,3.68s-.45,2.47-2,2.21c-1.74-.3-1.65-1.8-1.38-3.06a105.11,105.11,0,0,0,2-15.09,101,101,0,0,0-1.11-24.46c-1.15,5.45-2.16,10.93-3.48,16.33C317.79,130.37,317.81,134.85,315.63,138.77Z"/><path class="cls-48" d="M279.64,116c-.1-3.27-1.25-6.54,0-9.85.48,1.37,2.14,2,1.27,4.23-.55,1.4-1,5,3.09,4.25,2.07-.38,1.88,2,3.35,3a2.4,2.4,0,0,1,3.09-1.71c1.07.2,2.37.29,2.76-.79s-.86-1.69-1.47-2.42c-1.36.11-1.1,2.83-2.42,1.93-2.31-1.59,1.63-2.63.78-4.31-3.94,1.92-3.94,1.92-6.34-.61,2.36-1.57,5.71.39,7.72-2.23-.87-1.4-3.08.39-3.83-1.71l8.17-1.57c-2.23-3.86-4.59-4.32-7.56-1.56-.75-3.88-.49-4.45,3.18-3.48,2.89.77,3.8.41,3.67-2.57,0-.84.66-1.71,1-2.56.88,1,.74,2.15.8,3.3.58,12.55,1.44,25.09,1.62,37.65.08,5.44,1,10.72,1.4,16.08.14,2,1.15,5-2.64,5.39-1.69.2.73,2.12-.91,2.85-.28.13.87.22,1.41.14,1.36-.21,1.63.68,1.49,1.69s-.76,1.18-1.79.94a4.75,4.75,0,0,1-4-3.71c-3-14.07-8.27-27.51-11.69-41.46C281.47,115.59,280.93,114.88,279.64,116Z"/><path class="cls-49" d="M361.71,425a2,2,0,0,0-.22,2.56,8.91,8.91,0,0,1,.79,1.43c-1.63,1.08-.93,2.26-.81,3.87.33,4.8,1,5.68,5.87,4.73.33-.06.66-.06,1.41-.13-1,1.28-2.28,1.37-3.29,1.89-1.86.94-3.54,1.84-2.12,4.48,1,1.75-.47,3-2.38,5.07,4-2.41,4.59.8,6.24,2.05-6.64.64-13.34.92-19.88,2.09-3.21.57-6.75.05-9.7,2-.57.39-1.37.62-1.63-.42-.13-.55-.15-1.57.43-1.45,3.2.67,4.05-2.25,5.83-3.67,3.72-3,8.52-3.33,12.59-5.47,2.42-1.28,4.91-2.32,7.37-4.5-4.2-.93-7.78.61-11.43.59-1.87,0-4-.27-5.73.93-2.56,1.73-.47-2.42-2.21-1.75-1.11.42-2.14,1.7-3.44.6s-.54-4,1.13-4.65c.49-.21,1.19,0,1.54-.56,3.4-5.83,3.38-5.91,10.48-7.87C355.55,426.06,358.65,425.65,361.71,425Z"/><path class="cls-23" d="M261.39,279c-5.27-6.11-10.34-12.33-12.2-20.5a73.51,73.51,0,0,0-2.37-7.13c1.52-1.34,2.41-2.87,1-4.74-.67-.88-.54-1.31.27-1.88.55-.38.68-1.15,0-1.36-4.29-1.33-1.39-2.9-.2-4.42,2.6,5.55,5.39,11,7.73,16.66,1.83,4.39,5.23,7.91,6.56,12.57.3,1,.95,1.8,0,2.73a1,1,0,0,0-.21.27C264.55,274,259.7,276.29,261.39,279Z"/><path class="cls-50" d="M306.16,39.63c3.19,15.1,5,30.3,3.2,45.75-.23,2,.7,4.17-.48,6.13-.5-6.1-1.09-12.21-1.49-18.32-.64-9.83-1.16-19.67-1.7-29.51C305.61,42.32,305.23,40.89,306.16,39.63Z"/><path class="cls-48" d="M301.87,161.68c.14.59.32,1.14.4,1.69.33,2.24.49,4.52,1,6.71.26,1.1.13,1.48-.93,1.62s-1.59-.25-1.51-1.31c.2-2.61-1-5.12-.49-7.76.09-.44-.09-.93.48-1.07A3.45,3.45,0,0,1,301.87,161.68Z"/><path class="cls-40" d="M204.71,176.35c4.38,4.16,4.41,9.77,5,15.18Q207.24,183.94,204.71,176.35Z"/><path class="cls-41" d="M322.22,154.55c.24,1.15,1.62,2.25.69,3.69a.9.9,0,0,1-1.47-.22c-.36-1.26-1.38-2.54-.45-3.9C321.29,153.67,321.81,154.07,322.22,154.55Z"/><path class="cls-40" d="M209.75,191.49c1.33,2.1,2.45,4.23,1.41,6.82A17.57,17.57,0,0,1,209.75,191.49Z"/><path class="cls-3" d="M415.86,206.49c1.19-3.26,4.16-5.06,6.21-7.61C420.73,202,418,204,415.86,206.49Z"/><path class="cls-3" d="M431.45,187.57c.95-3.14,3.86-4.71,5.72-7.11C436,183.43,433.35,185.19,431.45,187.57Z"/><path class="cls-23" d="M270.37,224.61a1.8,1.8,0,0,1-2.17.16c-.51-.35-.35-1,0-1.49a1.22,1.22,0,0,1,1.73-.48A1.35,1.35,0,0,1,270.37,224.61Z"/><path class="cls-30" d="M309,201.52a4.71,4.71,0,0,1-.28-3.81C309.42,198.82,310.43,199.9,309,201.52Z"/><path class="cls-28" d="M28.45,570.49l3.31-2,1.9,3.77-5.2-1.7Z"/><path class="cls-15" d="M51.8,598.78c-1.08,1-2.87,1.16-2.85,3.56-1.25-2.32-1.25-2.32,1.83-4.5Z"/><path class="cls-20" d="M242.55,576.82,231.17,565.4a5.66,5.66,0,0,0-2.08-2.89c1.5-.18,2,1.21,3,1.85,4.19,4.45,9.69,7.37,13.82,11.88C244.78,576.25,243.43,575.16,242.55,576.82Z"/><path class="cls-8" d="M432.38,541.41c-.46.73-.84,2-1.71.93-1.47-1.73.42-3.42.53-5.18.06-1,1.54-.54,1.94-.08C434.68,538.81,433.43,540.19,432.38,541.41Z"/><path class="cls-3" d="M215.21,370.05a1.58,1.58,0,0,1-.09,2.28c-.53.61-1.27,1.36-2,.51a1.85,1.85,0,0,1,.27-2.53A1.48,1.48,0,0,1,215.21,370.05Z"/><path class="cls-14" d="M527.93,507.14c.62-1.63.72-3.62,3.1-4.57C531.1,505.22,529.58,506.23,527.93,507.14Z"/><path class="cls-4" d="M118,643.21c-.34.42-.72.59-1.16.23-.67-.54-.45-1.22-.15-1.84a.81.81,0,0,1,1.39-.26C118.72,641.93,118.17,642.6,118,643.21Z"/><path class="cls-40" d="M214.25,190.83a5.24,5.24,0,0,1-1.13-4.93c1.63,1.07,1.07,2.95,1.62,4.41C214.58,190.48,214.42,190.66,214.25,190.83Z"/><path class="cls-51" d="M326.78,680.2c-4.28-.66-7.74-3.05-11-5.44-12.58-9.15-26.45-15.7-40.8-21.47s-28.91-11.46-42.87-18.38-28-12.83-43.22-16.09c-11.4-2.44-22-7.34-32.54-12.27-7.17-3.36-14.87-5.33-22.15-8.37-14.13-5.88-28.6-11.17-41.34-19.82C85.88,573.64,81,566.63,76,560c-6.87-9-13.91-17.87-20.92-26.77-6-7.57-13.11-14.06-19.56-21.16-5.3-5.83-11.39-10.47-17.6-15.11a29.46,29.46,0,0,1-3.73-3.6c12.55,7.73,23.29,17.5,33.57,28,7.88,8.07,14.42,17.19,21.94,25.53A177.36,177.36,0,0,1,83,563.31c5.77,8.14,13.63,13.74,22.65,17.87,15,6.87,30.51,12.5,46.11,17.89a92.36,92.36,0,0,1,9.74,3.75A165.77,165.77,0,0,0,200,615.91c11.79,2.37,22.29,7.9,32.94,13.06,12.3,6,24.63,11.87,37.11,17.48,12.78,5.75,25.82,11.1,37.42,19.1C314.09,670.14,320.35,675.3,326.78,680.2Z"/><path class="cls-20" d="M188.26,569.58c.84,1,1.48,2.11.83,3.45-.27.55-.78.34-1.13,0-1.31-1.27.28-2.3.31-3.46Z"/><path class="cls-26" d="M518.14,471.57c1.6-.27,2.41-1.91,3.41-.78.49.55,1.3,2.23.31,2.76C520.33,474.37,519.62,472.45,518.14,471.57Z"/><path class="cls-2" d="M305.14,489.82a2.12,2.12,0,0,1,2.27-.25,1.06,1.06,0,0,1,.37,1.73c-.63.77-1.45.51-2.14,0C305.21,490.92,304.75,490.5,305.14,489.82Z"/><path class="cls-2" d="M285.94,463.86c.51-.52,1.06-1,1.74-.3a1,1,0,0,1,.1.89,1.61,1.61,0,0,1-1.85.59C285.44,464.84,285.64,464.27,285.94,463.86Z"/><path class="cls-4" d="M209.72,697.93a3.55,3.55,0,0,1,1,.21c1.9,1.1,3.78,2,5.78.09-.43,1-.88,2-1.27,3.1-.22.58-1,1.26-1.12,1-1.23-2.88-4.25.73-5.31-1.5-.32-.67.58-1.91.92-2.88Z"/><path class="cls-18" d="M511.41,467.11a42.81,42.81,0,0,1-1.74-4.43c-.7-2.52,1.77-1.21,2.72-2.74.21,2.74-.84,4.88.6,6.79.32.42-.37,1-1.08.84-.25.05-.41,0-.47-.16S511.36,467.16,511.41,467.11Z"/><path class="cls-25" d="M511.41,467.11l.5.46c-.77,2.3-2.3,1-3.33.49s-2.49-1.44-2.26-3.14a1.4,1.4,0,0,1,.8-1,1.22,1.22,0,0,1,1.57,1C508.83,466.73,509.74,467.32,511.41,467.11Z"/><path class="cls-25" d="M504.12,481.57a2.11,2.11,0,0,1,.39,2.89,1.67,1.67,0,0,1-2.45.2c-.82-.79-.32-2,0-2.87C502.55,480.71,503.48,481.68,504.12,481.57Z"/><path class="cls-25" d="M499.61,479.89l-4.14-.94c1.95-.4,1.86-2.5,3.46-2.32C501.19,476.88,498,479.14,499.61,479.89Z"/><path class="cls-25" d="M510.88,475.16c.42,1.13.24,1.53-.19,1.78-.65.36-1.36.52-1.74-.29-.1-.22.3-.84.62-1A4.37,4.37,0,0,1,510.88,475.16Z"/><path class="cls-15" d="M93.79,616.67c1.88.66,3.41.6,3.72,2.07.19.93-.66,1.63-1.78,2C95.19,619.56,94.64,618.44,93.79,616.67Z"/><path class="cls-15" d="M123.46,665.05a1.44,1.44,0,0,1,.31,1.86.83.83,0,0,1-1.41.19,1.73,1.73,0,0,1-.06-2C122.56,664.69,123,664.73,123.46,665.05Z"/><path class="cls-2" d="M360.31,551.34c.65-.59,1.2-1.59,2.24-.62.44.42.67,1.12.1,1.48-1,.63-1.65-.32-2.34-.87Z"/><path class="cls-5" d="M293,66.15a3.41,3.41,0,0,1-3.07-.31c-.12-.09,0-.82.13-.85C291.18,64.68,292.3,64.43,293,66.15Z"/><path class="cls-23" d="M261.31,588.4c2.91.86,4.4,3.51,6.63,5.23C265,592.82,263.52,590.15,261.31,588.4Z"/><path class="cls-27" d="M248.1,494.43c-.29,1,.05,2.16-.83,3-.86-.81-1.73-1.64-.92-2.93C246.83,493.72,247.5,494,248.1,494.43Z"/><path class="cls-21" d="M331.56,100.8c.64.46.69.9.44,1.32a1.25,1.25,0,0,1-1.8.36c-.57-.27-1-.9-.39-1.32A4.07,4.07,0,0,1,331.56,100.8Z"/></g></g></g></svg>