<svg xmlns="http://www.w3.org/2000/svg" viewBox="0 0 631.68 760.48"><defs><style>.cls-1{opacity:0.25;}.cls-2{fill:#de9877;}.cls-3{fill:#e9cbbe;}.cls-4{fill:#e5c2af;}.cls-5{fill:#e6c4b2;}.cls-6{fill:#e5c1ae;}.cls-7{fill:#e4beaa;}.cls-8{fill:#e8cabd;}.cls-9{fill:#e8cbbe;}.cls-10{fill:#e5c0ad;}.cls-11{fill:#e5c1ad;}.cls-12{fill:#e0a688;}.cls-13{fill:#e6c3b1;}.cls-14{fill:#efc7b4;}.cls-15{fill:#e2b198;}.cls-16{fill:#e9cbbd;}.cls-17{fill:#efc7b5;}.cls-18{fill:#e5bfac;}.cls-19{fill:#efc6b3;}.cls-20{fill:#e2b297;}.cls-21{fill:#e8cabb;}.cls-22{fill:#e0a587;}.cls-23{fill:#e3b79f;}.cls-24{fill:#e3b59d;}.cls-25{fill:#e2b299;}.cls-26{fill:#e4bda8;}.cls-27{fill:#e6c5b3;}.cls-28{fill:#e5bfaa;}.cls-29{fill:#e1ab8e;}.cls-30{fill:#efc6b4;}.cls-31{fill:#e1ae92;}.cls-32{fill:#e2ae92;}.cls-33{fill:#e3b9a2;}.cls-34{fill:#de997a;}.cls-35{fill:#e3b8a0;}.cls-36{fill:#e2b196;}.cls-37{fill:#e2b59c;}.cls-38{fill:#e4bea9;}.cls-39{fill:#e3b69e;}.cls-40{fill:#e1ad92;}.cls-41{fill:#eec5b2;}.cls-42{fill:#e5bfa9;}.cls-43{fill:#e1ac8f;}.cls-44{fill:#e4bda6;}.cls-45{fill:#e3b8a1;}.cls-46{fill:#e4bfac;}.cls-47{fill:#e3b79d;}.cls-48{fill:#e2b69e;}.cls-49{fill:#e4bca5;}.cls-50{fill:#e3b9a3;}.cls-51{fill:#e5bda8;}.cls-52{fill:#f0c7b3;}</style></defs><g id="Layer_2" data-name="Layer 2"><g id="Layer_1-2" data-name="Layer 1"><g class="cls-1"><path class="cls-2" d="M276,320.35c-3-7.1-6.05-14.14-8.82-21.31-8.57-22.23-12.77-45.52-16.51-68.91a65.62,65.62,0,0,1-.79-6.89c9.51,18.12,22.94,32.08,41.93,40.21,1,.85,2.35.51,3.47.91,2.35.86,2.47-.36,2.08-2.12a1.93,1.93,0,0,0-.71-.71c-.42-.27-1.35-.14-1.1-.95s1-1.3,1.06-2.14c.23-2.94,2.1-2.75,4.18-2.26,1.66.38,3.69,2.33,4.91.05s-1.95-2.34-2.68-3.71c-1.79-3.33-5.5-4.21-8.11-6.5-1.8-1.59-1.41-2.25.4-3.1,1.16-.56,3.29-.37,3.09-2.14-.23-2-1.07-4.05-3.27-4.9a6.52,6.52,0,0,1-4.47-5.95,8.87,8.87,0,0,0-1.45-3.85c-1.32-2.07-.11-2.46,1.62-2.3a28.21,28.21,0,0,0,3.05.55c1.05,0,2.2,0,2.66-1.16s-.48-1.92-1.31-2.53c-2.86-2.11-6-3.86-8.81-6-1.28-1-2.59-1.79-1.86-3.55s2.47-1.79,3.87-1.39c4,1.16,8.18,1,12.31,1.12s8.31-1.12,12.45-1.84c7.51-2.25,14.51-5.78,21.64-8.95,11.39-5.06,22.08-4.68,32.76,2.15,9,5.77,18.46,10.85,28.9,13.59,6.91,1.82,14.06,3.05,21.15,2.14,9.67-1.25,18.51.26,26.71,5.51,3.22,1.48,6.35,3.18,9.41,5,10.71,6.19,22.07,11.09,33.06,16.72,1.43.73,2.76,1.6,4.13,2.42,18.81,8.87,37.87,17.21,57.42,24.28a214.08,214.08,0,0,0,38,9.71c12.87,2.11,25.1,6.57,37.65,9.82,2,.52,4,1.32,6.06.57,2.47-3,1.75-6,.36-9.15-2.44-2.71-5.92-2.9-9.12-3.55-7.21-1.46-14.34-3.2-21.48-4.92-8.49-2.05-16.77-4.82-25.35-6.57-10-2-19.52-6.06-29.05-9.72q-23.67-9.08-46.49-20.13c-7-3.4-13.85-7.25-20.89-10.64-10.22-4.77-20.1-10.21-30-15.58a7.33,7.33,0,0,0-1-.57c-2.79-1-5.71-1.67-8.54-2.59a26.43,26.43,0,0,0-10.25-.6,98.15,98.15,0,0,1-37.63-2.39,119.8,119.8,0,0,1-22.63-9.21,79.83,79.83,0,0,0-20-7.18c-5.34-1.09-10.52-.64-15.74.26-1.81.31-3.6.78-5.41,1.07a25.72,25.72,0,0,0-9.47,3.69,41.49,41.49,0,0,1-20.82,4.55c-8.05-.26-14.93-3.86-22.25-6.26a107.82,107.82,0,0,1-14.4-8A44.14,44.14,0,0,1,244,165.86c4,4,9.66,6.87,14.81,10.42,4,2.79,8,5.82,12.75,7.38,3.91-1,4.17-1.53,3.46-6.81,4.9-2.15,9.65-.3,14.4.61a67.07,67.07,0,0,0,9.55,1.32c1.56.07,3.21,0,2.57-2.39a3,3,0,0,0-.58-.78,8.34,8.34,0,0,0-1.57-1c1-.55,2-.4,2.9-.64a55,55,0,0,0,10.4-3.4c.87-.34,1.69-1,1.35-2.08a1.68,1.68,0,0,0-2-1c-5.43.82-10.63-.88-15.93-1.35-7,0-13.59-2-20.3-3.48a47.42,47.42,0,0,0-4.72-.93c-.94-.11-1.91-.3-2-1.48a1.87,1.87,0,0,1,1.75-2.17c7.63-.9,15-3.26,22.78-3.43,9.43-.82,18.49-3.5,27.67-5.56,1.08-.24,2.58-.51,2.49-1.92-.11-1.79-1.8-1.84-3.15-1.94-4.66-.31-9.34-.29-14-.31-.46-.15.23-.53,0-.12-.08.14,0,.25.27.19a32.36,32.36,0,0,0,13.75-6.4,1.47,1.47,0,0,0-1.11-1.59,27.73,27.73,0,0,0-8.63,1.14c-7.09,1.94-14.49,2.45-21.58,4.39a7.49,7.49,0,0,1-5.83-.84c-6.83,3.42-13.86,6.27-21.45,7.52a6.89,6.89,0,0,0-2,.36c-6.63,3.49-11.58-.15-16.56-3.8a6.52,6.52,0,0,1-2.79-5.57c.1-15.8-1.16-31.59-.63-47.4.36-10.87.75-21.73.95-32.6,0-1.31.85-2.37.6-3.64-2.66-.5-2.87,2.84-5.11,3.28-.88.16-1.77,1.38-2.56.29-.67-.93.55-1.58,1.16-2.05,1.4-1.1,4.15-1.48,1.43-4.12-.65-.63.65-.94,1.14-1.21,1.73-1,1.31-2.09.08-2.9s-2.48-2.67-4.5-1.5c-1.69,1-2.49,2.44-1.79,4.34.91,2.43-1.58,3.61-1.87,5.57-2,8-1.94,16.26-2.81,24.4-.21,2-.87,2.41-2.68,2.31-10.36-.59-20.23,1.87-30,5-2.35,1.17-4.31,2.65-4.44,5.59a1.9,1.9,0,0,1-.65,1.54c-5.24,3.46-7.21,9.56-11.37,13.94-5.81,6.13-10.67,13.09-16.11,19.56A253.7,253.7,0,0,0,140,161.93c-2.36,4.08-5.16,7.9-7.24,12.15a15.17,15.17,0,0,0-1,1.82c-.38,1.15-1.37,2.56.09,3.39,1.29.75,2-.66,2.68-1.55,10-13.94,22.2-26.11,32-40.17a9.41,9.41,0,0,1,.86-1c-3.62,5.63-8.13,11.47-11.89,17.85q-7.54,12.78-14.48,25.9c-.54,1-1,2.07-1.46,3.13-.53,1.24-1.51,2.87-.07,3.74,1.65,1,2.32-.94,3-2,6.31-10.37,14.6-19.22,22-28.79,1.33-1.73,2.38-3.67,4.05-5.16A208.91,208.91,0,0,0,156,173.5a223.94,223.94,0,0,0-10.42,22.92c-.4,1.07-1.55,2.55.1,3.3,1.37.62,2.4-.77,2.94-1.85,3.15-6.25,8.16-11.31,11-17.37-3.66,6.55-6.53,13.82-9.57,21-1.21,2.85-2.44,5.71-3.51,8.62-.42,1.16-1.4,2.67,0,3.4,1.7.87,2.35-1,2.91-2.13,5-10,10.93-19.45,16.72-29,2.21-3.62,4.74-7,7-10.64a142,142,0,0,1-5.9,13.27c-4.57,9.3-8.12,19.07-12.84,28.28-6.13,12-12.62,23.77-19.87,35.13-8.72,13.68-17.13,27.55-25.4,41.5-3.75,6.33-7.85,12.38-13.58,17.25a74.32,74.32,0,0,0-12.37,13.41,56.31,56.31,0,0,1-11.76,12.07c-4.5,3.42-8.24,7.68-12.07,11.82a46.32,46.32,0,0,1-4.21,4.08A74.64,74.64,0,0,0,42.8,371.16a136.86,136.86,0,0,0-7.38,42.26c-.32,13.21-2.45,26.29-4.9,39.32-2.34,12.44-4.69,24.84-8.46,36.94a11.13,11.13,0,0,0-.31,4.45c1.29,2.53,3.07,3.82,5.94,2.33,1.4-.9,1.62-2.44,2.06-3.85A374.61,374.61,0,0,0,43,436a164.76,164.76,0,0,0,1.78-24.4,95.74,95.74,0,0,1,7.82-39.27,68.83,68.83,0,0,1,17.48-23.69c1.88-1.69,3.68-3.46,5.59-5.12A246.64,246.64,0,0,0,94,320.61c7-9.74,13.38-19.85,21.69-28.56,4.2-4.42,9-8.24,13-12.89,6.71-7.92,11.91-16.93,17.61-25.57,3.29-5,6.85-9.82,9.5-15.21,4.65-8.85,9.64-17.51,15.06-25.92,5.79-9,11.75-17.91,17.07-27.16,3-5.18,4.89-11.12,7.29-16.72a20.35,20.35,0,0,1,1.11-2.57c1.29-.5,1.34,2,2.73,1.17,1.83-1.83,2.59-4.31,3.85-6.48a107.16,107.16,0,0,1,10.31-14.36c-3.12,11.88-8.34,24.22-13.49,36.58-1.51,6-4.33,11.54-6.44,17.32-.52,1.42-.67,2.9-1.06,4.34-1.93,7.12-4.48,14-7,20.94-3.81,10.41-6.38,21.15-9.44,31.75a7.51,7.51,0,0,0-.29,1.82c.07,2.68-1.06,5.08-1.73,7.6-.45,3.28-1.34,6.5-1.62,9.81-.1,1.14-.65,2.92,1,3.19,1.16.19,1.54-1.47,1.92-2.52,2.75-7.53,6-14.83,8.68-22.4a14.36,14.36,0,0,1,.86-1.87c3.77-10,7.63-20,11-30.1,2.08-6.92,4.92-13.57,7.44-20.35,2-5.38,4.32-10.64,6.2-16.06,1-2.78,1.83-4.93,5.33-3.89,2.94-12.76,7.69-25,10.94-37.78,1.25,1.07.73,2.46.79,3.59,2.17,41.46,9.73,82,21.31,121.77.63,2.14.39,3.46-1.22,5.06A165.39,165.39,0,0,0,228,296.92c.75,2.22,3.07.88,4,1.62-1.85,7.33-2.2,14.89-5.86,21.49-.89,7.63-4.73,14.78-3.65,22.82,4.31-5.79,6.26-12.67,9.56-18.92-1.93,7.46-2.56,15.14-4.07,22.66a2.59,2.59,0,0,0-.09.68c0,1.23-.28,2.84,1.41,3,1.38.14,1.82-1.24,2-2.41a36,36,0,0,1,2.41-7.52c1.59-4.17,2.56-8.56,4.26-12.28a177.13,177.13,0,0,0-5,27c-.23,4.14-1.76,8.11-1.56,12.29,2.53,2,3.28-.27,3.82-1.86,1.13-3.3,2.34-6.58,3.29-9.95.15-.43.52.35.19,0-.09-.1-.17,0-.25.23-1.75,5.66-1.8,11.52-1.93,17.34-.11,5.14-.06,10.3,0,15.46A55.14,55.14,0,0,1,236,402c-1.38,9.88-4.17,19.44-6.95,29-1.73,5.92-4,11.74-4.34,18-.9,6.48-.06,12.87,1.37,19.15,4.13,18.18,3.09,36.22-.49,54.37-1.52,7.72-3.93,15.37-3.7,23.4a83.81,83.81,0,0,0,2.08,12.3,5.39,5.39,0,0,0,2.15,3.33c2.65,1.62,3.33-.49,3.74-2.23,1-4.24,1.8-8.52,2.64-12.79,2.22-11.26,3.07-22.72,4.78-34.05,1.17-7.81,2.71-15.61,2.4-23.58a79.59,79.59,0,0,0-1.14-13.35c-2.94-11.37-6.06-22.8-1.52-34.42,4-10.31,6.74-21,9.38-31.67,2.35-9.56,2-19.37,1.41-29.13-.74-11.3.55-22.48,1.58-33.69a16,16,0,0,1,.81-3c1.06-7.29.69-14.66,1-22,.4-8.65,1.44-17.11,4.91-25.71a20.39,20.39,0,0,1,1,7.44c-.25,12.86-.08,25.73-.27,38.6a210.88,210.88,0,0,0,.76,24.74c1.13,2,1,4.22,1.41,6.35a8.51,8.51,0,0,0,1,3.28c.44.68.92,1.4,1.86,1.29a1.84,1.84,0,0,0,1.63-1.94c.32-5.16,1.31-10.24,1.91-15.37.72-6.05,0-12.08.73-18.13a16.17,16.17,0,0,1,1.21,5.49c1,8.1.84,16.27,1.52,24.38.75,8.94,2.25,17.78,3.15,26.7.13,1.26.52,2.76,2.13,2.63,1.45-.12,1.46-1.63,1.53-2.75.36-6.05.94-12.09,1.18-18.17.23-5.53-.27-11,.07-16.44a58.07,58.07,0,0,0-.58-11.58c-.93-7.17-2.33-14.46-.53-21.83.7-2.89-1.71-5.31-2.67-7.61C274.8,323.13,276,322.54,276,320.35Z"/><path class="cls-2" d="M511.25,753.54c2.67,2.81,5.5,5.36,9.41,6.38,4.92,1.29,6.15.55,7.06-4.42-.19-4.33-1.93-8.29-3.43-12.22-2.9-7.6-5.44-15.36-9.19-22.63a18.49,18.49,0,0,1-1.6-2.23c-7.42-14.35-15.34-28.43-22.56-42.89-11.17-16.87-21.2-34.41-31.09-52-4.78-8.52-11.22-16-16.85-24-1.79-2.54-3.07-5.38-4.82-7.95,9.4,15.17,22.67,27.25,33.18,41.54,3.15,2.19,5.49,5.25,8,8.06,3.43,3.88,7.29,7.33,10.62,11.29.67.81,1.52,1.8,2.58,1.18,1.37-.8.51-2.13,0-3-3.71-6.61-7.31-13.3-11.84-19.41a85.06,85.06,0,0,0-7.52-9.42c-.83-.85-1.93-1.7-1.69-3.36,1.37-.17,2.08.86,2.75,1.65q15.66,18.58,32.63,36c1.43,2.11,3.46,3.68,5.15,5.56.66.73,1.59,1.79,2.6.94s.15-1.94-.32-2.8c-3.34-6-7.22-11.74-11.07-17.46-5.39-8-11.86-15.18-18.19-22.45a22.94,22.94,0,0,1-3.84-6.09c-4.73-2.7-9.42-5.5-14.2-8.1-6.44-3.5-13-6.86-19.45-10.26a7.88,7.88,0,0,1-3.4-2.73c-13.38-21.43-27.74-42.19-42.54-62.66a13.33,13.33,0,0,1-2.18-4.1c4.63,4.71,9.22,9.45,13.89,14.11a72.15,72.15,0,0,0,5.39,4.8c5.58,4.58,11.8,6,18.63,3.28A33.4,33.4,0,0,1,459.26,547c1.53.21,3,.38,3.36-1.75.27-1.77-.44-2.71-2.19-3.27-2.32-.73-4.07-1.83-1.83-4.63.9-1.12.08-2.13-1.18-2.64-.71-.29-2.14,0-2.07-.8.28-3.14-1.62-4.16-4.08-4.94a1.58,1.58,0,0,1-1-1.68c.57-2.92-1.28-5.24-1.8-7.87-.4-2-1.18-2.35-2.73-1.08-.87.71-1.65,1.7-3.08.94.68-.46,1.87-.23,1.89-1.38s-.75-1.61-1.61-2a10.78,10.78,0,0,0-2.61-.85c-4.62-.25-9.2.69-13.78.57-10.07-.24-19.94-1.61-28.71-7.18a2,2,0,0,1-1-1.21,17.1,17.1,0,0,1,9.36.09c13.91,4.54,27.77,2.56,41.63-.08,3.5-.67,7-1.42,10.51-2a32.6,32.6,0,0,1,22,3.88A122.32,122.32,0,0,0,508,520.49c4.4,1.23,8.63,3.15,13.1,4.3,3,1,6.29,1.35,9.09,3.06,4.42,1.79,9.16,2.69,13.47,4.82,3,.87,6.1,1.28,8.8,3,15.58,5.24,30.48,12.23,46,17.58,2.34.81,4.71,2,7.34,1.07,1.58-2.87.3-5-1.84-6.86l-11.32-9.83c-3.85-3.48-8.75-4.55-13.57-5.5q-26.09-5.16-51.61-12.6a133.16,133.16,0,0,1-31.69-14.22c-9.44-5.69-19.31-10.26-30.09-12.63-7-1.55-14-.46-20.84,1.24-2.46.61-4.9,1.26-7.35,1.86-4.72,1.18-9.32,3.3-14.4,1.93-1.41-.39-2.65.54-4.24.78a51.88,51.88,0,0,1-1.12-5.45c-.41-3.93-2.79-3.84-5.81-3.73.27-1.08,1.36-1.3,1.53-2.15.34-1.81-.66-2.84-2.46-2.27a2,2,0,0,1-1.61-.07c-.44-.21-.9,0-1.45-.13,1-.69,2.94-.08,2.85-1.59-.1-1.72-1.89-2.41-3.26-3.17-.71-.39-1.94.81-2.32-.62-.32-1.22,1-.92,1.51-1.43a1.93,1.93,0,0,0,.46-1.92,1.6,1.6,0,0,0-1.59-1.08,3.45,3.45,0,0,0-3.92,2.63c.17-1.13,1.07-2,1.15-3.24.17-2.43-.62-3.27-3-2.62-1.6.43-1.48-.48-2-1.46-.82-1.68-.32-4.39-3.2-4.66-9.9.64-19.51,2.85-29.1,5.22-1.54.38-2.59.53-3.67-1.19-15-24-30.05-48.11-44.55-72.49-.23-.39-.4-.82-.94-2,11.2,8.13,23,13.09,36.07,14.69,1.51-4,1.26-7.43-1.46-8.09s-2.74-2-3.3-3.87c-.46-1.54-1.69-2.08-3.27-1.1-.66.41-1.15,1.15-2.05,1.19.84-1.55.83-1.65,10.73-2.91,4-.5,7.91-1.6,12-1.07,2,0,3.91-.09,5.86-.15,1.42,0,3.49.42,3.83-1.39s-1.78-2.09-3.13-2.51c-3.17-1-6.36-2-9.6-2.72a71.3,71.3,0,0,1-8.82-2.83,11.84,11.84,0,0,0-4.11.29,103.92,103.92,0,0,1-33.3.22,15.56,15.56,0,0,1-3-.81c-.42-.16-.91-.21-1.21-.73a28.61,28.61,0,0,1,9.66-2.17,165.7,165.7,0,0,0,30.43-3.84c8.67-1.9,17.59-2.22,26.2-4.42a13.62,13.62,0,0,0,1.68-.38c15.93-6.2,30.78-1.46,45.32,4.82,16.83,7.27,34,13.6,51.83,17.71,11.65,2.69,23.27,5.41,34.83,8.49,9.47,2.53,19.39,2.35,29.05,3.83a93.16,93.16,0,0,0,14.73,1.24c4-.18,8.06-.1,12-1.11,4.91-1.27,6.52-4.58,4.75-9.4-2.67-2.32-6-1.88-9.18-2.25-7.58-.87-15.11.58-22.67.58-12.37,0-24.5-1.17-36.38-5-5.44-1.76-11.21-2.48-16.92-3.17a140.68,140.68,0,0,1-49.13-15c-10.57-5.54-22-9.23-33.16-13.51-8.67-3.33-17.35-2.89-25.92.55-5.12,2.06-10.35,3.83-15.32,6.23a72.89,72.89,0,0,1-12.39,4.2c-3.22.73-6.22.54-9-1.47A3.7,3.7,0,0,1,340.7,365c.44-1.4,1.3-1.66,2.34-2.13,3.46-1.57,6.74-3.49,10.25-5,1.21-.51,2.94-1.14,2.54-2.8s-2.28-1.25-3.56-1.25A60.53,60.53,0,0,0,340,355.47c-2.87.61-5.6,1.23-8.4-.13-1.08-.53-2.24-.07-2.93,0a206.68,206.68,0,0,0,25.93-11.84,28.28,28.28,0,0,0,6.12-3.07c.84-.56,1.9-1.23,1.38-2.43s-1.75-.9-2.74-.72c-2.35.43-4.62,1.25-7,1.56-6.17,1.78-12.4,3.35-18.55,5.21-2.21.67-4.48,1.31-6-1.53-.65-1.26-1.95-1.48-3.3-.87q-6.48,3.81-13,7.6a115.51,115.51,0,0,1-14.13,7c-2.08.86-3.22.56-4.27-1.57-2.27-4.62-4.82-9.1-7.26-13.63a3.49,3.49,0,0,0-2.62,1.45,2.74,2.74,0,0,1-3.06,1c-.85-.2-1.91-.68-2.49.35a3,3,0,0,0,.21,3.57c1.73,1.6,1.22,3.09.65,4.94-.94,3.08,1.27,8.73,4.14,10.26a29.67,29.67,0,0,1,4.55,3.58c6.37,13.52,13.77,26.49,21,39.54,12.45,22.41,26.27,44,40.22,65.48,1.41,2.18,1.71,3-.62,5.15-6.72,6.06-12.87,12.75-19.24,19.2-.44,9.08-.94,18.14-3.44,27-1.16,4.09-1.38,8.37-2.18,12.54-.78,6.05-1.44,12.11-.11,18.18,1.1,1.4,1.94.8,2.62-.4a13.32,13.32,0,0,0,1.23-3.58c1.81-8.1,5.47-15.63,7.39-23.72-2.22,11-3.84,22-3.34,33.2.09,2-.56,5,1.81,5.32,2.15.29,2.15-2.81,2.7-4.56a171.56,171.56,0,0,0,4.59-17.75c-1.12,3.62-2,9.84-2.6,16.12-.5,5-.31,9.84,1.61,14.58s1.43,9.76.88,14.67c-.95,8.45-2.44,16.85-2.93,25.36a34.53,34.53,0,0,0,2.33,15.57c1.24,3,1.73,6.2,2.86,9.21a31.72,31.72,0,0,1,3.3,15.9c-.14,2.29,1.73,4.29,1,6.67-.3,0-.47-.1-.49-.38-.07-1.39.58-3.51-1.64-3.39s-1.51,2.14-1.32,3.56a6.43,6.43,0,0,1-.8,4c-1.37-3.35-5-4.14-7.53-1.64,7.14,16.67,12.82,33.87,18.56,51.06a39.16,39.16,0,0,0,2.61,6.36c1.63,3,3.8,3.56,7.23,2.25a5.31,5.31,0,0,0,.44-3c-1.44-19.91-1.51-39.92-3.9-59.77a8.05,8.05,0,0,0-.18-1c-1.06-5-1.91-10-3.45-14.84a9,9,0,0,0-.29-.92c-.78-2.28-2-4.45-2-7a10.91,10.91,0,0,0-1-3.28c-5.73-11.62-5.27-23.7-3.26-36.09,1.67-10.31,2.6-20.65-.95-31-2.43-7.09-.78-14.59.29-21.88,1.74-11.85,4-23.59,7.59-34.08.81,10.55-2.16,21.64-3.24,32.92a6.93,6.93,0,0,0,2.61,4.59c3,2.67,4.12,6.43,4,10.38-.29,8.92,1.66,17.61,2.59,26.4.61,4.77,1.44,9.5,2.45,14.19.24,1.08.48,2.61,1.85,2.44s1.17-1.74,1.23-2.84c.16-2.86-.32-5.71,0-8.56,1.08-9.14,1-18.38,2.06-27.71-.57,4.68.81,7.69,6.06,8.14-.75,1.36-2,2.74-.45,4.18,3.95,3.67,4.89,8.75,6.22,13.59,1.09,4,3,7.7,4.05,11.7.27,1,.75,2.14,2.11,1.74a2.23,2.23,0,0,0,1.64-3c-.22-.9-.49-1.78-.62-2.69-.18-1.3.16-2.46,1.47-2.75,3.16-.71,3.28-3,3.23-5.52-.65-22.64-6.89-44.13-13.15-65.74L394.31,541q17.74,26.51,35.51,53c1.5,2.21,2.07,3.57-.27,5.93-4.23,4.25-6.17,9.95-7,15.81-.29,2.07-2,3.88-1.1,6.13,2.25.86,3,2.54,3.41,4.89C427.41,640,430.36,653.12,437,665a15.77,15.77,0,0,0,1.06,1.78c.61.84,1.26,2,2.45,1.38s.64-1.8.45-2.79c-2-10.27-3.58-20.62-6.39-30.72a2,2,0,0,1,.25-2.13c1.68.22,1.87,1.72,2.22,3A123.62,123.62,0,0,0,445.51,657c2.31,4.59,3.9,9.61,7.31,13.63,2.49.76,2.67-.9,2.17-2.45-3-9.41-4.62-19.2-7.67-28.61-1.34-4.15-2.42-8.39-3.58-12.6-.36-1.32-.54-2.79,1.8-4-1.15,1.22-2,2-1,3,.79.75,1.18,2.13,2.65,1.84,2-.41,3.11.91,3.76,2.36,7.52,16.68,17.37,32.1,25.91,48.22a15,15,0,0,1,.73,1.93c3.8,6.75,7.1,13.77,10.74,20.61,3.4,8.15,7.86,15.79,11.57,23.79,3.46,7.46,6.92,14.91,10.82,22.13C512,749.22,510.66,751.36,511.25,753.54Z"/><path class="cls-3" d="M464.21,112.59c-7.79-4.94-16.56-7.43-25.42-9.12a191.39,191.39,0,0,0-50.34-3,156.19,156.19,0,0,0-62.26,17.65c-1,.53-1.95,1.2-2.91,1.81.88,1.42,2.73.94,3.87,2,1.36,1.27,2.32,2.61.54,4-4.07,3.12-2.05,7.36-2.33,11.17-.05.68.5.94,1,1.25,1.45.89,1.6,1.63-.3,2.13s-1.7,2.19-1.71,3.65c0,1.86,1.12,2.56,2.82,2.62-2.84,1.63-4.49,3.79-3.41,7.29a5.83,5.83,0,0,1-.76,5,17.63,17.63,0,0,0-2.16,4.66c-.19.66-.41,1.57-1,1.72-4.12,1-3.49,3.83-2.95,6.84a4.46,4.46,0,0,1-1.56,4.62c-2.4,2-2.1,3.66.73,5.1a10.15,10.15,0,0,0,3.22,1.19c4.93-.54,9.63-2.16,14.53-2.86a48.19,48.19,0,0,1,24.68,2.85c8,3.07,15.3,7.42,23.19,10.62,12.18,5,24.71,7.93,38,7,9.81-.65,19.6-.63,29,2.62,8.18,2.82,15.67,7.15,23.14,11.48,14.92,8.65,29.88,17.22,45.74,24.08a6.57,6.57,0,0,0,3.28.87c1.62-.53.76-1.47.18-2-5-5-4.94-12.15-7.62-18.14-.93-2.08-1.63-4.94,1.85-6.34,1.21-.49.66-1.85,0-2.67-1.17-1.41-.82-2.74-.09-4.15a44.11,44.11,0,0,0,3.62-9.64,4.86,4.86,0,0,1,1.19-2.46c6-5.52,10.29-12.93,17.88-16.81.1,0,.25-.08.29-.16,1.77-3.35,5.21-5.1,7.55-7.9A71.3,71.3,0,0,0,520,153.59c-.74.68-1.06,1.82-2.23,2-2.35.44-2.61,1.92-1.9,3.85.46,1.29.22,2.26-1.13,2.8-5.61,2.25-9.61,6.79-14.39,10.23-1.78,1.27-3.38,1.75-5.41,1.07a11.1,11.1,0,0,0-7.74.32c-3.35,1.31-6.34,1.78-9.35-1.29-1.11-1.13-3.75-.79-5.67-1.3-.77-.2-1.82-.06-2.12-.87-1.65-4.44-6.26-4.31-9.54-6.17-1.28-.73-2.2-1.16-1.67-2.73s-.42-3.61.84-5.32c.85-1.14-.36-2-1.26-2.37a9.28,9.28,0,0,1-5.42-7.08,2.52,2.52,0,0,0-.84-1.48c-1.91-1.48-1.84-2.86-.06-4.48a2.62,2.62,0,0,0,.39-3.49c-1.24-1.9-.82-3.45.69-4.9,1.27-1.23,2-2.5.65-4.18-.78-1-.3-1.72.6-2.27a9,9,0,0,0,4.39-8.54c0-1.22.87-1.8,1.64-2.48C461.57,114,463.16,113.71,464.21,112.59Z"/><path class="cls-4" d="M56.12,348.72C60,346,62.68,342.05,66,338.79c6-5.81,13.09-10.41,17.88-17.5a75.91,75.91,0,0,1,14-15c4.86-4.13,8.27-9.49,11.44-14.85,8.63-14.58,17.65-28.9,26.48-43.34s17.34-28.83,23.88-44.44a312.76,312.76,0,0,1,13.67-29.15c.75-1.37,1.48-3-.16-4.75-9.43,14.14-18.3,28.49-26.44,43.34,4.2-11.93,9-23.58,14.25-35.12-5.12,7.06-10.44,13.94-15.08,21.36,1.07-5.29,3.35-10,5.61-14.77q5.44-11.46,11.35-22.69c2.08-3.93,4.66-7.58,7-11.35.35-.56,1-1.21.24-1.75s-1.22.23-1.66.77c-6,7.58-12.1,15.13-18.07,22.76-3.65,4.68-7.34,9.34-10.24,14.89-.55-2.93,6.07-16.15,13.14-27.52,5.39-8.66,10.95-17.21,16.33-25.94-12.53,15-25.62,29.53-37.44,45.38.09-4.6,21.4-38.56,30-48.07a2,2,0,0,0,0-3c-2.83-1.92-3.12-5.13-4.47-7.8,1.21-1.32,4.15-1.4,3.51-3.94a3.82,3.82,0,0,0-3.78-2.92c2-1.56,2.43-3.61.52-5.94-11.71,6.82-21.65,15.78-30.61,25.82a122.84,122.84,0,0,0-17,24,16.81,16.81,0,0,0,5.7,6c1.67,1,2.34.72,2.93-1.22-.18,2.06-4,2.92-1.39,5.35a2.27,2.27,0,0,0,3.61-.06c0,.08-.12.24-.13.51-.16,2.37-.14,2.38-2.7,5.19-.68.76-1.75,1.4-1.15,2.59.48,1,1.48.91,2.44.71.38-.07.9-.45,1.07.26a1.05,1.05,0,0,1-.26,1c-.42.42-.84.12-1.21-.13a19.57,19.57,0,0,0-2.14-1.09,3.65,3.65,0,0,0-4.47.48c-1.5,1.31-1.06,3.19-1,4.86,0,1,1,1.13,1.84,1s1.66-.87,2.63-.48c.37.77-.62,1.43-.36,1.92,1.91,3.71-.27,5.69-3,7.47a1.75,1.75,0,0,0-.89,2.05c.75,2.3.62,4.94,1.93,6.92s.51,2.49-1.25,2.34c-2.76-.23-3.51.63-2.75,3.37s-.71,4.25-3.57,3.64c-2.63-.57-4.26,1.18-3.45,4.14.39,1.41.47,2.52-.57,3.41s-2.15-.13-3.2-.43c-1.42-.4-2.59-1.54-4.18-1.46a1.68,1.68,0,0,0-.86.43c-.53,1.62-1.23,2.56-2.67.69a4,4,0,0,0-1.21-1.2c-.91-.45-1.58-2.15-2.84-1-1,.92-.39,2.13.23,3.15a11.68,11.68,0,0,1,1.18,1.68c-.7.18-1.58.19-1.75-.08-1.44-2.42-3.71-1.94-5.73-1.5-3.21.7-5.21-2.47-8.33-2.33-.85,0-1.06-2.88-2.66-3.68C51.46,224,34.27,238,23.19,258.17a44.75,44.75,0,0,0-5.71,18.58c1.64-1.16,2.28-3.5,4.66-3.81,1.59-.21,2.89-.28,2.44,2a4.38,4.38,0,0,0-.12,1c0,1-.41,2.28.63,2.86s1.83-.51,2.58-1.17a4.53,4.53,0,0,1,1.34-1c.48,3.73,3.17,4.42,6.32,4.73,2,.21,3.9.9,4.68,3.33.71,2.24,2.49,2.32,4.41,1.06-.33,3.6,1,5.29,4,5.5.58,0,1.51.14,1.62-.28,1.11-4.28,4-1,5.89-1.46-3.71.47-4.86,1.38-5.06,4.21-.18,2.48,1.51,3.62,3.5,4,3.48.63,4.48-2,5.27-4.67.2-.39.64.39.29.09-.07-.06-.17,0-.23.24-.59,2.1-1.24,4.13-3.52,5.11a1.61,1.61,0,0,0-1,2c.49,1.68,2,1.65,3.56,1.72-1.1,1.73-2.07.62-3,.23-1.07-.46-2.18-1.19-3,.17s-.68,3.06.67,3.64c3.73,1.59,3.36,4.11,2.2,7.09-.46,1.21-.6,2.82.14,3.67,1.55,1.79,1.15,3.18.16,5-.42.75.28,2-1.53,1.45s-2.33.76-1.59,2.17c1.14,2.17.34,3.41-1.52,4.5a4.76,4.76,0,0,0-2.52,4.25c0,.82-.08,1.78-.77,2.2-3.35,2-4.82,6.08-8.46,7.76-.52.24-1.16.54-1.35,1-1.64,4.16-5.38,5.45-9.1,6.81a2.23,2.23,0,0,0-1.55,3c.64,2.4-.14,3.36-2.43,2.67-1.72-.51-2.21.12-2.81,1.46a80.7,80.7,0,0,1-6.51,11.11c-1.41,2.14-3,4.19-1.9,7,.74,1.91-1.08,2.24-1.91,3.18a2.31,2.31,0,0,0-.35,1.4c1.46,2.32.82,5.05-1.38,5.87A2.07,2.07,0,0,0,9,389.07c.08,1.73,3.06,4.05-1,5-.57.13-.57.91-.5,1.51.47,4.16,1.05,8.45-.64,12.34-.65,1.51,2.48,1.12.62,2.52-1.14.85,0,2.68-.88,3.88.25.77.5,1.55.76,2.33.84-.83,2-1.09,2.89-1.88-.31,1.72-2.26.72-2.89,1.91l8.92,29.74c2.38-.36,2.67-2.32,2.7-4.07.08-4.07.94-8.28-1.73-12a4.23,4.23,0,0,1-.53-3.67c1.17-3.38.15-6.61-.41-9.85-1.06-6.26-.21-12.46.1-18.71a27.85,27.85,0,0,1,1.86-9.91c.64-1.52-.73-4.28-.28-6.58a5.33,5.33,0,0,1,1.51-3.37,11,11,0,0,0,4-6.68,2,2,0,0,1,.52-1.26c5.05-3.87,8-9.79,13.17-13.51,2.57-1.86,5.65-2.93,8.37-4.63,1.45-.9,3.12-1.46,4.3-2.79C51.69,347.14,53.75,346.35,56.12,348.72Z"/><path class="cls-3" d="M352.33,339.45c3.18.29,6.05-1.77,9.81-1.42-2.55,2.44-5.36,3.43-7.89,4.85-1.6,1.14-1.33,3.64-3.37,4.54-.59.27-.33,1.13.27,1.35,2,.72,2.36,2.58,3.38,4.06,1.62,2.36,3.89,1.79,5.35,1.07a3.78,3.78,0,0,0-3.38,4c.17,2.44.62,5.27,3.06,6.57,1.51.8.87,3.72,3.43,3.12,4.78-1.94,9.6-3.8,14.34-5.84a37.46,37.46,0,0,1,29.83-.24c9.89,4,19.95,7.59,29.51,12.24,10.26,5,20.54,9.68,31.71,12.22,7,1.6,14.16,2.74,21.3,3.79a100.51,100.51,0,0,1,16.43,3.32c12.68,4.09,25.77,4.67,38.94,4.11,9-.38,18.07-1.3,27,.88-2.57-5-6.9-8.54-10.85-12.34-8.09-7.8-15.51-16.37-25.22-22.38A152.92,152.92,0,0,0,508.52,350c-23.32-8.63-46.66-17.17-69.49-27.14a85.19,85.19,0,0,0-44.18-6.68c-16.57,1.9-32.59,5.56-47.52,13.26,1.49,3.06,3.54,5.88,4,9.41A.83.83,0,0,0,352.33,339.45Z"/><path class="cls-3" d="M436.83,496.92c7.7-1.68,15.23-4.44,23.27-3.91,8.37.56,16.14,3.32,23.63,6.95,9.78,4.74,18.8,10.93,28.77,15.32a97.92,97.92,0,0,0,9.29,3.6c14.12,4.58,28.54,8,43,11.37,6.8,1.57,13.69,2.79,20.46,4.57,2.58.68,4.91,1.93,7.4,2.77-16.34-16.64-32.81-33.2-52.12-46.43-9.85-6.75-20.86-11.48-32.36-15a288.65,288.65,0,0,0-91.57-12.7,20.49,20.49,0,0,0-2.67.4c-1.61.76-4.33.83-2.31,3.82.35.52-.14,1.09-.36,1.61a1.87,1.87,0,0,0,1.48,2.85c2.42.42,3.1,2.17,4.16,4,1.69,2.93,4.2,5.39,4.35,9.06a1.92,1.92,0,0,0,1.21,1.59c4,1.61,6.71,5.19,10.58,6.91C434.68,494.48,434.9,496.69,436.83,496.92Z"/><path class="cls-5" d="M176.55,257.91c2.22-7.84,4.24-15.74,6.72-23.49,3.2-10,7.29-19.75,10-29.87,2-7.44,5.8-14.15,7.44-21.65-1.71-.39-1.86,1.07-2.21,2-6.18,17.07-17,31.46-26.92,46.35-9.69,14.53-19.36,29-28.58,43.88a89.81,89.81,0,0,1-14.77,17.68,149.61,149.61,0,0,0-22.49,26.4c-3.61,5.5-7.92,10.42-12,15.56-1.78,2.24-3.79,4.33-5,7a16,16,0,0,1-1.6,4.15,2.56,2.56,0,0,0,1.31,4c1.6.68,3.38,1.26,4.28-1.07.11-.28-.33-1,.42-.67,3.62,1.53,7.42-.59,11.09.66,2.26.77,4.14,1.48,3.66,4.41a2.34,2.34,0,0,0,.8,2.2c3.81,2.91,5,7.4,6.52,11.49A104,104,0,0,1,119.07,379a40,40,0,0,0,1.16,4.68c1.5,4.23,1.46,4.25-2.82,5.95-4.93,2-10.23,2.44-15.35,3.55-7.4,1.62-13.72,5-19.81,9.23-4.13,2.85-6.7,7.19-10.46,10.36a6.63,6.63,0,0,0-2,3.57,4.43,4.43,0,0,1-1.37,2.72c-3,2.14-4,5.06-4.07,8.63a16.25,16.25,0,0,1-2.29,6.81c-.49.92-1.27,1.91-1,2.88,1.55,6.31-.15,12.88,2.32,19.28,1.92,5,4.19,9.84,5.68,15,.34,1.18.58,2.55,2.25,2.65l4.44-4.43A12.63,12.63,0,0,0,72,461.46a2.18,2.18,0,0,1-.58-2.26c1.17-2.9,0-5.28-1.25-7.84a14.62,14.62,0,0,1-.91-8.82c.87-4.68.52-9.35,2.6-14.17,2.91-6.75,7.74-12.06,11.21-18.32,2.52-4.54,8.31-6.75,13.46-8.46,6.63-2.21,13.59-3.15,20.45-4.46a7.73,7.73,0,0,1,2.71.32c5.8.93,11-4.14,11.09-9.93.05-5.1-2.61-8.89-4.82-13-.55-1-1.56-2-1.25-3.13,1.35-5.12-1.09-9.71-1.9-14.51-.34-2-.66-3.77,1-5.44,2.59-2.65.71-5.78.35-8.56-.32-2.49-.2-4.44,1.59-6.21a4.06,4.06,0,0,0,.54-.88c3.35-5.58,4.64-5.37-3.43-7.63,1.82-.48,3.13.39,4.5.46,2.06.1,3.86-.67,4.2-2.76s-1.2-3.05-3.24-3c-.89,0-1.69,0-1.48-1.23.17-1,.07-2.25,1.57-2.23a15.64,15.64,0,0,0,3.87-.36c-1.13.8-3.45-.09-3.16,2.32.2,1.68,3.47,3.18,5.5,2.17a18.45,18.45,0,0,1,7.58-2.11c4.43-.13,8.76-1.08,13.12-1.57,7.74-.88,15,1.92,22.57,1.94a3.34,3.34,0,0,0,3.37-1.75,3.72,3.72,0,0,0,0-3.59,7,7,0,0,0-4.36-2.6c-4.42-.65-8.68-2.14-13.19-2.31-5.58-.22-9-4.22-8.25-9.83a12.93,12.93,0,0,0-.08-4.39,4,4,0,0,1,1.08-3.84,13.32,13.32,0,0,0,4.8-11.34c0-.87.78-1,1.22-1.51a11.27,11.27,0,0,0,3.16-8.45c-.13-2.61.06-5.07,2.49-7.06a7.41,7.41,0,0,0,1.73-8.82C172,257.17,174.43,256.88,176.55,257.91Z"/><path class="cls-6" d="M545.59,169.54a8.41,8.41,0,0,1-4.18,2.29c-1.86.29-2.7,1-2.07,2.91a1.32,1.32,0,0,1-.8,1.68c-3.35,1.86-6.8,3.64-9.43,6.48-3.41,3.68-6.15,8-10.23,11.06-.7.52-.87,1.84-1.1,2.84a40.07,40.07,0,0,1-4.18,10.5c-.77,1.37-1,2.49.51,3.56,1.95,1.38,1.38,2-.72,2.27-1.33.2-1.79.94-1.7,2.68.22,4.3,2.83,7.86,3.34,11.92.46,3.59,2.2,6.24,4,9.13.71,1.12,2,1.39,2.4,2.61a4,4,0,0,0,2.33,1.89q15.45,6.93,31.48,12.39a23.33,23.33,0,0,1,3.32.82c3.27,1.28,5.88.63,8.29-2,3.22-3.55,8-4.7,12-7.22,3.78-2.43,7.73-5,10.36-8.28,1.83-2.3,5.39-4.35,4.89-8.28-8.57-8.41-17.21-16.77-25.7-25.27-4.08-4.08-5.83-9.57-8-14.73A50.16,50.16,0,0,0,545.59,169.54Z"/><path class="cls-7" d="M353.06,384.85a22.45,22.45,0,0,0,6.56,2.8c5,1,9.81,2.67,14.7,4.06l-.09.85-9.86.54c-2.05,1-3.09,2.46-1.8,4.69.78,1.37.31,2.67.13,4a3.33,3.33,0,0,0,1.26,3.38c1.27.91,2.09.08,3-.77,1.24-1.22,2,0,3.65.67-4.35,1.2-3.83,4.44-4.44,7.11A86.19,86.19,0,0,1,378.28,417a38.15,38.15,0,0,0,25,2.29c6.16-1.54,11.71,0,17.11,2.22,13.53,5.44,27.13,6.91,40.92,1.41,17.26-6.88,35.24-10.23,53.67-11.56.15-1.78-1.32-1.59-2.32-1.81-18.07-3.9-36.11-7.89-53.93-12.8a201.09,201.09,0,0,1-25.63-9.08,217.25,217.25,0,0,0-22.43-8.73,40.24,40.24,0,0,0-18.33-1.23c-11.23,1.81-22.46,3.56-33.72,5.12C356.68,383.07,354.37,382.78,353.06,384.85Z"/><path class="cls-8" d="M444.39,222.6a32.12,32.12,0,0,0-22.7-6,67.43,67.43,0,0,1-39.9-7.66q-8.22-4.32-16.21-9.06c-9.91-5.87-20.22-5.68-30.67-.95-7.31,3.31-14.79,6.26-22.19,9.37a2.67,2.67,0,0,0-1.74,4.12c2.28,3.86,2.16,8.41,4,12.38,2.11,4.51,5.7,6.41,10.32,4.64,2.3-.88,3.91-1.12,5.64,1.16,1.48,2,3.28,1.25,3.6-1.42.26-2.25,1.14-2.75,3.14-2.21,1.44.38,3,.28,4.39.83a1.81,1.81,0,0,0,2.59-.91c.48-.92.11-2.63,1.8-2.52,1.94.13,4.19.27,5.36,1.91,1.45,2,2.67,3.33,5.29,1.94,1-.55,1.87.35,2.63,1.14,2.23,2.33,4.09,5.64,8.25,3.17.73-.44,1.06.63,1.38,1.2.84,1.53.89,3.38,1.73,4.85.71,1.26,1.35,4.35,3.57,1.06.14-.19.16-.23.44-.15,3.21.94,5.59,5.31,4.22,8.4-.87,2-.59,4.36-2.25,6.07-.5.51-.37,1.56.57,1.5,3.24-.2,3.26,2.54,3.87,4.38,1.29,3.93,1.13,4,5.74,2.22-1.72,1.35-3.56,1.42-4.23,2.92s0,3.15.66,4.63,0,1.93-1.28,2.12c-2.69.41-3.61,1.81-3.15,4.59.34,2.1-1.11,3.62-2.84,4.78-1.2.81-2.71,1.42-2.73,3.25a50.05,50.05,0,0,0,18.62.42,9.94,9.94,0,0,0-.1-4.44c-.41-2.68-.46-5.29,1.27-7.61.28-.36.65-.81.59-1.22-.86-6,4.29-10.14,4.94-15.68a4,4,0,0,1,1.6-2.59c2.6-2.13,5.07-4.34,5.82-7.87a2.36,2.36,0,0,1,1.41-1.44c4.14-2.09,7.35-5.41,10.93-8.25s7.67-5,12.58-4.61c.69.06,1.53.17,2-.37,3.05-3.7,7-2.38,10.78-2,1.4.14,2.54,0,3.35-1.13,1.14-1.66.4-2.81-1.19-3.59C445.57,223.6,444.73,223.47,444.39,222.6Z"/><path class="cls-9" d="M71.27,474.31a5.53,5.53,0,0,1-1.63-3.7,8.85,8.85,0,0,0-2.49-5.54,2.54,2.54,0,0,1-.89-1.44c-.24-4.93-3.62-9.09-3.79-13.8-.15-4.05-.3-8.07-.59-12.12-.17-2.41,1.74-5,2.9-7.47a4.62,4.62,0,0,0,.56-2.6c-.28-3.32.65-6,3.73-7.83a2.79,2.79,0,0,0,1.5-2.86,4.17,4.17,0,0,1,2-3.81c3.85-2.39,5.6-6.69,9.33-9.31,6.25-4.38,12.58-8,20.16-9.69,6-1.34,12.11-1.9,17.83-4.39,2.39-1,2.75-2.27,2.06-4.51-1.77-5.72-3.22-11.61-5.19-17.18-1.42-4-2.27-8.92-6.23-11.85-1.48-1.1-2.48-2.38-1.63-4.4a1.81,1.81,0,0,0-1.12-2.55c-3-.81-5.77-3.33-9.36-1.24-1.66,1-3.5-1.68-5.57-.61-.33.16-1.33-.59-.87.54.53,1.32-.06,1.79-1.14,1.79a3.87,3.87,0,0,1-3.13-1.18c-.73-.86-.36-1.7.28-2.47a5.63,5.63,0,0,0,1.37-3.78c-2-.34-2.83,1.32-3.77,2.49a314.32,314.32,0,0,0-21.09,29.45c-3.56,5.63-5,12.14-5.87,18.63-2.24,16.88-4.11,33.85-7.36,50.53-2.82,14.49-6,29.09-12.7,42.52-1,2.07-2.52,4.18-1.89,6.78,8.7-3.71,18.09-5.82,26.11-11.1C65.93,479.56,69.08,477.48,71.27,474.31Z"/><path class="cls-10" d="M373.7,284.32c1.78-2.46,5.65-2.81,6.41-6.37.14-.64.69-1.2.31-1.9-1.83-3.31.53-3.36,2.73-3.5s2.84-.73,1.61-2.95c-2.25-4.08-2-4.46,2.2-6.19.78-.33,2.26-.2,1.94-1.41s-1.67-.75-2.69-.71c-1.29,0-1.85,1.3-3.18,1.71a36.18,36.18,0,0,1-1.61-6.22c-.55-3.54-2.05-2.35-4.52-1.62,3.51-3.54,3.28-7.74,4.05-11.64a1.93,1.93,0,0,0,0-1c-3.28-.58-4.64-4.14-7.57-5.26-1.11,1.64,1.3,1.91.69,3.29a3,3,0,0,1-2.45-2.89,15.81,15.81,0,0,0-1.51-4.5c-.81-1.73-1.08-4.91-3.35-.86-.41.72-1.06.55-1.79.24a8.49,8.49,0,0,1-4.43-3.66c-1.2-2.37-2.77-2.66-4.69-1.26-1.46,1.07-2.07.27-2.65-.8-1.07-2-5.77-4.33-7.88-3.82-1.41.34-1,1.52-1.06,2.54-.05,1.3-.22,2.14-2.07,1.36a23.77,23.77,0,0,0-6.32-1.31c-2.31-.29-2.27,1.29-2,2.93.16.93.21,2-.84,2.36s-1.67-.67-2-1.51c-1-2.6-2.75-2.2-4.74-1.34-5.55,2.37-8.57,1.16-10.72-4.31-.88-2.23-1.9-4.44-1.67-6.94a3.73,3.73,0,0,0-1.19-2.76c-1.68-1.94-1.85-3.87,0-5.79-4,.37-7.85,1.93-11.94,1.62-2.66,2.13-3.61,6.33-1.17,8.75,2.19,2.16,1.49,4.31,1.46,6.55s-1.63,5,2.24,5.64c.32,0,.47.08.26.36-2.28,2.95,1.33,6.1-.39,9.21-.79,1.42,1.26,1.86,2.26,2.7-2.53,1.17-2.25,3.4-2,5.34s1.62,2,3.05,1.08c2.17-1.36,2.67-.38,3.54,1.69,1.31,3.1,2.83,6.11,6.68,7.47,2.56.9,5,2,8.09,1.82a7,7,0,0,1-3.9,1.39c-1.15.05-2.45,1.31-1.74,1.88,2,1.64.71,3.76,1.39,5.51,1.67,1.05,3.6.77,5.35.67,8.65-.48,16.42,2.3,24,6A95.84,95.84,0,0,0,373.7,284.32Z"/><path class="cls-9" d="M630.05,291.85c-10.95-3.1-21.81-6.62-32.88-9.19-14.19-3.29-28.56-5.72-42.52-10-11-3.38-21.5-7.92-32-12.4s-21.23-9.14-31.85-13.72c-1.06-.65-2.19-1.63-3.3-.25a3.81,3.81,0,0,0-.28,4.54c2.54,3.93,1.91,8.95,4.68,12.81,1,1.34-.19,2.5-1.14,3.59-2.49,2.86-2.06,4.72,1.36,6.2-.76,1.26-.9,2.92-1.5,4-2,3.59-1.19,8.87-6.31,10.72-2.65,1,.08,3.54-1.08,5.09,7.48,2,15.19,2.21,22.84,2.62,23,1.25,45.89-.11,68.84-.43,14.69-.2,29.38-.18,44.06-.33C622.9,295,627.06,295.37,630.05,291.85Z"/><path class="cls-11" d="M286.15,476.47c2.11-7.51,4.79-14.91,6.12-22.55a88.78,88.78,0,0,0,1.63-17.65c-.49-1-1.68-1.36-2.07-2.26s-2.92-.9-.85-2.77c.78-.71-3.07-5-4.67-5.05-.93,0-1.87.26-2.14-1,3.32-.66,3.22-.6,1.35-3.53-1.3-2.05-2.33-4.11-5.24-4.24-1-.05-1.55-1.26-1.75-2.34s-.7-2-2-1.85c-1.61.14-2,1.14-1.78,2.85-1.44-2.14-.65-4.75-2.29-6.59-.63-.7.42-1.41.7-2.13,1-2.4.23-3.4-2.33-2.88a2.45,2.45,0,0,1-3.09-1.49c-.77-2.14-3.08-3.95-1.58-6.68a1.27,1.27,0,0,0-.61-1.78c-5-1-4.62-5.51-5.93-8.91a7.9,7.9,0,0,0-.82-2.25c-.53-.66-1-.28-1.42.15-1.54,3.26-1.07,6.78-1.18,10.18a136.92,136.92,0,0,1-4.88,32.27,130.89,130.89,0,0,1-4.53,12.28c-2.37,6.06-3.91,12.12-3.48,18.77.75,11.57,1.59,23.15,1.79,34.75,1.21,1.72,2.9,3.23,1.36,5.74a1.74,1.74,0,0,0,1.13,2.51c1,.26,1.76-.56,2.07-1.46,1-2.93,3.35-3.44,6-3.6a50.14,50.14,0,0,0,11.18-2.1c1.24-.36,2.67-.71,2.86-2.14.38-2.84,2.77-4.76,3.17-7.58.21-1.45,1.28-2,2.83-1.78,6.16,1,6.16,1,9.28-4.21A1.8,1.8,0,0,1,286.15,476.47Z"/><path class="cls-12" d="M225.61,449.24c1.77-11.65,6.13-22.62,8.89-34A131.5,131.5,0,0,0,238,390.38a2.34,2.34,0,0,0-.81-1.83c-.59-1.82-1.23-3.33-3.61-3.73-2-.33-2.65-2.37-2.88-4.25-.27-2.07-1.12-2.77-2.86-1.32-1.15,1-1.52.62-2.44-.46s-2.75-.4-4.09-1.22-2.83-1.14-1.53-3.22c1-1.53,0-2.2-1.46-1.91-1.92.38-3.91-.21-5.78.54-.32.13-.88.32-1,.18-2.42-3.71-4.53-.43-6.76.23a4.29,4.29,0,0,0-1.6.51A42.65,42.65,0,0,0,205.29,385c4.12,12.45,2.68,24.3-2.42,36.21a166.54,166.54,0,0,0-9.18,26.31c-3.36,13.85-1.26,26.88,5.33,39.33,2,3.76,4,7.47,6.08,11.21,3,1.42,2.93,1.36,3.2-1.63s-.37-6.2.92-9.17a1.94,1.94,0,0,0-.49-1.94c-1-1.25-.67-1.82.49-3,2.1-2.1,1.92-5,1.18-7.73-.29-1.09-.83-2.13-1.17-3.23s-.7-2.24.85-2.84c.84-.33,1.37-.92.86-1.87-.62-1.15.13-1.36,1-1.57,2.9-.72,2.26-2.46,1-4.11a5.59,5.59,0,0,1-1.1-3.42c-.1-1.93.6-2.67,2.32-3.06s3.73-1.14,4.71-2.68C220.56,449.2,222.8,448.67,225.61,449.24Z"/><path class="cls-13" d="M343.07,637.66c-1.47-7.83-5.88-15-5.37-23.27.45-7.43,1.34-14.81,2.46-22.16,1.19-7.87,1.78-15.58-1.25-23.33-2.42-6.21-.23-12.69.37-19,.4-4.21,1.29-8.37,1.39-12.65L333.06,564c-1.6-1.26-1.18-2.83-1.23-4.17a127.33,127.33,0,0,1,3.7-35.05c.2-.8,1.05-2-.19-2.38-1-.35-1.45.84-1.73,1.74-2.83,9.06-5.62,18.14-8.54,27.17-.2.64.47,2.93-1.77,1.68-1.28,4.37-3.95,6-8.51,4.8-1.42-.36-3.21.52-4.72.05-3.34-1.05-5.23.32-6.39,3.29-.06,3.59.86,7.05,1.63,10.49A129.08,129.08,0,0,1,308.57,603c-.33,13.12,3.76,24.79,11.16,35.44,1.37,2,2.82,3.87,4.23,5.81a43.43,43.43,0,0,0,11.76-4.08,1.36,1.36,0,0,1,1.32-.09C340.14,641.94,341.56,639.7,343.07,637.66Z"/><path class="cls-4" d="M464.21,112.59c-2.84-.07-4.64,1.68-6.31,3.64-.21.26-.57.63-.5.85,1.2,4.35-.76,6.9-4.56,8.7a1.63,1.63,0,0,0-.11,2.87c2.09,1.2,1.12,1.92,0,3-1.79,1.69-3.45,3.39-.86,6,1.19,1.19.26,2.6-1.11,3.38-2.24,1.28-1.83,2.59-.14,4,.52.44,1.42.86,1.47,1.36.44,4.64,3.23,7.32,7.83,9-3.93,2.28-.78,5.77-2.28,8.32-.24.4.28,1.08.67,1,3.6-.73,5.38,3.68,8.92,3.1,1.46-.24,1.24,1.11,1.4,1.88.4,2,1.27,3.14,3.55,2.46.93-.28,1.89-.24,2,1.11,0,.48.49,1.14.67.89,2.49-3.4,2.63.57,3.92,1.07,1.79.69,4.22,1.47,5.73.79,3.85-1.74,7.29-2.66,11.6-1.14,3.45,1.22,5.65-2.39,8.08-4.2,3.53-2.63,6.68-5.87,10.81-7.49,2.44-.95,2.74-2,1.65-4-.74-1.42-1.15-2.73,1.38-2.53,2.29.17,2.29-1.35,2-3-5.3-3-11.2-4.53-16.83-6.7a26.26,26.26,0,0,1-12.64-10.17,75,75,0,0,0-19.23-20C469,115.13,466.52,114.05,464.21,112.59Z"/><path class="cls-14" d="M556.37,253a333.32,333.32,0,0,1-31.67-12.45,32.43,32.43,0,0,0-3.24-1.09,232.9,232.9,0,0,1-24.75-11.7q-18.15-10-36.24-20.2a60.58,60.58,0,0,0-34.93-8,92.73,92.73,0,0,1-38.92-4.88c-7.53-2.71-14.59-6.5-21.75-10-12.42-6.14-25.22-7.73-38.63-3.92-2.53.72-5.13,1.23-7.69,1.83-.86-1-2-.59-2.89-.3-5,1.62-10.05,3.17-15,5.09-1.54,1.49-3.57,1.89-5.53,2.43-1.21.33-2.61.49-2.67,2.11a3,3,0,0,0,2.59,3.14,12.59,12.59,0,0,1,5.44,2.58,34.75,34.75,0,0,0,17.46-3c2.46-1.75,5.46-2.21,8.18-3.36,1.13-.33,1.89-1,1.51-2.25-.3-1-1.25-1.29-2.19-1.39a10.89,10.89,0,0,0-4.08.58c-3.21.9-6.44,1.7-9.48,2.42,9.24-4.61,20.56-7.87,29.5-7.43,7.93.38,15.69,2,22.13,7.27,1.34,1.09,3.05.76,4.54,1.42,7.77,3.42,15.81,6.16,23.81,9,7.39,2.58,15.09,2.79,22.78,3.24s15.1,0,22.65.59c5.28.4,9.85,2.74,14.79,4.07-3.37-1.05-6.6-2.69-10.23-2.69-1.9,0-3.91.34-2.82,3.19,2.71,1.11,5.75,1.2,8.29,2.79h0c10.29,4.7,20.1,10.31,30,15.74,10.27,5.78,20.75,11.15,31.49,16,14,6.32,28.08,12.42,42.51,17.66,8.93,3.24,17.84,6.71,27.33,8.18a32,32,0,0,1,4.65,1.26c15.48,4.78,31.46,7.59,47.06,11.86a52.71,52.71,0,0,0-5.61-10.2c-16.68-4.31-33.22-9.12-49.57-14.55a101.8,101.8,0,0,0-15.7-3.72A5.21,5.21,0,0,1,556.37,253Z"/><path class="cls-15" d="M9.27,389.2l1.05-1.11c.79-1.27.49-2.5-.92-2.61-2.06-.15-2.5-1.86-3.12-3s-.7-2.91,1.86-2.82c4.45.16,4.89-.45,3.58-4.53-.4-1.25,1.06-1.53.74-2.85-.78-3.24-3.2-4.33-5.62-5.72,1.64,1,3.46,1.68,5.13,2.7.59.37,1.52,1,1.83.52,1.26-2.06,3.25-3.5,4.51-5.45.91-1.4-.58-2.73-1.46-3.95.79.79,1.71,1.63,2.75.77,3-2.53,5.49-5.38,4.21-10,1.09.92,2,2,3.44,1.36a3.52,3.52,0,0,0,2.12-3.63c-.15-3.72,2.57-5.67,5.11-7.17,4-2.35,4.22-2.71.72-5.95,1.55.94,3.34.83,4.88,1.58s3.13.57,3.84-1.05S43,333.94,42,333c-.68-.68-1.78-.43-2.53-1.1.58-.66,1.06-1.48,1.84-.33.19.28.24.7.49.9,1.27,1,1.95,3.43,4,2.67s1.14-2.94,1.37-4.57c.27-2,1.21-3.83.29-6-.37-.86.62-1.91,1.41-2.61a15.71,15.71,0,0,0,2.57-2.77c1.77-2.49,1.56-3.39-1.24-4.44a10.23,10.23,0,0,1-1.88-.45,14.85,14.85,0,0,0,2.29-9.07c-.09-1,.15-2.18-1.07-2.68-1.52-.62-2,.67-2.6,1.6a1.93,1.93,0,0,1-1.42.87c-.22-2.15-.77-4.27-.6-6.43.15-1.86.11-3.27-2.3-3.15a2.05,2.05,0,0,1-1.77-.93c-1.73-2.32-3.31-1.25-5.08.37.09-2.1-1-3.52-2.25-4.89s-2.55-2.3-2.94-4.15c-.46-2.14-2.17-2.48-3.75-1.68-2.5,1.25-4.08.4-5.63-1.54-1.23-1.55-2.71-2.75-4.45-.48a67.67,67.67,0,0,0-.69,19.1c1.14,14-3.77,26.61-8.43,39.33-6.15,16.79-9.51,34-6.53,51.94a12.08,12.08,0,0,0,.5,1.62c1.18,1.1,1.74.12,1.74-.77,0-3.65,1.85-4.57,5.1-3.67C8.73,389.82,9.05,389.47,9.27,389.2Z"/><path class="cls-16" d="M56.12,348.72c-1.8-4.27-2.28-4.4-6.58-.59a40.23,40.23,0,0,1-10.85,6.38c-3.2,1.41-5.29,4.29-7.63,6.73-1,1-2.69,2.21-2.85,2.68-1,3-4.53,3.94-5.3,6.17a23.21,23.21,0,0,1-5.11,8.49c-1.77,1.95-1.57,5.66-.93,8.5.2.85.73.88,0,2-1.26,2.06-2.52,4.46-1.22,7.11.05.1.15.25.12.31-2.46,4.47.78,9.53-1.37,13.91-.9,1.81.54,2.76.74,4.08a54.64,54.64,0,0,1,.64,14.27c-.07.56-.16,1.39.14,1.67,3.19,3,2,6.8,2.17,10.37a6.9,6.9,0,0,1-1.92,5.56,214.62,214.62,0,0,1,4.64,37.38c.13,3.46-1.12,7.07.91,10.37A289.79,289.79,0,0,0,31.13,455c1.9-11,3.9-21.9,4.76-33,.55-7.08.68-14.2,1.37-21.27,1.53-15.81,5.6-30.86,13.93-44.59A57.22,57.22,0,0,1,56.12,348.72Z"/><path class="cls-5" d="M488.87,700.64c-3.31-6.91-6.41-13.92-10.65-20.33a14,14,0,0,0-.87-1.48c-2.74-3.42-2.72-3.41-6.47-1a2.61,2.61,0,0,1-1.95.66c1.68-1.5,4.6-1.6,4.77-4.65.12-2.12-.35-3.15-2.7-2.32-1.37.49-2.69,1.08-4,1.7.36-.75,1.52-1.35.67-2.34-.57-.66-1.46-.54-2.27-.4a11.11,11.11,0,0,0-3.21,1.2c-.84.44-1.28,0-1.48-.8.7-.61,1.53-.16,2.3-.22s1.76.11,2.2-.67-.35-1.43-1-1.91c-1.61-1.26.47-.25.35-.58,1.68-.55,1.47-2,1.2-3.14-.36-1.54-1.67-1.41-2.79-1-1.29.48-2.48,1.21-3.94,1a1,1,0,0,0-1.25.92,5.87,5.87,0,0,1-2.57,4.23c-1.09.88-.17,2.11.05,3.21.27,1.36,1.39,2.25,2.05,4-1.88-2.38-2.08-5.18-4.34-6.6-2.6-5.35-5.21-10.69-7.79-16a129,129,0,0,1-7.87-20.69c-.55-1.91-1.66-2.52-3.16-2.15-2,.49-.74,2.12-.48,3.07,3,10.89,4.6,22.08,6.77,33.18-.91.47-1.14-.39-1.45-.91a88.56,88.56,0,0,1-9.74-24.1c-1.42-6-3.16-11.88-3.93-18-.28-2.16-1.16-3.86-3.89-2.74-2.1,12-1.62,23.74,4.22,34.75,2.27,4.28,4.16,8.51,4.69,13.48.71,6.76,4.62,12.19,9.11,17a94.68,94.68,0,0,1,11.3,14.26c5.86,9.39,15.09,14.83,24.22,20.35,2.07-2.38,2.86-5.38,4-8.22.17-.44-.68-1.66.88-.88,1.16.58,2.49,0,3.73,0,2.06-.13,2.89-1.12,1.16-2.77-1.13-1.08-.88-1.63.24-2.33.87-.55,1.5-1.41,2.4-1.94C489.4,704.36,490,702.76,488.87,700.64Z"/><path class="cls-9" d="M367.23,587.81c-1.2,3.73.15,7.6-1.2,11.48q-1.56-8.17-3.13-16.34c-.71-1.12-2-1.66-1.63-3.67.53-3-3.19-6.49-6-6.25a4.11,4.11,0,0,0-.77,2.92,145.87,145.87,0,0,1-2.65,25.23c-1.93,10.48-.31,20.79,3.53,30.68,1.16,3,1.69,6.2,3.3,9a2,2,0,0,0,.91.45c.5.13,1.23-.26,1.47.5.79,2.52,2.45,2.36,4.37,1.48s2.91-.45,2.58,1.83c-.05.34-.22.84,0,1,1.26.82,2.82,1.29,2,3.48-.17.45,1.45.9,2.36.95,4.09.23,5.84,4.18,9.15,5.7,1,.46.6,1.86,0,2.79a4.61,4.61,0,0,0-1,2.51c-.05,2.06.12,3.87,3,3.07,1.25-.35,2.5.53,3.74,0,2.42-4.49,3.44-9.47,4.46-14.34,2.59-12.44,4.29-25,3.86-37.79a11.89,11.89,0,0,0-.29-1.65c-2,.49-3.45-.3-4.79-1.85-3.78-4.38-7-9.2-11.1-13.33-2.37-2.39-5.26-4.14-6.81-7.49A2.86,2.86,0,0,0,367.23,587.81Z"/><path class="cls-17" d="M36.7,492.71c4-9.34,8.66-18.46,10.83-28.47,2.69-12.39,5.73-24.66,7.5-37.29,2.16-15.46,2.95-31.2,7.63-46.26a19.33,19.33,0,0,1,2.15-5c7.62-11.54,15.19-23.12,24.57-33.35a55.77,55.77,0,0,1,7.47-9.85c5.14-5.87,9-12.69,13.83-18.71,5.63-7,11.3-14,18-20.11A89.89,89.89,0,0,0,145,273.5c5.17-8.63,10.95-16.9,16.51-25.31,6.55-9.91,13.17-19.77,19.7-29.69,3.76-5.73,7.68-11.38,11-17.37,2.75-5,4.71-10.4,7-15.63.4-.92.32-2.1,1.46-2.6a312.44,312.44,0,0,0,14.73-40.28c-7.21,7.52-13,15.35-16.79,24.54-1.22.66-1.6,1.93-2.15,3-2.49,5.05-5.16,10-7.32,15.22-4.58,11.05-11.37,20.77-18.43,30.26-5.48,7.37-10.93,14.74-15.81,22.51-8.78,14-17.17,28.22-27.62,41-3.67,4.49-8.32,8.17-12.39,12.35-7.39,7.59-13.33,16.31-19.21,25.07-6.11,9.12-13.49,17.27-20.1,26-8.75,10.71-16.71,21.94-22.23,34.71a41.4,41.4,0,0,0-2.87,13.1c-1.34,15.82-3.74,31.51-5.6,47.27a74.48,74.48,0,0,1-2.75,13.85c-1.26,4-1.73,8.08-2.67,12.11-1.83,7.88-5.39,15.15-8.08,22.72-.81,2.28-1.46,4.6-2.1,6.92-.25.92-.75,2.1.86,2.45A19.4,19.4,0,0,0,36.7,492.71Z"/><path class="cls-4" d="M180.45,320c-.53.4-1.24,1.27-1.56,1.15-4.15-1.64-8.43-.94-12.67-1-.83,0-1.64-.74-2.47-1.12-2-.93-4-1.8-6.17-.42a1.82,1.82,0,0,1-1,.35c-2.92-.2-5.71.58-8.53.93-4.7.59-9.42.33-13.7,2.93-1.28.78-2.67-.19-3.95-.64a1.2,1.2,0,0,1-.87-1.33c.13-.79.8-.65,1.36-.57,1.68.24,2.38-.86,3.34-2.29-2.53-.23-4.65,1.2-6.93.06-1-.48-1.34,1.06-1.38,1.93-.06,1.35.09,2.72-1,3.67,1,1.11,1.68.19,2.38.09,1.25-.19,2.51-.69,3.36.8a1.43,1.43,0,0,1-.08,1.87c-1,1.09-2.15,1.95-3.62,1.31-2.15-.93-4.12-1.25-5.91.61a5.69,5.69,0,0,0-.52,1.13c2.72-1.67,4.43,1,6.82.78,1.24-.11,1,1,.29,1.67-2.05,2-2.29,5.33-5.1,6.75a1.57,1.57,0,0,0-.47,1.12c2.25,1.66.5,4.31,1.58,6.25,1.19,2.15.64,4-1.22,5.46-1.27,1-1.43,2.08-1,3.62,1,3.8,1.86,7.66,2.78,11.5.05.22.29.5.21.63-3,5.26,1.3,9.26,3.44,12.66,2.25,3.56,1.59,7,2,10.3.39,2.91-3.1,4.5-5.59,5.57-1.89.81-4.2.41-6.35.33a20.55,20.55,0,0,0-9.56,1.64,9,9,0,0,1-3.89,1c-6.28.18-11.47,3.23-16.8,6.09-4.73,2.53-7.4,6.48-9.3,11.24-.46,1.15-1.13,2.56-2.11,3.08-3.32,1.73-3.67,5-4.55,8a7,7,0,0,1-1.41,2.69c-1.52,1.79-2.5,3.84-1.52,6.32a3.41,3.41,0,0,1,.39,2c-1.9,5.78-1.56,11.26,1.68,16.51a2.63,2.63,0,0,1,.19,2.3c-2.5,3.52.33,5.62,2.21,7.65,1.12,1.21,1.67,1.76.69,3.34-1.2,1.94.35,2,1.73,1.92a47.18,47.18,0,0,0,7.39-9.43c-.13-4-4.67-5.7-4.92-9.49-.61-.24.25-.49-.09-.18-.15.12,0,.15.22.27,2.1.95,2.75-.24,2.06-1.84-1.26-2.93-1.42-6.25-3.61-8.86a4.26,4.26,0,0,1,0-5.45c2.15-2.17,2.2-4.6,2.41-7.24.11-1.46-.17-3.64,2.62-3.06.51.11,1.16-.43,1.35-1,1.82-5.12,6.21-8.27,9.3-12.4,1.07-1.43,2.57-.82,3.53-1.66,1.84-1.59,4.4-1.93,6.11-3.72.63-.67,1.65-1.42,2.44-.95,3,1.75,5.48,0,8.2-1-.06,1-1.18,1.75-.29,2.54s1.72.36,2.6,0,1.15-1.06,1.69-1.64c2.08-2.24,4.7-2.2,7.52,0a129.58,129.58,0,0,0,12.72-13.16,8.78,8.78,0,0,1,.63-9.91c.95-1.32.42-2.1-.46-2.95-2.62-2.51-5.43-5-2.72-9.07-1.48-2.47-2.27-5-.39-7.62.06-.08-.19-.45-.38-.52-3.74-1.19-2.9-3.39-1.92-6.27.65-1.9,0-4.29-.24-6.77.5,1.48.55,3.29,2.61,2.21,1.49-.78,2.91-1.69,1.54-3.71a3.9,3.9,0,0,1-.5-.89c-.94-2.41,3.52-1.77,2.43-4.5-1.16-2.93.85-2.66,2.93-2.73s3.55-1.18,2.18-3.65c-.48-.58-.5-1.44-1.16-1.92.7.46.68,1.37,1.2,1.94,2.15-.77,4.14-2.26,6.64-.65.95.62,1.83-.52,2.62-1.2,2.81-2.4,5.24-5.73,9.78-4.07.51.19,1.1-.24,1.57-.57,2.9-2.06,5.6-2.59,8,.76.82,1.13,1.94.75,3.11.33,4-1.43,4.12-1.3,4.43,3,0,.46.06.92.1,1.37.19,2.28.82,3.52,3,1.34.4-.39.81.11,1.17.35a43,43,0,0,0,6.24-11.9,1.88,1.88,0,0,0-.33-3.15c-2.18-1.57-4.17-3.48-6.88-4.17C180.89,317.48,181.62,319.26,180.45,320Z"/><path class="cls-18" d="M483.19,293.22c.28-1.2,1.5-.83,2.47-1.5-2.25-1.52-3.08-2.45.48-3.47a4.79,4.79,0,0,0,3.09-5.87,1,1,0,0,0-.15-.31c4.08-1.32,1.05-6.14,4-8.05.59-.38,1.09-.93.75-1.71a1,1,0,0,0-1.46-.36c-.91.53-1.75.8-2.19-.48s-.51-2.66.79-3.39c3-1.68,2.52-3.56,1.25-6.27-1.15-2.47-4.05-4.8-1.72-8.25.45-.67-1.27-1.37-2-2.06a3.81,3.81,0,0,1-.7-4.46c.67-1.61,2-.56,3-.51-4-3.25-8.88-5-13.44-7.23-10-4.93-20-9.94-29.77-15.4a28.31,28.31,0,0,0-3.16-1.3,1.28,1.28,0,0,0,.79,1.67c1.11.46,2.8.62,2,2.45-.66,1.48-1.73,1.6-3.36.89-2.82-1.22-5.89.53-8.83-.22-1.34,4.31-5.12,2-7.71,2.85a38.22,38.22,0,0,0-11,6.41c-2.91,2.26-5.18,5.83-9.27,6.59-.71.13-1.72.59-1.7,1.51.06,3.13-1.82,4.83-4.1,6.55-3.11,2.35-4.4,5.83-4.6,9.64-.07,1.34-1,2-1.61,2.92-1.34,1.95-3.29,3.76-1.56,6.47.37.58,0,1.09-.37,1.54-3.49,4.1-1.85,8.51-.75,12.87,3.77-.43,7.6-.47,11.25-1.69,2.47-1.53,4.79-3.09,2.7-6.56-.43-.71,0-1.55.49-2.26s1.12-1.74-.17-2.26a2,2,0,0,0-2.57,1.17c-.5,1.34-1.18,2.61-1.68,3.95,1.57-2.59,1.37-5.78,3.41-8.34,1.79-2.23.92-3.43-2.11-3.88,4.83.68,5.27-3.89,6.12-6.23,1.22-3.39,4.1-4.53,6.06-6.78,1.33-1.54,3-2.63,3.74-4.75.62-1.91,2.16-2.86,4.07-1.73,2.21,1.31,3.32,0,4.1-1.59,1.15-2.29,2.22-2.5,4.14-.76s6.46.76,7.79-1.44c1.08-1.79-1.06-2.2-1.55-3.31,1.11-.78,1.88-.33,2.77.41,2.71,2.24,5.7,2.07,8.76.8a6.53,6.53,0,0,1,8.71,3.62c.54,1.28,1.37,1.8,2.71,1.2.53-.24,1-.55,1.56-.75,3.33-1.27,4-.93,4.91,2.44.71,2.61,1.57,3,3.52,1.46.84-.19.89-1.55,2.31-1.34-.64,1-1.9.71-2.41,1.47a1.32,1.32,0,0,0,.84,1.67c2.9,1.22,3,3.36,2.25,6a27.85,27.85,0,0,0-1.12,5.37c-.37,4.3.58,5.14,5.15,4.23-1,1.74-2.53,3-3.49,4.67-.52.89-.77.59-1.45.38-1.74-.56-2.1.94-2.61,2-.71,1.53.61,1.36,1.44,1.92,1.85,1.24,3.18,3.54,6,1.91.49,1.33-.95,1.78-.77,2.93.35,2.2-1.64,1.21-2.58,1.46-1.27.32-1.51-.66-1.41-1.71a12.87,12.87,0,0,0,.09-2.06c-.1-1.51-.43-2.76-2.42-2.45-1.55.23-2.49.74-2.33,2.64.27,3.28-1.31,6.12-2.68,8.95-.7,1.44-2.34,1.72-3.78,2.13l-.37.32c5,2.88,10.75,3.3,16.26,4.28A50.93,50.93,0,0,0,483.19,293.22Z"/><path class="cls-14" d="M245.75,492.26c.58-9.92-.24-19.81-1.32-29.61-1.27-11.49,2.16-21.69,6.28-32.09,3.89-9.79,5.48-20.25,6.12-30.83.34-5.57,0-11.2,1.23-16.7,1.48-2,.74-4.39.82-6.6a43.6,43.6,0,0,0-.51-9.82c-.68-14.62-.6-29.23-.42-43.85q.14-11.17,0-22.34c0-2.32-.11-4.74-2-7.41-2.36,7.37-4.94,14-5.24,21.33-.4,9.61-.9,19.21-1.36,28.82-.85,10.78,0,21.57-.32,32.36-.37,11.26-.36,22.54-2.08,33.71-1.17,7.53-2.78,15.09-6,21.9-5.51,11.63-6.48,23.52-4.58,35.95.43,2.83.84,5.65,1.26,8.48,1.81,11.09.94,22.09-.77,33.11-1.59,10.28-2.69,20.64-4.26,30.92-1,6.67-2.5,13.26-3.76,19.89-.29,1.53-.85,2.64-2.72,2,2.62,2.34,4.89,1.09,6.91-.83,1.48-1.42,2.69-3.12,4-4.69,2.06-4,2.29-8.38,2.87-12.68,1.77-13.19,3.77-26.35,5.7-39.51C246.15,500,247.14,496.11,245.75,492.26Z"/><path class="cls-19" d="M353.06,384.85c12.94-2,25.86-4.22,38.84-6a41,41,0,0,1,14.54.26c8.89,1.91,16.79,6,25.17,9,5.17,1.84,10.07,4.45,15.29,6.08,9.85,3.08,19.71,6.39,29.81,8.35,12.58,2.44,24.76,6.64,37.53,8.11.26,0,.47.45.7.69,13.48-.65,27-1.16,40.39-2.78-11-2.11-22.22-3.14-33.39-4.29a49,49,0,0,1-8.81-1.39c-16.76-4.95-34-8-50.79-12.82-14.51-4.14-28.28-10.12-42.15-15.88a77.81,77.81,0,0,0-28.87-5.71c-5.17-.07-9.84,2.91-14.95,3.69-16.58,2.53-32.95,6.4-49.69,7.74-5.39.43-10.73.64-15.89,2.39-.74.25-1.6.21-2.11,1.51C323.44,388.82,338.23,387.42,353.06,384.85Z"/><path class="cls-20" d="M142.42,335.1c.45,1.9,0,3.4-2.21,3.25-4.41-.3-5.07.52-3.29,4.58-4,1.05-4,1.05-1.62,5,.48.8.48.8-2.27,2.63-1-.25-.41-1.14-.57-1.7-.31-1.08-.63-2.19-2-1.58s.08,1.35.11,2c.16,2.74,1.55,6-.52,8.12-2.39,2.5-.6,2.85,1.05,3.78,1.27.71,4.68,1,.61,3a1.56,1.56,0,0,0-.4,2.42c2.37,1.72,1.44,3.48,1.06,5.8-.61,3.76,2.65,5.89,5.33,8-3.57,2.71-3.9,8.5-.76,11.31A121.15,121.15,0,0,0,151.7,374c6-8.67,13.51-15.87,20.89-23.26A55,55,0,0,0,183.14,336a3.37,3.37,0,0,0-.62-2.84c-1.59.48-.83,2.43-2.44,3.07-.19-1.56-.45-3-.52-4.54-.18-3.69-1.84-4.69-5.23-2.79-1.28.71-1.85,1.17-3-.35-2.31-3.17-5.07-3.39-8.12-.81-.84.71-1.29,1.39-2.56.71-2.64-1.41-4.29.22-6.37,1.79s-3.71,5.5-7.69,2.59c-2.28-1.67-2.27,2.47-4.23,2.3Z"/><path class="cls-21" d="M481.2,613.76c-.61,4.4,3.08,6.51,5.33,9.07a205.12,205.12,0,0,1,20.75,27.07c2.47,4,5.35,7.73,6.78,12.49l-6.67-6.77a1,1,0,0,0-1.63.56c-.8,3.34-3,6.72-.7,10.15,1.48,2.17.24,2.23-1.34,2.37A6,6,0,0,0,502,669a2.13,2.13,0,0,0-1.56,2.06c0,1,.49,1.82,1.68,1.72a2,2,0,0,1,1.92,1.06c2.08,2.76,2.13,2.71-.87,4.43a10.37,10.37,0,0,0-2,1.33c-.62,1.22,0,2.28.64,3.17,3.83,5.15,6.69,10.85,9.6,16.53a2.4,2.4,0,0,0,1.17,1.2,3.06,3.06,0,0,0,3.14-.9c1.12-1.22,2.33-.8,3.4-.07,1.87,1.29,3.09,3.33,5.23,4.37.94.46.62,1.49.26,2.44-.65,1.71.66,2.8,1.85,2.19,2.57-1.32,5.17-.19,7.68-.76a148.17,148.17,0,0,0,1.2-30.78c-.32-4.47-2.94-8.42-4.92-12.41-10.8-21.7-27.1-38.2-47.94-50.36A7,7,0,0,0,481.2,613.76Z"/><path class="cls-22" d="M258.37,366.61a160.57,160.57,0,0,0-.31,16.42c.41,3.64,2.27,6.85,3.23,10.33.17.59,1,2.85,2.93,1.72.54-.31,1-.58,1.39.2a1,1,0,0,1-.28,1.22c-.09.08-.21.13-.27.22-1.92,3.2,1.52,4.85,2.31,7.23.49,1.52,2.41,3.17,4.37.85a.51.51,0,0,1,.84,0c.42.46.66,1.25.27,1.57-2.29,1.87-1.53,3.31-.2,5.54a12.6,12.6,0,0,1,1.05,4.62c.06,1.07.68,1.47,1.61,1.17s1.07-1,.41-1.84-.85-1.67.58-2,1.52.49,1.33,1.57a2.07,2.07,0,0,0,1.82,2.52c4.23,0,4.45,4.19,6.78,6.21l-.84-.24c-.91-.25-2.24-1.34-2.63,0s1.37,3.55,1.67,3.38c3.61-2,3.64,2.28,5.59,3,.26.1.4.51.59.78-.72,1.16-2.28.38-3.23,1.79,3.44-.95,3.61,3.51,6.52,3.38,1.78-15.52.18-30.86-2.56-46.13a10.91,10.91,0,0,1-2.23-.09c.87-.16,1.58,0,2.18-.46-.67-7-2.7-13.81-4.2-20.69-.18-.83-1.57-1.95.18-2.72a5.08,5.08,0,0,0-3.71-4c-2.58-.86-5.2-7.14-4.28-9.63.72-2,2.58-4-.82-5.48-.49-.21-.26-2.07-.41-3.64,4.11,2.9,5.78-.24,7.84-2.35-.74-2-1.33-4-2.77-5.6-1,0-1.59.71-2.27,1.3-2.32,2-3.18,1.71-4.17-1.85,2.14.69,4.24,1.36,6.11-.26a5.34,5.34,0,0,0-1.52-3.11c-2.47.38-3.91-.32-2.88-3.08.79-2.11-2-3.3-1.18-5.35a4.07,4.07,0,0,0-1.23-2.76c-.75,1.66-2,2.46-4.13,1.85,1.1,2.31,2.13,4.4,3.08,6.52s-.62,4.06-.82,6.09a28,28,0,0,0,.24,6.74,59,59,0,0,1,.71,11.24c-.16,2.64,3.48,4.32,2.09,6.11-1.69,2.16-1.47,4.26-1.56,6.42-.08,1.92-.09,3.93,1.47,5.63,1.25,1.36-.69,2.6-.93,4-.46,2.65-.19,5.19-.28,7.79-.19,6-.86,12.09-1.33,18.13-1.4-.09-1.62-.79-1.68-1.47-1-11.21-3.2-22.3-3.56-33.56-.25-8-.81-15.92-1.78-23.83-.12-.91-.24-2.07-1.35-2.07s-1.32,1.2-1.39,2.08a23.89,23.89,0,0,0,.07,3.78c.67,10.1-1.43,20-2.15,30-.05.64-.18,1.16-.83,1.31s-1-.52-1.19-1c-1.07-2.34-1-4.91-1.35-7.38A2.76,2.76,0,0,0,258.37,366.61Z"/><path class="cls-3" d="M501.28,558.13c11.22.82,22.44.84,33.56-1,11.48-1.94,23-1.74,34.58-1.68,7,0,14,1.35,21,1.06-1-2.3-3.23-2.75-5.27-3.43-12.5-4.12-24.67-9.18-37.32-12.93a185.76,185.76,0,0,1-19.9-7.34,28.35,28.35,0,0,0-5.21-1.78c-10-2.76-19.71-6.18-29.42-9.7a15.14,15.14,0,0,0-4.33-1c-2.95.58-2.32,2.66-1.23,4.08a5.93,5.93,0,0,1,1.26,5.36c-.34,1.58.49,3.17,1.47,4.47.69.93,1.64,1.7,3,.47-2.12,1.46-3.19,2.92-.23,4.42a1.18,1.18,0,0,1,.67,1.14c-.86,3.43,1.23,6.44,2.39,9.06s1.92,5.24,3.38,7.61C500,557.43,500.86,557.55,501.28,558.13Z"/><path class="cls-3" d="M245.75,492.26c-.37,7.88-1.89,15.62-3.05,23.41-1.35,9-2.68,18.06-3.7,27.13-.5,4.42-2.05,8.67-2,13.16,13.55-12.16,28-23.51,35.7-40.85a233.12,233.12,0,0,0,13.42-38.64c-1.49-1.5-2-.61-2.47.91-1.28,4.18-3.31,5-7.3,3.12-2.19-1-4.43-.1-4.42,2.18,0,3.27-3.35,5-3.31,8.37,0,1.23-3.17,1.32-4.84,1.69a49,49,0,0,1-11.41,1.5c-2.12,0-2.61,2.1-3.36,3.6-.35.7-.33,1.85-1.32,1.61-1.27-.32-.68-1.48-.49-2.32A4.36,4.36,0,0,1,250,493.5C247.83,493.39,246.55,493.42,245.75,492.26Z"/><path class="cls-23" d="M501.28,558.13c-.69-2.26-4.43-4.17.42-7.35-3.89.51-5.72-.08-4.79-3.42.25-.87-.53-1.58-1.21-2.29s-1.49-2.08-1-3.11c1.48-3.06-.76-3.68-2.73-4.6.24-1.14,1.21-1.56,2-2.1.6-.39,1.21-.81.86-1.62a1.8,1.8,0,0,0-.92-.92c-.85-.32-1.29.2-1.37,1-.17,1.71-1.06.93-1.37.27-.78-1.63-2.09-3.1-1.15-5.28.6-1.37.95-3.17-1.12-4.06-1.84-.8-.9-2.64-1.43-3.94-1.47-3.11-4.94-3.39-7.37-5.14-8.64-6.22-18.15-5.27-27.77-3a39.8,39.8,0,0,1-8.82,1.43c-1.3,0-2.53.4-2.85,2a24.79,24.79,0,0,1,2.58.95,1.45,1.45,0,0,1,.74,1c0,.57-.5.7-1,.52s-1.08-.61-1.46.15c-.51,1,.67.93,1,1.38.49.61.94,1.46,1.91.62l3.47-3.07c-1,2.25-.52,3.6.44,4.7a4.41,4.41,0,0,1,.89,4.11c-.53,2.58.65,4,3.15,4.11,1.9.05,2.35,1.29,2,2.44-.77,2.34-.09,3,2.13,2.51a1.29,1.29,0,0,1,1.68.76,1,1,0,0,1-.62,1.39c-1.38.36-1.72,1.65-1.14,2.32.89,1,1,2.93,2.71,3.1,1.19.13,2.67-.65,2.83,1.38s-1.26,2.41-2.79,2.69c6.35,2.3,12.66,4.73,19.06,6.88A93.29,93.29,0,0,0,501.28,558.13Z"/><path class="cls-13" d="M225.61,449.24c-2.5-2-4.63-2.11-6.38,1-1.2,2.13-3.35,3-5.58,3.62-1.21.31-3.38.76-2.82,1.66,1.1,1.78-1.7,4.08,1.07,5.33a2.83,2.83,0,0,1,1.3,2.63c0,1.11-1.39.88-2.26.93s-1.67.07-1.9,1.06c-.31,1.31,1.45.91,1.63,1.85-3.37,1.37-3.72,2.07-1.6,6.47,1.14,2.38.65,4.4.39,6.78s-3,1-3.13,2.8,3.22,2.14,2.28,3.71c-2.24,3.7-.43,7.58-1.3,11.35l-2.21-.33c5.55,11.2,10.91,22.47,13.87,34.7,1.05,4.33,1.93,8.7,2.89,13.05,3-14.07,5.83-28.17,7.5-42.49,1.65-14.11-.92-27.77-3.44-41.49A40.83,40.83,0,0,1,225.61,449.24Z"/><path class="cls-19" d="M440.72,515.94c2.82-2.26,6.34-1.11,9.5-1.8,7.15-1.56,14.39-3.87,21.9-1.43a40.9,40.9,0,0,1,8.85,4.42c2.14,1.33,4.71,1.81,6.56,3.58,13.4,4.27,26.53,9.36,40.18,12.83,4.27,2,9,2.72,13.36,4.45,6.85,2.7,14.09,4.23,21.1,6.47,10.51,3.36,20.73,7.55,31.39,10.54,4.2,1.18,8,1.92,11.92-.1l.32-.62a316.65,316.65,0,0,1-30.34-11.14,157.27,157.27,0,0,0-22.92-8.34c-2.62-1.62-5.9-1.37-8.49-3-4.33-2.28-9.07-3.37-13.72-4.7-2.85-1.65-6.32-1.54-9.16-3.21-9.37-3.13-18.75-6.23-28.11-9.4-4.49-1.53-8.43-4.18-12.54-6.46-9.47-5.24-19.37-4.79-29.46-2.49s-20.52,4-31,3.47a63.23,63.23,0,0,1-13.51-2.59c-4.06-1.12-8.11-.74-12.62.2,2.92,2.55,5.56,4.7,8.86,5.8A81.9,81.9,0,0,0,424,516.8c4.65.26,9.36-.58,14-.89C438.89,515.85,439.81,515.93,440.72,515.94Z"/><path class="cls-24" d="M94.38,215.91A30.84,30.84,0,0,1,99.06,218c3,1.94,4.38.61,5.4-2.12.19-.52.79-1-.06-1.38-2.46-1-.51-2.8-.18-3.65.49-1.26,2-.12,3,.21a12.37,12.37,0,0,1,2.07,1.28,7.83,7.83,0,0,1,1.6-3.82c.34-.53,1.21-1.08.65-1.78-3.44-4.27-.39-3.15,2.13-2.66,1.51.3,1.84-1.17,2.42-2s-.11-1.22-.91-1.71c-1.83-1.1-2.5-8.33-1.09-9.67a1,1,0,0,1,.87-.25c2.79.14,3.87-1.79,2.2-4.44-.67-1.06-1-1.62-.15-2.6.55-.63,1.58-1.3.52-2.29-.84-.79-1.7-.29-2.54.13s-1.42.68-2.18,1c-.32-5.07.71-6.61,3.64-5.54a17.58,17.58,0,0,1,2.93,1.75c.71.45,1.73,1.78,2.17.76s.46-2.54.85-3.84c.18-.59-1.69-.83-2.57-.06a1.33,1.33,0,0,1-2.08-.08c-.43-1.09,1.24-1,1.35-1.3,1-2.6,2.68-1.87,4.64-1.06-1.75-2.41-3.9-4.63.62-7.22a5.57,5.57,0,0,0-3.91,1.51c-1,.8-1.67.27-2.38-.41a1.35,1.35,0,0,1,.06-2.32c2-1.55,1.57-3-.06-4.67-.85.88-.07,1.49.18,2.12s.26,1.12-.44,1.39c-.49.19-1.11,0-1.13-.45-.06-1.66-.82-1.92-2.36-1.79-1.23.11-1.73-1-1.54-2.18.34-2.19-1-1.87-2.33-1.61a121.32,121.32,0,0,0-10.85,21c-5,12.83-13.93,22.07-24.82,29.83-1.56,1.12-3,2.42-4.48,3.63.46,1,1,2.06,1.37,3.12.56,1.42.23,4.41,3,1.58.15-.16,1,0,1.18.31,1.86,2.81,4.57,1.75,7.11,1.75,1,0,3.26-1.33,2.55,1.64-.07.32.45,1.18.76.65,1.31-2.18,3,1.39,4.11-.35.69-1.11-.65-1.52-1.21-2.11-.93-1-1.91-1.9-1.57-3.8,1.2,1,2.54,1.65,3.08,2.7.76,1.5,1.8,2.19,3.23,1.81,2.18-.57-.16-2.12.46-3.1-.74-2.48.14-3.66,3.27-4.34C95.23,212,94.87,214,94.38,215.91Z"/><path class="cls-25" d="M419.37,280.15c12.64-2.59,24.29.9,35.75,5.73,2.11.89,4.38,1.4,6.57,2.08l.05-.15a27.78,27.78,0,0,1,2.61-2.24c.59-.41,1.28-1.37.83-1.67-2.48-1.61-.06-2.83.17-4.22a3.87,3.87,0,0,0-.87-2.9c-.74-1-1.61-2-1.12-3.41.11-.33.09-.82-.15-1-3.59-2.44-5.1-6.52-7.53-9.75,2.93.77,3.49,3.86,4.61,6,.9,1.74,1.58,3.25,3.42,2.86,2.26-.47,2-2.89,2.14-4.59.24-2.35-1.72-1.83-3.5-1.86,2.25-1.14,2.65-2.47,1.26-4.25s-1.76-4.67-5.4-2.67c.73-1.43,1.91-2.1,2.16-3.33s.2-2.59-1.18-3.26-1.79.41-2.42,1.26a47.22,47.22,0,0,0-3,4.21,1.57,1.57,0,0,1-1.65,1c-.67-.13-.83-.72-.87-1.31-.17-2.05-.73-2.9-3.27-2.61-1.52.18-1.75-2.38-.71-3.46,2.06-2.12,1-3.7-.35-5.38-1.18-1.51-2.35-2-4-.3s-3.56,4-6.3,1.31c-2.8,1.25-6.19,1.18-8.37,3.82-.48.58-.71,1.51-1.7,1.47a.87.87,0,0,1-.53-.44c-.55-1,.09-3.38-2.18-2.55-1.85.66-2.32,2.46-1.7,4.34.52,1.6,1.55,2.78,4,3.28-5.19-.53-8.08,2.47-11.21,4.7-1.22.87-.2,3.09,1.49,3.76.89.35,1.8-.28,2.76.13-.23.77-1.09.14-1.28.49-1.64,3-3.6,5.57-7.46,5.74-.38,0-.71,1-.46,1.13,2,1.41,1.06,4.24,2.72,5.62A10.13,10.13,0,0,0,419.37,280.15Z"/><path class="cls-26" d="M419.37,280.15l-5-2.15a2.72,2.72,0,0,1-1.92-3.22c.09-.5.7-1,.08-1.51s-2.27-.22-1.76-1.55,1.76-.57,2.76-.43,4.78-3.28,4.33-4.11c-.91-1.66-.23-1.62.93-1.11.5.22.72,1.42,1.49.51a2.59,2.59,0,0,0,.1-2.64c-.33-.92-1.09-.78-1.68-.37-1.54,1.08-2.58.51-3.3-.95-.88-1.8.82-1.78,1.71-2.19,3.05-1.42,5.48-5,9.63-2.82.2.11.92-.33,1.07-.66.33-.7-.28-1-.83-1.18s-1.12-.29-1.65-.51c-3.06-1.33-3.38-3.89-.71-6.37.17.28.45.53.47.8.07,1.19-.66,2.9.93,3.21,1,.2,2.94,0,2.74-2.16,1.93-.16,2.38-3.62,5.18-2.13,1.48.8,1.44-1.25,2.17-1.94,1.52,2.7,5.51,2.27,7.73-1,.58-.85.83-1.94,1.73-.87s3.08,3.26,1.93,4c-3.55,2.43-.83,4.63-.45,7.19,1.51-.72,4.33-4.08,3.18,1.26-.17.76.6,2.41,1.67,2.23s2.81-1.23,2.89-2c.24-2.35,2.91-2.89,3.18-5,.08-.66.59-.69,1-.44a1.7,1.7,0,0,1,.82,1c.22,1.61-.19,2.94-1.95,3.54-1.17.39-1.3,1.28-.68,2.18s1.82,1.18,2.28.23c1.21-2.49,1.68-.82,2.32.25.76,1.27,1.51,2.54,2.28,3.86-.57,1.38-3.32-.95-2.92,1.43.2,1.23,1.41,3.23,3.43,1.27a2,2,0,0,1,.29-.17c.16.53.58,1.42.43,1.53-1.31,1,.21,3.27-1.68,3.78-.79.21-2.32-.13-2.12-1.16.58-2.87-3.76-3.94-2.3-7a8.62,8.62,0,0,1-4.88-2.62,19.53,19.53,0,0,0,1.57,4c.94,2.26,2.42,3.82,3.77,5.66.6.82.67,1.78,2,1.87.43,0,.82.7,1.22,1.08-2.57,2.54.78,3.41,1.46,5,.93,2.16.94,2.21-3,3.58.16,1.11,1.22.79,1.85,1.12,1.41.74,2.79,1.39.3,2.61-1.06.52-1.95,1.26-1.63,2.68a3.63,3.63,0,0,0,5.24-2.34c.58-1.87,2.32-3.31,2-5.72-.15-1.09,1.64-2.33.14-4-.45-.48.87-1.08,1.67-1.22s1.42-.33,1.63.66c.07.33-.07.73.05,1,.64,1.6-1.45,3.37.31,4.87.52.44,3.14,0,6.72-1,.21-.93-3.63-1.93-.14-3a2.1,2.1,0,0,0-.3-2.2c-.4-.4-.77-.81-1.39-.13-1.77,2-3.43.57-4.17-.8-.61-1.13-2.54-.09-2.23-1.73.14-.7.59-1.72,1.11-1.88,1.59-.48,1,1.81,2.56,2.2-.3-3.52,2.45-5.06,4.34-7.16.36-.41,1.07-.56.68-1.27a1.19,1.19,0,0,0-1.74-.52c-.51.26-1,.87-1.46.85-1.72-.07-3.65.42-3.16-2.81.36-2.32.83-4.7,1.4-6.9.85-3.22.53-5.12-2.84-6.07-.44-.12-.72-.82-1.08-1.25-2.1,1.22-2.55-.15-2.83-1.8-.75-4.46-1.09-4.66-5.52-3.19-4.2,1.39-4.23,1.37-3.46-3-.66-.71-1.53.32-1.84.05-4-3.46-8-.39-11.94-.17a4.75,4.75,0,0,1-4.76-2.19C439.18,235,438,239,436,237.11a9.15,9.15,0,0,0,.4,1.51c.7,1.18,3.42.64,2.88,2.28-.46,1.4-2.87,1.41-4.19,2.62-1,.9-2.05-.43-2.85-1.17-2.84-2.66-3.16-2.53-4.92.69-.55,1-1.14,3.41-3.56,1.23-1.65-1.49-4.65.16-5.13,2.76-.27,1.44-.82,2.46-2,2.89-2.66,1-3.27,4.6-6.51,4.77a1.08,1.08,0,0,0-.78,1.62c1,2-1.08,2.67-1.55,4-.92,2.51-1.8,4.29-4.9,3.77-.45-.08-1.48.53-1.06,1.38a2.63,2.63,0,0,0,1.64,1.08c.79.18,1.76-1.89,2.36-.12a3.43,3.43,0,0,1-1.24,2.93c-2.79,2-.8,5.89-3.46,7.94-.5.39.64,1.6,1.65,1.7,1.36.14,1-.71.87-1.57a4.36,4.36,0,0,1,2.85-4.92c-.94,2-2.74,3.76-.24,6,.77.68,0,1.44-.51,2.07-.72.86-2,1.24-2.16,2.57Z"/><path class="cls-3" d="M556.37,253c.51,1.12,1.64,1.15,2.6,1.43q26.49,7.9,53,15.77c3.28,1,6.57,1.89,9.87,2.79,1,.28,2.22,1.05,3-.5-8.19-16-17.76-31.07-30.71-43.75-.73,1.83-1.47,3.62-3.75,4.07a1.42,1.42,0,0,0-.93.87c-1,6.21-7.07,7.26-10.83,10.56-4.05,3.55-10,4.39-13.57,8.88a3.54,3.54,0,0,1-4.33,1.11C559.28,253.75,557.81,253.41,556.37,253Z"/><path class="cls-4" d="M301.3,187.73c5.93-1.09,11.22-4.37,17.25-5.14-.32-.91-1.16-1.05-1.93-1.24a2.8,2.8,0,0,1-2.35-2.23c-.26-1.4,1.18-1.1,1.83-1.59,3.16-2.4,2-5.91,1.24-8.48-.63-2.07.36-2,1.19-2,2.15.05,2.7-1.24,3.15-2.92a11.23,11.23,0,0,1,2.15-4.56,5.48,5.48,0,0,0,1-5.29c-1.3-3.71-.21-5.72,3.57-6.85.54-.16,1.15-.15,1.35-.85-.16-1.11-1-.8-1.59-.65-3.45.85-3.11-1.49-3-3.59,0-.77.36-1.39,1.27-1.16s2.37,1.24,2.16-.51c-.1-.79,1.11-3.83-2.06-3.1a.62.62,0,0,1-.54-.19c-.4-.65.51-8.63.93-9.28,1-1.55,3.85-2.56,2.81-4.64a6.17,6.17,0,0,0-6.45-3.47l-11.85,6.52c-.94,1.64-2.59,2.54-3.92,3.77s-2.08,2.35.24,3.25a3.19,3.19,0,0,1,2,2.93c.13.9-.3,2.18,1.22,2.41l8.2-1.32c1-.47,2.14.79,2.78.18-.24.19-1,.41-1.64.87l-15.17,7.14c6.51.5,12.37-.1,18.11,1.36A171.55,171.55,0,0,1,293.65,154c-1.86.1-2.89.92-1.83,2.77a14,14,0,0,1,1.72,7.14c0,1.35.45,2.72,2.22,2.9,5.82,1.31,11.65,2.61,17.8,1.8-3.68,2.51-7.84,3.48-11.83,4.88-1.16.45-2,1.08-1.4,2.52l.65.19c1.88,2.58,4.91,2.7,7.58,3.58a30.68,30.68,0,0,0-7.64-1.27c-2.31-.07-3.05,1-3.23,3s.47,4.07.59,6.12C299.24,188.83,300.27,188.26,301.3,187.73Z"/><path class="cls-27" d="M233.64,355.26c1.45-10.36,3.84-20.57,5.23-31-3.4,8.47-7.27,16.68-9.11,25.62l-1.16-.2q2.35-14.57,4.72-29.11l-.82-.32L222.36,343c.87-8.63,3.68-15.82,4.85-23.33-.35-1.31-.55-2.7-1.6-3.68a16.6,16.6,0,0,1-4.89-9.05,99.47,99.47,0,0,0-11.92,22.33c-2.26,5.63-4.65,11.27-5.12,17.45,3.29,1.52,3.06,4.65,3.62,7.52.69,3.51,2.06,3.84,4.81,1.4a3.14,3.14,0,0,1,.09,2.93c-.25.86-.21,1.92.57,2.13,2.95.81,4.7,3.77,7.81,4.19.22,0,.55-.07.66.08,2.25,3.17,5.09,1.91,7.87,1.06,3.49-.69,3.62-.9,1.93-4-.56-1,.15-1.47.61-2C232.82,358.65,234,357.27,233.64,355.26Z"/><path class="cls-28" d="M16.75,282.19c2-1.37,3.17-.06,4.18,1.39,1.58,2.28,3.17,3.4,5.95,1.44,1.24-.87,3.33-1.08,2.9,1.8-.31,2,1.81,2.69,2.73,3.49,2.2,1.92,3.4,3.56,1.49,6.27,1.61.39,1.88-.76,2.5-1.3,1.34-1.15,2.5-2.68,3.77.18.25.56,1.33,2,2.74.89.83-.64,1.61.17,1.26.74-1.91,3.05,1.7,6.08-.78,9.32,2.48-.22,4.39,0,4.55-2.68a.79.79,0,0,1,1-.71c.71.11.88.62.83,1.26-.32,3.88.06,8-4,11,2.39.63,4.89-.62,6.32,1.89-1.45,1.53-3.11,3.08-4.53,4.82s-2.61,3.68.46,5.75c-1.38.48-4,.23-1.91,2.56.8.89-.07,2,0,3,0,2.11-1.12,1.7-2.13.79a5.85,5.85,0,0,1-1.74-2.43c-.32-1-.27-2.43-1.56-2.17-.89.18-1.55,1.47-2.31,2.26.78.51.79,1.85,2.47,1.53,1-.19,2.88,1.28,2.47,2.63-.47,1.57-2.06,1.51-3.36.39s-3.46.12-4.72-1.48c-.38-.49-.83-.09-1.1.28a1,1,0,0,0,.16,1.52c.72.55,1.7.88,2.21,1.57.81,1.08.83,2.17-.94,2.41-3.58.49-7,4.26-7.05,7.74,0,1.25.2,2.53-1.23,3.29-1.09.59-2,.86-2.1-.77-.05-.88.11-1.8-1.05-1.67a1.64,1.64,0,0,0-1.37,2c.08.79.22,1.57.34,2.36.3,2-2.58,7-4.27,7.21-1.92.22-1-2.06-2.24-2.73-1,.86-1.59,1.63-.43,3,2,2.41,1.82,2.28-.72,4.17-1,.75-1.25,2.54-1.94,4.1-2.24-1.67-4.66-3.33-7.89-3.25,1.67,2.45,5.26,2.78,5.84,6a12.78,12.78,0,0,1,.31,1.33c0,.25-.53,4.26-.37,4.38,1,.79,0,.91-.38,1a17.58,17.58,0,0,1-2.72.11c-1,0-2.35-1.19-2.8-.12a6.69,6.69,0,0,0-.46,4.33c.38,1.33,3,1.54,1.87,3.73-.11.21.91.44,1.4,0,2.4-2.26,1.38.72,2,1.27,1.48.2,4.06,1.91,2.38-2-.29-.69,1.07-2.1,1.77-3.37-.63-.6-2,.52-2.46-.63s-1.57-.66-2.65-.75c1.15-.16,2.17,0,3-.57,2.75-.4,3.62-1.46,2.3-4.34-1-2.22.69-4.17,2.06-5.94s3.17-3.17,2.85-5.9c-.22-1.83,2.06,0,2.19-.88.24-1.58,1.79-2.68,1.37-4.5-.19-.84.86-1.89,1.36-.89,1.45,2.89,2.12,1,3.25-.14.52-.56,1.53-.65,2.5-1A8.56,8.56,0,0,0,29,355.44c-2-1.56-.75-2.79.71-2.64,3.76.37,5-4.53,8.78-3.79.11,0,.52-.61.45-.69-2.2-3.06,1-3.14,2.34-3.92s2.78-.75,2.63-2.91c-.09-1.24,1.53-1.63,2.44-2.17,4.34-2.56,3.46-8.78,8.17-11.26,1.34-.7-1.26-2.33-1.46-3.74,1.25-1.1,1.86.81,2.82.38.49-.23,2,.28,1.08-1.15s-.22-2.22.86-3.15,2.55-1.69-.28-2.72c-2-.72-1.49-3.07-.73-4.88.83-2,1.28-3.95-.24-5.84-.22-.26-.36-.81-.56-.83-2-.16-4.07-.76-2.6-3.09,1.11-1.76,2.45.58,3.63,1.06,3.27,1.35,2.25-1.75,3.35-2.61-.79-.87-1.44-.53-2.07-.28-1,.37-1.89.42-2.37-.63-.66-1.45.88-1.24,1.47-1.76,1.31-1.18,3.12-2,2.66-4.36-.3-1.58,2.31-1.38,2.28-3.26a3.72,3.72,0,0,0-3.92,3,3.56,3.56,0,0,1-3.24,2.9,4,4,0,0,1-3.39-2c-1.07-1.58,1.18-2.79.88-4.45,0-.3.65-.67,1.11-.31,3.09,2.38,2.64-1.35,3.93-2-2.41.56-2.41.56-7-1.35-1.5.82.59,3.25-1.46,3.58a4.69,4.69,0,0,1-3.52-1.17c-.5-.41-1.41-1-.76-1.63,1.92-1.76-.49-2.44-.65-3.84-1.16.32-.27,2.61-2.06,1.95-.89-.33-1.47-.57-1.67-1.79-.41-2.6-2.6-3.74-4.86-3.67-4.48.14-5.9-1-5.56-5.64-2.15.57-3.05,2.62-4.93,4.07.08-1.68-.25-3.09.26-4.06,1.51-2.91-.64-2.91-2.26-2.85-3,.12-5.25,1.54-5.72,4.85A11.53,11.53,0,0,0,16.75,282.19Z"/><path class="cls-29" d="M124.2,404.83a2.61,2.61,0,0,0-2.71-2.88c-2,.28-4.61.37-5.59,2.36-.8,1.64-1.88,1.58-3.13,2a2.81,2.81,0,0,1-.07-.84c.36-1.08,2.92-.76,2-2.12s-3.06-.32-4,.28c-2.17,1.46-4,1.88-6,.12a1.1,1.1,0,0,0-1.57.1c-1.92,2.21-5,2.65-7,4.84a2.12,2.12,0,0,1-.89.51c-2.78.94-7.82,5.53-9.35,8.55-1,1.94-1,1.94-3.6,1.14.42,1.75,1.4,3.56-.29,4.94-2,1.66-1.9-1.83-2.69-1.68-2.14,4,.68,8.79-3.67,12-1.3,1-.4,5.94.73,7.27,2.11,2.46,1.75,6,3.5,8.69.35.53-.6,1.32-1.19.43-.81-1.22-1.6-.26-3.19-.56a6.44,6.44,0,0,1,2.9,4.13c.2.81,0,1.86,1.24,2.18,1.61.4,2.29,1.24,1.66,3.11-.52,1.52.84,1.19,1.73,1.08a101.36,101.36,0,0,0,12.58-22c4.22-9.68,10.07-17.87,18.43-24.37A69.78,69.78,0,0,0,124.2,404.83Z"/><path class="cls-30" d="M512.73,700.19c-2.94-5.89-5.62-11.92-9.78-17.12a17.09,17.09,0,0,1-1.67-3.34c-2.12-5.53-6.15-9.85-9.44-14.62A260.68,260.68,0,0,1,474.74,637a22.15,22.15,0,0,0-3.14-4.48c-5.94-9.34-14.11-16.85-20.92-25.47-4.6-5.84-9-11.86-13.73-17.67a23.34,23.34,0,0,0,4.76,9.7A344.25,344.25,0,0,1,472,646.65c5.39,10.14,12.16,19.44,18.24,29.16,8.47,12.79,16.39,25.87,21.92,40.26a19,19,0,0,0,2.51,4.86c2.74,7,5.54,14,8.22,21.05,1.7,4.48,3.23,9,4.83,13.52q.9-6.3,1.79-12.6c-3.75-10.73-7.19-21.58-11.37-32.16C516.7,707.07,515.8,703.05,512.73,700.19Z"/><path class="cls-20" d="M387.18,664.57c-1.78-1.61-3.75-1.06-5.72-.24,0-2.07-.56-3.79,1.28-5.44,1.2-1.07.68-3.14-1.13-4a10.88,10.88,0,0,1-4.67-3.38c-1.69-2.45-4.57-1.52-6.78-2.4.6-1.52,2-.7,2.75-1.51-.1-1.13-1.09-1.07-1.79-1.24-1.21-.29-2.94.43-1.74-2.25.72-1.58-2.15-3.08-3.83-2-1.9,1.25-3.24,2.41-3.58-1.34-.19-2.14-1.37-.94-1.93.23-.93,1.59.66,3,.38,4.51a5.39,5.39,0,0,0,.24,1c2.66,8.06,3,16.49,3.71,24.82.79,9.49,1.39,19,1.53,28.55.06,4.36-.29,8.73.18,13.08.13,1.16-.44,2.61,1.18,3.24q9.09-23,18.16-46.09C386.13,668.32,386.6,666.42,387.18,664.57Z"/><path class="cls-31" d="M320.51,269.28a6,6,0,0,1,.15-1.36,7.58,7.58,0,0,0-.46-3.16c-.45-.38-.88-.87-.58-1.47.18-.35.85-.84,1-.76,2.67,1.68,3.52-1.65,5.51-1.85-1.7-.59-4.21-.7-4.9-1.21-2.25-1.68-6.48-.23-7.1-4.34-.12-.8-1.08-.73-1.6-1.14-1.1-.85-2.17-1.68-1.81-3.39a2.19,2.19,0,0,0-1.37-2.8c-1-.26-2.31-.5-3.08.78-.37.61-.94,1.23-1.66.82s-1-1.79-.56-2.06c1.14-.68-1.28-4.42,2.34-2.69.13-.41.43-.84.37-1.22-.1-.74-.05-1.71-1.23-1.72-.92,0-2.48-.2-1.7-1.24,1.93-2.57.35-4.74-.28-7-.47-1.64.75-1.93,1.67-3-3.48-.07-4.54-1.53-3.28-4.75.63-1.61-.26-3.57.7-5.26.14-.26-.14-.93-.42-1.23-4-4.36-4.12-5-1.42-9.42-4.21-.12-8.41,0-12.57-1.19-1.68-.49-4.27-.51-4.82,2.07-.44,2.07.39,3.32,2.66,4.66,3,1.73,5.86,3.82,8.73,5.83.54.38,1.35.79,1.15,1.54-.26,1-1.3.68-2.05.82a.67.67,0,0,1-.34-.05c-2.73-1-5.42-1.8-6.93,2.14,2.57,0,3,2.31,3.14,3.91.31,3.83,1.43,6.37,5.62,7.22,1.07.22,2.16,2.38,2.45,3.8s-1.48.76-2.3,1.1c-1.17.48-2.39.91-3,2.17-.22.47-.86,1.33-.22,1.44,2.68.47,3.16,4.13,6.11,4,2.41-.08,2,2.62,3.53,3.62,1.15.76,3.85,1.57,3.17,2.89-1.1,2.11-2.63-.59-4.09-.72-2.49-.22-5.37-1.31-5.21,3a1.64,1.64,0,0,1-.64,1.5c-.77.58-2.32,1-1.58,2.2s2.09,0,3.18,0a2.33,2.33,0,0,0,.39-.24,3.74,3.74,0,0,0-.4.22c.15,1.26.9,2.95-1.7,1.82-.95-.41-2.18-.18-3.28-.24C300.93,267.55,310.41,269.91,320.51,269.28Z"/><path class="cls-32" d="M229.55,58.33c2.24-1.65,4.13-3.37,2.44-6.55-.82-1.52.95-1.77,1.55-2.61.81-1.13,1.32-.22,1.93.18l2.83,1.83c-.57,1.33-2,.77-2.64,1.49-.54.56-1.39,1.07-1.18,2,.26,1,1.06.46,1.68.32s1,.17.91.64a3.22,3.22,0,0,1-1,1.28c-.59.56-2.35-.76-2.05.84.34,1.82-3.69,1.08-1.67,3,.76.73,2.42.89,3.4,1.72,1.2-2.77,4.46-3.35,5.81-5.81,1.27-12.54,3.62-24.9,6-37.25.68-3.48,1.43-7,1.79-10.49A8.08,8.08,0,0,0,241.05,0c-3.58,0-6.43,2.44-6,5.62,1,7.55-1,14.79-1.83,22.15C232.11,38,230,48,229.55,58.33Z"/><path class="cls-9" d="M303.68,561.15a85.52,85.52,0,0,1,8.67-2.26,17.92,17.92,0,0,1,6.22.23c2.82.72,4.32-1.53,4.73-6.11,0-5.91-.29-11.84.59-17.72-.18-3.12-.51-6.16-3.07-8.42-.83-.74-.87-1.84-1.09-2.83-.89-3.87-3.55-6.15-7-7.76C305.18,530.32,301.16,545.07,303.68,561.15Z"/><path class="cls-9" d="M30.17,495.79c-.94-2.89.5-5.46,1.51-7.86C35,480,38.52,472.19,40.5,463.81a391.63,391.63,0,0,0,7.66-43.11c1.6-13.23,2-26.66,5.17-39.66,2.12-8.68,7.44-15.87,12.27-23.23,3.32-5.06,7.2-9.75,10-15.15-8.46,6.74-16,14.2-21.25,23.9-8.44,15.73-10.73,32.64-10.76,50.17,0,10.78-1.78,21.43-3.78,32-3,16.16-7.53,31.94-12.13,47.7A2.35,2.35,0,0,0,30.17,495.79Z"/><path class="cls-33" d="M488.87,700.64c.39,4.85-4.22,5.07-6.7,7.5a.51.51,0,0,0,.05.38c.83,1.07,2.37,1.46,2.76,3-1.94-.29-3.83,1.25-5.86.09-.64-.37-1.38-1.76-2.26-.61-.74,1,.45,1.23,1,1.71,1.11.9,0,1.77-.36,2.37a27.8,27.8,0,0,0-2.53,6.71c12.3,8.46,23.12,18.61,33.43,29.33.86.9,1.87,1.65,2.81,2.47,1.69-3,1.64-5.82-.65-8.42-1.82-2.07-2.14-4.78-3.31-7.12-5.51-11-10.85-22.08-16.3-33.11C490.29,703.47,490.29,701.69,488.87,700.64Z"/><path class="cls-34" d="M211.75,227.61c1-9.12,1-18.28,1.15-27.44a48.29,48.29,0,0,1,.74-10c-1.93-.09-2.07,1.55-2.46,2.75q-1.58,4.74-2.74,9.61c-4.59,19.21-10,38.19-15.54,57.16-.84,3.31-1.76,6.6-2.8,9.86-2.4,9.09-4.13,18.32-5.89,27.55a7.44,7.44,0,0,0-.09,3.75c1.88,2,3,.53,4.13-.89,2.74-5.79,4.69-11.89,6.92-17.89.72-2.69,1.14-5.48,2.59-7.93a8.5,8.5,0,0,0,.54-1.09C202.77,257.92,208.52,243.14,211.75,227.61Z"/><path class="cls-35" d="M229.29,365.52c-.88-.19-2.07-1-2.61-.3-3,3.62-3.33-.64-4.78-1.49-.24-.13-.33-.52-.49-.79-3.2,3.28-2.95-.84-4.16-1.89-.22-.18-.82.15-1.24.12-1.88-.11-3.83.12-2.57-3,.54-1.34-.29-3.22-.5-4.86-.4.08-.7.05-.8.18-.86,1.1-.89,3.5-2.6,3.13-2.23-.48-2-3.38-1.76-4.67.65-3.69-1.19-4.68-4.1-5.17a53.7,53.7,0,0,0-1,23.59c.45.37,1.39-.42,1.52.56s-.74,1.17-1.38,1.52l.36,1.49c1.2.28,2.32.8,3.59-.16.86-.65,2.31-4.59,3.07.16a1.48,1.48,0,0,0,1.23.36c2.61-1.64,5.63.08,8.46-1.34-2.49,3.42-2.43,3.93,1.45,5.21,1.07.35,1.67,2.73,3.67.94.54-.48.14,1.95,1.17,3,.91-1.38,2.44-2,4-3.16-.25,3.89.66,6.92,5.12,7.26,1.7.13,1.15,1,.62,1.84-.33.52-.65,1.13.17,1.29.42.08,1-.46,1.46-.73.61-3.74.34-7.51.3-11.27a123,123,0,0,1,1.36-20.47,13.59,13.59,0,0,0-.19-2.72,53.53,53.53,0,0,0-4.27,11.17c-.33,1.41-.8,2.73-2.72,2.31l-.43,0c-1.23.11-1.27-.93-1.62-1.67Z"/><path class="cls-36" d="M158.09,107.42c.51,2.4.91,4.75-2,6.07-.62.29-1.2.82-.59,1.62.31.41,1,.52,1.21.18,2.2-3,2.7,1.06,4.18,1,0,1.94-1.85,2-2.91,2.84-.47.37-1.28.33-2.28.56,1.66,1.44,2.77,3,2.79,5.16a3.45,3.45,0,0,0,2.24,2.84c1.65.72,1.69,2,1.55,3.4,2.67-2.94,4.74-6.46,7.32-9.31,3.9-4.29,7.28-9,11.2-13.25,2.17-2.36,3.21-6,5.47-7.66,3.3-2.43,4.05-5.86,5.9-8.86a11.49,11.49,0,0,1,1.9-1.92A133.56,133.56,0,0,0,158.09,107.42Z"/><path class="cls-23" d="M367.23,587.81a2.74,2.74,0,0,1,4.72.79c1.34,5,6.78,6.11,9,10,2.33,4.2,6.48,6.86,8.73,11.06,1.22,2.29,4.32,2.89,5.57,1.1-.07-8.28,0-16.58-1.63-24.76-1,2.22-1.53,4.73-4.65,5.13-1.23.16-1.38,1.35-1.07,2.48.36,1.32.69,2.65,1,4a1.5,1.5,0,0,1-1.17,1.82c-.94.31-1-.63-1.18-1.25-2.31-7-4.69-13.9-6.88-20.89a8,8,0,0,0-1.47-2.61c-1.32-1.74-4.21-3.14-1.32-5.93.3-.29.75-2.21-1.4-1.12-.93.47-2.87-.66-4.13-1.43-1.06-.65-.5-1.48.14-2.52s-1.43-3,1.41-4.37c-5,.64-5.24.93-4.94,6.48a122.76,122.76,0,0,1-1,20.73A4.1,4.1,0,0,0,367.23,587.81Z"/><path class="cls-37" d="M436.83,496.92c-1.37-4.39-6.22-4.81-9-7.7-1.15-1.2-2.66-3.27-5.08-3-.18,0-.61-.47-.6-.71.15-4.46-3.47-7.11-5-10.72-.82-2-1.4-3-3.55-3.17-1.4-.13-3.45-.65-1-2.53.59-.44.62-1.28.29-1.5-3.2-2.19.25-2.58.95-3.7a116.52,116.52,0,0,0-19.29,1.61c1.66,1.09,1.57,3.15,2.47,4.68.43.73-1.28,2,1,2.69,1.95.59,2.22-.72,3.09-1.8,1.52,2.4.7,4.17-.3,6-.36.67-.78,1.53-.06,2.22a1.46,1.46,0,0,0,1.24.25c1-.31.64-1,.59-1.86-.16-2.46,1.85-2.05,3.37-2.07.59,0,.67.58.58,1s.05,1-.69.91c-2.49-.22-1.79,1.86-1.65,2.85.23,1.6,1.22.83,2.27.37,1.94-.85,2.1,2.06,4,1.84-1.37,1.8-2.81.78-4.41.61.67,1.08.51,3.17,1.63,2.52,1.45-.84,4.07,3.65,4.23-1.42.36,1.54,2.17,3-.71,3.39-.68.1-1.51.35-1.22,1.25.23.74.92,1.65,1.75,1.29,1.58-.67,3.06,1,4.7-.35-.5,1.88-.95,3.4.83,4.46a1.38,1.38,0,0,1,.55,1.18c-1.59,5.12.9,3,4,3.27,4.44.32,8.44-.79,12.63-1.17A10.35,10.35,0,0,0,436.83,496.92Z"/><path class="cls-8" d="M197.35,273.16c-.06.21-.13.43-.2.65-1.61,2.36-1.31,5.44-2.89,7.82q-3.33,9.08-6.68,18.17a56.11,56.11,0,0,0-5.4,13.16c-.37,1.29-.94,2.61-.13,4,2,1.52,4,3.2,6.18,4.5,1.24.74,1.53,1.44,1.15,2.67,2.67-3.92,4-8.48,5.46-12.84,3.61-10.53,6.57-21.27,9.23-32.08a4.37,4.37,0,0,0-.09-1.34c-.83.22-1,1.11-1.6,1.62C200.47,277.45,201.26,273.43,197.35,273.16Z"/><path class="cls-38" d="M512.73,700.19c5.95,12.87,10.3,26.34,14.83,39.74.35,1,.14,2.76,2,3,1.63-10.46,3.68-20.86,3.9-31.5a19.8,19.8,0,0,1,.74-3.66c-2.52-.68-5-2.23-7.52.13a1.09,1.09,0,0,1-1.53-.26c-.35-.42-.37-.94.14-1.13,2.54-.94.71-2.62.09-3-2.24-1.36-3.71-3.63-5.91-4.87-1.39-.79-3.48-2.4-4.58.77C514.68,699.85,513.46,699.93,512.73,700.19Z"/><path class="cls-39" d="M343.07,637.66c-1.17,0-1.71,1-2.51,1.65s-1.61,1.42-2.72,0c-.76-.94-1.88-.68-3,0-2.6,1.54-5.29,3.32-8.35,3.31a2.4,2.4,0,0,0-2.48,1.59A205.79,205.79,0,0,1,334.63,662c1.77-1.41,3.71-.49,5.45-.12,2.47.52.63,2.29.43,4.06,2.71-2.17,4.36-4.14,3.06-7.36-.25-.61-.46-1.39.29-1.87.23-.15.77-.2.9,0a1.42,1.42,0,0,1,.23,1.95c-.79,1.63.61,2.58,2.51,3.11-.16-2.76-1.35-5.57-1.12-7.7.36-3.34-.65-6.2-1-9.25C345.06,642.27,344.87,639.67,343.07,637.66Z"/><path class="cls-40" d="M193.88,260c3.4-12,6.89-23.87,10.17-35.85,2.79-10.17,5.33-20.41,8-30.61.31-1.17.26-2.57,1.55-3.31l.84-7.7c-4.15-2-4.12-2-5.92,2.69-4.75,12.27-9.73,24.45-13.94,36.92a1,1,0,0,0,.33.1c1.68.08,1.88-3.21,3.79-2,1.42.92-.08,2.73.33,4.19,1.51,5.5.44,10.79-1.32,16.09-1.69,5.11-3.05,10.32-4.41,15.53C193,257.35,192,258.9,193.88,260Z"/><path class="cls-41" d="M367.26,716.22c-1-7.49-.22-15-.64-22.54-.84-14.84-1.29-29.71-4.18-44.35-.26-1.28-.36-2.76-1.49-3.76-2,3.32-.49,6.69.12,9.94,1,5.21,1,10.44,1.32,15.68-.19.46-.87,0-.43.15.14,0,.23,0,.24-.2.4-4.33-1-8.35-2.09-12.42a1.09,1.09,0,0,0-1.36-.76c.86,12.21,1.8,24.41,2.57,36.62.57,9,.26,18.08,1.71,27A9.46,9.46,0,0,0,367.26,716.22Z"/><path class="cls-42" d="M312.76,516.28c.91,2.52,4.44,2.73,5,5.21,1.19,5,5.17,8.72,6.09,13.8,1.41-7.62,2.32-15.37,4.43-22.79,1.19-4.21-.87-8.63,1.72-12.61.88-1.36-.48-3-1.38-4.34A75.45,75.45,0,0,0,312.76,516.28Z"/><path class="cls-43" d="M366.12,412.2c.77-1.08,2.41-1.61,1.42-3.66-.68-1.42,1-1.65,2.08-2,.72-.25,1.61-.44,1.64-1.47,0-1.18-.94-.95-1.62-1.25a10.61,10.61,0,0,1-2.08-1.62,1.87,1.87,0,0,0-.62.26c-.78.8-.48,3-2.19,2.4s-1.73-2.52-1-4.1c.38-.78.78-1.7.21-2.22-2.25-2-1-3.7.38-5.42-5.6-.4-11,1.18-16.44,1.91a16.23,16.23,0,0,1-2.35.34c-4.55-.17-4.54-.19-4,4.31,1.21.37,1.12-1.23,2-1.36,1.05-.16,1.69-2.15,2.84-1.06.82.78,2.11,2.06.7,3.55-1,1,.24,1.58.65,1.89,1.24.93.61-.56.92-.88.46-.47,1.16-.73,1.48-.24.81,1.22,3.18,2.41,2.54,3.29-1.37,1.86.28,3.34-.22,4.91C356.9,411.16,361.54,411.52,366.12,412.2Z"/><path class="cls-23" d="M197.35,273.16c2.27,1.34,2.94,3.66,3.65,6,.25.81,0,2.16,1.23,2.15s.87-1.41,1.25-2.18c.21-.41.33-.85.5-1.28,3.7-16,7.13-32.07,8-48.55a9.63,9.63,0,0,0-.2-1.66c-2.42,4.83-3.7,10-5,15.22C204.08,253.09,199.75,262.82,197.35,273.16Z"/><path class="cls-44" d="M352.33,339.45c-1.13-3.61-1.32-7.7-5-10.05a120.2,120.2,0,0,0-22.8,12.22c1.35.43,2.62.45,3.11,2.5.56,2.31,3.18,1.54,4.67,1.15C339,343.51,345.67,341.42,352.33,339.45Z"/><path class="cls-11" d="M311,138.85c-.67-.7-.23-1.52-.26-2.29-.11-2.37-.69-4.38-4-3.93,1.19-2.61,4.82-3,4.73-6.14-9.41,4.92-18.83,9.82-28,15.27,1.59,4.49,5.32,2,7.34,1.41,6-1.62,12.27-2,18.31-3.52A12.24,12.24,0,0,0,311,138.85Z"/><path class="cls-17" d="M605.48,554.9c-.33-.09-.69-.31-1-.25-10.14,1.94-18.52-3.83-27.64-6.32-3.85-1.05-7.47-2.89-11.31-4-12.58-3.68-25.21-7.2-37.83-10.78.78,1.45,2.35,1.29,3.6,1.72,13.11,4.48,26.41,8.47,39.27,13.56,6.58,2.6,13.51,4.35,19.81,7.65C595.52,556.92,600.82,558.94,605.48,554.9Z"/><path class="cls-45" d="M220.72,307c-1,3.16.64,5.6,2.52,7.66,1.47,1.61,2.6,3.42,4,5.07,2.87-4.42,2.68-9.84,4.8-14.51a1.42,1.42,0,0,0,.07-1c-1.21-2.62,0-4.2,2.37-5.14-1.67-2.78-4.62-.65-6.5-2.11A48.7,48.7,0,0,0,220.72,307Z"/><path class="cls-28" d="M9.27,389.2a2.91,2.91,0,0,1-1,.05c-4.53-1.54-5.4-.88-5.48,4.16,0,.8-.58.83-1.18.77a112.12,112.12,0,0,0,4.92,20.1c.32-.12.92-.26.92-.35-.19-2.5,1.33-4.22,3-5.88-1.75-.94-1.57,1.41-2.81,1,1.5-4.67,1.28-9.39.46-14.75.28-.77,2.67,1.9,2.62-.72C10.7,391.92,11.77,390,9.27,389.2Z"/><path class="cls-2" d="M282.79,334.65c-1.77-.58-3.83,1.22-5.56-.93-.52-.66-2,.39-1.9,1.65.12,1.73,1.41,2.85,2.74,3.66s2.29,0,3-1.25a17.49,17.49,0,0,1,2-2.32Z"/><path class="cls-2" d="M277.21,323.11c-1.86,0-2.07.87-.88,2s2,2.18.82,4a2.51,2.51,0,0,0,1,3.32,2.14,2.14,0,0,0,3.17-.94A39.44,39.44,0,0,0,277.21,323.11Z"/><path class="cls-2" d="M291.29,389.59a3.83,3.83,0,0,0-.64-.18c-1.12-.07-2.29-1.37-3.34,0a.81.81,0,0,0,.41,1.12c1.3.71,2.55.82,3.62-.44A.52.52,0,0,0,291.29,389.59Z"/><path class="cls-12" d="M202.81,372.41c3,1.06,1.29-2.44,2.87-2.86a3.82,3.82,0,0,0-3,.78C202.68,371,202.13,371.76,202.81,372.41Z"/><path class="cls-8" d="M184.42,301.05q3.32-15.56,6.62-31.13c-.07-2.34,1-4.44,1.6-6.61.47-1.67.42-2.89-1.34-3.65a6.5,6.5,0,0,1-3.62-4.32c-.61-1.89-1.63-3.34-4-2.67-2,2.81-2.6,6.25-3.85,9.37-2.27,5.68-5,11.19-6.66,17.11-.33-4.27,1.31-8.26,1.58-12.42-.21-2.65,1.62-4.89,1.45-7.52l.36-1.3c-1.1-1-1.52-3.4-3.92-1.62-.91.68-1.57-.59-2.27-1.1s-1.3-1.18-2.06-.34a1.27,1.27,0,0,0,.19,1.86c1.59,1.34,2.52,2.66.66,4.5-1.19,1.18-.39,3.41-2.91,4.18s-2,4.2-1.81,5.92c.46,4.18-.24,7.29-4.09,9.27-.51.26-.83.52-.48.95,2.84,3.52-2.48,5.78-1.4,9.07.19.59-.81,1-1.5,1.18a2.64,2.64,0,0,0-2.19,2.34,25.06,25.06,0,0,0,1.7,15.72c.91,2.05,3.62,2.46,6,2.64,6.26.47,12.49,1.15,18.21,4A29.76,29.76,0,0,0,184.42,301.05Z"/><path class="cls-14" d="M438.93,208.88c1.42-4,4.45-1.92,6.56-1.33,3,.82,6.19,1,8.94,2.72-.57-2.23-2.63-1.89-4-2.59a39.55,39.55,0,0,0-22.72-4.1c-5,.53-10.23-.33-15.36-.53-6.93-.27-14.06-.44-20.56-3.32-6.13-2.71-12.8-3.8-18.83-7-2.13-1.14-4.81-3.53-8-2.35-.2.07-.62-.21-.83-.43-3.63-3.78-8.44-4.81-13.25-6.24-6.83-2-13.48-1.73-20.32-.53-3.56.62-6.63,2.62-10.13,3.11-3.91.54-7.1,2.87-10.8,3.84-.61.16-1.21.28-1.15,1,.09,1.08.95.78,1.57.65,3.8-.85,7.6-1.74,11.4-2.61,1.11-.26,2.23-.53,3.35-.76a2,2,0,0,1,2.22.52c.76,1-.34,1.62-.81,2.33,2.8.27,5.39-.86,8.07-1.34,11.61-2.1,21.94,1.84,32,6.7,8,3.82,16,7.61,24.48,9.93,12.76,3.48,25.79,3.75,38.87,2.19a32.59,32.59,0,0,1,8.49.57A1.33,1.33,0,0,0,438.93,208.88Z"/><path class="cls-14" d="M301.3,187.73l-2.85-.1a2.66,2.66,0,0,0-2.47-.91c-7,.26-13.68-1.11-20.31-3-1.31-.37-2.79.38-3.94-.72-10.44-5.4-19.94-12.23-29.73-19.62C248,178.76,259.85,187.1,274,193c7.47,2.66,15,5.14,23,5.35,1.42,0,3.06.46,3.87-1.35-1.47-1.4-2.86-2.77-5.24-2.57a2.38,2.38,0,0,1-2.47-2.38c-.09-1.63,1.47-1,2.32-1.29C297.49,189.92,300,190,301.3,187.73Z"/><path class="cls-46" d="M183.67,252.67c1.81.41,3,1.26,3.24,3.34a4.76,4.76,0,0,0,3.69,4.4c2,.54,2,1.64,1.56,3.31-.49,2-1.85,3.95-1.12,6.2q1.43-5,2.84-9.95c-.72-1.3.05-2.47.38-3.64,1.74-6.31,3.21-12.73,5.44-18.87,1.68-4.64.92-9.05.35-13.58-.07-.51-.78-1.22-.31-1.55,3.49-2.42-.32-3.42-1.14-3.79-2.15-1-2.4,1.25-3.07,2.62-.18.38-.6.64-.91,1Z"/><path class="cls-47" d="M237.6,475.56c-.28-4.54-.37-9.11-.86-13.63a53.39,53.39,0,0,1,4.34-28.7,87.23,87.23,0,0,0,7.21-27.08,382.26,382.26,0,0,0,1.63-48.33,143.38,143.38,0,0,0-.6-14.66,143.71,143.71,0,0,0-2.68,31c.16,9.91,1.41,19.88-.3,29.73a185.17,185.17,0,0,1-10.23,36.48,36.94,36.94,0,0,0-1.77,20.59C235.26,465.82,235.52,470.91,237.6,475.56Z"/><path class="cls-48" d="M271.73,183c2.88,2.3,6.5,2.61,9.86,3.32a54.84,54.84,0,0,0,16.86,1.31c1.23-1,.83-2.09.41-3.37-1.32-4-.13-5.39,3.83-4.76a17.29,17.29,0,0,0,6.14.05L301,176.19c.26,1.19.23,1.91-1.44,1.8a100.82,100.82,0,0,1-16.85-2.91c-1.41-.34-2.56-.92-3.78,0-1.78,1.41-4.32-1-5.38.62-.61.92,1.12,3.16,1.09,4.79C274.59,181.81,273.22,182.77,271.73,183Z"/><path class="cls-23" d="M154.93,238.19c3.54-4.56,7.18-9,10.59-13.69,4.85-6.63,9.51-13.41,14.31-20.08,6.41-8.89,10.3-19.09,15-28.84,1.33-2.76,3.23-5.3,3.79-8.42l-.47-.5c-.88-.87.42-3.1-1.35-3-1.37,0-1.63,2.1-2.09,3.23-4,10-8.22,19.8-14.33,28.79s-11.66,18-17,27.28C160.47,227.94,156.93,232.65,154.93,238.19Z"/><path class="cls-40" d="M295.76,166.8a4.57,4.57,0,0,1-1.33-4.19,7.31,7.31,0,0,0-1.69-5.62c-1.38-1.63-.4-2.31.91-3-3.36-.68-6.55.56-9.81.95-4.49.54-8.83,2.08-13.41,2.21-2.45.07-2.36,1.74-2.49,3.6-.18,2.5,1.48,1.63,2.68,1.88q9.9,2,19.77,4.1A11.09,11.09,0,0,0,295.76,166.8Z"/><path class="cls-33" d="M300.84,197c-3.88,1-7.71.06-11.51-.45A104.48,104.48,0,0,1,274,193c.14.18.23.47.41.53,9.64,3.55,19.22,7.62,29.87,5.82,4.81-.81,9.61-1.89,13.76-4.73A75.27,75.27,0,0,1,304.17,197C303.05,197.1,302,197.46,300.84,197Z"/><path class="cls-3" d="M477.37,227.74c-2.77-3.21-6.91-4.28-10.39-6.31-6.24-3.66-12.42-7.68-19.62-9.43,8.1,5.17,16.82,9.2,25.31,13.64C474.19,226.43,475.8,227,477.37,227.74Z"/><path class="cls-35" d="M233.64,355.26c-.18,2.56-2.49,3.66-3.77,5.46-.6.84-1,1.35-.12,2.3.66.71,2.07-.85,2.1.79s-1.8,1-2.56,1.71c.58.87.79,2.14,2.24,2.09l.1,0A46.73,46.73,0,0,0,233.64,355.26Z"/><path class="cls-11" d="M320.29,138.58c1.91.36,3-1,4.23-2.34l-5.37,1.29A1.5,1.5,0,0,1,320.29,138.58Z"/><path class="cls-3" d="M438.93,208.88l-.81.4,9.25,2.73C445,209.73,441.68,210.07,438.93,208.88Z"/><path class="cls-48" d="M300.33,176c.47-.84.94-1.68,1.4-2.52a7.29,7.29,0,0,0-4.67,1.13Z"/><path class="cls-32" d="M233.93,64.29c.15-.91-.42-1.25-1.08-1.48-.42-.15-1-.32-1.14.23a1.29,1.29,0,0,0,2.22,1.25Z"/><path class="cls-5" d="M176.19,259.21c-.42,2.51-2.16,4.78-1.45,7.52C175.2,264.21,176.78,261.92,176.19,259.21Z"/><path class="cls-4" d="M176.76,165.68c-1.36.53-1.51,1.5-1.4,2.8C177,168,177.45,167.17,176.76,165.68Z"/><path class="cls-19" d="M358.75,658c1.83,2.53,1.43,5.66,2.27,8.46.55,1.82.79,3.74,1.46,5.58.91-3,.57-6.08.46-9.13-.23-5.82-2.51-11.4-2-17.3v0c-.53-1.57-1-3.17-1.58-4.73q-2.33-7.3-4.66-14.61c-3.1-9.7-3.16-19.38-1-29.36a89.58,89.58,0,0,0,1.81-19.39c0-1.48,0-3,.08-4.44a9,9,0,0,0-.39-6,36.75,36.75,0,0,1-1.65-16.9,34.93,34.93,0,0,0,.08-7.85c2.21-12.52,4.25-25.07,3.66-37.91-.48-.24-.71.13-.86.58a193,193,0,0,0-10,51.9,27.34,27.34,0,0,0,1.7,10.8c1.91,5.37,1.81,11,1.5,16.66-.63,11.52-4.15,22.84-2.2,34.57.88,5.3,2.88,10.1,4.84,15a17.05,17.05,0,0,1,.58,2.29,20.74,20.74,0,0,1,2.33,6.47l0,0c1.78,5,3.69,10,3.57,15.4Z"/><path class="cls-42" d="M471.6,632.52c1.43,3,2.73,6,4.33,8.88,6.83,12.33,15.08,23.76,22.94,35.43a34.94,34.94,0,0,0,2.41,2.9c2.18.34,3.38-2.3,5.61-1.88.06,0,.19-.12.23-.22.41-.84.15-2-.49-2.09-2.4-.36-.67-4.47-3.65-3.91-.86.16-1.68,1.22-1.92-.42-.17-1.12.66-1.65,1.69-1.72s1.82,0,2.73,0a1.88,1.88,0,0,0,1.86-1.28c.24-.88-.38-1.32-.91-2-1.33-1.61-2.75-3.62-.92-5.6,1.39-1.51-.9-4.19,1.88-5-5.12-5.52-10.31-11-15.35-16.59q-8.13-9-16-18.24c-.82-1-1.82-1.71-2.6-2.67s-1.65-1.85-2.83-.82-.47,2.37.4,3.29a102.67,102.67,0,0,1,9.44,11.69,99.75,99.75,0,0,1,11.66,21.18c-3.77-4-7.44-8.09-11.34-12C477.74,638.48,475.44,634.7,471.6,632.52Z"/><path class="cls-49" d="M453,670.27c1.61,2.81,2.32,6.15,5.07,8.31-.29-1.41.78-2.8-1.1-4.22-1.19-.9-3.43-3.69.41-5.18,1.94-.75.53-2.69,1.29-4.24a2.38,2.38,0,0,0,3.49-.14c.8-.73,1.84-1.47,2.73-.76s.15,1.87,0,2.79c-1.21.62-2.39-1.82-3-.37-1.14,2.52,2.72,1.37,2.87,3.23-4.31.41-4.31.41-5,3.77,2.8.11,4.61-3.27,7.66-2.1,0,1.63-2.8,1.27-2.35,3.42l7.69-2.89c.11,4.4-1.65,6-5.57,5.21,1.37,3.66,1.88,4,4.47,1.29,2-2.13,3-2.29,4.42.28.4.73,1.43,1.1,2.18,1.64.25-1.26-.49-2.2-1-3.2-6-10.87-11.71-21.88-18-32.56-2.73-4.63-4.67-9.55-7.11-14.27-.89-1.73-1.58-4.76-5-3.18-1.53.7-.48-2.16-2.24-1.94-.31,0,.62-.62,1.12-.83,1.25-.53,1-1.41.39-2.2s-1.25-.6-2,.13a4.7,4.7,0,0,0-1.48,5.21c4.7,13.41,7.19,27.43,11.5,40.95C454.75,669.64,454.66,670.52,453,670.27Z"/><path class="cls-50" d="M363,367.57a2,2,0,0,1-1.5-2,8.59,8.59,0,0,0-.07-1.61c-1.93-.07-1.95-1.43-2.68-2.85-2.19-4.21-2.06-5.31,2.51-7,.31-.11.59-.29,1.26-.61-1.51-.57-2.63,0-3.74.1-2.06.16-3.94.27-4.1-2.69-.1-2-1.93-2.26-4.62-3,4.62,0,3.46-3,4.2-4.94-5.92,2.88-11.71,6.09-17.82,8.48-3,1.17-5.71,3.43-9.22,3.28-.68,0-1.47.18-1.16,1.2.17.52.68,1.4,1.11,1,2.35-2.21,4.57-.19,6.8.09,4.66.58,8.89-1.59,13.43-1.88,2.69-.17,5.33-.57,8.53,0-3.06,2.95-6.87,3.49-9.94,5.38-1.57,1-3.2,2.28-5.31,2.18-3-.15.85,2.28-1,2.61-1.15.21-2.68-.33-3.2,1.26s1.57,3.61,3.34,3.34c.52-.08,1-.64,1.59-.32,5.87,3.16,5.89,3.24,12.88,1.23C357.27,369.89,360.11,368.64,363,367.57Z"/><path class="cls-23" d="M353.66,542.27c-1.29,7.87-2.36,15.71.28,23.56.78,2.33,1.13,4.82,1.68,7.23,2,.34,3.5,1.18,3.26,3.49-.11,1.08.23,1.38,1.21,1.44.65,0,1.16.62.7,1.14-2.93,3.33.32,3.16,2.11,3.82-.66-6-1.13-12.05-2.06-18-.73-4.65.33-9.36-.95-14-.29-1-.13-2-1.41-2.29a1,1,0,0,1-.31-.13C358.89,544.85,353.64,545.45,353.66,542.27Z"/><path class="cls-51" d="M514.67,720.93c-5.09-14.37-11.38-28.11-20.86-40.2-1.25-1.6-1.57-3.87-3.57-4.92,2.72,5.41,5.37,10.85,8.18,16.21,4.53,8.61,9.15,17.17,13.76,25.74C512.82,719,513.24,720.35,514.67,720.93Z"/><path class="cls-49" d="M448.2,620.29c-.19-.57-.32-1.11-.53-1.63-.88-2-1.92-4-2.61-6.16-.35-1.06-.65-1.32-1.61-.89s-1.21,1-.6,1.88c1.51,2.09,1.78,4.83,3.58,6.79.3.33.4.83.95.65C447.66,620.84,447.88,620.55,448.2,620.29Z"/><path class="cls-41" d="M358.78,658c1.55-5.77-1.32-10.51-3.57-15.4Z"/><path class="cls-42" d="M469,615.83c-.39-1.1.2-2.73-1.32-3.47-.47-.23-1.29.37-1.13.95.35,1.24.15,2.84,1.63,3.51C468.69,617,468.92,616.45,469,615.83Z"/><path class="cls-41" d="M355.23,642.62c0-2.45-.12-4.83-2.33-6.47A17.41,17.41,0,0,0,355.23,642.62Z"/><path class="cls-3" d="M521.17,523.84c2.68,2.13,6.11,2.12,9.16,3.21C527.58,525.1,524.24,524.86,521.17,523.84Z"/><path class="cls-3" d="M544.05,531.75c2.42,2.16,5.68,2,8.48,3C550,532.89,546.87,532.78,544.05,531.75Z"/><path class="cls-23" d="M389.24,583.5a1.76,1.76,0,0,0-1.9,1c-.25.56.22,1,.77,1.26a1.21,1.21,0,0,0,1.71-.49A1.33,1.33,0,0,0,389.24,583.5Z"/><path class="cls-30" d="M433.71,583.05a4.69,4.69,0,0,0,1.72,3.36C435.43,585.11,435.73,583.69,433.71,583.05Z"/><path class="cls-28" d="M7.28,416.64l3.84,0c-.1-1.19-.19-2.37-.34-4.16l-3.5,4.11Z"/><path class="cls-15" d="M12.39,380.78c-1.41-.25-3,.5-4.24-1.53.14,2.59.14,2.59,3.86,2.85C12.13,381.66,12.26,381.22,12.39,380.78Z"/><path class="cls-20" d="M184.42,301.05q-1.84,7.74-3.71,15.48a5.56,5.56,0,0,1-.26,3.51c1.35-.62,1.09-2.07,1.6-3.13,1.24-5.9,4.37-11.19,5.53-17.11C186.59,300.39,186,302,184.42,301.05Z"/><path class="cls-8" d="M362.61,233.12c-.77-.37-1.72-1.22-1.92.1-.35,2.21,2.11,2.67,3.11,4.09.59.83,1.58-.34,1.69-.93C365.89,234.13,364.12,233.61,362.61,233.12Z"/><path class="cls-3" d="M267.87,489.35a1.56,1.56,0,0,0-1.25-1.87c-.76-.24-1.77-.49-1.94.6a1.83,1.83,0,0,0,1.53,2A1.47,1.47,0,0,0,267.87,489.35Z"/><path class="cls-14" d="M460.77,212.79c1.36,1.05,2.47,2.68,5,2.26C464.43,212.78,462.63,212.71,460.77,212.79Z"/><path class="cls-4" d="M45.3,309.24c-.5-.18-.91-.13-1.1.4-.28.81.25,1.26.83,1.63a.8.8,0,0,0,1.3-.49C46.55,310,45.74,309.68,45.3,309.24Z"/><path class="cls-41" d="M359.36,640.86a5.14,5.14,0,0,0,1.58,4.73c.83-1.74-.62-3-.9-4.55Z"/><path class="cls-52" d="M202.15,170.56c-3.27,2.76-4.94,6.56-6.48,10.26-5.89,14.19-14.2,26.86-23.32,39.1s-18.46,24.55-26.66,37.57-17,25.22-28.13,35.82c-8.35,7.92-14.76,17.52-21.1,27.09-4.31,6.52-9.78,12.15-14.36,18.46-8.87,12.24-18.34,24.14-24.62,38-3.43,7.56-3.9,16-4.75,24.18-1.15,11.13-2.52,22.23-3.85,33.33-1.13,9.45-3.8,18.6-5.58,27.91-1.47,7.64-4.2,14.69-7,21.79A28.84,28.84,0,0,0,35,489c6.59-13,10.62-26.73,13.86-40.89,2.49-10.86,3.3-21.91,5.34-32.8a176.83,176.83,0,0,0,2.75-20.7c.66-9.83,4.4-18.6,9.88-26.72,9.12-13.53,19.27-26.25,29.64-38.82a95.38,95.38,0,0,0,6.28-8.18A163.18,163.18,0,0,1,128.41,290c8.72-8.07,14.72-18.13,21-28,7.29-11.37,14.65-22.68,22.27-33.84,7.8-11.42,16-22.65,21.69-35.37C196.64,185.57,199.26,178,202.15,170.56Z"/><path class="cls-20" d="M142.41,335.11c.18-1.29.16-2.54-1.08-3.33-.51-.33-.84.11-1,.57-.45,1.74,1.43,1.79,2,2.75Z"/><path class="cls-26" d="M470.84,247.8c1.49-.59,3,.37,3.27-1.09.13-.72-.05-2.55-1.16-2.49C471.24,244.32,471.63,246.31,470.84,247.8Z"/><path class="cls-2" d="M282,342.12a2.09,2.09,0,0,0,2-1,1.05,1.05,0,0,0-.58-1.65c-.93-.32-1.49.32-1.78,1.13C281.46,341.16,281.29,341.75,282,342.12Z"/><path class="cls-2" d="M279.15,373.88c.7.18,1.42.3,1.63-.64a.94.94,0,0,0-.38-.8,1.6,1.6,0,0,0-1.86.45C278.23,373.32,278.7,373.69,279.15,373.88Z"/><path class="cls-4" d="M94.38,215.91c.26-.23.6-.41.75-.7,1-1.9,2.14-3.66,4.83-3.05-.9-.65-1.8-1.28-2.67-2-.49-.38-1.49-.55-1.45-.25.45,3.06-4,1.58-3.7,4,.07.72,1.47,1.3,2.25,1.95Z"/><path class="cls-18" d="M467.46,255a41.88,41.88,0,0,0,.82,4.63c.71,2.48,2.12.1,3.7.9-1.23-2.41-3.22-3.67-3-6,.05-.52-.81-.64-1.34-.15-.23.08-.34.21-.32.37S467.4,255,467.46,255Z"/><path class="cls-25" d="M467.46,255l.19-.64c-1.83-1.55-2.46.33-3,1.3s-1.36,2.49-.3,3.8a1.37,1.37,0,0,0,1.18.42,1.2,1.2,0,0,0,.82-1.63C465.49,256.68,466,255.71,467.46,255Z"/><path class="cls-25" d="M453.88,246.6a2.09,2.09,0,0,0-1.16-2.63,1.64,1.64,0,0,0-2.17,1.08c-.29,1.09.77,1.86,1.51,2.41C453,248.13,453.28,246.84,453.88,246.6Z"/><path class="cls-25" d="M450.94,250.34l-3,2.92c1.85-.67,2.86,1.15,4.11.18C453.82,252.06,450,251.8,450.94,250.34Z"/><path class="cls-25" d="M462.87,248.52c-.23-1.17-.58-1.41-1.08-1.4-.72,0-1.41.26-1.31,1.13,0,.25.68.57,1.06.58A4.42,4.42,0,0,0,462.87,248.52Z"/><path class="cls-15" d="M38.55,344.08c1.25-1.52,2.57-2.26,2.07-3.66-.32-.88-1.39-1-2.5-.73Z"/><path class="cls-15" d="M38.64,288a1.43,1.43,0,0,0-.69-1.72.83.83,0,0,0-1.3.57,1.71,1.71,0,0,0,1,1.67C38.06,288.8,38.45,288.53,38.64,288Z"/><path class="cls-2" d="M296.77,261.87c.84.16,1.83.73,2.21-.63.16-.58,0-1.29-.68-1.29-1.19,0-1.23,1.11-1.52,1.94Z"/><path class="cls-5" d="M490,705.34a3.37,3.37,0,0,0-2.43,1.85c0,.13.42.68.54.65C489.14,707.54,490.22,707.17,490,705.34Z"/><path class="cls-23" d="M194.26,281.63c2-2.22,1.91-5.23,2.89-7.82C195.09,276,195.22,279,194.26,281.63Z"/><path class="cls-27" d="M231.53,367.61c-.76-.69-1.07-1.85-2.24-2.09-.32,1.12-.62,2.27.73,2.94C230.83,368.86,231.25,368.3,231.53,367.61Z"/><path class="cls-21" d="M504.57,656.3c.3-.71.12-1.11-.31-1.33a1.24,1.24,0,0,0-1.7.62c-.34.52-.35,1.25.35,1.32S504.12,656.48,504.57,656.3Z"/></g></g></g></svg>